<?xml version="1.0" encoding="utf-8"?>
<!-- Generator: Adobe Illustrator 16.0.0, SVG Export Plug-In . SVG Version: 6.00 Build 0)  -->
<!DOCTYPE svg PUBLIC "-//W3C//DTD SVG 1.1//EN" "http://www.w3.org/Graphics/SVG/1.1/DTD/svg11.dtd">
<svg version="1.1"
	 id="Layer_1" xmlns:dc="http://purl.org/dc/elements/1.1/" xmlns:cc="http://creativecommons.org/ns#" xmlns:rdf="http://www.w3.org/1999/02/22-rdf-syntax-ns#" xmlns:svg="http://www.w3.org/2000/svg" xmlns:sodipodi="http://sodipodi.sourceforge.net/DTD/sodipodi-0.dtd" xmlns:inkscape="http://www.inkscape.org/namespaces/inkscape" sodipodi:docname="notice_of_meeting_2006.svg" inkscape:version="0.46" sodipodi:version="0.32" inkscape:output_extension="org.inkscape.output.svg.inkscape"
	 xmlns="http://www.w3.org/2000/svg" xmlns:xlink="http://www.w3.org/1999/xlink" x="0px" y="0px" width="390.527px"
	 height="65.852px" viewBox="0 0 390.527 65.852" enable-background="new 0 0 390.527 65.852" xml:space="preserve">
<defs>
	
	
		<inkscape:perspective  inkscape:persp3d-origin="297.638 : 280.63033 : 1" inkscape:vp_z="595.276 : 420.9455 : 1" inkscape:vp_x="0 : 420.9455 : 1" sodipodi:type="inkscape:persp3d" inkscape:vp_y="0 : 1000 : 0" id="perspective4207">
		</inkscape:perspective>
</defs>
<sodipodi:namedview  inkscape:current-layer="Layer_1" inkscape:window-y="-4" inkscape:window-x="-4" inkscape:pageopacity="0.0" inkscape:pageshadow="2" inkscape:window-width="1280" inkscape:window-height="978" inkscape:cy="37.277891" inkscape:cx="73.791107" inkscape:zoom="4.390117" showgrid="false" pagecolor="#ffffff" bordercolor="#666666" borderopacity="1.0" objecttolerance="10.0" gridtolerance="10.0" guidetolerance="10.0" id="base">
	</sodipodi:namedview>
<path id="path4050_1_" fill="#FFFFFF" d="M28.422,0.063c-1.743,0-2.103,0.304-2.668,0.935c-0.222-0.015-0.455-0.019-0.698-0.019
	c-1.34,0-3.062,0.197-4.53,1.179c-1.418,0.936-2.092,2.593-1.336,3.805c0,0,0.507-0.743,2.174-0.743
	c0.235,0,0.495,0.025,0.771,0.048c2.304,0.272,4.008,1.485,3.801,4.688c-0.185,3.2-1.384,6.769-6.293,6.811c0,0-0.633,0-1.307-0.062
	c-2.285-0.25-3.003-1.684-3.003-1.684s1.975-0.536,1.992-3.043c-0.017-1.705-1.501-3.265-3.644-3.896
	c-0.702-0.205-1.472-0.306-2.274-0.306c-2.526,0-5.362,1.058-7.274,3.554c-4.335,5.724-4.687,14.068-3.629,21.828
	c1.064,7.776,5.996,14.979,6.141,15.176c0.105,0.138,0.199,0.214,0.306,0.214c0.055,0,0.111-0.025,0.17-0.074
	c2.13-2.066,4.162-4.893,5.031-6.781c0.93,0.742,0.444,2.318-0.067,4.002c-0.486,1.723-1.667,4.008-2.094,4.744
	c-0.413,0.721-0.965,1.559-0.222,1.996c0.076,0.047,0.172,0.071,0.287,0.071c0.955,0,3.202-1.665,5.709-5.007
	c2.806-3.762,4.23-7.101,4.23-7.101c0.205,0.046,0.549,0.394,0.492,1.341c-0.038,0.961-1.026,4.538-2.951,7.868
	c-1.945,3.327-3.743,5.409-4.105,5.883c-0.224,0.274-0.033,0.446,0.111,0.558c0.142,0.096,3.583,3.309,8.583,6.023
	c5.923,3.156,8.549,3.723,8.549,3.723s2.62-0.553,8.543-3.707c4.996-2.718,8.452-5.945,8.58-6.055
	c0.145-0.098,0.328-0.253,0.111-0.555c-0.342-0.452-2.145-2.545-4.086-5.873c-1.919-3.307-2.945-6.906-2.96-7.855
	c-0.04-0.957,0.282-1.273,0.479-1.354c0,0,1.439,3.359,4.245,7.101c2.52,3.347,4.746,5.008,5.705,5.008
	c0.122,0,0.218-0.025,0.298-0.071c0.721-0.438,0.184-1.288-0.239-2c-0.394-0.732-1.591-3.004-2.101-4.74
	c-0.488-1.702-0.994-3.277-0.048-4.002c0.871,1.889,2.888,4.729,5.024,6.768c0.057,0.059,0.121,0.088,0.184,0.088
	c0.095,0,0.195-0.074,0.283-0.201c0.157-0.209,5.098-7.4,6.153-15.188c1.06-7.776,0.71-16.102-3.63-21.828
	c-1.899-2.503-4.756-3.566-7.299-3.566c-0.793,0-1.552,0.103-2.244,0.301c-2.16,0.649-3.639,2.224-3.626,3.913
	c0,2.507,1.985,3.043,1.985,3.043s-0.664,1.399-3.03,1.684c-0.442,0.055-0.872,0.08-1.282,0.08c-1.779,0-3.279-0.565-4.662-2.517
	c-1.34-1.879-1.296-5.747-1.373-7.037c-0.062-1.309-0.342-4.245-1.718-5.443c-1.372-1.229-3.044-1.642-5.127-1.724
	C28.686,0.063,28.55,0.063,28.422,0.063"/>
<path id="path21" fill="#FFFFFF" d="M388.355,19.119c-2.086-3.781-6.583-6.648-11.467-6.648c-4.296,0-8.074,1.759-8.074,6.321
	c0,3.841,4.757,6.446,9.708,9.641c5.403,3.386,11.008,7.552,11.008,14.787c0,9.445-9.185,15.24-19.803,15.24
	c-4.364,0-8.922-0.846-14.067-2.801l0.844-12.572c2.478,5.02,7.104,8.99,13.938,8.99c5.277,0,9.184-2.539,9.184-6.971
	c0-3.777-3.194-6.121-7.098-8.465c-8.21-4.95-13.417-8.926-13.417-16.09c0-10.75,8.987-14.331,18.301-14.331
	c5.403,0,8.794,0.978,12.243,0.978L388.355,19.119 M342.828,30.385c-1.178,1.955-2.668,4.622-3.586,6.581
	c-0.779,3.711-1.171,8.664-1.171,14.133c0,2.281,0.392,5.34,1.433,6.383h-13.611c2.406-2.277,3.387-16.279,3.259-20.711
	c-1.824-6.317-4.304-12.375-8.08-19.737c-2.404-4.623-5.208-8.991-6.968-9.835c3.06-0.258,6.968-0.455,8.859-0.455
	c3.385,0,4.3,0.455,6.386,5.016c3.25,7.362,5.661,12.893,7.096,17c3.453-5.408,5.862-9.119,8.989-14.2
	c0.781-1.238,1.432-2.8,1.432-4.3c0-1.175-0.196-2.476-0.716-3.062h13.483C357.027,7.784,345.301,26.219,342.828,30.385
	 M295.475,18.991L287.4,36.508h13.154L295.475,18.991 M311.304,57.936c-4.302,0-4.624-0.127-8.078-11.982l-1.235-4.363
	c-2.082,0.975-5.8,1.432-11.725,1.432h-5.992l-1.043,2.215c-1.497,3.324-3.516,7.227-3.516,9.969c0,0.65,0.064,1.365,0.326,2.277
	h-35.564c2.021-2.277,2.672-9.637,3.648-22.994l0.195-3.189c0.521-7.622,0.917-13.483,0.848-17.585
	c-0.064-3.386-0.392-5.537-1.303-6.513h13.746c-1.957,1.5-2.676,9.573-3.584,22.929l-0.262,3.189
	c-0.327,4.952-0.977,10.03-0.977,14.981c0,2.277,0.912,2.799,3.26,2.799c8.333,0,10.421-0.195,14.195-2.734
	c2.344-4.301,5.018-9.709,7.619-15.309l3.522-7.489c3.319-7.034,6.574-14.202,6.574-15.567c0-0.98-0.26-1.889-0.647-2.802h10.941
	c0,0,4.428,16.416,5.405,19.929l2.146,7.95c3.712,13.354,6.06,19.865,9.187,22.404C316.383,57.809,312.671,57.936,311.304,57.936
	 M222.66,58.459c-12.963,0-20.454-10.682-20.454-22.666c0-16.672,9.052-29.574,26.313-29.574c5.406,0,7.948,0.978,12.309,0.978
	l-1.301,12.832c-2.475-4.494-6.516-7.556-11.918-7.556c-10.746,0-15.111,11.597-15.111,21.562c0,10.811,6.059,16.736,14.133,16.736
	c4.364,0,8.205-1.174,14.656-5.666C238.682,53.446,232.623,58.459,222.66,58.459 M177.719,13.322c-1.237,0-2.739,0-3.908,0.13
	c-0.391,2.148-0.718,5.862-1.175,11.852l-0.262,3.521c0.655,0.132,1.499,0.199,2.283,0.199c6.249,0,10.552-3.783,10.552-9.511
	C185.209,15.6,182.473,13.322,177.719,13.322 M195.888,59.633c-3.712,0-4.624-0.59-5.86-2.283l-14.07-19.541
	c-1.107-1.498-1.953-2.734-3.711-2.734h-0.326l-0.258,3.777c-0.328,5.146-0.523,9.254-0.523,12.312
	c0.064,3.387,0.457,5.469,1.369,6.316h-13.613c1.952-1.758,2.666-7.621,3.776-22.994l0.196-3.19
	c0.522-7.554,0.914-13.418,0.847-17.519c-0.067-3.583-0.454-5.799-1.435-6.581c7.752,0,18.562,0,18.562,0
	c6.057,0,14.395,1.045,14.395,10.878c0,8.074-5.408,12.506-12.113,14.587c0.65,0.589,1.821,2.085,2.54,3l10.225,13.549
	c6.384,8.402,6.903,8.791,9.186,9.965C202.206,59.5,198.365,59.633,195.888,59.633 M132.453,18.991l-8.146,17.517h13.222
	L132.453,18.991 M148.276,57.936c-4.296,0-4.622-0.127-8.073-11.982l-1.238-4.363c-2.088,0.975-5.799,1.432-11.727,1.432h-5.992
	l-1.041,2.215c-1.043,2.348-3.582,7.168-3.518,9.969c0,0.65,0.064,1.303,0.326,2.277h-12.049
	c3.451-3.451,7.816-11.461,13.873-24.424l3.52-7.489c3.189-6.772,6.578-14.459,6.578-15.567c0-0.98-0.258-1.89-0.652-2.803h10.945
	c0,0,2.861,10.878,5.404,19.93l2.148,7.949c3.713,13.354,6.057,19.865,9.184,22.404C153.164,57.809,149.646,57.936,148.276,57.936
	 M86.269,13.257c-0.979,0-2.279,0-3.517,0.132c-0.521,3.517-0.848,6.902-1.106,10.614c0,0-0.197,3.19-0.197,3.06h1.303
	C89.136,27.062,95,24.85,95,18.991C95,15.6,92.198,13.257,86.269,13.257 M84.644,33.187h-3.582l-0.521,7.425
	c-0.259,3.258-0.392,5.992-0.457,9.248c0,0.459,1.433,1.436,4.817,1.436c7.035,0,11.661-3.518,11.661-9.316
	C96.562,35.53,91.285,33.187,84.644,33.187 M85.425,57.481H67.838c2.216-1.955,2.802-9.574,3.778-22.994l0.195-3.125
	c0.523-7.621,0.913-13.483,0.848-17.584c-0.065-3.519-0.457-5.799-1.435-6.581h19.67c4.689,0,14.07,0.262,14.07,10.03
	c0,6.514-6.059,10.552-11.594,11.988c7.817,0.781,13.678,4.558,13.678,12.634C107.047,50.577,98.842,57.481,85.425,57.481"/>
</svg>
