<?xml version="1.0" encoding="utf-8"?>
<!-- Generator: Adobe Illustrator 16.0.0, SVG Export Plug-In . SVG Version: 6.00 Build 0)  -->
<!DOCTYPE svg PUBLIC "-//W3C//DTD SVG 1.1//EN" "http://www.w3.org/Graphics/SVG/1.1/DTD/svg11.dtd">
<svg version="1.1" id="Layer_1" xmlns="http://www.w3.org/2000/svg" xmlns:xlink="http://www.w3.org/1999/xlink" x="0px" y="0px"
	 width="613.354px" height="250.914px" viewBox="0 0 613.354 250.914" enable-background="new 0 0 613.354 250.914"
	 xml:space="preserve">
<g>
	<path fill-rule="evenodd" clip-rule="evenodd" fill="#FFFFFF" d="M275.115,165.12c-6.104,26.902-0.394,55.556-21.868,76.504
		c4.753-24.604,11.078-48.874,9.968-74.894c-30.553,0.575-58.946,7.287-87.447,13.791c-23.851,5.44-47.875,10.254-71.987,14.374
		c-17.935,3.063-35.524-0.268-52.205-7.307c-18.976-8.01-33.038-21.374-40.874-40.619C-1.522,116.942-3.895,86.228,6.82,55.363
		C19.546,18.703,51.801-2.609,89.045,0.256c13.442,1.035,25.527,5.657,33.711,16.876c2.159,2.961,3.322,8.585,1.936,11.608
		c-1.197,2.614-6.662,3.271-10.505,4.91C109.31,13.937,103.019,9.117,83.961,8.996C48.764,8.771,20.945,32.833,12.788,70.713
		c-4.555,21.151-3.33,42.159,2.971,62.744c9.535,31.149,34.431,50.803,67.227,51.657c15.756,0.409,31.985-0.271,47.31-3.618
		c44.059-9.625,87.357-22.892,133.455-25.046c0-19.4,0-37.515,0-56.12c-3.696,0-6.247,0-9.135,0c0.502-1.87,0.523-3.415,1.258-4.456
		c9.794-13.915,23.683-17.488,39.472-14.431c13.954,2.705,25.95,16.557,28.429,31.389c3.63,21.702-11.887,37.63-35.348,36.164
		c-4.154-0.26-8.28-1.001-12.447-1.522c-2.924,8.581,2.177,8.285,7.181,8.282c16.358-0.017,32.741-0.527,49.071,0.161
		c65.125,2.738,128.995,13.639,191.829,30.727c7.11,1.935,12.901,2.619,20.144-1.332c16.562-9.035,50.402-1.359,63.027,12.702
		c5.685,6.332,7.14,13.856,5.481,21.544c-2.181,10.104-5.65,19.934-8.998,31.355c-20.896-9.025-40.717-17.354-60.327-26.146
		c-10.723-4.809-12.98-14.538-12.111-26.369C447.387,175.63,362.947,161.837,275.115,165.12z M275.057,134.503
		c15.201,6.864,28.305,5.686,35.231-2.722c6.279-7.623,5.498-20.361-1.898-30.903c-8.38-11.944-19.013-14.555-36.581-8.354
		C272.854,106.025,273.922,119.83,275.057,134.503z M595.875,237.125c13.732-26.888,9.886-35.898-18.025-43.146
		c-4.885,9.171-9.916,18.624-15.539,29.187C574.26,228.134,584.708,232.48,595.875,237.125z"/>
	<path fill-rule="evenodd" clip-rule="evenodd" fill="#FFFFFF" d="M410.067,123.677c-2.823,16.972-6.405,21.902-23.358,24.034
		c-12.656,1.591-25.766,0.72-38.56-0.375c-7.637-0.651-14.796-4.211-18.884-14.854c4.202-0.584,9.727-2.753,10.943-1.304
		c10.517,12.527,24.479,8.935,37.523,8.619c5.571-0.136,11.381-1.978,16.494-4.32c2.354-1.081,4.689-5.354,4.479-7.968
		c-0.202-2.484-3.322-5.81-5.906-6.779c-4.385-1.647-9.391-1.557-14.074-2.507c-10.769-2.188-22.193-2.958-32.088-7.231
		c-16.313-7.042-21.125-25.165-12.495-40.072c7.657-13.224,26.788-17.776,40.69-9.679c10.458,6.089,14.307,19.75,8.462,30.035
		c-4.542,7.99-8.798,7.821-15.197-0.634c0.421-0.821,0.72-1.76,1.296-2.476c2.744-3.416,8.573-8.526,7.812-9.832
		c-2.629-4.512-6.956-9.346-11.711-11.038c-10.846-3.861-21.08,1.751-24.488,11.715c-3.769,11.013,0.734,21.679,12.488,25.196
		c10.021,3.001,20.688,4.411,31.167,5.164c11.364,0.815,20.178,4.763,25.86,14.843L410.067,123.677z"/>
	<path fill-rule="evenodd" clip-rule="evenodd" fill="#FFFFFF" d="M201.742,141.789c-0.479-4.242-1.164-8.47-1.397-12.723
		c-0.498-9.075,0.24-18.348-1.385-27.201c-1.905-10.378-9.882-14-19.558-10.694c-6.21,2.121-9.108,5.821-8.705,12.874
		c0.629,10.999,0.286,22.057,0.238,33.093c-0.011,2.862-0.024,5.865-0.894,8.522c-0.426,1.303-2.888,2.786-4.305,2.671
		c-1.386-0.113-3.517-2.012-3.734-3.376c-0.519-3.258-0.027-6.667-0.079-10.012c-0.141-9.112,0.251-18.289-0.714-27.319
		c-0.907-8.5-3.273-16.843-5.072-25.622c0.076-0.053,0.96-1.167,1.582-1.035c4.625,0.976,9.212,3.15,13.785,3.088
		c5.107-0.073,10.244-3.249,15.263-2.992c5.945,0.302,11.777,2.826,19.028,4.75c25.709-11.431,41.984-1.306,42.743,28.763
		c0.297,11.796-0.415,23.642-9.865,34.045c-0.171-5.321-0.347-10.644-0.512-15.965c-0.279-9.073,0.457-18.34-1.22-27.147
		c-0.948-4.98-4.941-10.844-9.267-13.267c-3.584-2.005-10.28-0.75-14.406,1.376c-2.425,1.247-3.37,6.986-3.499,10.756
		c-0.31,9.067,0.642,18.182,0.27,27.24c-0.148,3.607-2.449,7.127-3.769,10.686C204.761,142.129,203.252,141.96,201.742,141.789z"/>
	<path fill-rule="evenodd" clip-rule="evenodd" fill="#FFFFFF" d="M111.305,71.904c23.009,0.051,41.174,17.648,40.78,39.517
		c-0.382,21.301-18.46,38.589-40.442,38.673c-22.346,0.085-41.337-18.362-40.957-39.787C71.063,89.104,89.304,71.858,111.305,71.904
		z M111.955,81.171c-16.058-0.276-30.437,13.74-30.65,29.875c-0.205,15.46,13.297,29.172,29.222,29.677
		c16.143,0.514,31.183-13.385,31.52-29.122C142.386,95.734,128.264,81.453,111.955,81.171z"/>
	<path fill-rule="evenodd" clip-rule="evenodd" fill="#FFFFFF" d="M410.521,124.213c0.239-4.284,0.133-8.625,0.781-12.846
		c2.888-18.825,21.246-32.421,39.479-29.446c20.675,3.376,33.268,20.449,29.584,40.115c-2.483,13.269-12.75,23.552-26.974,26.445
		c-14.491,2.949-26.393-1.785-35.549-13.244c-2.889-3.618-5.2-7.693-7.776-11.56L410.521,124.213z M446.045,140.561
		c13.57-0.053,24.96-11.086,25.211-24.42c0.262-13.946-11.638-25.636-25.712-25.252c-13.551,0.37-24.279,11.495-24.279,25.182
		C421.265,129.642,432.368,140.618,446.045,140.561z"/>
	<path fill-rule="evenodd" clip-rule="evenodd" fill="#FFFFFF" d="M565.309,137.152c-15.097,15.37-52.965,15.892-66.872,5.998
		c-15.17-10.792-17.681-33.594-4.68-48.287c10.107-11.422,33.104-15.88,46.584-8.917c2.091,1.08,4.814,2.363,5.58,4.233
		c1.059,2.589,1.755,6.653,0.429,8.599c-2.381,3.489-5.938,3.646-9.527-0.028c-9.146-9.366-15.151-10.313-26.104-4.989
		c-9.675,4.701-16.008,15.663-14.932,25.847c1.032,9.775,7.376,17.967,18.183,19.564c10.754,1.59,21.875,1.029,32.822,0.807
		C552.178,139.868,557.537,138.393,565.309,137.152z"/>
</g>
</svg>
