<?xml version="1.0" encoding="utf-8"?>
<!-- Generator: Adobe Illustrator 16.0.0, SVG Export Plug-In . SVG Version: 6.00 Build 0)  -->
<!DOCTYPE svg PUBLIC "-//W3C//DTD SVG 1.1//EN" "http://www.w3.org/Graphics/SVG/1.1/DTD/svg11.dtd">
<svg version="1.1" id="Layer_1" xmlns="http://www.w3.org/2000/svg" xmlns:xlink="http://www.w3.org/1999/xlink" x="0px" y="0px"
	 width="477.72px" height="127.496px" viewBox="0 0 477.72 127.496" enable-background="new 0 0 477.72 127.496"
	 xml:space="preserve">
<g>
	<path fill-rule="evenodd" clip-rule="evenodd" fill="#FFFFFF" d="M238.785,93.948c-77.5,0-155,0-232.5,0c-0.667,0-1.333,0-2,0
		c-3.617-0.004-5.183-2.304-3.77-5.652c0.168-0.4,0.821-0.747,1.3-0.831c0.81-0.143,1.66-0.062,2.493-0.062
		c156.5-0.001,312.999-0.003,469.499,0.026c1.248,0,3.351,0.095,3.574,0.696c0.546,1.467,0.291,3.261,0.185,4.912
		c-0.021,0.317-0.81,0.767-1.289,0.835c-0.981,0.14-1.994,0.074-2.993,0.074C395.118,93.948,316.952,93.948,238.785,93.948z"/>
	<path fill-rule="evenodd" clip-rule="evenodd" fill="#FFFFFF" d="M306.864,0c5.366,0.479,10.836,0.454,16.077,1.538
		c11.5,2.378,14.517,9.326,14.022,21.436c-0.105,2.565-2.159,3.936-4.689,3.825c-2.075-0.09-3.598-1.695-3.868-4.138
		c-0.155-1.404-0.226-2.818-0.368-4.224c-0.605-6-2.863-8.423-8.822-8.709c-7.476-0.359-14.968-0.499-22.453-0.51
		c-4.82-0.008-7.809,2.518-9.265,7.233c-1.26,4.084,0.007,9.968,3.276,11.768c2.437,1.339,5.492,1.637,8.315,2.17
		c7.649,1.445,15.33,2.729,22.984,4.152c10.399,1.934,16.704,11.859,14.835,23.248c-1.657,10.089-8.3,15.862-18.582,15.857
		c-7.231-0.004-14.476-0.112-21.69-0.561c-3.001-0.187-6.046-1.097-8.884-2.17c-6.69-2.528-8.608-8.294-9.273-14.713
		c-0.162-1.568-0.103-3.165-0.059-4.745c0.076-2.776,1.482-4.339,3.963-4.511c2.462-0.17,4.352,1.462,4.696,4.138
		c0.116,0.904,0.067,1.83,0.084,2.746c0.126,7.12,3.204,10.337,10.347,10.594c6.65,0.239,13.305,0.417,19.958,0.484
		c7.569,0.077,11.968-5.116,10.872-12.667c-0.107-0.74-0.213-1.492-0.438-2.2c-1.205-3.781-2.28-6.445-7.897-7.393
		c-8.98-1.515-17.935-3.216-26.849-5.083c-6.353-1.331-11.981-3.985-13.83-10.991c-1.937-7.339-1.599-14.434,3.804-20.387
		c3.751-4.132,8.911-5.299,14.204-5.709c3.147-0.244,6.328-0.044,9.493-0.044C306.839,0.29,306.851,0.145,306.864,0z"/>
	<path fill-rule="evenodd" clip-rule="evenodd" fill="#FFFFFF" d="M152.158,15.82c0,1.411,0,2.21,0,3.01
		c0,16.494,0.004,32.988-0.004,49.482c-0.001,3.118-0.992,4.716-3.181,5.254c-2.396,0.588-4.499-0.624-5.183-3.058
		c-0.199-0.709-0.285-1.472-0.285-2.21c-0.015-20.826-0.023-41.652-0.003-62.478c0.004-4.096,2.164-6.339,5.312-5.22
		c1.497,0.532,2.883,1.96,3.844,3.318c6.105,8.628,12.076,17.351,18.096,26.04c0.422,0.608,0.876,1.194,1.455,1.979
		c0.487-0.591,0.913-1.04,1.263-1.542c6.042-8.67,12.059-17.359,18.131-26.008c0.849-1.209,1.815-2.44,2.995-3.289
		c2.331-1.677,5.322-0.539,6.187,2.188c0.198,0.623,0.32,1.299,0.32,1.951c0.017,21.159,0.024,42.318,0.002,63.477
		c-0.003,2.884-1.337,4.587-3.627,4.919c-2.957,0.429-4.983-1.393-5.018-4.721c-0.063-6.247-0.021-12.495-0.021-18.743
		c0-11.226,0-22.451,0-34.397c-2.052,2.977-3.733,5.396-5.393,7.829c-3.518,5.156-7.013,10.327-10.541,15.477
		c-2.539,3.706-5.828,3.707-8.376-0.011c-4.752-6.932-9.471-13.886-14.209-20.827C153.473,17.586,152.987,16.957,152.158,15.82z"/>
	<path fill-rule="evenodd" clip-rule="evenodd" fill="#FFFFFF" d="M72.813,37.109c0.376-5.877,0.207-11.854,1.248-17.612
		c1.89-10.456,11.25-18.134,21.903-19.088c5.454-0.488,10.776-0.229,15.966,1.553c9.113,3.127,15.827,11.528,16.159,21.091
		c0.331,9.547,0.564,19.15-0.098,28.664c-0.651,9.355-5.984,16.203-14.68,19.762c-8.562,3.504-17.478,3.484-25.927-0.335
		C77.671,66.752,73.442,58.538,73.18,48.12c-0.092-3.661-0.015-7.326-0.015-10.99C73.048,37.124,72.931,37.116,72.813,37.109z
		 M119.531,37.054c-0.018,0-0.037,0-0.055,0c0-4.33,0.214-8.673-0.049-12.987c-0.426-7.008-4.697-12.301-11.513-13.963
		c-3.25-0.792-6.74-0.977-10.103-0.866c-8.391,0.278-15.041,5.943-15.53,14.034c-0.551,9.115-0.46,18.304-0.028,27.432
		c0.322,6.798,4.971,11.776,11.622,13.281c3.116,0.705,6.423,1.028,9.61,0.868c9.476-0.476,15.374-6.349,16.002-15.81
		C119.751,45.063,119.531,41.052,119.531,37.054z"/>
	<path fill-rule="evenodd" clip-rule="evenodd" fill="#FFFFFF" d="M349.329,37.286c0.379-5.961,0.208-12.021,1.257-17.861
		c1.848-10.291,10.481-17.636,21.968-18.993c5.446-0.644,10.833-0.369,15.95,1.581c9.663,3.682,15.48,10.757,16.062,21.118
		c0.534,9.528,0.607,19.147-0.066,28.659c-0.654,9.244-5.929,16.046-14.513,19.619c-8.637,3.594-17.627,3.576-26.152-0.297
		c-9.706-4.41-13.897-12.649-14.141-23.063c-0.084-3.579-0.014-7.16-0.014-10.74C349.562,37.3,349.446,37.292,349.329,37.286z
		 M396.026,37.263c-0.013,0-0.024,0-0.037,0c0-4.414,0.22-8.84-0.051-13.237c-0.431-7.023-4.691-12.269-11.549-13.934
		c-3.251-0.79-6.742-0.974-10.104-0.852c-8.404,0.305-15.019,5.979-15.495,14.073c-0.536,9.116-0.46,18.305-0.016,27.432
		c0.331,6.799,4.98,11.733,11.654,13.255c3.034,0.693,6.27,1.069,9.36,0.849c9.434-0.675,15.549-5.862,16.193-15.598
		C396.246,45.271,396.026,41.26,396.026,37.263z"/>
	<path fill-rule="evenodd" clip-rule="evenodd" fill="#FFFFFF" d="M418.883,36.807c0-6.241-0.368-12.51,0.084-18.719
		c0.726-9.958,5.525-15.225,15.449-15.998c10.163-0.792,20.413-0.611,30.625-0.573c3.356,0.013,6.289,1.903,7.215,5.235
		c0.933,3.363,1.303,6.952,1.386,10.454c0.054,2.251-1.901,3.511-4.105,3.449c-2.142-0.061-3.763-1.481-4.101-3.619
		c-0.091-0.574-0.119-1.157-0.183-1.736c-0.547-4.979-0.752-5.164-5.858-5.161c-6.33,0.004-12.661-0.042-18.99,0.062
		c-2.058,0.034-4.148,0.296-6.154,0.757c-4.451,1.022-6.16,3.028-6.604,7.555c-0.227,2.313-0.385,4.646-0.373,6.969
		c0.05,9.738,0.037,19.479,0.328,29.211c0.161,5.374,1.936,7.231,7.141,8.345c2.26,0.483,4.594,0.808,6.9,0.85
		c6.411,0.118,12.826,0.07,19.24,0.047c3.096-0.011,3.948-0.836,4.27-3.939c0.112-1.075,0.103-2.174,0.326-3.226
		c0.457-2.146,1.891-3.226,4.061-3.333c2.271-0.112,3.723,1.049,4.124,3.178c0.778,4.13,0.195,8.149-1.874,11.818
		c-1.657,2.938-4.498,4.183-7.736,4.217c-8.078,0.083-16.164,0.19-24.234-0.084c-3.348-0.114-6.725-0.953-9.981-1.853
		c-7.11-1.962-10.461-7.182-10.832-14.186c-0.348-6.556-0.074-13.146-0.074-19.721C418.916,36.808,418.9,36.808,418.883,36.807z"/>
	<path fill-rule="evenodd" clip-rule="evenodd" fill="#FFFFFF" d="M6.191,36.851c0-6.66-0.519-13.371,0.125-19.968
		C7.221,7.613,11.401,3.398,21.128,2.21c9.609-1.174,19.421-1.016,29.136-0.881c8.386,0.116,9.682,4.724,10.75,10.637
		c0.277,1.535,0.199,3.167,0.062,4.736c-0.217,2.468-1.747,3.876-4.019,3.952c-2.161,0.073-3.971-1.365-4.471-3.579
		c-0.091-0.402-0.096-0.826-0.122-1.241c-0.351-5.507-0.545-5.698-5.997-5.694c-6.25,0.004-12.5-0.03-18.749,0.055
		c-1.985,0.027-3.999,0.218-5.942,0.617c-4.795,0.983-7.039,3.729-7.09,9.083c-0.11,11.416-0.129,22.833,0.007,34.248
		c0.069,5.722,2.714,8.829,8.409,9.173c8.633,0.522,17.303,0.483,25.958,0.583c2.226,0.025,3.183-1.515,3.351-3.589
		c0.093-1.16-0.021-2.361,0.24-3.479c0.512-2.192,1.935-3.397,4.286-3.404c2.436-0.007,3.792,1.388,4.076,3.571
		c0.516,3.948,0.036,7.834-1.939,11.371c-1.658,2.97-4.479,4.232-7.709,4.272c-8.166,0.1-16.337,0.164-24.497-0.069
		c-3.111-0.09-6.284-0.743-9.278-1.641C9.896,68.626,6.112,63.223,5.957,54.601c-0.107-5.914-0.021-11.833-0.021-17.75
		C6.021,36.851,6.106,36.851,6.191,36.851z"/>
	<path fill-rule="evenodd" clip-rule="evenodd" fill="#FFFFFF" d="M227.168,37.103c-0.06,1.27-0.144,2.244-0.145,3.217
		c-0.011,9.332,0.014,18.663-0.02,27.995c-0.013,3.697-1.469,5.369-4.466,5.345c-2.339-0.019-3.924-1.462-4.111-3.783
		c-0.054-0.662-0.025-1.332-0.025-1.998c-0.001-20.496-0.001-40.993,0-61.488c0.001-4.748,1.122-5.916,5.886-5.861
		c8.573,0.099,17.148,0.192,25.717,0.462c2.377,0.075,4.797,0.547,7.089,1.208c8.886,2.563,12.674,7.589,11.882,18.588
		c-0.674,9.367-6.818,15.254-16.217,15.831c-7.466,0.458-14.968,0.347-22.454,0.483C229.328,37.119,228.352,37.103,227.168,37.103z
		 M227.033,9.335c0,6.178-0.046,11.659,0.074,17.135c0.012,0.525,1.061,1.478,1.62,1.472c8.139-0.091,16.289-0.111,24.411-0.576
		c4.862-0.278,7.131-3.194,7.264-8.116c0.145-5.374-1.898-8.569-6.871-8.942C244.86,9.658,236.143,9.635,227.033,9.335z"/>
	<path fill-rule="evenodd" clip-rule="evenodd" fill="#FFFFFF" d="M231.175,115.806c1.441-2.049,2.66-3.927,4.049-5.666
		c0.409-0.513,1.304-0.637,1.977-0.939c-0.056,0.738,0.016,1.518-0.206,2.201c-0.196,0.604-0.673,1.144-1.107,1.643
		c-2.785,3.204-4.367,6.764-3.704,11.147c0.104,0.685-0.591,1.49-0.917,2.24c-0.423-0.758-1.266-1.555-1.201-2.27
		c0.369-4.076-0.529-7.589-3.266-10.796c-1.309-1.534-2.236-2.867-4.485-2.205c-0.68,0.2-1.468,0.031-2.572,0.031
		c0,3.979,0,7.782,0,11.584c0,0.665,0.133,1.369-0.042,1.986c-0.171,0.602-0.657,1.114-1.005,1.666
		c-0.398-0.616-1.121-1.222-1.142-1.851c-0.116-3.408-0.058-6.822-0.06-10.234c0-0.975,0-1.95,0-3.153
		c-1.135,0-1.969,0.117-2.75-0.038c-0.608-0.121-1.149-0.58-1.72-0.889c0.531-0.406,1.051-1.145,1.596-1.163
		c2.907-0.102,5.847,0.227,8.726-0.07c3.42-0.354,4.557,2.016,5.994,4.215C229.838,114.005,230.397,114.725,231.175,115.806z"/>
	<path fill-rule="evenodd" clip-rule="evenodd" fill="#FFFFFF" d="M450.828,110.983c-1.518,0.107-3.071,0.218-5.072,0.359
		c0,3.184,0,6.387-0.001,9.59c0,1.331,0.084,2.672-0.048,3.99c-0.054,0.528-0.586,1.009-0.9,1.512
		c-0.427-0.503-1.194-0.986-1.223-1.511c-0.136-2.489-0.072-4.989-0.076-7.486c-0.003-1.979,0-3.96,0-6.248
		c-1.14,0-2.04,0.099-2.905-0.036c-0.552-0.085-1.05-0.516-1.572-0.792c0.502-0.438,0.989-1.232,1.507-1.252
		c2.907-0.112,5.848,0.216,8.727-0.086c4.199-0.441,4.996,3.085,6.9,5.361c0.309,0.369,0.568,0.777,1.036,1.423
		c1.397-2,2.601-3.864,3.969-5.597c0.422-0.534,1.293-0.713,1.959-1.055c-0.058,0.794,0.031,1.638-0.215,2.367
		c-0.229,0.68-0.756,1.294-1.256,1.842c-2.787,3.057-3.945,6.585-3.467,10.729c0.084,0.727-0.687,1.552-1.063,2.332
		c-0.372-0.724-1.161-1.52-1.051-2.16C457.026,118.728,454.192,114.744,450.828,110.983z"/>
	<path fill-rule="evenodd" clip-rule="evenodd" fill="#FFFFFF" d="M139.677,120.693c0-3.149-0.068-6.301,0.049-9.445
		c0.028-0.756,0.673-1.488,1.035-2.23c0.416,0.777,1.169,1.546,1.19,2.334c0.118,4.318,0.096,8.643,0.014,12.963
		c-0.014,0.714-0.565,1.418-0.868,2.127c-0.621-0.451-1.403-0.785-1.832-1.376c-1.267-1.743-2.39-3.59-3.576-5.392
		c-1.183-1.798-2.375-3.588-4.035-5.339c0,1.752,0.002,3.504,0,5.257c-0.003,1.828,0.065,3.662-0.067,5.481
		c-0.034,0.468-0.704,0.889-1.082,1.331c-0.346-0.396-0.988-0.788-0.994-1.189c-0.07-4.984-0.065-9.972-0.017-14.958
		c0.004-0.399,0.606-1.167,0.693-1.134c0.638,0.241,1.42,0.501,1.78,1.018c1.896,2.725,3.676,5.529,5.505,8.301
		c0.537,0.814,1.1,1.611,1.65,2.416C139.309,120.802,139.493,120.748,139.677,120.693z"/>
	<path fill-rule="evenodd" clip-rule="evenodd" fill="#FFFFFF" d="M93.506,114.75c0,3.066,0.078,6.137-0.051,9.198
		c-0.035,0.836-0.689,1.646-1.059,2.47c-0.41-0.77-1.152-1.53-1.172-2.31c-0.116-4.321-0.097-8.649-0.017-12.972
		c0.013-0.706,0.56-1.402,0.86-2.104c0.621,0.458,1.398,0.801,1.834,1.395c1.272,1.728,2.409,3.556,3.793,5.637
		c1.42-2.13,2.632-4.062,3.979-5.896c0.382-0.521,1.16-0.749,1.757-1.112c0.241,0.649,0.68,1.295,0.69,1.946
		c0.062,4.324,0.085,8.65-0.014,12.973c-0.019,0.817-0.64,1.622-0.982,2.432c-0.396-0.783-1.102-1.554-1.134-2.353
		c-0.131-3.206-0.054-6.421-0.054-10.33c-0.972,1.429-1.568,2.28-2.14,3.148c-2.032,3.088-2.187,3.086-4.264-0.083
		c-0.485-0.74-0.986-1.471-1.48-2.205C93.87,114.639,93.688,114.695,93.506,114.75z"/>
	<path fill-rule="evenodd" clip-rule="evenodd" fill="#FFFFFF" d="M181.996,118.328c0,2.184,0.097,4.248-0.058,6.295
		c-0.047,0.631-0.781,1.21-1.2,1.812c-0.35-0.578-0.992-1.15-1.002-1.734c-0.083-4.571-0.045-9.146-0.044-13.72
		c0-1.312,0.583-2.03,1.972-1.952c1.902,0.107,3.808,0.167,5.707,0.309c1.819,0.136,3.235,0.958,3.638,2.837
		c0.401,1.869,0.197,3.661-1.497,4.943c-0.261,0.197-0.549,0.357-0.567,0.369c0.802,2.427,1.614,4.519,2.134,6.681
		c0.161,0.669-0.475,1.528-0.746,2.301c-0.455-0.59-1.043-1.121-1.334-1.783c-0.43-0.976-0.583-2.07-0.971-3.068
		C186.639,118.042,186.42,117.928,181.996,118.328z M181.739,116.177c2.496-0.282,4.226-0.364,5.892-0.734
		c0.516-0.115,1.144-0.984,1.201-1.561c0.062-0.614-0.412-1.795-0.788-1.854c-1.773-0.277-3.67-0.567-5.354-0.156
		C182.149,112.004,182.126,114.264,181.739,116.177z"/>
	<path fill-rule="evenodd" clip-rule="evenodd" fill="#FFFFFF" d="M277.622,114.486c0,3.24,0.066,6.483-0.05,9.72
		c-0.026,0.746-0.68,1.469-1.044,2.202c-0.375-0.695-1.059-1.383-1.073-2.086c-0.099-4.492-0.073-8.988-0.021-13.482
		c0.007-0.583,0.398-1.163,0.612-1.744c0.602,0.326,1.403,0.505,1.77,1.003c1.364,1.855,2.585,3.815,4.024,5.983
		c1.387-2.105,2.566-4.002,3.869-5.811c0.389-0.539,1.122-0.83,1.697-1.234c0.279,0.61,0.792,1.218,0.801,1.832
		c0.069,4.576,0.07,9.155-0.002,13.732c-0.009,0.604-0.555,1.201-0.853,1.802c-0.446-0.587-1.255-1.159-1.277-1.763
		c-0.127-3.299-0.061-6.606-0.586-10.132c-0.783,1.197-1.568,2.393-2.348,3.593c-0.892,1.374-1.743,1.376-2.623-0.027
		c-0.788-1.257-1.623-2.483-2.438-3.724C277.928,114.395,277.775,114.441,277.622,114.486z"/>
	<path fill-rule="evenodd" clip-rule="evenodd" fill="#FFFFFF" d="M348.41,121.103c0-3.395-0.055-6.791,0.049-10.182
		c0.02-0.636,0.674-1.252,1.034-1.878c0.377,0.638,1.066,1.27,1.079,1.914c0.094,4.576,0.076,9.156,0.015,13.733
		c-0.008,0.574-0.478,1.143-0.732,1.713c-0.6-0.337-1.416-0.526-1.762-1.035c-2.51-3.688-4.924-7.439-7.843-11.07
		c0,3.287,0.06,6.576-0.044,9.859c-0.024,0.764-0.601,1.51-0.923,2.265c-0.427-0.762-1.2-1.514-1.222-2.287
		c-0.119-4.325-0.098-8.656-0.014-12.983c0.014-0.707,0.58-1.402,0.89-2.104c0.62,0.45,1.421,0.774,1.83,1.369
		c2.442,3.557,4.794,7.176,7.177,10.773C348.099,121.162,348.254,121.132,348.41,121.103z"/>
	<path fill-rule="evenodd" clip-rule="evenodd" fill="#FFFFFF" d="M49.232,118.425c0,1.998,0.086,4.058-0.05,6.102
		c-0.043,0.652-0.68,1.265-1.044,1.895c-0.382-0.629-1.082-1.252-1.095-1.889c-0.095-4.483-0.131-8.973,0.037-13.451
		c0.026-0.703,1.125-1.874,1.821-1.947c1.87-0.195,3.793,0.049,5.689,0.188c1.784,0.131,3.211,0.837,3.745,2.718
		c0.544,1.92,0.171,3.606-1.319,4.994c-0.238,0.221-0.476,0.44-0.667,0.616c0.75,2.191,1.582,4.263,2.124,6.406
		c0.176,0.697-0.403,1.585-0.637,2.386c-0.485-0.621-1.098-1.182-1.423-1.877c-0.452-0.967-0.632-2.057-1.026-3.055
		C54.024,118.067,53.467,117.783,49.232,118.425z M49.361,116.121c2.092-0.227,3.914-0.264,5.634-0.702
		c0.575-0.146,1.219-1.317,1.22-2.021c0.001-0.57-0.862-1.562-1.433-1.633c-1.749-0.217-3.542-0.079-5.421-0.079
		C49.361,113.195,49.361,114.401,49.361,116.121z"/>
	<path fill-rule="evenodd" clip-rule="evenodd" fill="#FFFFFF" d="M199.771,108.634c1.585,0.395,3.314,0.524,4.701,1.281
		c0.829,0.451,1.35,1.837,1.572,2.895c0.143,0.68-0.508,1.526-0.803,2.299c-0.448-0.638-0.839-1.327-1.36-1.897
		c-0.66-0.724-1.328-1.711-2.167-1.936c-1.246-0.334-2.709-0.347-3.953-0.017c-0.814,0.217-1.957,1.277-1.958,1.963
		c-0.002,0.889,0.788,2.228,1.585,2.576c1.56,0.683,3.366,0.79,5.062,1.176c2.471,0.562,3.809,2.449,3.7,5.158
		c-0.103,2.562-1.559,4.299-4.139,4.423c-1.968,0.096-4.006-0.049-5.925-0.479c-2.001-0.448-3.159-2.816-2.598-4.738
		c0.113-0.388,0.655-0.988,0.875-0.938c0.455,0.103,0.934,0.504,1.209,0.912c0.587,0.87,0.893,2.438,1.597,2.619
		c1.702,0.438,3.606,0.476,5.342,0.176c0.601-0.104,1.358-1.711,1.293-2.573c-0.062-0.822-0.952-1.921-1.752-2.271
		c-1.414-0.619-3.034-0.774-4.572-1.102c-3.161-0.672-4.289-2.124-4.038-5.228c0.216-2.678,1.813-3.954,5.002-3.994
		c0.417-0.005,0.833,0,1.25,0C199.72,108.837,199.746,108.736,199.771,108.634z"/>
	<path fill-rule="evenodd" clip-rule="evenodd" fill="#FFFFFF" d="M381.128,108.719c1.456,0.267,2.987,0.335,4.351,0.85
		c1.922,0.726,2.307,2.504,2.118,4.352c-0.043,0.426-0.639,0.795-0.979,1.19c-0.38-0.35-0.844-0.644-1.123-1.061
		c-0.597-0.892-0.976-2.52-1.662-2.644c-1.824-0.332-3.799-0.204-5.636,0.146c-0.481,0.092-1.012,1.701-0.907,2.537
		c0.085,0.67,0.995,1.514,1.719,1.767c1.551,0.543,3.22,0.742,4.836,1.102c2.629,0.586,3.979,2.477,3.812,5.307
		c-0.153,2.62-1.734,4.252-4.518,4.32c-1.81,0.044-3.674-0.071-5.43-0.478c-2.062-0.478-3.213-2.628-2.715-4.652
		c0.105-0.432,0.672-0.751,1.026-1.122c0.369,0.364,0.793,0.689,1.097,1.104c0.66,0.897,1.125,2.469,1.909,2.637
		c1.7,0.361,3.605,0.238,5.31-0.173c0.543-0.131,1.07-1.843,0.949-2.742c-0.1-0.731-1.065-1.607-1.848-1.926
		c-1.362-0.556-2.874-0.753-4.332-1.06c-3.326-0.703-4.475-2.176-4.148-5.374c0.266-2.61,1.888-3.831,5.13-3.86
		c0.333-0.003,0.667,0,1,0C381.101,108.865,381.115,108.792,381.128,108.719z"/>
	<path fill-rule="evenodd" clip-rule="evenodd" fill="#FFFFFF" d="M28.601,117.816c0.011,8.059-0.311,8.379-8.406,8.378
		c-0.75,0-1.503-0.05-2.249,0.009c-1.386,0.107-1.973-0.491-1.964-1.878c0.029-4.414-0.061-8.832,0.084-13.241
		c0.023-0.694,0.99-1.896,1.587-1.939c2.308-0.167,4.669-0.154,6.961,0.156c2.884,0.392,3.895,1.778,3.98,4.768
		C28.631,115.317,28.601,116.567,28.601,117.816z M18.408,124.005c1.893,0,3.614-0.008,5.335,0.002
		c1.907,0.011,2.656-1.014,2.636-2.823c-0.025-2.24-0.066-4.484,0.028-6.721c0.089-2.128-1.094-3.051-2.948-3.22
		c-1.624-0.149-3.271-0.031-5.051-0.031C18.408,115.548,18.408,119.646,18.408,124.005z"/>
	<path fill-rule="evenodd" clip-rule="evenodd" fill="#FFFFFF" d="M363.747,120.958c-1.631-0.906-2.78-1.544-3.929-2.182
		c1.271-0.284,2.531-0.636,3.815-0.823c0.705-0.104,1.45,0.072,2.078,0.116c0.165,0.305,0.324,0.458,0.307,0.586
		c-0.328,2.396-0.676,4.787-1.021,7.181c-3.025-0.014-6.079,0.213-9.067-0.128c-1.928-0.221-2.351-2.178-2.399-3.899
		c-0.077-2.742-0.09-5.489-0.003-8.23c0.074-2.34,1.121-3.987,3.69-4.176c1.979-0.145,3.981-0.448,5.932-0.258
		c0.94,0.092,2.068,0.991,2.574,1.844c0.341,0.574-0.26,1.706-0.438,2.589c-0.493-0.479-0.907-1.182-1.496-1.39
		c-1.312-0.463-2.705-0.919-4.074-0.945c-3.309-0.064-3.984,0.675-4.039,3.885c-0.032,1.828,0.039,3.659-0.015,5.487
		c-0.069,2.346,0.817,3.667,3.359,3.436c0.578-0.053,1.164-0.011,1.746-0.014C364.115,124.018,364.171,123.948,363.747,120.958z"/>
	<path fill-rule="evenodd" clip-rule="evenodd" fill="#FFFFFF" d="M71.442,118.294c-2.774,0-5.156,0-7.948,0
		c0,2.152,0.094,4.207-0.055,6.243c-0.048,0.655-0.737,1.264-1.133,1.894c-0.377-0.638-1.067-1.27-1.081-1.915
		c-0.096-4.571-0.088-9.147-0.009-13.721c0.01-0.595,0.62-1.179,0.952-1.769c0.439,0.584,1.187,1.134,1.257,1.759
		c0.18,1.616,0.06,3.266,0.06,5.031c2.759,0,5.141,0,7.958,0c0-1.697-0.091-3.409,0.05-5.102c0.049-0.583,0.679-1.118,1.043-1.675
		c0.37,0.539,1.05,1.072,1.06,1.617c0.084,4.738,0.085,9.48-0.002,14.22c-0.01,0.532-0.718,1.051-1.103,1.576
		c-0.35-0.578-0.965-1.141-1.001-1.738C71.365,122.658,71.442,120.587,71.442,118.294z"/>
	<path fill-rule="evenodd" clip-rule="evenodd" fill="#FFFFFF" d="M402.245,118.4c0.159,2.698,0.228,5.87-3.328,7.603
		c-4.121,2.009-8.781-0.677-8.979-5.264c-0.089-2.073-0.094-4.159,0.018-6.23c0.188-3.481,2.674-5.616,6.327-5.574
		c3.434,0.04,5.792,2.28,5.954,5.695C402.289,115.708,402.245,116.79,402.245,118.4z M399.981,117.818
		c0-1.08,0.07-2.165-0.015-3.238c-0.171-2.136-1.628-3.411-3.808-3.429c-2.248-0.019-3.711,1.097-3.934,3.297
		c-0.216,2.138-0.164,4.322-0.021,6.473c0.145,2.163,1.949,3.601,4.075,3.508c2.054-0.089,3.542-1.514,3.692-3.62
		C400.043,119.817,399.984,118.816,399.981,117.818z"/>
	<path fill-rule="evenodd" clip-rule="evenodd" fill="#FFFFFF" d="M272.61,117.812c0.002,0.998,0.065,2.001-0.01,2.993
		c-0.245,3.195-2.652,5.605-5.764,5.836c-3.193,0.236-6.004-1.656-6.472-4.899c-0.374-2.591-0.388-5.316-0.036-7.91
		c0.464-3.415,3.034-5.09,6.655-4.894c2.993,0.163,5.324,2.466,5.609,5.633C272.69,115.643,272.608,116.731,272.61,117.812z
		 M270.54,117.839c-0.072-0.006-0.143-0.011-0.215-0.016c0-1.166,0.184-2.367-0.04-3.487c-0.399-1.998-1.635-3.192-3.83-3.198
		c-2.127-0.006-3.665,0.898-3.868,3.041c-0.226,2.376-0.207,4.804,0.003,7.183c0.167,1.888,1.612,2.896,3.432,3.034
		c1.924,0.146,3.474-0.692,4.024-2.627C270.402,120.514,270.387,119.153,270.54,117.839z"/>
	<path fill-rule="evenodd" clip-rule="evenodd" fill="#FFFFFF" d="M167.261,111.191c0,1.479,0,2.693,0,4.314
		c1.656,0,3.299-0.126,4.908,0.057c0.734,0.083,1.399,0.774,2.095,1.189c-0.655,0.313-1.292,0.84-1.97,0.897
		c-1.565,0.135-3.15,0.043-4.951,0.043c0,2.045,0,3.98,0,6.344c2.179,0,4.388-0.012,6.596,0.006c0.745,0.006,1.536-0.054,2.216,0.18
		c0.417,0.144,0.662,0.786,0.984,1.205c-0.374,0.25-0.744,0.71-1.122,0.717c-3.243,0.06-6.491,0.102-9.729-0.032
		c-0.481-0.02-1.311-0.978-1.323-1.517c-0.107-4.573-0.131-9.151,0.015-13.723c0.02-0.628,1.074-1.71,1.704-1.75
		c2.899-0.188,5.821-0.155,8.726-0.021c0.598,0.027,1.16,0.828,1.738,1.272c-0.61,0.272-1.213,0.76-1.831,0.78
		C172.679,111.241,170.037,111.191,167.261,111.191z"/>
	<path fill-rule="evenodd" clip-rule="evenodd" fill="#FFFFFF" d="M427.773,111.192c0,1.57,0,2.785,0,4.315
		c1.77,0,3.421-0.107,5.046,0.052c0.678,0.066,1.3,0.703,1.946,1.08c-0.613,0.351-1.205,0.947-1.845,1.004
		c-1.636,0.145-3.293,0.049-5.112,0.049c0,2.145,0,4.081,0,6.348c2.587,0,5.065-0.102,7.526,0.059
		c0.796,0.052,1.548,0.791,2.319,1.216c-0.752,0.293-1.495,0.812-2.258,0.839c-2.741,0.102-5.489-0.002-8.233,0.055
		c-1.285,0.026-1.776-0.456-1.764-1.748c0.044-4.491,0.042-8.984-0.002-13.477c-0.015-1.394,0.583-1.966,1.931-1.956
		c2.828,0.021,5.659-0.064,8.482,0.064c0.631,0.029,1.229,0.761,1.842,1.169c-0.651,0.311-1.294,0.862-1.958,0.889
		C433.133,111.254,430.564,111.192,427.773,111.192z"/>
	<path fill-rule="evenodd" clip-rule="evenodd" fill="#FFFFFF" d="M89.451,125.435c-0.293,0.383-0.573,1.081-0.915,1.112
		c-0.437,0.04-1.063-0.355-1.351-0.75c-0.376-0.518-0.61-1.2-0.716-1.843c-0.386-2.35-1.747-2.828-4.015-2.875
		c-2.442-0.05-3.681,0.744-4.16,3.036c-0.117,0.562-0.282,1.197-0.646,1.6c-0.37,0.409-1.012,0.571-1.535,0.842
		c-0.19-0.488-0.659-1.074-0.528-1.452c1.743-5.021,3.511-10.036,5.414-14.999c0.529-1.379,2.081-1.688,2.644-0.314
		C85.72,114.859,87.483,120.054,89.451,125.435z M84.543,118.857c-0.703-1.903-1.334-3.61-2.171-5.877
		c-0.823,2.327-1.424,4.029-2.078,5.877C81.779,118.857,83.007,118.857,84.543,118.857z"/>
	<path fill-rule="evenodd" clip-rule="evenodd" fill="#FFFFFF" d="M291.696,117.809c-0.004-2.244,0.005-4.488-0.007-6.732
		c-0.008-1.446,0.645-2.159,2.133-2.052c2.063,0.149,4.143,0.17,6.19,0.44c2.143,0.284,3.067,1.756,3.144,3.84
		c0.079,2.174-0.801,3.782-2.948,4.323c-1.344,0.339-2.79,0.393-4.187,0.366c-1.522-0.03-2.086,0.565-2.015,2.059
		c0.074,1.574,0.1,3.168-0.066,4.73c-0.062,0.587-0.723,1.11-1.11,1.663c-0.377-0.552-1.049-1.088-1.079-1.659
		C291.626,122.467,291.699,120.136,291.696,117.809z M294.151,115.791c1.811-0.103,3.397-0.009,4.88-0.357
		c0.729-0.171,1.711-1.126,1.764-1.791c0.051-0.642-0.833-1.791-1.506-1.97c-1.598-0.425-3.312-0.408-5.138-0.585
		C294.151,112.806,294.151,114.093,294.151,115.791z"/>
	<path fill-rule="evenodd" clip-rule="evenodd" fill="#FFFFFF" d="M304.948,115.846c-0.002-1.33-0.147-2.683,0.047-3.984
		c0.145-0.972,0.729-1.879,1.116-2.815c0.352,0.98,0.95,1.947,1.006,2.944c0.145,2.569,0.027,5.152,0.055,7.73
		c0.032,3.01,1.454,4.669,3.975,4.708c2.365,0.037,3.862-1.524,3.977-4.424c0.117-2.989-0.011-5.987,0.11-8.977
		c0.027-0.68,0.636-1.335,0.977-2.002c0.434,0.674,1.231,1.342,1.241,2.021c0.05,3.481,0.13,6.992-0.25,10.442
		c-0.372,3.396-3.157,5.369-6.495,5.151c-3.288-0.215-5.627-2.652-5.747-6.057C304.904,119.007,304.95,117.425,304.948,115.846z"/>
	<path fill-rule="evenodd" clip-rule="evenodd" fill="#FFFFFF" d="M31.438,115.787c0.003-1.746-0.069-3.496,0.047-5.234
		c0.035-0.52,0.599-1.004,0.921-1.505c0.411,0.501,1.157,0.989,1.177,1.506c0.118,2.988,0.051,5.983,0.072,8.977
		c0.022,3.198,1.435,4.896,4.035,4.9c2.428,0.003,3.845-1.62,3.94-4.732c0.089-2.907-0.028-5.822,0.094-8.728
		c0.028-0.665,0.67-1.304,1.029-1.955c0.412,0.614,1.171,1.225,1.177,1.843c0.037,3.565,0.13,7.157-0.254,10.691
		c-0.367,3.371-3.208,5.339-6.544,5.091c-3.285-0.243-5.581-2.687-5.689-6.114C31.394,118.948,31.435,117.367,31.438,115.787z"/>
	<path fill-rule="evenodd" clip-rule="evenodd" fill="#FFFFFF" d="M414.077,124.025c1.128-0.989,1.794-1.574,2.461-2.159
		c0.288,0.453,0.923,1.059,0.802,1.333c-0.454,1.04-1.063,2.723-1.778,2.809c-2.533,0.305-5.17,0.297-7.698-0.069
		c-2.036-0.294-2.92-2.003-2.911-4.077c0.012-2.582-0.016-5.164,0.004-7.746c0.023-3.159,0.789-4.294,3.865-4.809
		c2.022-0.339,4.156-0.344,6.192-0.102c0.802,0.096,1.744,1.152,2.118,1.995c0.271,0.61-0.287,1.589-0.477,2.403
		c-0.53-0.483-1.093-0.936-1.585-1.455c-1.734-1.83-3.837-0.831-5.786-0.719c-1.438,0.082-2.175,0.978-2.138,2.52
		c0.058,2.413,0.055,4.831-0.009,7.245c-0.053,2.029,0.909,2.885,2.872,2.838C411.505,123.996,413.002,124.025,414.077,124.025z"/>
	<path fill-rule="evenodd" clip-rule="evenodd" fill="#FFFFFF" d="M126.216,116.022c0,1.579,0.069,3.161-0.014,4.735
		c-0.191,3.627-2.754,5.955-6.372,5.872c-3.474-0.078-5.868-2.479-5.924-6.037c-0.05-3.157-0.075-6.317,0.038-9.471
		c0.025-0.701,0.679-1.379,1.043-2.067c0.375,0.729,1.04,1.444,1.072,2.188c0.127,2.902,0.034,5.814,0.062,8.723
		c0.028,2.849,1.428,4.433,3.879,4.465c2.424,0.031,3.922-1.575,3.971-4.386c0.052-2.991-0.059-5.986,0.082-8.971
		c0.033-0.696,0.796-1.358,1.223-2.036c0.32,0.667,0.86,1.315,0.917,2.004c0.135,1.65,0.043,3.319,0.043,4.981
		C126.23,116.022,126.223,116.022,126.216,116.022z"/>
	<path fill-rule="evenodd" clip-rule="evenodd" fill="#FFFFFF" d="M245.499,117.725c-0.002-0.915-0.004-1.83-0.001-2.746
		c0.013-4.37,1.445-5.858,5.776-5.952c1.33-0.029,2.749-0.259,3.966,0.121c1.02,0.318,1.985,1.267,2.612,2.184
		c0.291,0.426-0.276,1.44-0.455,2.188c-0.522-0.417-0.986-0.976-1.58-1.222c-1.121-0.463-2.31-1.024-3.482-1.054
		c-4.115-0.104-4.651,0.486-4.668,4.501c-0.007,1.83,0.043,3.661,0.039,5.491c-0.003,2.003,1.029,2.855,2.97,2.797
		c1.081-0.032,2.196,0.158,3.233-0.056c0.726-0.15,1.35-0.81,2.011-1.252c0.421-0.282,0.828-0.584,1.241-0.876
		c0.303,0.446,0.869,0.897,0.862,1.34c-0.024,1.601-0.451,3.013-2.501,3.002c-1.747-0.01-3.496,0.025-5.243-0.005
		c-3.301-0.06-4.669-1.412-4.773-4.716C245.466,120.223,245.5,118.974,245.499,117.725z"/>
	<path fill-rule="evenodd" clip-rule="evenodd" fill="#FFFFFF" d="M156.199,122.478c1.55-4.266,2.85-8.022,4.313-11.716
		c0.298-0.753,1.211-1.263,1.84-1.884c0.102,0.851,0.501,1.802,0.256,2.538c-1.466,4.405-3.034,8.78-4.693,13.117
		c-0.258,0.676-1.171,1.54-1.763,1.526c-0.602-0.015-1.459-0.898-1.725-1.587c-1.672-4.33-3.256-8.697-4.749-13.094
		c-0.24-0.707,0.125-1.619,0.21-2.437c0.644,0.576,1.589,1.031,1.88,1.75C153.26,114.371,154.582,118.117,156.199,122.478z"/>
	<path fill-rule="evenodd" clip-rule="evenodd" fill="#FFFFFF" d="M326.126,111.181c0,3.981,0.001,7.701,0,11.422
		c0,0.748,0.142,1.539-0.057,2.232c-0.169,0.588-0.734,1.062-1.124,1.586c-0.346-0.558-0.977-1.108-0.989-1.674
		c-0.091-3.824-0.047-7.652-0.056-11.479c-0.002-0.573-0.053-1.146-0.099-2.084c-1.109,0-2.163,0.086-3.19-0.039
		c-0.46-0.056-0.87-0.534-1.303-0.821c0.334-0.408,0.656-1.161,1.001-1.171c3.073-0.092,6.15-0.094,9.223-0.001
		c0.364,0.011,0.707,0.744,1.06,1.143c-0.416,0.295-0.805,0.784-1.251,0.846C328.383,111.272,327.396,111.181,326.126,111.181z"/>
	<path fill-rule="evenodd" clip-rule="evenodd" fill="#FFFFFF" d="M8.328,117.542c2.076-1.049,1.761-2.591,1.36-4.325
		c-0.439-1.904-0.462-3.911,1.707-4.932c0.561-0.264,1.37-0.001,2.065,0.02c-0.28,0.632-0.631,1.244-0.824,1.901
		c-0.274,0.936-0.501,1.896-0.624,2.86c-0.177,1.403-0.269,2.818-0.338,4.231c-0.02,0.41,0.177,0.828,0.249,1.248
		c0.134,0.784,0.393,1.581,0.342,2.355c-0.117,1.756-1.572,3.762,1.146,4.889c0.166,0.069,0.194,1.031-0.036,1.333
		c-0.221,0.292-0.881,0.419-1.311,0.356c-1.985-0.286-2.847-2.452-2.476-5.238c0.191-1.435-0.151-2.94-0.253-4.414
		C9,117.732,8.664,117.637,8.328,117.542z"/>
	<path fill-rule="evenodd" clip-rule="evenodd" fill="#FFFFFF" d="M468.839,117.603c-0.095,1.698-0.247,3.242-0.248,4.787
		c-0.001,1.906,0.38,3.962-1.946,4.844c-0.56,0.213-1.317-0.099-1.984-0.169c0.252-0.562,0.524-1.116,0.75-1.688
		c0.331-0.838,0.795-1.669,0.904-2.54c0.196-1.553,0.175-3.133,0.229-4.702c0.011-0.287-0.051-0.576-0.074-0.865
		c-0.107-1.335-0.384-2.685-0.271-4.001c0.112-1.324,0.742-2.611-1.122-3.265c-0.306-0.107-0.61-1.055-0.452-1.406
		c0.154-0.344,0.912-0.614,1.383-0.584c1.971,0.13,2.91,2.282,2.61,5.12C468.458,114.655,468.757,116.225,468.839,117.603z"/>
	<path fill-rule="evenodd" clip-rule="evenodd" fill="#FFFFFF" d="M145.182,117.581c0-2.333-0.074-4.669,0.055-6.994
		c0.03-0.541,0.751-1.043,1.155-1.563c0.359,0.492,1.021,0.979,1.029,1.477c0.079,4.83,0.08,9.662,0.001,14.491
		c-0.008,0.488-0.689,0.966-1.058,1.449c-0.391-0.538-1.089-1.06-1.118-1.615c-0.125-2.409-0.054-4.828-0.054-7.244
		C145.189,117.581,145.186,117.581,145.182,117.581z"/>
	<path fill-rule="evenodd" clip-rule="evenodd" fill="#FFFFFF" d="M422.163,117.784c0.002,2.331,0.07,4.664-0.048,6.988
		c-0.029,0.565-0.676,1.1-1.039,1.648c-0.372-0.545-1.057-1.084-1.066-1.636c-0.085-4.742-0.084-9.487,0.008-14.229
		c0.01-0.516,0.762-1.016,1.169-1.523c0.324,0.504,0.908,0.997,0.93,1.513C422.216,112.955,422.161,115.371,422.163,117.784z"/>
	<path fill-rule="evenodd" clip-rule="evenodd" fill="#FFFFFF" d="M334.741,117.627c-0.001,2.412,0.068,4.828-0.055,7.233
		c-0.027,0.537-0.729,1.039-1.121,1.558c-0.349-0.492-0.991-0.98-0.999-1.478c-0.072-4.822-0.069-9.647,0.014-14.469
		c0.008-0.481,0.692-0.951,1.062-1.427c0.366,0.532,1.021,1.05,1.05,1.6C334.81,112.967,334.742,115.299,334.741,117.627z"/>
	<path fill-rule="evenodd" clip-rule="evenodd" fill="#FFFFFF" d="M208.902,117.624c0-2.246-0.079-4.496,0.05-6.733
		c0.037-0.634,0.68-1.231,1.044-1.846c0.37,0.562,1.05,1.117,1.061,1.685c0.088,4.656,0.089,9.314,0.007,13.971
		c-0.01,0.579-0.664,1.147-1.019,1.721c-0.381-0.604-1.056-1.19-1.091-1.813C208.823,122.286,208.902,119.953,208.902,117.624z"/>
</g>
</svg>
