<?xml version="1.0" encoding="UTF-8" standalone="no"?>
<!-- Generator: Adobe Illustrator 16.0.0, SVG Export Plug-In . SVG Version: 6.00 Build 0)  -->

<svg
   xmlns:dc="http://purl.org/dc/elements/1.1/"
   xmlns:cc="http://creativecommons.org/ns#"
   xmlns:rdf="http://www.w3.org/1999/02/22-rdf-syntax-ns#"
   xmlns:svg="http://www.w3.org/2000/svg"
   xmlns="http://www.w3.org/2000/svg"
   xmlns:sodipodi="http://sodipodi.sourceforge.net/DTD/sodipodi-0.dtd"
   xmlns:inkscape="http://www.inkscape.org/namespaces/inkscape"
   version="1.1"
   id="Layer_1"
   x="0px"
   y="0px"
   width="600"
   height="400"
   viewBox="0 0 600 400"
   enable-background="new 0 0 613.354 250.914"
   xml:space="preserve"
   inkscape:version="0.91 r13725"
   sodipodi:docname="cs.svg"><metadata
     id="metadata21"><rdf:RDF><cc:Work
         rdf:about=""><dc:format>image/svg+xml</dc:format><dc:type
           rdf:resource="http://purl.org/dc/dcmitype/StillImage" /><dc:title></dc:title></cc:Work></rdf:RDF></metadata><defs
     id="defs19" /><sodipodi:namedview
     pagecolor="#000000"
     bordercolor="#666666"
     borderopacity="1"
     objecttolerance="10"
     gridtolerance="10"
     guidetolerance="10"
     inkscape:pageopacity="0"
     inkscape:pageshadow="2"
     inkscape:window-width="1920"
     inkscape:window-height="1056"
     id="namedview17"
     showgrid="false"
     inkscape:zoom="0.97170638"
     inkscape:cx="343.88316"
     inkscape:cy="77.22183"
     inkscape:window-x="0"
     inkscape:window-y="24"
     inkscape:window-maximized="1"
     inkscape:current-layer="Layer_1" /><g
     id="g3"
     transform="matrix(0.93746508,0,0,0.93746508,12.500013,82.389145)"><path
       d="m 275.115,165.12 c -6.104,26.902 -0.394,55.556 -21.868,76.504 4.753,-24.604 11.078,-48.874 9.968,-74.894 -30.553,0.575 -58.946,7.287 -87.447,13.791 -23.851,5.44 -47.875,10.254 -71.987,14.374 -17.935,3.063 -35.524,-0.268 -52.205,-7.307 C 32.6,179.578 18.538,166.214 10.702,146.969 -1.522,116.942 -3.895,86.228 6.82,55.363 19.546,18.703 51.801,-2.609 89.045,0.256 c 13.442,1.035 25.527,5.657 33.711,16.876 2.159,2.961 3.322,8.585 1.936,11.608 -1.197,2.614 -6.662,3.271 -10.505,4.91 C 109.31,13.937 103.019,9.117 83.961,8.996 48.764,8.771 20.945,32.833 12.788,70.713 c -4.555,21.151 -3.33,42.159 2.971,62.744 9.535,31.149 34.431,50.803 67.227,51.657 15.756,0.409 31.985,-0.271 47.31,-3.618 44.059,-9.625 87.357,-22.892 133.455,-25.046 0,-19.4 0,-37.515 0,-56.12 -3.696,0 -6.247,0 -9.135,0 0.502,-1.87 0.523,-3.415 1.258,-4.456 9.794,-13.915 23.683,-17.488 39.472,-14.431 13.954,2.705 25.95,16.557 28.429,31.389 3.63,21.702 -11.887,37.63 -35.348,36.164 -4.154,-0.26 -8.28,-1.001 -12.447,-1.522 -2.924,8.581 2.177,8.285 7.181,8.282 16.358,-0.017 32.741,-0.527 49.071,0.161 65.125,2.738 128.995,13.639 191.829,30.727 7.11,1.935 12.901,2.619 20.144,-1.332 16.562,-9.035 50.402,-1.359 63.027,12.702 5.685,6.332 7.14,13.856 5.481,21.544 -2.181,10.104 -5.65,19.934 -8.998,31.355 -20.896,-9.025 -40.717,-17.354 -60.327,-26.146 -10.723,-4.809 -12.98,-14.538 -12.111,-26.369 -83.89,-22.768 -168.33,-36.561 -256.162,-33.278 z m -0.058,-30.617 c 15.201,6.864 28.305,5.686 35.231,-2.722 6.279,-7.623 5.498,-20.361 -1.898,-30.903 -8.38,-11.944 -19.013,-14.555 -36.581,-8.354 1.045,13.501 2.113,27.306 3.248,41.979 z m 320.818,102.622 c 13.732,-26.888 9.886,-35.898 -18.025,-43.146 -4.885,9.171 -9.916,18.624 -15.539,29.187 11.949,4.968 22.397,9.314 33.564,13.959 z"
       id="path5"
       inkscape:connector-curvature="0"
       style="clip-rule:evenodd;fill:#ffffff;fill-rule:evenodd" /><path
       d="m 410.067,123.677 c -2.823,16.972 -6.405,21.902 -23.358,24.034 -12.656,1.591 -25.766,0.72 -38.56,-0.375 -7.637,-0.651 -14.796,-4.211 -18.884,-14.854 4.202,-0.584 9.727,-2.753 10.943,-1.304 10.517,12.527 24.479,8.935 37.523,8.619 5.571,-0.136 11.381,-1.978 16.494,-4.32 2.354,-1.081 4.689,-5.354 4.479,-7.968 -0.202,-2.484 -3.322,-5.81 -5.906,-6.779 -4.385,-1.647 -9.391,-1.557 -14.074,-2.507 -10.769,-2.188 -22.193,-2.958 -32.088,-7.231 -16.313,-7.042 -21.125,-25.165 -12.495,-40.072 7.657,-13.224 26.788,-17.776 40.69,-9.679 10.458,6.089 14.307,19.75 8.462,30.035 -4.542,7.99 -8.798,7.821 -15.197,-0.634 0.421,-0.821 0.72,-1.76 1.296,-2.476 2.744,-3.416 8.573,-8.526 7.812,-9.832 -2.629,-4.512 -6.956,-9.346 -11.711,-11.038 -10.846,-3.861 -21.08,1.751 -24.488,11.715 -3.769,11.013 0.734,21.679 12.488,25.196 10.021,3.001 20.688,4.411 31.167,5.164 11.364,0.815 20.178,4.763 25.86,14.843 l -0.453,-0.537 z"
       id="path7"
       inkscape:connector-curvature="0"
       style="clip-rule:evenodd;fill:#ffffff;fill-rule:evenodd" /><path
       d="m 201.742,141.789 c -0.479,-4.242 -1.164,-8.47 -1.397,-12.723 -0.498,-9.075 0.24,-18.348 -1.385,-27.201 -1.905,-10.378 -9.882,-14 -19.558,-10.694 -6.21,2.121 -9.108,5.821 -8.705,12.874 0.629,10.999 0.286,22.057 0.238,33.093 -0.011,2.862 -0.024,5.865 -0.894,8.522 -0.426,1.303 -2.888,2.786 -4.305,2.671 -1.386,-0.113 -3.517,-2.012 -3.734,-3.376 -0.519,-3.258 -0.027,-6.667 -0.079,-10.012 -0.141,-9.112 0.251,-18.289 -0.714,-27.319 -0.907,-8.5 -3.273,-16.843 -5.072,-25.622 0.076,-0.053 0.96,-1.167 1.582,-1.035 4.625,0.976 9.212,3.15 13.785,3.088 5.107,-0.073 10.244,-3.249 15.263,-2.992 5.945,0.302 11.777,2.826 19.028,4.75 25.709,-11.431 41.984,-1.306 42.743,28.763 0.297,11.796 -0.415,23.642 -9.865,34.045 -0.171,-5.321 -0.347,-10.644 -0.512,-15.965 -0.279,-9.073 0.457,-18.34 -1.22,-27.147 -0.948,-4.98 -4.941,-10.844 -9.267,-13.267 -3.584,-2.005 -10.28,-0.75 -14.406,1.376 -2.425,1.247 -3.37,6.986 -3.499,10.756 -0.31,9.067 0.642,18.182 0.27,27.24 -0.148,3.607 -2.449,7.127 -3.769,10.686 -1.509,-0.171 -3.018,-0.34 -4.528,-0.511 z"
       id="path9"
       inkscape:connector-curvature="0"
       style="clip-rule:evenodd;fill:#ffffff;fill-rule:evenodd" /><path
       d="m 111.305,71.904 c 23.009,0.051 41.174,17.648 40.78,39.517 -0.382,21.301 -18.46,38.589 -40.442,38.673 -22.346,0.085 -41.337,-18.362 -40.957,-39.787 0.377,-21.203 18.618,-38.449 40.619,-38.403 z m 0.65,9.267 c -16.058,-0.276 -30.437,13.74 -30.65,29.875 -0.205,15.46 13.297,29.172 29.222,29.677 16.143,0.514 31.183,-13.385 31.52,-29.122 0.339,-15.867 -13.783,-30.148 -30.092,-30.43 z"
       id="path11"
       inkscape:connector-curvature="0"
       style="clip-rule:evenodd;fill:#ffffff;fill-rule:evenodd" /><path
       d="m 410.521,124.213 c 0.239,-4.284 0.133,-8.625 0.781,-12.846 2.888,-18.825 21.246,-32.421 39.479,-29.446 20.675,3.376 33.268,20.449 29.584,40.115 -2.483,13.269 -12.75,23.552 -26.974,26.445 -14.491,2.949 -26.393,-1.785 -35.549,-13.244 -2.889,-3.618 -5.2,-7.693 -7.776,-11.56 l 0.455,0.536 z m 35.524,16.348 c 13.57,-0.053 24.96,-11.086 25.211,-24.42 0.262,-13.946 -11.638,-25.636 -25.712,-25.252 -13.551,0.37 -24.279,11.495 -24.279,25.182 0,13.571 11.103,24.547 24.78,24.49 z"
       id="path13"
       inkscape:connector-curvature="0"
       style="clip-rule:evenodd;fill:#ffffff;fill-rule:evenodd" /><path
       d="m 565.309,137.152 c -15.097,15.37 -52.965,15.892 -66.872,5.998 -15.17,-10.792 -17.681,-33.594 -4.68,-48.287 10.107,-11.422 33.104,-15.88 46.584,-8.917 2.091,1.08 4.814,2.363 5.58,4.233 1.059,2.589 1.755,6.653 0.429,8.599 -2.381,3.489 -5.938,3.646 -9.527,-0.028 -9.146,-9.366 -15.151,-10.313 -26.104,-4.989 -9.675,4.701 -16.008,15.663 -14.932,25.847 1.032,9.775 7.376,17.967 18.183,19.564 10.754,1.59 21.875,1.029 32.822,0.807 5.386,-0.111 10.745,-1.586 18.517,-2.827 z"
       id="path15"
       inkscape:connector-curvature="0"
       style="clip-rule:evenodd;fill:#ffffff;fill-rule:evenodd" /></g></svg>