<?xml version="1.0" encoding="UTF-8" standalone="no"?>
<!-- Created with Inkscape (http://www.inkscape.org/) -->

<svg
   xmlns:dc="http://purl.org/dc/elements/1.1/"
   xmlns:cc="http://creativecommons.org/ns#"
   xmlns:rdf="http://www.w3.org/1999/02/22-rdf-syntax-ns#"
   xmlns:svg="http://www.w3.org/2000/svg"
   xmlns="http://www.w3.org/2000/svg"
   xmlns:sodipodi="http://sodipodi.sourceforge.net/DTD/sodipodi-0.dtd"
   xmlns:inkscape="http://www.inkscape.org/namespaces/inkscape"
   width="164.6071mm"
   height="201.50859mm"
   viewBox="0 0 583.25351 714.00681"
   id="svg3379"
   version="1.1"
   inkscape:version="0.91 r13725"
   sodipodi:docname="DMN.svg">
  <defs
     id="defs3381" />
  <sodipodi:namedview
     id="base"
     pagecolor="#e1d0a6"
     bordercolor="#666666"
     borderopacity="1.0"
     inkscape:pageopacity="0"
     inkscape:pageshadow="2"
     inkscape:zoom="0.7"
     inkscape:cx="300.35713"
     inkscape:cy="336.99999"
     inkscape:document-units="px"
     inkscape:current-layer="layer1"
     showgrid="false"
     fit-margin-top="0"
     fit-margin-left="0"
     fit-margin-right="0"
     fit-margin-bottom="0"
     inkscape:window-width="1535"
     inkscape:window-height="876"
     inkscape:window-x="65"
     inkscape:window-y="24"
     inkscape:window-maximized="1" />
  <metadata
     id="metadata3384">
    <rdf:RDF>
      <cc:Work
         rdf:about="">
        <dc:format>image/svg+xml</dc:format>
        <dc:type
           rdf:resource="http://purl.org/dc/dcmitype/StillImage" />
        <dc:title></dc:title>
      </cc:Work>
    </rdf:RDF>
  </metadata>
  <g
     inkscape:label="Layer 1"
     inkscape:groupmode="layer"
     id="layer1"
     transform="translate(-74.642874,-155.35538)">
    <path
       style="fill:#000000"
       d=""
       id="path3402"
       inkscape:connector-curvature="0" />
    <path
       style="fill:#000000"
       d=""
       id="path3400"
       inkscape:connector-curvature="0" />
    <path
       style="fill:#000000"
       d=""
       id="path3398"
       inkscape:connector-curvature="0" />
    <path
       style="fill:#ffffff"
       d="m 76.642874,867.36219 c -1.98972,-1.98972 -2,-3.33333 -2,-261.30887 0,-205.92446 0.25734,-259.63928 1.25,-260.91381 0.6875,-0.88272 26.899996,-20.41138 58.249996,-43.39702 51.61023,-37.84035 57.36467,-41.79411 60.85676,-41.81347 7.79851,-0.0432 8.00845,0.99894 9.37492,46.53844 l 0.76831,25.60527 48,-35.39341 c 26.40005,-19.46638 49.09065,-35.84483 50.42375,-36.39657 3.3775,-1.39792 7.8534,-0.19024 9.6915,2.6149 1.2126,1.85069 2.0665,10.97301 3.947,42.1631 1.3197,21.89079 2.4644,41.15144 2.5437,42.80144 0.079,1.65 0.974,-8.475 1.9883,-22.5 1.0142,-14.025 2.3024,-26.52154 2.8626,-27.77008 0.5602,-1.24854 2.1784,-2.71104 3.596,-3.25 1.5308,-0.58203 19.2188,-0.97992 43.5619,-0.97992 44.2195,0 46.2566,0.22674 47.3326,5.26819 0.262,1.22749 1.1987,13.48181 2.0814,27.23181 0.8828,13.75 1.7,25.37502 1.816,25.83337 0.1159,0.45836 2.2402,-29.35848 4.7204,-66.25962 4.3807,-65.17424 4.5737,-67.15707 6.749,-69.33338 2.2364,-2.23741 2.2934,-2.24076 43.1609,-2.53237 22.5068,-0.1606 42.3735,0.0843 44.1482,0.54414 6.9204,1.79324 6.5315,-0.87909 10.1043,69.43274 1.7798,35.02668 3.3295,63.59141 3.4438,63.47716 0.1142,-0.11424 2.2666,-40.02244 4.7831,-88.68488 2.5165,-48.66244 4.8307,-90.87666 5.1427,-93.80939 1.038,-9.75607 -2.0656,-9.16777 48.3639,-9.16777 43.8536,0 43.966,0.005 45.9876,2.1752 1.1145,1.19637 2.2347,3.55887 2.4893,5.25 0.2545,1.69114 3.9172,160.26006 8.1392,352.37539 l 7.6764,349.30058 -2.3011,2.44942 -2.3011,2.44941 -287.3257,0 c -285.992306,0 -287.334926,-0.009 -289.325636,-2 z M 284.92321,817.8907 c 17.1265,-3.6291 26.7796,-14.11262 31.3334,-34.02851 2.5633,-11.21115 2.5704,-37.73509 0.013,-49 -4.8322,-21.28452 -15.5861,-31.82027 -35.4315,-34.71276 -6.1639,-0.8984 -9.8098,-0.8948 -15.6648,0.0155 -25.28994,3.93169 -36.53044,22.14688 -36.53044,59.19726 0,24.24471 4.55377,39.50483 14.63333,49.03765 5.83547,5.51894 9.95476,7.66224 18.36671,9.55632 7.452,1.67794 15.1551,1.65627 23.2804,-0.0655 z m -14.7803,-16.98233 c -0.55,-0.21032 -2.7144,-0.66967 -4.8097,-1.02079 -2.3309,-0.3906 -5.3369,-2.01816 -7.7441,-4.19295 -5.96114,-5.3855 -8.07706,-13.08359 -8.70033,-31.65332 -0.88118,-26.25371 2.8137,-38.96901 12.84773,-44.21321 4.1121,-2.14917 12.0295,-2.78975 18.3256,-1.48268 7.1485,1.48404 12.5623,6.42529 14.9514,13.64643 2.2914,6.92599 3.8986,24.39268 3.1625,34.37034 -1.3632,18.47912 -4.6552,27.24891 -11.7767,31.37315 -3.8733,2.24307 -13.6818,4.15756 -16.2564,3.17303 z M 142.06555,779.11219 c -0.0425,-20.7625 0.18247,-37.73135 0.5,-37.70856 0.31752,0.0228 9.32014,14.42111 20.00582,31.99627 10.68569,17.57515 21.14826,34.6747 23.25016,37.999 l 3.82165,6.04417 8.24984,-0.29044 8.24984,-0.29044 0.25812,-57.75 0.25813,-57.75 -9.49624,0 -9.49624,0 -0.26189,38.23381 -0.26188,38.23382 -23.4061,-38.27047 -23.4061,-38.27047 -8.5939,0.28665 -8.59389,0.28666 -0.25966,56.5 c -0.14281,31.075 -0.0379,57.07949 0.2331,57.78775 0.3643,0.95203 2.90865,1.21273 9.75966,1 l 9.2669,-0.28775 -0.0773,-37.75 z m 217.34606,15 0.2688,-22.75 10.7312,0.007 10.7313,0.007 10.1286,22.74253 10.1287,22.74254 10.2845,0.28679 c 5.6565,0.15773 10.6722,-0.10079 11.1458,-0.57448 0.4817,-0.48169 -4.243,-11.39326 -10.7204,-24.75835 -9.8492,-20.32235 -11.354,-24.05092 -10.0592,-24.92552 0.8374,-0.56564 3.2468,-2.22943 5.3542,-3.69732 14.934,-10.40219 14.3156,-44.17159 -1.0004,-54.62845 -8.9229,-6.09111 -12.6364,-6.70174 -40.7618,-6.70174 l -25.5,0 -0.2597,56.5 c -0.1428,31.075 -0.038,57.07949 0.2331,57.78775 0.3643,0.95203 2.9086,1.21273 9.7597,1 l 9.2669,-0.28775 0.2687,-22.75 z m 0.2313,-57.75 0,-17.18753 14.2967,0.34377 c 15.4466,0.37141 17.8602,1.10129 21.3735,6.4633 2.3791,3.63098 2.3791,17.12994 0,20.76092 -3.5133,5.36201 -5.9269,6.09189 -21.3735,6.4633 l -14.2967,0.34377 0,-17.18753 z m 119.7595,31.75 0.2595,-48.75 14.4905,0 14.4905,0 0,-9 0,-9 -39,0 -39,0 0,9 0,9 14.5,0 14.5,0 0,48.33333 c 0,26.58334 0.3156,48.64902 0.7015,49.03486 0.3858,0.38584 4.7733,0.57334 9.75,0.41667 l 9.0485,-0.28486 0.2595,-48.75 z m 67.0076,23.5 0.2672,-25.25 21.4657,0 21.4656,0 0.2672,25.25 0.2672,25.25 9.5,0 9.5,0 0,-57.5 0,-57.5 -9.5,0 -9.5,0 -0.2685,23.25 -0.2684,23.25 -21.4631,0 -21.4632,0 -0.2684,-23.25 -0.2684,-23.25 -9.5,0 -9.5,0 -0.2597,56.5 c -0.1428,31.075 -0.038,57.07949 0.2331,57.78775 0.3643,0.95203 2.9086,1.21273 9.7597,1 l 9.2669,-0.28775 0.2671,-25.25 z m -403.99135,-164.75 c -0.28335,-21.175 -0.23631,-38.49242 0.10452,-38.48317 0.34082,0.009 5.98372,13.39676 12.53977,29.75 6.55604,16.35325 12.34864,30.29567 12.87244,30.98317 0.62637,0.82212 3.77781,1.25 9.20664,1.25 l 8.25428,0 3.17477,-7.75 c 1.7461,-4.2625 7.26646,-17.875 12.26744,-30.25 5.00098,-12.375 9.53157,-22.95 10.06797,-23.5 0.63399,-0.65005 0.84599,12.47324 0.60583,37.5 l -0.36946,38.5 9.75814,0.28631 9.75814,0.28631 -0.25814,-57.78631 -0.25814,-57.78631 -11.64005,-0.28078 -11.64005,-0.28079 -14.80181,37.03079 c -8.14099,20.36693 -15.05297,37.02938 -15.35995,37.02766 -0.30697,-0.002 -7.09815,-16.53922 -15.09151,-36.75 l -14.53337,-36.74688 -11.96663,0 -11.96662,0 -0.25966,56.5 c -0.14281,31.075 -0.0444,57.0625 0.21861,57.75 0.33706,0.88093 3.33539,1.25 10.15514,1.25 l 9.67687,0 -0.51517,-38.5 z m 132.98235,-19.25 -0.2581,-57.75 -9,0 -9,0 -0.2582,57.75 -0.2581,57.75 9.5163,0 9.5162,0 -0.2581,-57.75 z m 94.7419,48.75 0,-8.5 -24.25,-0.26778 -24.25,-0.26778 -0.015,-47.73222 c -0.01,-26.25272 -0.384,-48.31333 -0.8346,-49.02357 -0.5935,-0.93539 -3.2768,-1.21103 -9.7347,-1 l -8.9154,0.29135 -0.2582,57.76314 -0.2581,57.76313 34.2581,-0.26313 34.2582,-0.26314 0,-8.5 z m 87.3034,2.03085 c 0.1668,-3.55803 0.046,-7.49553 -0.2691,-8.75 l -0.5724,-2.28085 -24.4715,0 -24.4714,0 -0.2595,-48.75 -0.2595,-48.75 -9,0 -9,0 -0.2582,57.76314 -0.2581,57.76313 34.2581,-0.26313 34.2582,-0.26314 0.3034,-6.46915 z M 174.068,511.90007 c 16.73697,-4.53002 27.11472,-16.12626 31.35621,-35.03788 2.11451,-9.42801 2.11451,-32.57199 0,-42 -4.24181,-18.91304 -14.62622,-30.51567 -31.35621,-35.03463 -8.06915,-2.17957 -47.64148,-3.36064 -49.89643,-1.48919 -1.33841,1.11078 -1.5287,8.26179 -1.5287,57.44626 0,43.57682 0.28037,56.47135 1.25,57.48736 1.84642,1.93475 42.01606,0.8364 50.17513,-1.37192 z m -31.42514,-56.1383 0,-39.60043 12.75,0.38318 c 10.67937,0.32094 13.41979,0.73614 16.87421,2.55657 5.34962,2.81917 8.67431,6.85917 11.5175,13.9955 2.07992,5.22054 2.29708,7.37272 2.29708,22.7656 0,15.39288 -0.21716,17.54506 -2.29708,22.7656 -3.02452,7.59145 -6.45908,11.50755 -12.60084,14.36753 -4.38393,2.04142 -6.57215,2.34861 -16.79087,2.3571 l -11.75,0.01 0,-39.60042 z m 96.69098,57.35042 c 0.44496,-0.6875 2.42634,-6.875 4.40307,-13.75 l 3.59405,-12.5 17.40595,-0.2627 17.406,-0.2627 3.7905,13.22872 c 2.0848,7.2758 4.3348,13.57462 5,13.99739 1.5955,1.01403 16.8556,0.99333 18.4595,-0.025 0.941,-0.59753 -3.0728,-14.62 -16.2399,-56.73468 -9.6194,-30.76755 -17.9424,-56.9704 -18.4957,-58.22857 -0.9579,-2.17866 -1.4461,-2.27389 -10.2529,-2 l -9.2471,0.28758 -18.19502,57.97942 c -13.13859,41.86676 -17.86495,58.18931 -17.00724,58.73469 2.07178,1.31734 18.48015,0.92437 19.37879,-0.46411 z m 18.63737,-64.75 c 3.3486,-11.55 6.3486,-21 6.6666,-21 0.6133,0 12.0051,38.69304 12.0051,40.77616 0,0.89922 -3.2838,1.22384 -12.38,1.22384 l -12.38004,0 6.08834,-21 z m 99.4312,16.77668 0.2594,-48.72332 14.7406,-0.27668 14.7405,-0.27668 0.2931,-8.41435 c 0.2109,-6.05663 -0.069,-8.6442 -1,-9.23468 -0.7113,-0.45119 -18.0005,-0.82724 -38.4207,-0.83566 -30.6828,-0.0127 -37.33,0.22861 -38.2938,1.38989 -0.7318,0.88185 -1.0568,4.32694 -0.8724,9.25 l 0.2938,7.8448 14.75,0.27673 14.75,0.27674 0,48.38993 c 0,37.76606 0.2744,48.50487 1.25,48.91347 0.6875,0.28794 4.85,0.43794 9.25,0.33333 l 8,-0.1902 0.2595,-48.72332 z m 50.8653,48.45801 c 0.6186,-0.40408 2.8184,-6.69719 4.8884,-13.98469 l 3.7636,-13.25 17.225,0 17.225,0 3.6366,12.36888 c 2.0001,6.80289 3.6366,12.82974 3.6366,13.39301 0,1.70601 2.761,2.23811 11.6131,2.23811 6.1146,0 8.5909,-0.36809 8.9608,-1.332 0.3897,-1.01569 -20.9922,-70.98324 -34.2018,-111.918 l -1.5329,-4.75 -9.3375,0 -9.3375,0 -2.5324,7.75 c -11.5385,35.311 -33.6492,107.76226 -33.2247,108.86865 0.3959,1.03173 2.7527,1.37747 9.3115,1.36604 4.8297,-0.008 9.2875,-0.34592 9.9062,-0.75 z m 13.3752,-45.02066 c 0,-0.77838 10.5355,-37.4254 11.5303,-40.10716 0.2842,-0.76622 0.7315,-1.17833 0.9941,-0.91579 0.2625,0.26253 2.9492,8.9639 5.9704,19.33638 3.0212,10.37247 5.7511,19.67208 6.0665,20.66579 0.5322,1.67691 -0.3297,1.80675 -11.994,1.80675 -6.912,0 -12.5673,-0.35369 -12.5673,-0.78597 z"
       id="path3424"
       inkscape:connector-curvature="0" />
  </g>
</svg>
