<?xml version="1.0" encoding="utf-8"?>
<!-- Generator: Adobe Illustrator 16.0.0, SVG Export Plug-In . SVG Version: 6.00 Build 0)  -->
<!DOCTYPE svg PUBLIC "-//W3C//DTD SVG 1.1//EN" "http://www.w3.org/Graphics/SVG/1.1/DTD/svg11.dtd">
<svg version="1.1" id="Layer_1" xmlns="http://www.w3.org/2000/svg" xmlns:xlink="http://www.w3.org/1999/xlink" x="0px" y="0px"
	 width="813.727px" height="564.776px" viewBox="45.757 164.884 813.727 564.776"
	 enable-background="new 45.757 164.884 813.727 564.776" xml:space="preserve">
<g>
	<path fill="#8E8E8E" d="M581.239,727.975c-1.277,0-2.557-0.003-3.831,0c-26.163,0.056-52.325,0.1-78.488,0.167
		c-33.036,0.089-66.074,0.069-99.107,0.347c-20.618,0.172-41.231,0.954-61.853,1.158c-10.394,0.104-20.796-0.396-31.19-0.743
		c-8.569-0.288-17.13-0.827-25.703-1.13c-19.27-0.678-38.539-1.41-57.814-1.863c-16.48-0.389-32.971-0.634-49.455-0.537
		c-15.082,0.088-30.159,0.894-45.242,1.064c-20.74,0.234-41.483,0.246-62.225,0.18c-5.091-0.019-10.195-0.581-15.266-1.146
		c-3.556-0.396-3.793-0.908-4.383-4.438c-1.326-7.939-0.835-15.908-0.258-23.853c0.861-11.86,0.467-23.708,0.026-35.562
		c-0.604-16.229-1.418-32.463,0.543-48.665c0.383-3.164,0.417-3.095,3.557-3.177c9.719-0.258,19.435-0.613,29.152-0.938
		c1.458-0.049,2.917-0.166,4.375-0.174c18.129-0.097,36.259-0.268,54.388-0.244c24.093,0.029,48.185,0.199,72.277,0.335
		c17.521,0.1,35.042,0.235,52.563,0.365c15.574,0.115,31.147,0.259,46.721,0.362c20.016,0.137,40.029,0.321,60.047,0.354
		c100.937,0.154,201.875,0.261,302.812,0.396c10.893,0.016,21.78,0.188,32.669,0.163c37.846-0.084,75.688-0.212,113.529-0.351
		c7.238-0.025,14.478-0.172,21.716-0.28c0.971-0.015,1.979,0.011,2.904-0.226c3.966-1.007,7.859,0.021,11.753,0.439
		c0.899,0.099,2.104,1.198,2.422,2.103c0.717,2.034,1.297,4.229,1.337,6.368c0.076,4.187-0.186,8.384-0.43,12.568
		c-0.506,8.68-1.403,17.348-1.568,26.028c-0.207,10.882-0.042,21.782,0.356,32.66c0.229,6.245,1.479,12.449,1.815,18.694
		c0.242,4.459,0.013,8.989-0.528,13.427c-0.406,3.337-1.106,3.716-4.439,3.827c-4.68,0.154-9.366,0.103-14.05,0.105
		c-11.008,0.014-22.019,0.021-33.025-0.001c-3.04-0.006-6.082-0.217-9.12-0.181c-25.001,0.305-50.001,0.673-75.002,0.965
		c-17.822,0.208-35.648,0.33-53.475,0.485c-28.471,0.249-56.941,0.492-85.413,0.735c-1.033,0.012-2.066,0.002-3.1,0.002
		C581.239,727.84,581.239,727.906,581.239,727.975z M479.475,705.417c10.17-0.349,15.353-1.936,20.563-5.585
		c2.587-1.812,4.41-4.165,5.176-7.264c0.364-1.477,0.655-2.97,0.999-4.447c1.038-4.472,0.306-8.729-2.416-12.321
		c-2.328-3.073-5.02-5.954-7.931-8.479c-3.296-2.858-7.046-5.188-10.546-7.817c-4.422-3.322-8.852-6.642-13.162-10.102
		c-2.569-2.062-3.973-4.87-3.351-8.222c0.83-4.46,3.255-7.936,7.604-9.534c4.258-1.565,8.146-0.191,11.616,2.425
		c1.642,1.237,2.774,2.885,3.016,5.024c0.193,1.723,1.263,2.769,2.909,2.677c2.892-0.161,5.785-0.515,8.645-0.981
		c1.699-0.278,2.368-1.64,1.762-3.178c-1.794-4.536-3.755-8.999-8.019-11.895c-9.889-6.707-25.986-5.091-34.166,3.64
		c-1.562,1.669-2.918,3.88-3.495,6.069c-2.15,8.18-0.515,15.483,6.2,21.089c2.654,2.218,5.622,4.053,8.409,6.11
		c3.178,2.349,6.559,4.497,9.404,7.202c3.458,3.286,6.987,6.72,9.517,10.706c4.047,6.382,1.355,12.463-5.816,14.729
		c-6.938,2.192-13.421-1.689-14.883-8.812c-0.125-0.612-1.029-1.474-1.618-1.511c-2.53-0.162-5.09-0.189-7.622-0.021
		c-2.748,0.186-3.688,1.288-3.479,4.046c0.325,4.257,2.587,7.569,5.725,10.236C469.528,703.467,475.354,705.622,479.475,705.417z
		 M632.605,702.651c1.362,2.126,1.592,2.355,3.194,2.312c2.49-0.072,4.979-0.269,7.466-0.392c1.26-0.062,1.846-0.646,1.831-1.948
		c-0.023-2.674,0.071-5.349,0.043-8.021c-0.075-7.292-0.524-14.598-0.226-21.87c0.658-15.916,1.562-31.818,0.79-47.758
		c-0.07-1.44-0.62-2.183-2.071-2.12c-2.427,0.104-4.857,0.169-7.273,0.391c-2.438,0.223-2.604,0.538-2.607,2.955
		c-0.009,6.688-0.077,13.375-0.054,20.062c0.005,1.451-0.514,1.771-1.865,1.509c-2.324-0.448-4.664-0.919-7.019-1.084
		c-8.5-0.603-15.802,5.032-17.439,13.38c-1.321,6.727-1.561,13.551-1.055,20.346c0.271,3.651,1.021,7.386,2.274,10.817
		c2.093,5.714,5.442,10.434,12.081,11.722C624.69,703.726,628.64,704.837,632.605,702.651z M81.029,657.808c0.192,0,0.384,0,0.575,0
		c0,9.243-0.173,18.489,0.064,27.729c0.146,5.688,0.891,11.363,1.432,17.038c0.149,1.565,1.117,2.188,2.757,2.191
		c10.339,0.041,20.677,0.201,31.016,0.246c4.576,0.021,4.576-0.061,4.646-4.624c0.083-5.46-0.436-5.847-5.841-5.93
		c-6.684-0.104-13.363-0.475-20.045-0.694c-1.319-0.044-2.044-0.594-2.154-1.923c-0.528-6.42-1.051-12.841-1.597-19.259
		c-0.127-1.495,0.538-2.087,1.997-2.089c2.311-0.003,4.623-0.067,6.932-0.155c4.01-0.151,8.024-0.258,12.024-0.553
		c2.054-0.151,2.374-0.821,1.888-2.791c-0.32-1.299-0.644-2.596-0.935-3.9c-0.629-2.828-0.626-2.982-3.597-2.888
		c-5.406,0.176-10.809,0.503-16.206,0.884c-1.708,0.121-2.504-0.326-2.46-2.132c0.078-3.159-0.066-6.329,0.101-9.482
		c0.276-5.218,0.815-10.423,1.048-15.643c0.078-1.738,0.654-2.357,2.325-2.396c6.02-0.137,12.038-0.334,18.056-0.533
		c1.762-0.062,3.522-0.185,5.279-0.323c1.165-0.094,2.049-0.632,1.914-1.943c-0.224-2.172-0.475-4.351-0.916-6.482
		c-0.123-0.595-0.894-1.396-1.469-1.49c-2.148-0.356-4.342-0.661-6.512-0.621c-8.513,0.154-17.025,0.43-25.536,0.71
		c-1.14,0.037-2.344,0.18-3.38,0.608c-0.611,0.253-1.345,1.163-1.349,1.782C81.007,634.697,81.029,646.253,81.029,657.808z
		 M373.375,674.622c0,1.951-0.137,3.909,0.032,5.84c0.258,2.96,0.469,5.963,1.153,8.839c2.143,8.994,8.961,14.161,18.186,13.916
		c2.238-0.06,4.478-0.406,6.696-0.756c1.232-0.193,1.704,0.189,1.676,1.391c-0.085,3.646-1.827,6.379-4.738,8.391
		c-2.502,1.729-4.855,0.839-7.117-0.646c-0.202-0.133-0.428-0.229-0.646-0.335c-1.458-0.688-2.81-0.623-4.046,0.518
		c-1.164,1.068-2.382,2.082-3.541,3.155c-2.201,2.043-1.983,3.936,0.93,4.614c3.688,0.863,7.551,1.567,11.306,1.436
		c9.126-0.325,16.225-6.468,17.766-15.469c0.737-4.314,0.768-8.856,0.407-13.237c-0.859-10.446-1.258-20.87-0.518-31.334
		c0.344-4.853,0.53-9.713,0.757-14.57c0.059-1.217-0.104-2.485-1.676-2.525c-1.935-0.051-3.89,0.018-5.806,0.269
		c-0.533,0.067-1.329,0.948-1.365,1.497c-0.155,2.395-0.42,2.627-2.688,1.676c-0.561-0.234-1.103-0.515-1.666-0.744
		c-9.095-3.701-20.234,0.247-23.439,10.609C373.261,662.891,372.689,668.683,373.375,674.622z M584.89,701.403
		c1.563,0.808,2.724,1.749,4.011,1.981c1.643,0.299,3.396,0.131,5.088-0.022c2.715-0.25,3.225-0.929,3.016-3.646
		c-0.424-5.518-1.059-11.025-1.248-16.554c-0.221-6.438-0.062-12.887-0.059-19.331c0.005-5.84-0.018-11.681,0.062-17.521
		c0.023-1.711-0.608-2.508-2.317-2.409c-3.031,0.171-6.074,0.232-9.093,0.555c-1.876,0.2-2.395,1.156-2.241,3.059
		c0.488,6.184,1.165,12.357,1.374,18.551c0.205,6.066,0.294,12.186-0.236,18.223c-0.618,7.031-3.204,9.353-10.204,9.628
		c-7.252,0.285-11.76-1.938-11.638-10.785c0.068-5.168,0.319-10.334,0.595-15.496c0.36-6.803,0.79-13.602,1.263-20.396
		c0.115-1.661-0.405-2.599-2.124-2.646c-2.605-0.071-5.217-0.123-7.824-0.159c-1.844-0.025-2.773,0.851-2.776,2.753
		c-0.005,2.855-0.178,5.718-0.119,8.571c0.216,10.455,0.235,20.926,0.832,31.359c0.526,9.223,5.577,14.982,14.511,17.158
		C572.621,705.945,579.276,705.367,584.89,701.403z M240.931,701.855c0.98,0.156,1.693,0.387,2.398,0.366
		c3.566-0.097,7.275,0.318,10.662-0.526c5.229-1.311,8.441-5.166,9.52-10.5c0.831-4.107,1.425-8.266,2.079-12.404
		c0.949-6.016,1.733-12.034,0.855-18.146c-1.133-7.892-6.016-13.358-13.87-14.658c-3.486-0.576-7.135-0.334-10.7-0.198
		c-1.626,0.062-2.202-0.243-2.094-1.911c0.296-4.604,0.524-9.213,0.713-13.822c0.182-4.433-1.083-5.71-5.483-5.702
		c-4.826,0.011-5.687,0.983-5.487,5.824c0.138,3.332,0.251,6.681,0.097,10.008c-0.382,8.255-1.378,16.507-1.297,24.75
		c0.123,12.458,0.969,24.908,1.456,37.363c0.062,1.589,0.773,2.456,2.259,2.506c1.995,0.067,3.997-0.087,5.997-0.112
		C239.748,704.668,241.061,704.218,240.931,701.855z M204.891,702.497c1.719,2.827,1.897,2.896,5.16,2.239
		c1.072-0.215,2.147-0.429,3.23-0.575c1.715-0.235,2.607-1.282,2.756-2.906c0.126-1.386,0.045-2.791,0.062-4.188
		c0.108-8.934-0.191-17.896,0.475-26.786c0.427-5.688,0.225-11.156-1.208-16.602c-1.271-4.822-4.287-8.155-9.183-9.475
		c-6.89-1.854-12.86,0.104-17.978,4.835c-2.53,2.337-4.316,5.163-3.933,8.825c0.079,0.76,0.564,2.032,1.016,2.104
		c2.366,0.378,4.841,0.82,7.15,0.447c1.013-0.163,1.753-2.188,2.554-3.412c0.362-0.552,0.539-1.222,0.853-1.81
		c0.835-1.564,2.139-2.203,3.918-2.065c4.236,0.328,7.109,4.483,6.072,8.853c-0.511,2.15-0.859,2.282-3.039,2.047
		c-2.882-0.313-5.838-0.888-8.668-0.552c-6.889,0.817-12.472,3.838-15.424,10.614c-3.934,9.03-0.773,21.4,7.198,27.19
		c3.686,2.677,7.833,4.286,12.493,3.327C200.572,704.163,202.652,703.242,204.891,702.497z M655.2,672.666
		c0.314,8.403,0.89,14.266,3.034,19.85c2.276,5.932,5.923,10.639,12.47,11.927c7.805,1.533,14.982-0.186,21.173-5.347
		c2.42-2.018,3.833-4.653,4.41-7.771c0.323-1.743-0.149-3.146-1.805-3.719c-2.506-0.87-5.093-1.513-7.66-2.185
		c-1.419-0.371-2.084,0.353-2.404,1.728c-0.343,1.471-0.795,2.938-1.401,4.318c-0.946,2.156-2.698,3.375-5.031,3.756
		c-5.369,0.88-9.058-1.383-10.255-6.812c-0.674-3.052-0.622-6.263-0.885-9.403c-0.107-1.32,0.604-1.837,1.851-1.913
		c6.246-0.38,12.488-0.794,18.734-1.181c1.818-0.113,3.643-0.15,5.458-0.272c1.242-0.084,1.896-0.795,1.765-2.055
		c-0.65-6.15-0.982-12.361-2.095-18.429c-0.978-5.351-4.612-8.792-10.058-9.836c-9.162-1.759-18.938,0.938-23.946,11.521
		C655.803,662.66,655.093,668.823,655.2,672.666z M720.081,648.973c-0.489-2.146-1.185-3.986-3.646-3.699
		c-2.105,0.244-4.188,0.723-6.272,1.136c-1.191,0.235-1.62,0.997-1.668,2.228c-0.188,4.801-0.499,9.596-0.711,14.395
		c-0.388,8.747-0.71,17.497-1.107,26.243c-0.168,3.7-0.631,7.396-0.641,11.099c-0.011,4.104,0.557,4.637,4.649,4.598
		c5.612-0.055,5.496,1.334,5.445-5.297c-0.083-11.032,0.952-21.979,1.631-32.963c0.304-4.898,3.041-7.706,6.62-9.987
		c4.338-2.765,9.358-0.445,9.98,4.626c0.735,6.021,1.422,12.096,1.426,18.146c0.004,7.039-0.727,14.08-1.2,21.116
		c-0.166,2.455,0.398,3.198,2.881,3.308c1.397,0.062,2.795,0.117,4.19,0.195c2.206,0.123,2.674-0.131,2.7-2.341
		c0.097-8.198,0.218-16.4,0.061-24.599c-0.142-7.354-0.576-14.697-2.629-21.854c-0.933-3.244-2.813-5.47-5.854-6.767
		c-4.532-1.935-9.118-1.761-13.724-0.23C721.551,648.542,720.874,648.731,720.081,648.973z M143.372,648.69
		c-1.488-3.65-1.713-3.783-5.864-3.143c-1.2,0.188-2.383,0.484-3.579,0.697c-1.556,0.276-2.199,1.103-2.235,2.756
		c-0.092,4.193-0.368,8.382-0.583,12.571c-0.637,12.385-1.361,24.766-1.886,37.154c-0.248,5.856,0.344,6.289,6.179,6.278
		c3.812-0.007,3.988-0.009,3.941-3.906c-0.137-11.512,0.876-22.95,1.665-34.417c0.349-5.06,3.183-7.919,6.951-10.139
		c4.287-2.525,9.035-0.142,9.638,4.817c0.73,6.02,1.406,12.093,1.408,18.143c0.002,7.101-0.729,14.2-1.177,21.299
		c-0.143,2.264,0.433,2.985,2.71,3.104c1.396,0.071,2.795,0.098,4.19,0.184c2.433,0.15,2.68-0.047,2.936-2.513
		c0.038-0.362,0.074-0.729,0.075-1.091c0.026-7.167,0.229-14.341,0.02-21.501c-0.233-8.015-0.474-16.049-2.782-23.851
		c-0.854-2.888-2.498-4.963-5.14-6.274c-2.67-1.327-5.535-1.983-8.488-1.646C148.72,647.515,146.128,648.166,143.372,648.69z
		 M338.438,648.708c-0.079-0.168-0.207-0.372-0.284-0.595c-0.945-2.686-1.679-3.15-4.458-2.725
		c-1.501,0.231-2.989,0.559-4.488,0.804c-1.607,0.263-2.357,1.065-2.423,2.804c-0.211,5.591-0.607,11.175-0.866,16.764
		c-0.389,8.383-0.733,16.77-1.073,25.153c-0.15,3.762-0.264,7.525-0.36,11.29c-0.045,1.705,0.858,2.58,2.549,2.646
		c1.579,0.062,3.169,0.009,4.734,0.179c1.96,0.213,2.58-0.67,2.586-2.494c0.019-4.862-0.029-9.732,0.235-14.584
		c0.386-7.043,1.259-14.064,1.478-21.108c0.164-5.299,3.275-8.271,7.324-10.455c4.121-2.222,8.442,0.078,9.246,4.648
		c1.107,6.296,1.914,12.629,1.516,19.054c-0.428,6.858-0.825,13.718-1.231,20.577c-0.149,2.535,0.422,3.159,2.944,3.252
		c1.215,0.046,2.433,0.065,3.645,0.153c2.791,0.201,3.231-0.096,3.243-2.937c0.035-8.507,0.12-17.018-0.071-25.521
		c-0.152-6.87-0.68-13.721-2.604-20.397c-0.896-3.101-2.624-5.505-5.614-6.479c-2.662-0.866-5.544-1.405-8.334-1.426
		C343.638,647.292,341.142,648.179,338.438,648.708z M814.271,705.175c1.875-0.183,3.779-0.208,5.616-0.576
		c6.156-1.235,10.994-4.253,13.143-10.502c2.173-6.32,0.02-11.531-4.648-15.771c-2.864-2.604-6.089-4.817-9.214-7.121
		c-2.445-1.803-5.107-3.328-7.436-5.264c-1.354-1.125-2.555-2.677-3.271-4.279c-1.766-3.957,0.514-7.973,4.819-8.188
		c2.386-0.116,5.229,0.205,7.144,1.443c2.925,1.893,4.937,1.038,7.172-0.701c0.77-0.598,1.562-1.164,2.298-1.8
		c1.704-1.473,1.69-1.924-0.046-3.383c-0.371-0.312-0.757-0.621-1.174-0.865c-8.229-4.809-16.742-5.823-25.391-1.352
		c-9.437,4.878-11.132,17.558-2.187,23.765c2.996,2.078,6.163,3.911,9.15,6.002c2.632,1.842,5.344,3.666,7.596,5.921
		c1.466,1.468,2.653,3.582,3.127,5.604c1.283,5.484-3.15,9.604-8.496,7.918c-2.63-0.829-5.188-2.149-7.487-3.683
		c-2.167-1.438-4.037-1.372-6.089-0.143c-0.887,0.531-1.771,1.074-2.601,1.688c-2.879,2.129-2.932,2.989-0.049,5.141
		C801.58,703,807.566,705.116,814.271,705.175z M528.153,670.09c0.108-0.004,0.222-0.009,0.332-0.013
		c0-4.495,0.024-8.99-0.017-13.485c-0.014-1.504,0.665-2.039,2.104-2.001c2.126,0.059,4.255,0.041,6.382,0.009
		c0.906-0.014,1.835-0.041,2.709-0.25c1.687-0.4,2.091-1.684,1.931-3.234c-0.271-2.624-0.771-3.314-2.568-3.458
		c-2.666-0.211-5.334-0.487-8.005-0.531c-1.809-0.03-2.408-0.757-2.479-2.502c-0.134-3.399-0.411-6.797-0.768-10.181
		c-0.062-0.582-0.779-1.544-1.229-1.563c-2.726-0.12-5.463-0.062-8.192,0.024c-1.58,0.05-2.172,0.996-2.11,2.554
		c0.104,2.729,0.067,5.464,0.145,8.194c0.085,3.027-0.172,3.349-3.129,3.532c-0.484,0.03-0.972,0.057-1.457,0.076
		c-2.795,0.128-3.004,0.394-2.511,3.193c0.043,0.239,0.104,0.475,0.142,0.715c0.533,3.6,0.532,3.6,4.242,3.875
		c3.112,0.229,3.226,0.334,3.595,3.359c0.109,0.903,0.271,1.809,0.312,2.717c0.379,8.744,0.706,17.49,1.119,26.23
		c0.119,2.544,0.317,5.103,0.752,7.604c0.418,2.422,1.268,4.911,3.389,6.279c5.375,3.466,11.167,5.173,17.425,2.463
		c1.207-0.522,2.201-1.668,3.119-2.685c0.823-0.909,0.659-1.96-0.417-2.646c-1.224-0.782-2.5-1.486-3.776-2.186
		c-1.565-0.854-3.077-1.17-4.796-0.113c-1.422,0.873-2.901,0.291-3.526-1.153c-0.758-1.753-1.415-3.66-1.565-5.545
		C528.785,682.954,528.516,676.519,528.153,670.09z M770.626,670.975c0.109-0.007,0.218-0.015,0.327-0.021
		c0-4.377-0.047-8.755,0.016-13.131c0.046-3.146,0.147-3.201,3.351-3.256c1.763-0.03,3.524,0.047,5.289,0.036
		c0.784-0.006,1.586-0.031,2.354-0.175c1.789-0.33,2.3-1.563,2.18-3.23c-0.188-2.638-0.725-3.399-2.646-3.55
		c-2.666-0.208-5.333-0.454-8.004-0.538c-1.567-0.051-2.245-0.558-2.308-2.229c-0.119-3.397-0.45-6.792-0.724-10.185
		c-0.073-0.915-0.142-1.902-1.451-1.898c-2.552,0.007-5.109-0.103-7.653,0.062c-2.24,0.143-2.481,0.565-2.479,2.899
		c0.006,3.039,0.007,6.079,0.031,9.118c0.011,1.453-0.521,2.331-2.128,2.258c-0.543-0.023-1.093,0.065-1.64,0.095
		c-3.625,0.191-3.624,0.19-3.169,3.87c0.03,0.241,0.058,0.483,0.07,0.728c0.186,3.105,0.186,3.105,3.193,3.178
		c4.108,0.096,4.491,0.301,4.72,4.38c0.529,9.527,0.885,19.063,1.345,28.594c0.102,2.062,0.212,4.139,0.545,6.169
		c0.492,3.001,1.469,5.969,4.207,7.591c4.438,2.628,9.241,4.047,14.483,2.839c2.194-0.508,4.086-1.521,5.401-3.445
		c0.749-1.094,0.761-2.052-0.42-2.791c-1.181-0.74-2.401-1.416-3.623-2.093c-1.618-0.896-3.185-1.25-4.961-0.149
		c-1.337,0.827-2.727,0.282-3.423-1.056c-0.688-1.322-1.325-2.802-1.453-4.258C771.48,684.188,771.087,677.578,770.626,670.975z
		 M289.78,630.502c0.055-0.014,0.111-0.026,0.166-0.039c-0.338-2.092-0.569-4.212-1.083-6.261c-0.15-0.599-1.116-1.417-1.694-1.406
		c-2.303,0.041-4.601,0.375-6.901,0.591c-1.065,0.102-1.691,0.643-1.714,1.736c-0.051,2.416-0.058,4.834-0.114,7.25
		c-0.25,10.808-0.499,21.615-0.77,32.423c-0.3,11.971-0.63,23.94-0.921,35.911c-0.021,0.841,0.09,1.705,0.284,2.524
		c0.287,1.211,1.02,1.843,2.389,1.674c2.111-0.261,4.233-0.483,6.356-0.579c1.552-0.071,2.189-0.854,2.24-2.278
		c0.088-2.491,0.428-5.011,0.175-7.469c-0.597-5.782-0.243-11.519,0.08-17.291c0.277-4.968-0.058-9.966-0.001-14.949
		c0.107-9.534-0.54-19.103,1.21-28.569C289.683,632.698,289.686,631.592,289.78,630.502z M301.93,674.146
		c-0.284,0.006-0.567,0.01-0.85,0.014c0,8.454-0.013,16.907,0.017,25.358c0.004,1.084,0.13,2.195,0.408,3.238
		c0.125,0.465,0.733,1.081,1.179,1.133c2.586,0.298,5.187,0.524,7.789,0.618c1.518,0.057,2.162-0.932,2.027-2.4
		c-0.128-1.395-0.451-2.785-0.418-4.173c0.264-11.247,0.54-22.493,0.919-33.735c0.189-5.59,0.594-11.171,0.919-16.756
		c0.104-1.791-0.779-2.613-2.491-2.558c-2.488,0.084-4.981,0.175-7.465,0.384c-2.611,0.222-2.863,0.653-2.778,3.359
		C301.454,657.136,301.684,665.642,301.93,674.146z M308.029,631.4c-0.057-0.127-0.109-0.254-0.164-0.384
		c-1.644,0.698-3.438,1.169-4.892,2.146c-2.653,1.784-2.834,4.667-0.718,7.072c1.583,1.8,4.897,2.376,7.612,1.32
		c2.887-1.118,4.741-3.808,4.315-6.257c-0.35-2.021-2.831-3.683-5.793-3.88C308.271,631.413,308.15,631.408,308.029,631.4z"/>
	<path fill="#FEFEFE" d="M355.89,511.013c0-0.768,0-1.535,0-2.302c0-34.132,0-68.264,0-102.396c0-2.562,0.003-2.564,2.577-2.565
		c11.073-0.002,22.146,0.038,33.219-0.04c1.774-0.012,2.228,0.505,2.227,2.252c-0.044,57.008-0.044,114.017-0.001,171.024
		c0.001,1.736-0.453,2.275-2.229,2.262c-9.551-0.082-19.104-0.062-28.653-0.01c-1.359,0.008-2.208-0.419-3.035-1.51
		c-27.159-35.826-54.353-71.629-81.542-107.433c-0.475-0.625-0.964-1.239-1.792-2.301c-0.094,1.257-0.204,2.039-0.204,2.822
		c-0.008,35.045-0.003,70.089-0.013,105.133c-0.001,3.688,0.372,3.245-3.179,3.251c-10.83,0.02-21.66-0.034-32.488,0.047
		c-1.829,0.014-2.37-0.475-2.369-2.34c0.047-56.947,0.047-113.896,0.001-170.842c-0.001-1.827,0.459-2.379,2.332-2.362
		c10.464,0.09,20.929,0.069,31.393,0.012c1.378-0.007,2.207,0.463,3.021,1.539c26.335,34.771,52.704,69.521,79.065,104.271
		c0.401,0.527,0.821,1.045,1.233,1.564C355.596,511.067,355.743,511.04,355.89,511.013z"/>
	<path fill="#FEFEFE" d="M808.037,510.95c0-0.82,0-1.642,0-2.459c0-34.007,0-68.016,0.001-102.021c0-2.715,0.005-2.72,2.63-2.72
		c11.072-0.002,22.145,0.029,33.216-0.032c1.64-0.009,2.186,0.423,2.183,2.136c-0.041,57.064-0.041,114.13-0.006,171.192
		c0.002,1.629-0.412,2.213-2.132,2.2c-9.55-0.075-19.103-0.069-28.65-0.002c-1.515,0.011-2.42-0.509-3.315-1.69
		c-27.009-35.631-54.053-71.233-81.092-106.843c-0.607-0.8-1.225-1.594-1.836-2.391c-0.155,0.046-0.312,0.093-0.465,0.139
		c0,0.757,0,1.513,0,2.269c0,35.226,0.003,70.448-0.008,105.673c0,2.978,0.418,2.807-2.881,2.809
		c-10.948,0.008-21.898-0.031-32.852,0.038c-1.706,0.011-2.283-0.401-2.281-2.211c0.047-57.063,0.046-114.127,0-171.191
		c-0.001-1.722,0.543-2.133,2.167-2.124c10.402,0.062,20.806,0.063,31.208-0.005c1.565-0.01,2.535,0.473,3.483,1.726
		c26.064,34.437,52.174,68.843,78.274,103.253c0.611,0.805,1.246,1.593,1.87,2.388C807.715,511.035,807.876,510.992,808.037,510.95z
		"/>
	<path fill="#FEFEFE" d="M670.471,491.214c-0.377,43.777-30.186,80.331-73.146,88.926c-21.867,4.374-43.196,2.399-63.323-7.596
		c-26.906-13.36-43.187-35.146-48.394-64.614c-4.764-26.947,1.188-51.726,18.418-73.23c15.365-19.186,35.718-29.896,59.991-33.048
		c19.906-2.585,39.147-0.04,57.137,9.179c26.336,13.498,42.023,35.103,47.505,64.095
		C669.669,480.276,669.887,485.779,670.471,491.214z M576.854,436.338c-18.784,0.016-34.641,8.73-44.396,24.792
		c-7.584,12.487-9.524,26.155-7.191,40.423c3.948,24.154,22.798,43.241,47.937,44.86c19.107,1.229,34.896-5.382,46.229-21.124
		c10.034-13.939,12.428-29.636,9.084-46.216C623.384,453.617,602.305,436.318,576.854,436.338z"/>
	<path fill="#FEFEFE" d="M58.008,459.535c0-17.824,0.028-35.647-0.043-53.471c-0.007-1.845,0.469-2.37,2.327-2.356
		c11.314,0.083,22.629,0.081,33.944,0.001c1.828-0.013,2.36,0.466,2.357,2.336c-0.059,32.423-0.033,64.847-0.056,97.271
		c-0.005,7.43,0.937,14.698,3.714,21.616c5.458,13.596,15.927,20.233,30.225,21.271c6.541,0.475,13.025-0.014,19.23-2.36
		c11.553-4.369,18.021-13.107,20.581-24.839c1.016-4.656,1.598-9.503,1.618-14.267c0.134-32.788,0.067-65.577,0.066-98.366
		c0-2.617,0.004-2.622,2.539-2.622c11.254-0.001,22.508,0.033,33.762-0.037c1.717-0.011,2.277,0.413,2.274,2.215
		c-0.054,32.729,0.004,65.456-0.068,98.186c-0.022,10.069-1.212,20.021-4.172,29.702c-7.723,25.251-24.717,40.408-50.368,45.898
		c-15.375,3.292-30.844,3.241-46.147-0.431c-25.121-6.028-41.137-21.683-48.16-46.53c-2.582-9.138-3.562-18.5-3.604-27.959
		C57.96,489.708,58.008,474.622,58.008,459.535z"/>
	<path fill="#FEFEFE" d="M424.496,403.848c0.925-0.041,1.583-0.094,2.239-0.095c11.312-0.005,22.627,0.039,33.938-0.046
		c1.857-0.014,2.349,0.526,2.347,2.355c-0.046,56.931-0.045,113.86-0.004,170.793c0.001,1.781-0.417,2.408-2.319,2.395
		c-11.374-0.088-22.748-0.076-34.122-0.008c-1.705,0.01-2.113-0.54-2.112-2.184c0.04-57.052,0.034-114.104,0.034-171.155
		C424.496,405.304,424.496,404.705,424.496,403.848z"/>
	<path fill="#FEFEFE" d="M612.135,335.156c0-10.579,0-21.159,0-31.738c0-10.572,0-21.145,0-31.876
		c0.764-0.056,1.351-0.136,1.938-0.137c6.266-0.009,12.531,0.036,18.798-0.036c1.492-0.017,1.975,0.404,1.973,1.941
		c-0.04,33.642-0.04,67.284,0.001,100.926c0.002,1.576-0.406,2.127-2.036,2.099c-5.229-0.088-10.464-0.076-15.692-0.002
		c-1.381,0.021-2.209-0.487-3.021-1.56c-15.789-20.854-31.615-41.681-47.435-62.512c-0.505-0.665-1.021-1.32-1.995-1.89
		c0,0.687,0,1.371,0,2.057c0,20.44,0.001,40.882,0,61.321c0,2.545-0.003,2.551-2.614,2.553c-5.962,0.003-11.924-0.039-17.885,0.026
		c-1.578,0.017-2.222-0.338-2.218-2.114c0.053-33.581,0.052-67.162,0.001-100.743c-0.003-1.742,0.581-2.129,2.188-2.104
		c5.717,0.082,11.438,0.075,17.154,0c1.369-0.02,2.205,0.432,3.025,1.518c15.188,20.088,30.417,40.146,45.639,60.21
		c0.573,0.757,1.153,1.507,1.729,2.259C611.835,335.288,611.984,335.223,612.135,335.156z"/>
	<path fill="#FEFEFE" d="M339.844,323.859c0-16.725,0.031-33.448-0.043-50.172c-0.008-1.873,0.529-2.347,2.355-2.327
		c14.531,0.155,29.088-0.267,43.592,0.422c16.749,0.796,30.762,7.72,40.884,21.466c7.786,10.572,10.482,22.632,9.335,35.536
		c-2.342,26.34-22.401,44.288-47.437,47.001c-3.136,0.34-6.309,0.48-9.462,0.496c-12.104,0.056-24.205,0.023-36.309,0.021
		c-2.916,0-2.917-0.004-2.917-3C339.844,356.822,339.844,340.341,339.844,323.859z M362.847,323.693
		c0,9.916,0.023,19.832-0.024,29.75c-0.007,1.438,0.328,2.072,1.908,2.043c6.324-0.111,12.663,0.113,18.976-0.219
		c8.209-0.432,15.354-3.498,20.907-9.775c6.06-6.852,7.822-15.034,7.487-23.909c-0.604-15.985-12.335-28.207-28.304-29.117
		c-6.248-0.356-12.528-0.114-18.79-0.28c-1.833-0.047-2.208,0.615-2.196,2.307C362.883,304.225,362.846,313.959,362.847,323.693z"/>
	<path fill="#FEFEFE" d="M520.411,313.249c0,6.961,0,13.618,0,20.513c-16.39,0-32.656,0-49.154,0c0,1.373,0,2.512,0,3.649
		c0,5.415,0.072,10.831-0.041,16.243c-0.037,1.742,0.568,2.123,2.186,2.119c17.217-0.049,34.435-0.034,51.649-0.025
		c3.298,0.001,2.989-0.316,2.997,3.082c0.013,5.171-0.043,10.343,0.03,15.513c0.021,1.519-0.498,1.986-1.993,1.985
		c-25.187-0.034-50.374-0.036-75.561,0.002c-1.562,0.002-2.104-0.432-2.103-2.062c0.041-33.644,0.039-67.287,0.004-100.93
		c-0.002-1.514,0.467-1.968,1.977-1.966c25.004,0.039,50.009,0.041,75.014-0.003c1.59-0.003,1.928,0.601,1.911,2.033
		c-0.062,5.475-0.086,10.952,0.013,16.425c0.03,1.716-0.562,2.153-2.201,2.149c-16.669-0.049-33.339-0.029-50.009-0.029
		c-0.487,0-0.974-0.002-1.46,0c-2.407,0.01-2.411,0.01-2.412,2.367c-0.002,5.537,0.072,11.074-0.042,16.608
		c-0.038,1.812,0.414,2.38,2.312,2.369c14.783-0.081,29.565-0.044,44.351-0.044C518.659,313.249,519.44,313.249,520.411,313.249z"/>
	<path fill="#FEFEFE" d="M232.073,271.513c7.803,0,15.26,0,23.002,0c0,0.872,0,1.637,0,2.402c0,19.04-0.023,38.08,0.012,57.119
		c0.012,6.364,1.057,12.472,4.967,17.776c3.267,4.434,7.777,6.779,13.083,7.513c4.919,0.68,9.85,0.503,14.521-1.505
		c7.257-3.12,10.682-9.078,11.915-16.524c0.385-2.327,0.535-4.717,0.541-7.079c0.041-19.101,0.021-38.201,0.023-57.302
		c0-2.505,0.006-2.51,2.471-2.51c6.266-0.002,12.531,0.021,18.796-0.017c1.203-0.008,1.756,0.303,1.752,1.627
		c-0.073,21.045,0.21,42.1-0.285,63.135c-0.263,11.168-3.749,21.561-11.9,29.809c-5.792,5.859-12.929,9.236-20.941,10.734
		c-11.768,2.203-23.407,1.908-34.567-2.889c-11.569-4.971-18.484-14.019-21.351-26.076c-1.158-4.869-1.898-9.955-1.953-14.951
		c-0.217-19.707-0.086-39.418-0.085-59.125C232.073,272.994,232.073,272.339,232.073,271.513z"/>
	<path fill="#FEFEFE" d="M131.808,283.347c-3.936,5.724-7.852,11.417-11.634,16.917c-4.521-2.348-8.786-4.798-13.245-6.818
		c-5.741-2.603-11.816-3.784-18.141-2.771c-1.54,0.247-3.09,0.735-4.505,1.395c-2.893,1.349-4.704,3.595-4.938,6.904
		c-0.241,3.424,0.721,6.463,3.887,8.035c3.52,1.747,7.218,3.205,10.96,4.413c5.492,1.772,11.15,3.036,16.625,4.854
		c3.499,1.164,6.907,2.729,10.16,4.478c8.039,4.32,12.931,10.99,13.813,20.192c1.057,11.011-1.529,20.811-10.344,28.229
		c-5.521,4.646-12.065,7.083-19.119,7.956c-19.272,2.388-36.516-2.519-51.589-14.842c-0.46-0.375-0.871-0.812-1.419-1.327
		c4.512-5.423,8.938-10.744,13.491-16.217c0.636,0.478,1.208,0.891,1.763,1.324c6.955,5.429,14.493,9.633,23.38,10.869
		c5.098,0.709,10.194,0.873,15.115-1.08c3.938-1.562,5.994-4.5,6.082-8.47c0.077-3.471-1.403-6.176-4.465-7.547
		c-4.254-1.905-8.657-3.517-13.088-4.978c-6.345-2.092-12.837-3.746-19.145-5.938c-5.101-1.772-9.635-4.62-13.226-8.802
		c-3.874-4.512-5.342-9.912-5.715-15.65c-1.259-19.333,11.467-31.196,27.929-33.741c16.954-2.621,32.493,1.268,46.296,11.626
		C131.072,282.609,131.355,282.926,131.808,283.347z"/>
	<path fill="#FEFEFE" d="M798.626,300.255c-4.63-2.397-8.902-4.853-13.374-6.864c-5.688-2.559-11.709-3.726-17.968-2.724
		c-1.6,0.256-3.217,0.753-4.674,1.454c-6.139,2.949-6.765,11.266-0.979,14.843c2.701,1.671,5.801,2.813,8.852,3.78
		c5.907,1.871,11.956,3.298,17.857,5.188c6.518,2.088,12.723,4.846,17.754,9.736c4.458,4.333,6.692,9.693,7.174,15.751
		c1.487,18.696-8.49,31.972-27.104,35.251c-20.207,3.559-38.321-1.59-54.212-14.562c-0.375-0.307-0.761-0.602-1.294-1.022
		c4.603-5.533,9.056-10.885,13.614-16.368c0.943,0.729,1.746,1.352,2.555,1.969c6.767,5.17,14.114,9.094,22.673,10.268
		c5.157,0.707,10.318,0.865,15.271-1.209c4.591-1.922,6.767-6.311,5.524-10.979c-0.722-2.716-2.621-4.492-5.03-5.432
		c-4.913-1.917-9.939-3.544-14.944-5.221c-6.273-2.104-12.641-3.954-18.825-6.284c-2.678-1.007-5.193-2.702-7.456-4.496
		c-7.9-6.265-9.738-14.961-9.04-24.406c1.132-15.336,12.216-25.234,26.166-27.856c17.376-3.265,33.315,0.532,47.646,10.97
		c1.185,0.861,1.367,1.504,0.479,2.761C805.639,289.962,802.101,295.199,798.626,300.255z"/>
	<path fill="#FEFEFE" d="M138.615,271.399c0.964,0,1.621,0,2.277,0c27.317,0,54.634,0,81.951,0.001c2.345,0,2.348,0.007,2.349,2.411
		c0.002,5.597-0.07,11.196,0.042,16.791c0.035,1.75-0.583,2.142-2.19,2.13c-9.004-0.058-18.008-0.026-27.013-0.025
		c-0.78,0-1.562,0-2.628,0c0,0.955,0,1.715,0,2.475c0,26.161,0,52.322,0,78.483c0,2.622-0.002,2.626-2.703,2.627
		c-5.962,0.003-11.925,0.004-17.887-0.001c-2.406-0.002-2.411-0.012-2.411-2.376c-0.001-26.161-0.001-52.322-0.001-78.483
		c0-0.785,0-1.57,0-2.546c-0.867-0.063-1.625-0.17-2.383-0.171c-9.065-0.012-18.13-0.051-27.195,0.027
		c-1.753,0.015-2.282-0.492-2.248-2.258c0.107-5.656,0.04-11.315,0.04-16.973C138.615,272.912,138.615,272.313,138.615,271.399z"/>
	<path fill="#FEFEFE" d="M697.22,292.832c0,0.924,0,1.7,0,2.477c0,26.155,0,52.311-0.001,78.465c0,2.507-0.004,2.516-2.456,2.518
		c-6.144,0.004-12.287-0.047-18.43,0.032c-1.672,0.022-2.15-0.502-2.147-2.181c0.053-26.217,0.035-52.434,0.035-78.648
		c0-0.842,0-1.682,0-2.653c-0.96-0.051-1.736-0.127-2.517-0.128c-7.299-0.009-14.599,0.014-21.896-0.017
		c-2.357-0.011-4.718-0.148-7.077-0.229c-0.099-2.407-0.259-4.814-0.281-7.222c-0.046-4.496-0.015-8.993-0.015-13.708
		c0.818-0.051,1.521-0.132,2.224-0.132c27.371-0.006,54.744,0.017,82.114-0.052c1.938-0.005,2.321,0.626,2.288,2.391
		c-0.104,5.351-0.036,10.705-0.036,16.058c-0.002,2.898-0.003,2.903-2.821,2.904c-8.82,0.002-17.641-0.002-26.46,0.006
		C698.966,292.712,698.19,292.784,697.22,292.832z"/>
	<path fill="#FEFEFE" d="M530.668,181.436c-4.671,6.89-9.342,13.779-14.013,20.669c-4.669,6.888-9.338,13.776-14.271,21.054
		c-9.614-14.142-19.037-28.001-28.459-41.86c-0.147,0.053-0.299,0.105-0.448,0.158c0,0.702,0,1.405,0,2.106
		c0,19.468,0,38.936,0,58.402c0,2.499-0.006,2.502-2.476,2.508c-1.521,0.004-3.043-0.048-4.562,0.008
		c-1.197,0.044-1.67-0.473-1.566-1.626c0.027-0.302,0-0.608,0-0.913c0-24.638-0.001-49.277,0-73.916
		c0-2.471,0.055-2.163,2.499-2.544c4.859-0.758,7.571,1.258,10.149,5.362c7.633,12.151,15.785,23.976,23.738,35.926
		c0.334,0.502,0.694,0.987,1.219,1.731c0.493-0.686,0.911-1.229,1.289-1.797c8.766-13.166,17.537-26.323,26.258-39.518
		c0.796-1.205,1.637-1.763,3.097-1.668c1.878,0.121,3.771,0.059,5.655,0.024c1.006-0.019,1.474,0.376,1.386,1.399
		c-0.03,0.362-0.001,0.729-0.001,1.095c0,24.639,0.001,49.277-0.001,73.916c0,2.51-0.004,2.513-2.472,2.52
		c-1.582,0.004-3.166-0.053-4.745,0.014c-1.242,0.053-1.751-0.398-1.716-1.676c0.064-2.31,0.016-4.624,0.016-6.935
		c-0.001-17.338-0.001-34.677-0.001-52.015c0-0.763,0-1.525,0-2.289C531.052,181.527,530.859,181.481,530.668,181.436z"/>
	<path fill="#FEFEFE" d="M58.007,205.001c0-12.406,0.032-24.813-0.037-37.219c-0.01-1.729,0.431-2.301,2.222-2.272
		c9.788,0.155,19.598-0.178,29.361,0.362c12.309,0.681,22.573,5.826,30.182,15.802c12.115,15.882,10.661,45.313-13.254,57.876
		c-6.834,3.591-14.183,4.936-21.837,4.923c-8.149-0.013-16.299-0.05-24.447,0.036c-1.791,0.019-2.235-0.568-2.226-2.291
		C58.039,229.814,58.007,217.408,58.007,205.001z M66.933,205.001c0,9.789,0.001,19.578-0.001,29.368
		c0,0.998-0.108,1.935,1.429,1.914c6.565-0.088,13.149,0.198,19.694-0.189c18.298-1.083,30.126-13.905,29.835-32
		c-0.252-15.646-11.438-28.265-27.046-29.804c-7.172-0.707-14.45-0.298-21.677-0.502c-1.73-0.049-2.291,0.415-2.275,2.21
		C66.977,185.665,66.932,195.333,66.933,205.001z"/>
	<path fill="#FEFEFE" d="M264.527,212.345c8.011,10.695,15.86,21.174,24.02,32.068c-3.849,0-7.162,0.065-10.468-0.066
		c-0.529-0.021-1.104-0.859-1.522-1.42c-6.878-9.208-13.75-18.421-20.573-27.67c-0.766-1.039-1.57-1.481-2.868-1.469
		c-6.203,0.058-12.406,0.023-18.61,0.031c-0.598,0-1.195,0.066-1.975,0.113c-0.035,0.796-0.093,1.5-0.093,2.204
		c-0.006,8.757-0.042,17.516,0.029,26.272c0.013,1.577-0.398,2.204-2.034,2.092c-1.816-0.124-3.647-0.058-5.471-0.029
		c-1.001,0.016-1.464-0.401-1.404-1.409c0.025-0.424-0.004-0.852-0.004-1.277c0-24.57,0-49.14,0.001-73.71
		c0-2.52,0.006-2.537,2.46-2.525c11.614,0.058,23.231,0.001,34.842,0.243c5.614,0.117,10.91,1.769,15.607,4.988
		c12.969,8.891,12.448,29.178-0.979,37.336c-1.653,1.004-3.426,1.853-5.229,2.552C268.514,211.346,266.659,211.736,264.527,212.345z
		 M232.516,205.647c0.627,0.079,1.044,0.176,1.461,0.176c7.54,0.005,15.081,0.023,22.621-0.014
		c4.244-0.021,8.381-0.684,12.144-2.768c5.652-3.131,8.3-8.009,8.01-14.446c-0.28-6.229-3.42-10.468-9.141-12.859
		c-3.546-1.482-7.273-1.904-11.069-1.909c-7.358-0.01-14.716-0.008-22.074,0c-0.639,0-1.278,0.078-1.953,0.122
		C232.516,184.613,232.516,195.057,232.516,205.647z"/>
	<path fill="#FEFEFE" d="M300.704,165.688c2.975,0,5.738,0,8.703,0c0.046,0.803,0.129,1.564,0.129,2.326
		c0.009,10.157,0.045,20.314-0.031,30.47c-0.013,1.697,0.503,2.157,2.158,2.15c13.745-0.057,27.49-0.063,41.235,0.006
		c1.764,0.01,2.111-0.634,2.104-2.22c-0.055-10.217,0.011-20.435-0.064-30.652c-0.013-1.759,0.503-2.388,2.266-2.25
		c1.753,0.138,3.525,0.063,5.289,0.025c1.02-0.022,1.458,0.394,1.364,1.409c-0.034,0.361-0.003,0.729-0.003,1.094
		c0,24.631,0,49.263,0,73.894c0,2.523-0.005,2.526-2.447,2.533c-1.582,0.004-3.165-0.055-4.743,0.012
		c-1.256,0.053-1.718-0.427-1.703-1.695c0.051-4.196,0.016-8.393,0.016-12.589c-0.001-6.386-0.057-12.772,0.036-19.157
		c0.025-1.717-0.556-2.129-2.188-2.123c-13.686,0.058-27.369,0.062-41.053-0.004c-1.728-0.008-2.279,0.431-2.267,2.215
		c0.08,10.399,0.004,20.8,0.073,31.199c0.011,1.66-0.448,2.292-2.14,2.169c-1.754-0.126-3.526-0.069-5.291-0.021
		c-1.114,0.03-1.562-0.436-1.446-1.522c0.032-0.3,0.002-0.607,0.002-0.912c0-24.692,0-49.384,0-74.077
		C300.704,167.255,300.704,166.542,300.704,165.688z"/>
	<path fill="#FEFEFE" d="M454.23,244.441c-3.171,0-5.959,0.07-8.739-0.066c-0.486-0.024-1.104-0.836-1.364-1.417
		c-2.652-5.874-5.279-11.76-7.821-17.682c-0.537-1.25-1.212-1.703-2.577-1.698c-13.077,0.048-26.156,0.05-39.234-0.003
		c-1.399-0.006-2.021,0.534-2.548,1.744c-2.552,5.853-5.226,11.652-7.764,17.509c-0.546,1.261-1.248,1.729-2.601,1.67
		c-2.286-0.099-4.58-0.027-7.164-0.027c0.373-0.941,0.588-1.556,0.854-2.147c11.348-25.165,22.709-50.323,34.017-75.506
		c0.625-1.391,1.385-1.917,2.872-1.808c2.054,0.151,4.566-0.578,6.057,0.37c1.479,0.94,1.983,3.469,2.828,5.341
		c10.708,23.718,21.401,47.442,32.095,71.167C453.458,242.595,453.75,243.314,454.23,244.441z M414.423,175.894
		c-0.164,0.021-0.327,0.041-0.49,0.062c-5.852,13.07-11.701,26.14-17.636,39.394c11.999,0,23.68,0,35.689,0
		C426.059,202.033,420.241,188.963,414.423,175.894z"/>
	<path fill="#FEFEFE" d="M140.189,191.857c0.002-8.09,0.042-16.181-0.031-24.271c-0.014-1.602,0.454-2.201,2.069-2.067
		c1.45,0.12,2.917,0.022,4.377,0.025c2.519,0.004,2.523,0.005,2.524,2.461c0.001,14.294-0.087,28.59,0.062,42.883
		c0.037,3.488,0.49,7.062,1.375,10.433c2.493,9.498,10.017,15.499,19.84,15.993c2.952,0.149,5.999,0.074,8.888-0.487
		c9.472-1.84,15.344-8.357,16.978-18.572c0.373-2.331,0.544-4.717,0.552-7.079c0.048-14.416,0.021-28.833,0.024-43.249
		c0-2.376,0.009-2.378,2.413-2.383c1.521-0.003,3.048,0.084,4.561-0.023c1.518-0.108,1.973,0.451,1.962,1.964
		c-0.062,8.698,0.008,17.397-0.042,26.095c-0.043,7.6,0.223,15.232-0.383,22.791c-0.876,10.929-5.318,20.087-15.459,25.511
		c-7.128,3.812-14.856,4.464-22.727,3.453c-9.875-1.268-17.698-5.908-22.624-14.766c-3.176-5.71-4.268-11.997-4.344-18.457
		C140.125,205.362,140.187,198.609,140.189,191.857z"/>
	<path fill="#FEFEFE" d="M821.388,295.415c0-8.117,0-15.89,0-23.861c0.632-0.054,1.213-0.146,1.796-0.147
		c6.812-0.01,13.62,0.024,20.432-0.032c1.391-0.011,1.918,0.355,1.902,1.836c-0.068,6.749,0.088,13.501-0.065,20.247
		c-0.144,6.213-1.228,12.209-5.188,17.332c-4.076,5.271-9.734,7.456-16.056,8.365c-1.68,0.241-3.39,0.381-5.083,0.362
		c-0.497-0.004-1.297-0.633-1.426-1.115c-0.592-2.229-0.979-4.512-1.476-6.767c-0.241-1.103,0.238-1.378,1.259-1.68
		c2.711-0.804,5.553-1.485,7.979-2.856c3.9-2.205,5.184-6.066,5.218-10.4c0.009-1.071-0.538-1.312-1.487-1.297
		C826.651,295.441,824.113,295.415,821.388,295.415z"/>
	<path fill="#FEFEFE" d="M479.475,705.417c-4.121,0.205-9.945-1.95-14.96-6.213c-3.138-2.667-5.398-5.979-5.725-10.236
		c-0.21-2.758,0.731-3.862,3.479-4.046c2.53-0.17,5.09-0.143,7.621,0.021c0.59,0.037,1.492,0.896,1.618,1.511
		c1.462,7.12,7.945,11.004,14.883,8.812c7.173-2.266,9.863-8.347,5.816-14.729c-2.528-3.986-6.06-7.42-9.517-10.706
		c-2.848-2.705-6.228-4.854-9.404-7.202c-2.787-2.06-5.755-3.896-8.409-6.11c-6.715-5.604-8.352-12.909-6.2-21.089
		c0.576-2.189,1.932-4.4,3.495-6.069c8.181-8.729,24.277-10.347,34.166-3.64c4.265,2.896,6.226,7.356,8.019,11.895
		c0.606,1.538-0.062,2.897-1.762,3.178c-2.858,0.469-5.753,0.82-8.645,0.979c-1.646,0.094-2.716-0.952-2.909-2.675
		c-0.24-2.142-1.374-3.787-3.016-5.024c-3.472-2.616-7.358-3.99-11.616-2.426c-4.349,1.602-6.772,5.075-7.604,9.535
		c-0.623,3.352,0.78,6.158,3.351,8.222c4.312,3.46,8.74,6.777,13.162,10.102c3.5,2.629,7.25,4.959,10.546,7.817
		c2.912,2.524,5.603,5.405,7.931,8.479c2.724,3.595,3.454,7.851,2.416,12.321c-0.344,1.479-0.635,2.973-0.999,4.447
		c-0.766,3.099-2.589,5.449-5.176,7.264C494.826,703.481,489.645,705.068,479.475,705.417z"/>
	<path fill="#FEFEFE" d="M632.605,702.651c-3.968,2.186-7.915,1.072-11.93,0.296c-6.639-1.288-9.989-6.008-12.081-11.723
		c-1.256-3.433-2.005-7.167-2.274-10.816c-0.506-6.795-0.269-13.619,1.055-20.346c1.64-8.348,8.939-13.98,17.439-13.381
		c2.354,0.166,4.692,0.637,7.019,1.084c1.354,0.263,1.87-0.057,1.865-1.508c-0.023-6.688,0.045-13.375,0.054-20.062
		c0.003-2.417,0.172-2.732,2.607-2.955c2.416-0.224,4.849-0.284,7.273-0.391c1.451-0.062,2.001,0.68,2.071,2.12
		c0.772,15.938-0.132,31.84-0.79,47.756c-0.301,7.274,0.147,14.58,0.226,21.872c0.028,2.673-0.066,5.35-0.043,8.021
		c0.015,1.304-0.571,1.886-1.831,1.948c-2.487,0.123-4.976,0.317-7.466,0.392C634.197,705.009,633.97,704.777,632.605,702.651z
		 M633.691,671.058c-0.115-0.001-0.23-0.003-0.348-0.004c0-2.492,0.026-4.982-0.005-7.477c-0.062-4.995-0.077-4.994-4.771-6.631
		c-5.239-1.826-9.771,0.618-10.891,6.107c-1.379,6.763-2,13.623-1.43,20.511c0.189,2.3,0.857,4.73,1.957,6.752
		c2.894,5.321,9.62,6.368,13.967,2.317c0.671-0.624,1.036-1.852,1.076-2.819c0.091-2.177-0.232-4.367-0.168-6.549
		C633.204,679.195,633.48,675.128,633.691,671.058z"/>
	<path fill="#FEFEFE" d="M81.029,657.808c0-11.555-0.021-23.108,0.059-34.665c0.004-0.618,0.738-1.528,1.349-1.781
		c1.036-0.431,2.24-0.571,3.38-0.608c8.511-0.28,17.022-0.556,25.536-0.71c2.17-0.04,4.364,0.265,6.512,0.621
		c0.575,0.096,1.347,0.896,1.469,1.49c0.441,2.134,0.692,4.312,0.916,6.482c0.135,1.312-0.749,1.852-1.914,1.943
		c-1.757,0.141-3.518,0.264-5.279,0.323c-6.018,0.198-12.036,0.396-18.056,0.532c-1.67,0.038-2.247,0.657-2.325,2.396
		c-0.233,5.22-0.772,10.425-1.048,15.643c-0.167,3.153-0.022,6.323-0.101,9.482c-0.044,1.806,0.752,2.253,2.46,2.132
		c5.396-0.381,10.8-0.708,16.206-0.884c2.971-0.097,2.967,0.06,3.597,2.888c0.291,1.307,0.614,2.604,0.935,3.9
		c0.485,1.97,0.166,2.64-1.888,2.791c-4,0.295-8.015,0.399-12.024,0.553c-2.31,0.088-4.621,0.152-6.932,0.155
		c-1.458,0.002-2.124,0.594-1.997,2.089c0.546,6.418,1.069,12.839,1.597,19.259c0.11,1.329,0.834,1.879,2.154,1.923
		c6.682,0.222,13.362,0.593,20.045,0.694c5.405,0.083,5.924,0.47,5.841,5.93c-0.07,4.563-0.07,4.646-4.646,4.624
		c-10.339-0.045-20.677-0.205-31.016-0.246c-1.641-0.006-2.608-0.626-2.757-2.191c-0.541-5.675-1.286-11.352-1.432-17.038
		c-0.237-9.237-0.064-18.483-0.064-27.729C81.413,657.808,81.221,657.808,81.029,657.808z"/>
	<path fill="#FEFEFE" d="M373.375,674.622c-0.686-5.939-0.114-11.731,1.662-17.473c3.205-10.362,14.346-14.312,23.441-10.609
		c0.562,0.229,1.104,0.51,1.664,0.744c2.268,0.951,2.531,0.719,2.688-1.676c0.036-0.551,0.832-1.43,1.365-1.497
		c1.916-0.251,3.871-0.317,5.806-0.269c1.571,0.04,1.733,1.311,1.676,2.525c-0.228,4.855-0.414,9.72-0.757,14.569
		c-0.741,10.465-0.344,20.889,0.516,31.334c0.361,4.382,0.334,8.924-0.405,13.238c-1.542,9.001-8.64,15.144-17.766,15.467
		c-3.755,0.136-7.618-0.568-11.306-1.434c-2.913-0.681-3.131-2.572-0.93-4.614c1.158-1.075,2.376-2.087,3.541-3.157
		c1.237-1.139,2.589-1.201,4.046-0.516c0.22,0.104,0.444,0.202,0.646,0.335c2.261,1.484,4.615,2.375,7.117,0.646
		c2.912-2.014,4.653-4.745,4.738-8.392c0.026-1.2-0.442-1.584-1.676-1.39c-2.22,0.349-4.458,0.696-6.696,0.756
		c-9.225,0.245-16.043-4.922-18.187-13.916c-0.685-2.876-0.896-5.879-1.152-8.839C373.238,678.531,373.375,676.573,373.375,674.622z
		 M401.112,675.033c0.078,0,0.154,0,0.232,0c0-2.37,0.074-4.743-0.019-7.11c-0.123-3.147-0.155-6.327-0.641-9.429
		c-0.405-2.604-2.188-4.229-4.924-4.701c-5.417-0.934-9.266,1.448-11.042,7.099c-1.618,5.147-2.273,10.45-2.009,15.847
		c0.204,4.126,0.345,8.265,1.975,12.176c1.163,2.792,3.264,4.521,6.051,5.401c5.32,1.681,9.271-1.001,9.653-6.532
		C400.686,683.536,400.876,679.283,401.112,675.033z"/>
	<path fill="#FEFEFE" d="M584.89,701.403c-5.611,3.964-12.269,4.542-19.134,2.871c-8.934-2.177-13.982-7.938-14.511-17.158
		c-0.597-10.438-0.616-20.904-0.832-31.359c-0.059-2.854,0.114-5.716,0.119-8.573c0.003-1.9,0.935-2.776,2.776-2.752
		c2.607,0.037,5.219,0.087,7.824,0.16c1.719,0.049,2.239,0.984,2.124,2.646c-0.473,6.796-0.9,13.595-1.263,20.396
		c-0.273,5.162-0.524,10.328-0.595,15.496c-0.122,8.848,4.386,11.07,11.638,10.785c7-0.275,9.586-2.599,10.204-9.628
		c0.53-6.037,0.44-12.154,0.236-18.225c-0.209-6.189-0.886-12.365-1.374-18.549c-0.151-1.9,0.365-2.856,2.241-3.059
		c3.019-0.32,6.062-0.384,9.093-0.557c1.709-0.097,2.343,0.7,2.317,2.411c-0.079,5.839-0.059,11.682-0.062,17.521
		c-0.005,6.442-0.162,12.895,0.059,19.331c0.189,5.524,0.824,11.036,1.248,16.554c0.209,2.717-0.301,3.394-3.016,3.644
		c-1.689,0.155-3.445,0.323-5.088,0.024C587.611,703.152,586.453,702.211,584.89,701.403z"/>
	<path fill="#FEFEFE" d="M240.931,701.855c0.13,2.36-1.183,2.812-2.896,2.834c-2,0.023-4.001,0.18-5.997,0.11
		c-1.486-0.05-2.197-0.917-2.259-2.506c-0.486-12.455-1.333-24.905-1.456-37.363c-0.081-8.243,0.915-16.495,1.297-24.75
		c0.154-3.327,0.041-6.676-0.097-10.008c-0.2-4.841,0.662-5.813,5.487-5.824c4.4-0.008,5.666,1.271,5.483,5.702
		c-0.189,4.609-0.417,9.22-0.713,13.822c-0.107,1.668,0.468,1.974,2.094,1.911c3.565-0.136,7.214-0.378,10.7,0.198
		c7.854,1.3,12.737,6.769,13.87,14.658c0.877,6.112,0.094,12.133-0.855,18.146c-0.653,4.141-1.248,8.297-2.079,12.404
		c-1.078,5.334-4.291,9.189-9.52,10.5c-3.387,0.847-7.096,0.432-10.662,0.526C242.624,702.242,241.911,702.014,240.931,701.855z
		 M238.354,671.383c0.053,0.002,0.105,0.004,0.158,0.006c0.296,4.975,0.572,9.947,0.895,14.919c0.302,4.66,2.68,6.845,7.584,7.039
		c4.375,0.175,6.945-1.753,7.308-6.307c0.686-8.59,1.172-17.204,1.41-25.818c0.132-4.816-2.565-7.341-7.368-7.793
		c-6.264-0.591-10.239,3.186-10.005,9.394C238.442,665.671,238.354,668.528,238.354,671.383z"/>
	<path fill="#FEFEFE" d="M204.891,702.497c-2.238,0.745-4.318,1.666-6.497,2.114c-4.659,0.959-8.807-0.65-12.493-3.327
		c-7.971-5.79-11.132-18.16-7.198-27.19c2.952-6.776,8.535-9.797,15.424-10.615c2.83-0.336,5.786,0.237,8.668,0.553
		c2.179,0.235,2.527,0.104,3.039-2.047c1.038-4.367-1.836-8.522-6.072-8.853c-1.779-0.138-3.083,0.501-3.918,2.065
		c-0.312,0.588-0.491,1.258-0.853,1.81c-0.801,1.225-1.542,3.249-2.554,3.412c-2.309,0.373-4.785-0.069-7.15-0.447
		c-0.452-0.071-0.937-1.346-1.016-2.104c-0.383-3.662,1.403-6.488,3.933-8.825c5.117-4.729,11.087-6.688,17.978-4.835
		c4.896,1.317,7.912,4.65,9.183,9.475c1.434,5.443,1.635,10.912,1.208,16.602c-0.666,8.891-0.367,17.854-0.475,26.786
		c-0.017,1.396,0.065,2.803-0.062,4.188c-0.148,1.624-1.041,2.671-2.756,2.906c-1.083,0.146-2.158,0.359-3.23,0.575
		C206.788,705.394,206.61,705.324,204.891,702.497z M206.111,683.216c-0.382-2.55-0.542-4.431-0.964-6.25
		c-0.668-2.88-2.123-5.278-5.277-5.839c-3.685-0.653-7.874,1.138-9.195,4.098c-2.597,5.816-2.779,11.764,0.063,17.578
		c1.288,2.638,3.69,3.607,6.573,2.947c3.224-0.737,5.717-2.571,6.931-5.626C205.188,687.745,205.604,685.156,206.111,683.216z"/>
	<path fill="#FEFEFE" d="M655.2,672.666c-0.107-3.843,0.603-10.006,3.354-15.821c5.009-10.585,14.784-13.277,23.946-11.521
		c5.443,1.044,9.08,4.486,10.058,9.836c1.11,6.066,1.442,12.278,2.095,18.429c0.133,1.26-0.521,1.972-1.765,2.056
		c-1.815,0.121-3.64,0.158-5.458,0.271c-6.246,0.387-12.488,0.801-18.734,1.181c-1.246,0.076-1.958,0.595-1.851,1.913
		c0.262,3.143,0.211,6.354,0.884,9.403c1.198,5.432,4.887,7.693,10.256,6.814c2.333-0.383,4.085-1.602,5.031-3.758
		c0.606-1.381,1.061-2.85,1.401-4.318c0.32-1.375,0.985-2.099,2.404-1.728c2.567,0.672,5.154,1.312,7.659,2.185
		c1.654,0.573,2.129,1.976,1.806,3.719c-0.577,3.115-1.99,5.753-4.41,7.771c-6.188,5.161-13.368,6.882-21.173,5.347
		c-6.547-1.288-10.191-5.995-12.47-11.925C656.09,686.932,655.517,681.069,655.2,672.666z M675.282,667.844
		c2.669-0.208,5.271-0.441,7.877-0.602c1.52-0.093,2.118-0.962,1.827-2.29c-0.491-2.242-0.898-4.567-1.833-6.635
		c-2.349-5.194-7.878-6.059-11.905-1.984c-2.668,2.699-3.361,6.253-3.885,9.813c-0.057,0.365,0.77,1.193,1.25,1.25
		C670.842,667.654,673.093,667.716,675.282,667.844z"/>
	<path fill="#FEFEFE" d="M720.081,648.973c0.793-0.239,1.47-0.431,2.136-0.65c4.604-1.528,9.189-1.702,13.726,0.23
		c3.036,1.296,4.921,3.521,5.852,6.767c2.053,7.155,2.487,14.5,2.629,21.854c0.157,8.196,0.036,16.398-0.061,24.599
		c-0.026,2.21-0.494,2.464-2.7,2.341c-1.396-0.078-2.793-0.134-4.19-0.195c-2.48-0.106-3.047-0.853-2.881-3.308
		c0.478-7.036,1.204-14.077,1.2-21.116c-0.004-6.051-0.688-12.125-1.426-18.146c-0.622-5.071-5.645-7.391-9.98-4.626
		c-3.579,2.281-6.315,5.09-6.62,9.987c-0.679,10.983-1.714,21.931-1.631,32.963c0.052,6.631,0.167,5.242-5.443,5.297
		c-4.097,0.039-4.662-0.491-4.651-4.598c0.01-3.7,0.473-7.396,0.641-11.1c0.397-8.745,0.724-17.495,1.107-26.242
		c0.212-4.799,0.525-9.595,0.711-14.395c0.048-1.229,0.477-1.991,1.668-2.228c2.085-0.413,4.167-0.892,6.274-1.137
		C718.896,644.984,719.592,646.826,720.081,648.973z"/>
	<path fill="#FEFEFE" d="M143.372,648.69c2.756-0.524,5.348-1.178,7.979-1.478c2.954-0.337,5.818,0.319,8.488,1.646
		c2.643,1.312,4.286,3.389,5.14,6.274c2.308,7.8,2.549,15.836,2.782,23.851c0.208,7.158,0.006,14.334-0.02,21.501
		c-0.001,0.362-0.038,0.729-0.075,1.091c-0.256,2.466-0.503,2.663-2.936,2.513c-1.396-0.086-2.794-0.111-4.19-0.184
		c-2.278-0.116-2.853-0.841-2.71-3.104c0.448-7.099,1.18-14.198,1.177-21.299c-0.002-6.05-0.678-12.123-1.408-18.143
		c-0.603-4.959-5.351-7.345-9.638-4.817c-3.768,2.22-6.603,5.079-6.951,10.139c-0.789,11.467-1.802,22.905-1.665,34.417
		c0.047,3.897-0.129,3.899-3.941,3.906c-5.835,0.011-6.427-0.422-6.179-6.279c0.525-12.39,1.249-24.771,1.886-37.153
		c0.215-4.189,0.491-8.378,0.583-12.571c0.036-1.653,0.679-2.479,2.235-2.756c1.196-0.213,2.379-0.511,3.579-0.697
		C141.659,644.907,141.884,645.04,143.372,648.69z"/>
	<path fill="#FEFEFE" d="M338.438,648.708c2.705-0.529,5.2-1.416,7.689-1.396c2.79,0.021,5.672,0.56,8.334,1.426
		c2.991,0.974,4.72,3.378,5.614,6.479c1.925,6.678,2.451,13.527,2.604,20.397c0.191,8.504,0.106,17.015,0.071,25.521
		c-0.012,2.841-0.452,3.138-3.243,2.937c-1.212-0.088-2.43-0.107-3.645-0.153c-2.521-0.093-3.096-0.717-2.944-3.252
		c0.406-6.859,0.805-13.719,1.231-20.577c0.397-6.425-0.407-12.758-1.516-19.054c-0.804-4.57-5.125-6.87-9.246-4.648
		c-4.048,2.185-7.159,5.156-7.323,10.455c-0.22,7.044-1.093,14.065-1.479,21.108c-0.266,4.852-0.218,9.722-0.235,14.584
		c-0.006,1.822-0.626,2.707-2.586,2.494c-1.565-0.171-3.155-0.115-4.734-0.179c-1.688-0.064-2.593-0.939-2.549-2.646
		c0.098-3.767,0.209-7.528,0.36-11.29c0.34-8.386,0.686-16.771,1.073-25.153c0.259-5.589,0.655-11.173,0.866-16.764
		c0.063-1.736,0.814-2.541,2.423-2.804c1.5-0.245,2.987-0.57,4.488-0.804c2.779-0.428,3.513,0.039,4.458,2.725
		C338.23,648.336,338.355,648.54,338.438,648.708z"/>
	<path fill="#FEFEFE" d="M814.271,705.175c-6.705-0.059-12.691-2.175-18.021-6.146c-2.883-2.149-2.83-3.014,0.049-5.142
		c0.829-0.611,1.714-1.154,2.602-1.688c2.051-1.229,3.921-1.298,6.088,0.143c2.302,1.531,4.857,2.854,7.487,3.683
		c5.346,1.686,9.779-2.434,8.496-7.918c-0.474-2.021-1.661-4.138-3.127-5.604c-2.252-2.255-4.964-4.079-7.596-5.921
		c-2.987-2.091-6.154-3.924-9.15-6.002c-8.945-6.207-7.25-18.887,2.187-23.766c8.646-4.473,17.16-3.456,25.391,1.353
		c0.417,0.244,0.803,0.553,1.174,0.865c1.736,1.459,1.75,1.909,0.046,3.383c-0.733,0.636-1.528,1.202-2.298,1.8
		c-2.235,1.739-4.247,2.593-7.172,0.701c-1.915-1.238-4.758-1.562-7.144-1.443c-4.308,0.214-6.585,4.229-4.819,8.188
		c0.717,1.604,1.916,3.153,3.271,4.278c2.326,1.937,4.988,3.462,7.436,5.265c3.125,2.304,6.35,4.519,9.214,7.121
		c4.668,4.239,6.821,9.45,4.648,15.771c-2.146,6.249-6.984,9.267-13.143,10.502C818.053,704.967,816.146,704.992,814.271,705.175z"
		/>
	<path fill="#FEFEFE" d="M528.153,670.09c0.36,6.43,0.632,12.864,1.144,19.281c0.15,1.885,0.81,3.792,1.565,5.545
		c0.625,1.444,2.104,2.026,3.525,1.153c1.72-1.057,3.229-0.739,4.796,0.113c1.277,0.697,2.556,1.401,3.777,2.186
		c1.076,0.688,1.24,1.738,0.417,2.646c-0.918,1.017-1.912,2.16-3.119,2.685c-6.258,2.71-12.05,1.003-17.425-2.463
		c-2.121-1.368-2.971-3.857-3.389-6.279c-0.435-2.504-0.635-5.062-0.752-7.604c-0.413-8.742-0.74-17.488-1.119-26.232
		c-0.039-0.908-0.2-1.812-0.312-2.717c-0.369-3.025-0.479-3.13-3.594-3.359c-3.71-0.275-3.709-0.275-4.242-3.875
		c-0.036-0.24-0.099-0.476-0.142-0.715c-0.493-2.802-0.284-3.065,2.511-3.193c0.485-0.021,0.972-0.046,1.457-0.076
		c2.957-0.186,3.214-0.505,3.129-3.532c-0.076-2.73-0.041-5.466-0.145-8.194c-0.062-1.558,0.529-2.504,2.109-2.554
		c2.73-0.087,5.469-0.146,8.193-0.024c0.449,0.021,1.168,0.981,1.229,1.563c0.354,3.384,0.634,6.779,0.768,10.181
		c0.068,1.745,0.671,2.472,2.479,2.502c2.671,0.044,5.339,0.32,8.005,0.531c1.801,0.144,2.299,0.834,2.569,3.458
		c0.16,1.553-0.244,2.834-1.931,3.235c-0.874,0.209-1.804,0.235-2.709,0.25c-2.127,0.031-4.256,0.049-6.382-0.01
		c-1.438-0.038-2.115,0.497-2.104,2.001c0.041,4.495,0.016,8.99,0.016,13.485C528.375,670.081,528.264,670.086,528.153,670.09z"/>
	<path fill="#FEFEFE" d="M770.626,670.975c0.461,6.604,0.854,13.212,1.437,19.807c0.13,1.456,0.768,2.936,1.453,4.258
		c0.696,1.338,2.086,1.883,3.425,1.056c1.774-1.101,3.342-0.747,4.961,0.149c1.22,0.677,2.44,1.353,3.623,2.093
		c1.179,0.739,1.169,1.697,0.42,2.791c-1.317,1.925-3.207,2.938-5.403,3.445c-5.242,1.208-10.048-0.211-14.483-2.839
		c-2.736-1.622-3.715-4.589-4.207-7.589c-0.333-2.032-0.443-4.107-0.545-6.171c-0.46-9.528-0.813-19.064-1.345-28.594
		c-0.227-4.079-0.609-4.284-4.72-4.38c-3.009-0.07-3.008-0.07-3.193-3.178c-0.015-0.242-0.04-0.484-0.069-0.728
		c-0.454-3.68-0.455-3.679,3.17-3.869c0.546-0.028,1.095-0.119,1.638-0.096c1.608,0.073,2.139-0.805,2.128-2.258
		c-0.024-3.039-0.025-6.079-0.031-9.118c-0.004-2.334,0.237-2.759,2.479-2.899c2.543-0.162,5.103-0.055,7.652-0.062
		c1.312-0.004,1.378,0.983,1.451,1.898c0.271,3.393,0.604,6.785,0.726,10.185c0.061,1.674,0.736,2.183,2.306,2.229
		c2.671,0.084,5.338,0.33,8.004,0.538c1.922,0.148,2.458,0.914,2.646,3.55c0.118,1.667-0.393,2.901-2.182,3.23
		c-0.771,0.144-1.568,0.169-2.354,0.176c-1.765,0.01-3.526-0.067-5.289-0.037c-3.201,0.055-3.303,0.109-3.351,3.256
		c-0.062,4.376-0.016,8.754-0.016,13.131C770.844,670.96,770.735,670.968,770.626,670.975z"/>
	<path fill="#FEFEFE" d="M289.78,630.502c-0.094,1.09-0.098,2.196-0.296,3.268c-1.75,9.469-1.104,19.035-1.21,28.569
		c-0.057,4.983,0.278,9.981,0.001,14.949c-0.323,5.771-0.677,11.509-0.08,17.291c0.253,2.458-0.086,4.978-0.175,7.469
		c-0.051,1.427-0.688,2.207-2.24,2.278c-2.124,0.096-4.245,0.317-6.356,0.579c-1.369,0.169-2.102-0.463-2.389-1.675
		c-0.194-0.818-0.305-1.685-0.284-2.523c0.292-11.971,0.622-23.94,0.921-35.911c0.271-10.808,0.52-21.615,0.77-32.423
		c0.056-2.416,0.062-4.834,0.114-7.25c0.022-1.096,0.648-1.637,1.714-1.736c2.3-0.216,4.598-0.55,6.901-0.591
		c0.579-0.011,1.544,0.81,1.694,1.406c0.514,2.049,0.745,4.169,1.083,6.261C289.891,630.476,289.835,630.488,289.78,630.502z"/>
	<path fill="#FEFEFE" d="M301.93,674.146c-0.246-8.507-0.476-17.013-0.745-25.518c-0.085-2.706,0.167-3.14,2.778-3.359
		c2.481-0.209,4.977-0.3,7.465-0.384c1.712-0.058,2.598,0.767,2.491,2.558c-0.325,5.585-0.729,11.166-0.919,16.756
		c-0.379,11.243-0.655,22.49-0.919,33.735c-0.032,1.388,0.291,2.778,0.418,4.173c0.135,1.471-0.511,2.458-2.027,2.4
		c-2.602-0.094-5.203-0.318-7.789-0.618c-0.446-0.052-1.055-0.668-1.179-1.133c-0.278-1.043-0.404-2.153-0.408-3.237
		c-0.03-8.452-0.017-16.905-0.017-25.359C301.363,674.156,301.646,674.152,301.93,674.146z"/>
	<path fill="#FEFEFE" d="M308.029,631.4c0.121,0.008,0.242,0.013,0.361,0.021c2.962,0.197,5.443,1.859,5.793,3.88
		c0.426,2.449-1.43,5.139-4.315,6.257c-2.715,1.056-6.029,0.479-7.612-1.32c-2.116-2.405-1.936-5.288,0.718-7.072
		c1.454-0.979,3.25-1.447,4.892-2.146C307.919,631.146,307.974,631.273,308.029,631.4z"/>
	<path fill="none" d="M576.854,436.338c25.451-0.02,46.53,17.278,51.66,42.734c3.342,16.581,0.95,32.275-9.084,46.216
		c-11.333,15.742-27.12,22.354-46.229,21.124c-25.139-1.619-43.986-20.706-47.937-44.86c-2.333-14.268-0.393-27.936,7.191-40.423
		C542.213,445.068,558.067,436.354,576.854,436.338z"/>
	<path fill="none" d="M362.847,323.693c0-9.734,0.037-19.469-0.034-29.201c-0.014-1.691,0.362-2.354,2.195-2.307
		c6.262,0.166,12.542-0.076,18.79,0.28c15.969,0.91,27.7,13.132,28.304,29.117c0.336,8.875-1.429,17.058-7.487,23.909
		c-5.555,6.277-12.698,9.344-20.907,9.775c-6.312,0.332-12.65,0.107-18.977,0.219c-1.579,0.029-1.916-0.604-1.907-2.043
		C362.87,343.525,362.847,333.609,362.847,323.693z"/>
	<path fill="none" d="M66.933,205.001c0-9.668,0.044-19.336-0.041-29.003c-0.016-1.795,0.544-2.259,2.275-2.21
		c7.227,0.204,14.505-0.205,21.677,0.502c15.608,1.539,26.794,14.158,27.046,29.804c0.291,18.095-11.537,30.916-29.835,32
		c-6.545,0.387-13.129,0.101-19.694,0.189c-1.537,0.021-1.429-0.917-1.429-1.914C66.934,224.579,66.933,214.79,66.933,205.001z"/>
	<path fill="none" d="M232.516,205.647c0-10.59,0-21.035,0-31.697c0.675-0.044,1.313-0.122,1.953-0.122
		c7.358-0.008,14.716-0.011,22.074,0c3.796,0.005,7.522,0.427,11.069,1.909c5.721,2.391,8.861,6.63,9.141,12.859
		c0.29,6.437-2.358,11.314-8.01,14.446c-3.763,2.084-7.9,2.747-12.144,2.768c-7.541,0.037-15.081,0.02-22.621,0.014
		C233.56,205.824,233.143,205.726,232.516,205.647z"/>
	<path fill="none" d="M414.423,175.894c5.818,13.069,11.636,26.139,17.563,39.456c-12.011,0-23.69,0-35.689,0
		c5.934-13.254,11.785-26.324,17.636-39.394C414.096,175.935,414.259,175.915,414.423,175.894z"/>
	<path fill="#8F8F8F" d="M633.691,671.058c-0.211,4.07-0.487,8.14-0.608,12.21c-0.064,2.182,0.259,4.372,0.168,6.55
		c-0.04,0.969-0.405,2.194-1.076,2.818c-4.347,4.052-11.073,3.004-13.967-2.317c-1.099-2.021-1.767-4.452-1.957-6.752
		c-0.57-6.888,0.051-13.748,1.43-20.511c1.119-5.489,5.649-7.936,10.891-6.107c4.692,1.637,4.708,1.636,4.771,6.631
		c0.031,2.492,0.005,4.983,0.005,7.477C633.461,671.055,633.576,671.057,633.691,671.058z"/>
	<path fill="#8F8F8F" d="M401.112,675.033c-0.236,4.25-0.429,8.503-0.722,12.748c-0.382,5.531-4.333,8.213-9.653,6.531
		c-2.787-0.881-4.888-2.608-6.05-5.4c-1.631-3.911-1.771-8.05-1.976-12.176c-0.266-5.396,0.392-10.697,2.009-15.847
		c1.776-5.648,5.625-8.03,11.042-7.099c2.734,0.472,4.52,2.1,4.925,4.701c0.483,3.102,0.518,6.277,0.64,9.429
		c0.092,2.367,0.019,4.74,0.019,7.11C401.268,675.033,401.19,675.033,401.112,675.033z"/>
	<path fill="#8F8F8F" d="M238.354,671.383c0-2.854,0.089-5.712-0.018-8.562c-0.234-6.208,3.742-9.982,10.005-9.394
		c4.802,0.452,7.5,2.977,7.368,7.793c-0.237,8.614-0.724,17.229-1.41,25.818c-0.363,4.554-2.934,6.48-7.308,6.307
		c-4.905-0.194-7.282-2.379-7.584-7.039c-0.323-4.972-0.598-9.944-0.895-14.919C238.459,671.387,238.406,671.385,238.354,671.383z"
		/>
	<path fill="#8F8F8F" d="M206.111,683.216c-0.507,1.94-0.923,4.529-1.868,6.908c-1.214,3.055-3.708,4.889-6.931,5.626
		c-2.883,0.66-5.286-0.312-6.573-2.947c-2.842-5.814-2.66-11.762-0.063-17.578c1.321-2.96,5.51-4.751,9.195-4.098
		c3.154,0.56,4.609,2.959,5.277,5.839C205.569,678.785,205.729,680.666,206.111,683.216z"/>
	<path fill="#8F8F8F" d="M675.282,667.844c-2.189-0.128-4.44-0.188-6.669-0.444c-0.48-0.058-1.307-0.886-1.25-1.251
		c0.521-3.562,1.217-7.114,3.885-9.813c4.027-4.072,9.559-3.21,11.905,1.984c0.935,2.065,1.342,4.393,1.833,6.635
		c0.291,1.328-0.31,2.197-1.827,2.29C680.553,667.4,677.951,667.636,675.282,667.844z"/>
</g>
</svg>
