<?xml version="1.0" encoding="utf-8"?>
<!-- Generator: Adobe Illustrator 16.0.0, SVG Export Plug-In . SVG Version: 6.00 Build 0)  -->
<!DOCTYPE svg PUBLIC "-//W3C//DTD SVG 1.1//EN" "http://www.w3.org/Graphics/SVG/1.1/DTD/svg11.dtd">
<svg version="1.1" id="Layer_1" xmlns="http://www.w3.org/2000/svg" xmlns:xlink="http://www.w3.org/1999/xlink" x="0px" y="0px"
	 width="774.662px" height="338.167px" viewBox="8.338 125.944 774.662 338.167"
	 enable-background="new 8.338 125.944 774.662 338.167" xml:space="preserve">
<g>
	<path fill="#FFFFFF" d="M213.336,219.74c1.9-18.125,0.108-54.542-3.497-74.25c-0.833-4.563-3.793-10.205-11.659-12.04
		c-20.116-4.686-46.717-7.289-75.079-7.506c-2.466,20.305-4.547,48.445-4.547,80.231l0.031,12.156l0.006,0.672l3.016,0.285
		c1.443,0.131,2,0.918,2.206,2.375c0.204,1.435,0.388,3.215,0.388,3.215S178.246,224.565,213.336,219.74z"/>
	<path fill="#FFFFFF" d="M104.301,245.216l-3.025-0.284c-1.445-0.136-2.05-0.911-2.205-2.378c-0.148-1.363-0.389-3.215-0.389-3.215
		l0.007-0.019c-24.071,0-51.209,0.13-86.297,4.956c4.731,27.104,35.707,88.411,85.61,114.646
		c2.468-20.305,6.357-69.797,6.357-101.584l-0.051-11.467l-0.003-0.674L104.301,245.216z"/>
	<path fill="#FFFFFF" d="M124.186,239.321c24.065,0,51.449,0.13,86.537,4.956c-4.734,27.104-35.709,88.411-85.615,114.646
		c-2.461-20.305-6.579-69.797-6.579-101.584l0.183-11.674l-0.024-0.469l2.894-0.264c1.446-0.135,2.029-0.913,2.206-2.378
		c0.163-1.328,0.389-3.214,0.389-3.214L124.186,239.321z"/>
	<g>
		<path fill="#FFFFFF" d="M58.2,184.437c-0.13,0.248-0.045,0.672,0.09,0.871c0.21-0.021,0.717-0.168,0.991-0.337
			c0.314-0.193,0.405-0.345,0.742-0.585C59.696,184.361,58.245,184.354,58.2,184.437z"/>
		<path fill="#FFFFFF" d="M57.697,172.41L8.854,219.74c34.876,4.795,65.391,5.137,89.395,5.143h0.44c0,0,0.2-1.619,0.387-3.213
			c0.17-1.467,0.761-2.246,2.207-2.379l3.023-0.287l0.003-0.053L57.697,172.41z M53.438,186.294
			c-0.213,0.785-0.205,1.793,0.893,1.793c0.852,0,2.338-0.73,2.648-0.875l0.128,0.279c-0.244,0.1-2.186,1.657-3.752,1.678
			c-0.876,0.014-1.175-0.514-1.175-1.028C52.18,187.346,52.798,187.062,53.438,186.294z M69.337,197.652
			c0,0.846-1.287,1.342-1.547,1.723c-0.129,0.19-0.237,0.306-0.29,0.512c-0.155-0.547,0.136-0.997,0.136-1.389
			c0-0.443-0.312-0.654-0.759-0.654c-0.675,0-2.489,1.637-1.395,4.256c-0.072-0.932,0.272-1.543,0.428-1.715
			c0.156-0.174,0.3-0.514,0.267-0.789c0.352,0.648,0.426,0.941,0.426,1.457c0,1.119-0.811,1.353-0.431,2.184
			c0.069,0.227,0.144,0.415,0.262,0.708c0-0.394,0.069-0.737,0.138-1.013c0.068-0.275,0.5-0.789,0.55-0.996
			c0.052-0.208,0.069-0.415,0.017-0.672c0.362,0.449,0.603,0.838,0.603,1.564c0,0.842-0.379,1.325-0.484,1.563
			c-0.102,0.243-0.222,0.481-0.272,0.894c-0.235,1.856-1.151,2.73-2.356,2.73c-0.756,0-1.322-0.118-1.802-0.43
			c0,2.388-2.719,2.201-2.719,3.762c0,0.433,0.293,0.945,0.583,1.24c0.291,0.289,1.396,0.699,1.806,1.23
			c-0.594,0.04-1.233,0.246-1.576,0.643c0.976,0.485,0.951,1.039,1.078,1.777c-0.959-0.479-1.397-0.201-1.645,0.059
			c-0.293,0.309-0.152,0.718-0.488,1.193c-0.154-0.375-0.406-0.693-0.817-0.693c-0.416,0-1.264,0.742-1.277,0.984
			c-0.036,0.652-0.345,0.911-0.934,0.986c-0.438,0.468-0.335,0.708-0.319,1.145c-0.38-0.359-0.441-0.593-0.296-1.246
			c-0.441-0.18-0.389-0.549-0.257-0.875l-0.165-0.115c-0.238,0.211-0.481,0.512-1.067,0.234c-0.226,0.096-0.521,0.443-0.567,0.856
			c-0.154-0.985,0.157-1.327,0.32-1.472c-0.1-0.225,0.042-0.69,0.443-0.863c0-0.1-0.037-0.148-0.05-0.196
			c-0.33,0-0.605-0.131-0.721-0.345c-0.316-0.062-0.749,0.316-0.83,0.545c0-0.553,0.441-1.111,0.766-1.247
			c0.369-0.733,1.076-0.864,1.5-0.438c0.236,0.233,0.8,0.488,1.374,0.488c0.569,0,1.091-0.473,1.229-0.662
			c0.138-0.189,0.153-0.224,0.223-0.38c0.125-0.282,0.364-0.616-0.223-1.354c-0.464-0.584-1.62-1.717-1.642-2.525
			c-0.036-1.332,0.581-2.107,1.181-2.637c-0.211,0-0.155,0-0.475,0c-0.85,0-0.922-0.531-1.789-0.531c-0.634,0-1.01,0.637-1.01,1.188
			c0,0.549,0.098,0.666,0.292,1.022c0.264,0.489,0.359,0.759,0.29,1.255c-0.5-0.451-1.214-0.68-1.782-0.177
			c-0.221,0.635-0.357,0.884-0.766,1.19c-0.035-0.529-1.123-1.375-2.095-0.475c-0.095,0.227-0.18,0.732-0.858,0.732
			c-0.404,0-0.364-0.098-0.533-0.166c-0.277,0.24-0.511,0.507-0.591,0.854c-0.142-0.523,0.044-0.979,0.226-1.197
			c-0.065-0.229-0.045-0.793,0.246-0.949c-0.086-0.096-0.052-0.032-0.132-0.17c-0.423,0.356-1.088,0.4-1.379-0.006
			c-0.245,0.045-0.479,0.217-0.74,0.746c-0.063-0.537,0.301-1.146,0.552-1.32c0.005-0.407,0.563-0.762,1.138-0.641
			c0.044-0.068-0.01-0.111,0.054-0.197c0.059-0.086-0.023-0.045-0.023-0.045c-0.166-0.092-0.711-0.115-0.676-0.797
			c-0.333-0.117-0.646,0.039-0.874,0.237c0.225-0.583,0.714-0.769,1.087-0.804c0.136-0.256,0.553-0.285,0.767-0.285
			c0.398,0,0.666,0.189,0.732,0.439c0.402,0.713,1.313,0.949,2.207,0.949c0.449,0,0.829-0.341,0.829-0.854
			c0-0.516-0.874-2.018-0.874-2.708c0-0.685,1.232-2.007,2.06-2.007c2.517,0,3.097,1.052,3.662,1.052
			c0.793,0,0.899-0.165,1.021-0.29c-1.186-1.458-1.941-1.43-3.071-2.205c-0.568-0.393-0.862-1.05-0.948-1.665
			c-0.699,0.163-1.381,1.097-1.711,1.679c-0.156-0.275-0.396-0.461-0.687-0.461c-0.56,0-0.96,0.729-1.222,1.352
			c-0.162-0.713-0.589-1.372-1.404-1.372c-0.458,0-0.978,0.194-1.108,0.493c-0.129,0.291-0.562,0.732-1.235,0.562
			c-0.242,0.171-0.465,0.241-0.635,0.988c-0.23-0.937,0.001-1.111,0.133-1.343c-0.133-0.616,0.123-0.838,0.24-0.987l-0.065-0.164
			c-0.365,0.12-0.905,0.077-1.064-0.237c-0.411-0.021-0.529,0.032-0.882,0.559c0.069-0.594,0.409-1.086,0.782-1.229
			c0.141-0.351,0.625-0.493,1.01-0.493c0.033-0.099,0.062-0.099,0.081-0.18c-0.25-0.139-0.465-0.455-0.412-0.83
			c-0.31-0.357-0.65-0.134-0.933-0.029c0.494-0.516,1.079-0.707,1.472-0.478c0.85-0.283,1.145,0.114,1.224,0.59
			c0.098,0.546,0.95,0.62,1.832,0.62c1.929,0,4.992-1.796,4.77-3.221c-0.457-0.114-0.507-0.098-0.864-0.098
			c-1.032,0-2.32,1.291-3.334,1.309c0.508-0.575,0.194-1.154,0.474-1.582c-0.557-0.014-1.125,0.336-2.189,0.24
			c0.358-0.213,0.606-0.963,0.606-1.226c0-0.262,0-0.786-1.146-0.786c-0.113,0.031-0.423,0.131-0.652,0.131
			c-0.269,0-1.026-0.068-1.026-0.67c-0.377-0.08-0.652,0.018-1.057,0.32c0.08-0.416,0.862-0.934,1.091-0.969
			c0.159-0.318,0.478-0.459,0.635-0.441c0.032-0.166,0.026-0.015,0.035-0.212c-0.388-0.052-0.881-0.194-0.871-0.841
			c-0.275-0.253-0.45-0.309-1.068-0.145c0.765-0.574,1.039-0.49,1.288-0.393c0.563-0.422,1.021-0.191,1.18-0.012
			c0.067-0.084,0.128-0.098,0.158-0.163c-0.132-0.41-0.055-0.81,0.123-0.987c-0.013-0.445-0.219-0.582-0.631-0.669
			c0.847,0.017,1.19,0.211,1.468,0.522c0.488,0.064,0.792,0.492,0.801,0.8c0.014,0.8-0.833,1.348,0.8,2.192
			c0.508,0.26,1.225,0.521,1.946,0.735c0.722,0.21,1.612,0.536,1.974,0.536c-0.281-0.441-0.164-0.883-0.623-1.323
			c0.521-0.034,1.16,0.146,1.634,0.242c-0.099-0.638,0.061-0.64-0.364-1.033c0.359,0.05,0.874,0.058,1.15,0.087
			c1.859,0.198,1.885-0.723,2.247-1.894c-0.633,0.038-1.702,0.192-2.713,0.864c0.098-0.346-0.012-0.625-0.012-0.92
			c0-0.555,0.437-0.668,0.652-0.668c0.099,0,0.375-0.043,0.585-0.043c0.408,0,0.976-0.459,0.71-1.365
			c-0.125-0.434-0.457-0.705-0.836-0.592c-0.276,0.078-0.341,0.072-0.746,0.224c-0.312,0.116-0.41,0.358-0.444,0.687
			c-0.063-0.148-0.176-0.566-0.229-0.67c-0.061-0.123-0.103-0.197-0.216-0.479c-0.035-0.09-0.026-0.09-0.076-0.203
			c-0.194-0.456,0.114-0.84,0.508-0.916c0.327-0.064,0.852-0.197,1.177-0.294c0.644-0.193,0.843-0.445,0.98-0.784
			c0.144-0.359,0.233-0.497,0.826-0.497c0.185,0,0.859,0.015,1.167,0.015c0.898,0,1.912-0.731,1.578-1.51
			c0.628,0.111,0.878,1.116,0.724,1.51c0.292,0,1.27-0.19,1.493-0.377c-0.004,0.676-0.533,1.512-0.91,1.719
			c0.481,0.05,1.327-0.021,1.582-0.242c-0.156,0.514-0.705,1.613-1.051,1.77c0.839,0.289,1.387,0.741,1.764,1.779
			c-0.637-0.262-1.013,0.055-1.569-0.031c1.146,1.34,1.569,3.377,1.902,3.887c-0.309-0.17-0.93-0.516-1.393-0.685
			c0.476,1.11-0.227,2.207-0.121,2.798c-0.361-0.207-0.828-0.465-0.979-0.758c-0.187,0.448-0.582,1.326-0.431,2.458
			c-0.291-0.31-0.789-0.549-1.012-0.722c-0.429,0.617-0.688,1.016-0.688,2.597c0,2.161,1.007,4.229,1.446,5.048
			c0.669,1.256,0.835,2.325,0.943,2.75c0.213,0.844,0.816,1.391,1.616,1.391c0.774,0,1.424-0.705,1.424-1.563
			c0-1.563-1.907-2.558-1.907-5.308c0-1.805,1.391-2.705,1.429-3.855c0.035-1.018-0.899-0.387-1.595-0.84
			c0.894-0.178,1.419-1.167,2.213-1.122c0.701,0.042,0.862,0.413,0.898,0.771c0.051,0.49-0.268,1.061-0.37,1.266
			c0.777-0.67,1.123-1.695,1.123-2.212c0-0.772-1.087-1.632-0.807-3.111c0.041-0.2,0.036-0.171,0.085-0.292
			c0.321,1.667,2.685,2.096,2.685,3.745c0,1.554-1.342,1.261-2.112,2.338C68.387,196.559,69.337,196.727,69.337,197.652z"/>
	</g>
	<g>
		<path fill="#FFFFFF" d="M99.817,125.945c-28.461,0.242-55.177,3.019-75.083,7.506c-7.877,1.777-10.806,7.48-11.658,12.04
			c-2.414,12.917-5.538,38.453-4.55,64.709c4.842-4.607,49.465-48.005,49.465-48.005l46.368,46.296
			C104.359,176.703,102.28,146.25,99.817,125.945z M30.72,140.918c-0.215,0.799-0.206,1.824,0.909,1.824
			c0.866,0,2.379-0.743,2.694-0.891l0.13,0.285c-0.25,0.101-2.225,1.685-3.817,1.707c-0.893,0.013-1.198-0.525-1.198-1.049
			C29.439,141.986,30.072,141.7,30.72,140.918z M46.9,152.474c0,0.86-1.31,1.365-1.575,1.751c-0.131,0.194-0.241,0.313-0.296,0.521
			c-0.157-0.555,0.139-1.013,0.139-1.413c0-0.452-0.317-0.665-0.772-0.665c-0.687,0-2.53,1.662-1.418,4.329
			c-0.075-0.947,0.275-1.569,0.436-1.745c0.157-0.177,0.304-0.523,0.268-0.802c0.362,0.66,0.436,0.955,0.436,1.481
			c0,1.141-0.822,1.377-0.438,2.222c0.072,0.232,0.146,0.421,0.267,0.718c0-0.398,0.071-0.748,0.142-1.029
			c0.068-0.278,0.505-0.8,0.558-1.015c0.055-0.213,0.07-0.422,0.019-0.683c0.366,0.455,0.611,0.853,0.611,1.591
			c0,0.856-0.386,1.349-0.493,1.593c-0.1,0.247-0.225,0.49-0.275,0.907c-0.239,1.89-1.17,2.778-2.396,2.778
			c-0.77,0-1.346-0.121-1.839-0.435c0,2.429-2.763,2.237-2.763,3.829c0,0.438,0.298,0.96,0.595,1.258
			c0.295,0.296,1.418,0.711,1.834,1.251c-0.602,0.043-1.255,0.252-1.602,0.655c0.994,0.494,0.969,1.056,1.095,1.81
			c-0.977-0.487-1.422-0.203-1.673,0.058c-0.299,0.317-0.156,0.732-0.496,1.217c-0.159-0.385-0.414-0.708-0.833-0.708
			c-0.423,0-1.286,0.76-1.299,1.003c-0.035,0.663-0.35,0.927-0.951,1.002c-0.447,0.479-0.34,0.721-0.324,1.167
			c-0.386-0.366-0.449-0.604-0.302-1.271c-0.45-0.18-0.395-0.558-0.26-0.888l-0.168-0.118c-0.24,0.216-0.489,0.521-1.085,0.239
			c-0.23,0.099-0.527,0.449-0.577,0.87c-0.158-1.002,0.161-1.35,0.326-1.495c-0.104-0.229,0.042-0.703,0.449-0.881
			c0-0.099-0.035-0.148-0.051-0.198c-0.332,0-0.614-0.134-0.731-0.348c-0.323-0.067-0.763,0.318-0.846,0.552
			c0-0.562,0.449-1.133,0.781-1.269c0.374-0.746,1.091-0.881,1.525-0.448c0.239,0.24,0.813,0.499,1.396,0.499
			c0.579,0,1.111-0.482,1.251-0.673c0.139-0.193,0.159-0.229,0.225-0.387c0.129-0.286,0.374-0.625-0.225-1.38
			c-0.471-0.594-1.649-1.747-1.672-2.568c-0.036-1.357,0.593-2.144,1.204-2.686c-0.215,0-0.157,0-0.485,0
			c-0.864,0-0.939-0.54-1.82-0.54c-0.645,0-1.027,0.646-1.027,1.207s0.101,0.678,0.296,1.041c0.271,0.5,0.366,0.772,0.294,1.278
			c-0.509-0.459-1.233-0.692-1.812-0.182c-0.224,0.652-0.364,0.9-0.779,1.211c-0.035-0.538-1.14-1.396-2.128-0.48
			c-0.1,0.229-0.186,0.745-0.876,0.745c-0.409,0-0.369-0.1-0.542-0.169c-0.282,0.245-0.518,0.518-0.602,0.868
			c-0.145-0.532,0.044-0.996,0.231-1.219c-0.065-0.229-0.048-0.805,0.251-0.964c-0.091-0.097-0.054-0.033-0.136-0.173
			c-0.43,0.366-1.107,0.407-1.404-0.007c-0.249,0.048-0.488,0.226-0.752,0.759c-0.064-0.543,0.308-1.163,0.561-1.343
			c0.005-0.418,0.574-0.774,1.159-0.648c0.043-0.07-0.007-0.119,0.055-0.205c0.062-0.087-0.021-0.047-0.021-0.047
			c-0.169-0.093-0.725-0.116-0.688-0.807c-0.338-0.122-0.659,0.039-0.891,0.238c0.23-0.594,0.728-0.782,1.107-0.819
			c0.14-0.257,0.565-0.286,0.781-0.286c0.406,0,0.678,0.192,0.746,0.446c0.41,0.727,1.335,0.968,2.246,0.968
			c0.458,0,0.841-0.349,0.841-0.872c0-0.526-0.89-2.052-0.89-2.755c0-0.696,1.254-2.039,2.097-2.039
			c2.559,0,3.149,1.069,3.725,1.069c0.807,0,0.914-0.169,1.042-0.294c-1.21-1.484-1.98-1.455-3.131-2.247
			c-0.578-0.399-0.874-1.066-0.962-1.693c-0.715,0.167-1.406,1.119-1.741,1.711c-0.159-0.281-0.403-0.471-0.698-0.471
			c-0.569,0-0.979,0.743-1.247,1.376c-0.164-0.726-0.595-1.398-1.428-1.398c-0.466,0-0.995,0.202-1.125,0.503
			c-0.133,0.295-0.574,0.748-1.255,0.572c-0.249,0.175-0.474,0.244-0.647,1.006c-0.232-0.954,0.002-1.131,0.135-1.366
			c-0.135-0.627,0.127-0.854,0.243-1.002l-0.065-0.17c-0.372,0.119-0.922,0.079-1.085-0.241c-0.417-0.019-0.536,0.033-0.896,0.57
			c0.071-0.608,0.415-1.106,0.797-1.253c0.144-0.356,0.637-0.501,1.028-0.501c0.033-0.1,0.063-0.102,0.082-0.186
			c-0.254-0.139-0.47-0.46-0.419-0.842c-0.315-0.365-0.66-0.138-0.949-0.032c0.503-0.521,1.095-0.718,1.497-0.485
			c0.865-0.287,1.165,0.116,1.247,0.601c0.098,0.555,0.965,0.632,1.862,0.632c1.963,0,5.081-1.829,4.853-3.275
			c-0.465-0.119-0.515-0.101-0.879-0.101c-1.048,0-2.359,1.312-3.391,1.329c0.515-0.583,0.198-1.174,0.481-1.607
			c-0.566-0.017-1.145,0.34-2.228,0.245c0.365-0.217,0.616-0.982,0.616-1.248c0-0.267,0-0.802-1.165-0.802
			c-0.116,0.034-0.429,0.134-0.665,0.134c-0.274,0-1.046-0.068-1.046-0.679c-0.382-0.084-0.661,0.016-1.075,0.324
			c0.083-0.42,0.877-0.952,1.113-0.989c0.161-0.324,0.484-0.466,0.644-0.447c0.034-0.166,0.028-0.015,0.039-0.214
			c-0.396-0.056-0.898-0.199-0.886-0.855c-0.281-0.26-0.458-0.312-1.087-0.149c0.779-0.583,1.057-0.495,1.311-0.401
			c0.571-0.424,1.038-0.194,1.2-0.008c0.066-0.085,0.128-0.098,0.16-0.166c-0.132-0.418-0.056-0.825,0.125-1.007
			c-0.013-0.45-0.223-0.59-0.641-0.68c0.861,0.015,1.211,0.214,1.492,0.532c0.495,0.065,0.808,0.499,0.816,0.813
			c0.015,0.815-0.848,1.371,0.812,2.231c0.518,0.264,1.248,0.532,1.981,0.747c0.734,0.215,1.641,0.547,2.009,0.547
			c-0.285-0.449-0.166-0.896-0.637-1.347c0.536-0.036,1.183,0.149,1.667,0.246c-0.103-0.648,0.061-0.65-0.372-1.05
			c0.365,0.052,0.888,0.059,1.173,0.089c1.89,0.202,1.917-0.736,2.284-1.927c-0.646,0.035-1.732,0.196-2.761,0.883
			c0.1-0.355-0.012-0.637-0.012-0.939c0-0.564,0.446-0.678,0.664-0.678c0.103,0,0.38-0.046,0.598-0.046
			c0.413,0,0.992-0.469,0.721-1.391c-0.129-0.44-0.465-0.716-0.851-0.601c-0.283,0.082-0.347,0.073-0.762,0.227
			c-0.316,0.116-0.416,0.364-0.449,0.7c-0.063-0.153-0.18-0.578-0.233-0.682c-0.062-0.127-0.105-0.206-0.219-0.487
			c-0.036-0.089-0.026-0.09-0.079-0.208c-0.198-0.463,0.115-0.854,0.516-0.93c0.333-0.069,0.866-0.204,1.196-0.3
			c0.659-0.199,0.86-0.453,1-0.799c0.146-0.364,0.235-0.507,0.839-0.507c0.191,0,0.875,0.018,1.188,0.018
			c0.917,0,1.947-0.747,1.608-1.538c0.64,0.114,0.893,1.134,0.735,1.538c0.297,0,1.292-0.194,1.519-0.384
			c-0.005,0.688-0.541,1.538-0.924,1.748c0.488,0.051,1.349-0.021,1.609-0.245c-0.158,0.522-0.718,1.641-1.07,1.802
			c0.853,0.293,1.413,0.751,1.795,1.811c-0.649-0.267-1.031,0.054-1.596-0.033c1.165,1.363,1.597,3.438,1.931,3.951
			c-0.312-0.168-0.943-0.521-1.415-0.693c0.483,1.13-0.231,2.243-0.125,2.846c-0.363-0.211-0.837-0.473-0.993-0.77
			c-0.193,0.458-0.594,1.348-0.438,2.502c-0.296-0.316-0.805-0.56-1.03-0.737c-0.437,0.629-0.702,1.033-0.702,2.644
			c0,2.198,1.024,4.301,1.471,5.134c0.682,1.281,0.852,2.367,0.96,2.801c0.215,0.858,0.83,1.415,1.643,1.415
			c0.789,0,1.453-0.717,1.453-1.591c0-1.591-1.943-2.601-1.943-5.4c0-1.838,1.414-2.753,1.454-3.923
			c0.036-1.036-0.915-0.393-1.622-0.856c0.907-0.179,1.442-1.183,2.251-1.14c0.714,0.042,0.878,0.417,0.914,0.786
			c0.054,0.497-0.272,1.077-0.377,1.283c0.79-0.68,1.142-1.723,1.142-2.248c0-0.788-1.105-1.66-0.821-3.167
			c0.042-0.204,0.039-0.174,0.089-0.294c0.328,1.692,2.73,2.13,2.73,3.808c0,1.583-1.366,1.282-2.145,2.38
			C45.932,151.359,46.9,151.534,46.9,152.474z M76.297,137.775c-0.227,0.834-0.216,1.902,0.946,1.902
			c0.902,0,2.479-0.774,2.81-0.928l0.134,0.296c-0.261,0.105-2.319,1.757-3.98,1.779c-0.928,0.014-1.245-0.546-1.245-1.091
			C74.961,138.891,75.62,138.59,76.297,137.775z M93.158,149.82c0,0.895-1.365,1.424-1.641,1.827
			c-0.135,0.201-0.251,0.326-0.308,0.541c-0.165-0.579,0.145-1.054,0.145-1.472c0-0.469-0.331-0.691-0.807-0.691
			c-0.715,0-2.637,1.732-1.477,4.511c-0.078-0.987,0.287-1.638,0.453-1.818c0.167-0.184,0.318-0.546,0.281-0.835
			c0.379,0.686,0.451,0.993,0.451,1.542c0,1.189-0.857,1.435-0.454,2.315c0.075,0.242,0.151,0.439,0.276,0.75
			c0-0.417,0.076-0.782,0.147-1.073c0.072-0.291,0.529-0.837,0.584-1.058c0.052-0.22,0.072-0.441,0.016-0.713
			c0.384,0.476,0.639,0.889,0.639,1.658c0,0.893-0.4,1.407-0.512,1.661c-0.106,0.255-0.236,0.509-0.291,0.945
			c-0.246,1.972-1.218,2.896-2.497,2.896c-0.802,0-1.401-0.124-1.914-0.453c0,2.532-2.88,2.333-2.88,3.989
			c0,0.457,0.31,1.002,0.62,1.314c0.308,0.309,1.477,0.741,1.913,1.305c-0.628,0.044-1.308,0.261-1.672,0.683
			c1.038,0.514,1.011,1.098,1.144,1.884c-1.018-0.508-1.484-0.213-1.742,0.059c-0.312,0.332-0.161,0.763-0.518,1.271
			c-0.165-0.401-0.432-0.738-0.869-0.738c-0.439,0-1.34,0.79-1.353,1.045c-0.037,0.692-0.366,0.965-0.99,1.045
			c-0.468,0.499-0.357,0.751-0.338,1.218c-0.403-0.383-0.469-0.632-0.315-1.324c-0.468-0.192-0.41-0.584-0.271-0.928l-0.176-0.123
			c-0.251,0.226-0.509,0.541-1.132,0.25c-0.239,0.101-0.553,0.469-0.601,0.907c-0.162-1.045,0.165-1.406,0.339-1.561
			c-0.106-0.235,0.044-0.731,0.468-0.917c0-0.103-0.037-0.157-0.052-0.206c-0.347,0-0.638-0.141-0.765-0.362
			c-0.333-0.068-0.792,0.333-0.878,0.575c0-0.584,0.465-1.181,0.812-1.321c0.391-0.779,1.139-0.919,1.591-0.465
			c0.249,0.246,0.847,0.519,1.455,0.519c0.605,0,1.157-0.501,1.305-0.702c0.146-0.203,0.165-0.236,0.235-0.405
			c0.131-0.298,0.386-0.652-0.235-1.439c-0.492-0.616-1.72-1.819-1.741-2.675c-0.039-1.413,0.617-2.233,1.253-2.796
			c-0.222,0-0.164,0-0.503,0c-0.902,0-0.98-0.565-1.897-0.565c-0.674,0-1.072,0.675-1.072,1.261c0,0.582,0.105,0.705,0.311,1.083
			c0.279,0.521,0.381,0.804,0.304,1.332c-0.53-0.479-1.287-0.721-1.887-0.19c-0.233,0.678-0.38,0.937-0.812,1.266
			c-0.036-0.565-1.183-1.458-2.215-0.505c-0.103,0.24-0.191,0.777-0.912,0.777c-0.426,0-0.383-0.102-0.564-0.178
			c-0.295,0.257-0.541,0.541-0.627,0.907c-0.151-0.555,0.045-1.036,0.24-1.27c-0.07-0.242-0.049-0.842,0.26-1.008
			c-0.091-0.101-0.058-0.035-0.141-0.178c-0.445,0.38-1.155,0.425-1.46-0.006c-0.264,0.05-0.512,0.23-0.787,0.79
			c-0.067-0.567,0.319-1.215,0.586-1.4c0.004-0.431,0.598-0.809,1.205-0.676c0.047-0.074-0.008-0.124,0.059-0.213
			c0.063-0.088-0.021-0.048-0.021-0.048c-0.179-0.096-0.758-0.12-0.718-0.844c-0.353-0.125-0.686,0.042-0.928,0.251
			c0.239-0.618,0.756-0.817,1.155-0.854c0.141-0.271,0.586-0.3,0.812-0.3c0.422,0,0.707,0.201,0.775,0.465
			c0.428,0.756,1.394,1.008,2.344,1.008c0.473,0,0.875-0.362,0.875-0.907c0-0.549-0.932-2.141-0.932-2.873
			c0-0.729,1.308-2.127,2.184-2.127c2.668,0,3.282,1.114,3.883,1.114c0.84,0,0.954-0.174,1.084-0.308
			c-1.257-1.547-2.059-1.514-3.26-2.339c-0.604-0.416-0.913-1.11-1.002-1.764c-0.745,0.174-1.466,1.162-1.815,1.781
			c-0.166-0.292-0.421-0.491-0.73-0.491c-0.593,0-1.017,0.775-1.297,1.433c-0.17-0.755-0.62-1.454-1.489-1.454
			c-0.487,0-1.036,0.208-1.173,0.524c-0.139,0.307-0.596,0.778-1.308,0.595c-0.26,0.183-0.495,0.256-0.674,1.047
			c-0.244-0.991,0.002-1.18,0.14-1.422c-0.14-0.651,0.129-0.889,0.252-1.047l-0.07-0.175c-0.387,0.127-0.959,0.083-1.127-0.252
			c-0.435-0.02-0.562,0.035-0.936,0.595c0.076-0.633,0.433-1.152,0.831-1.304c0.15-0.374,0.664-0.524,1.072-0.524
			c0.034-0.105,0.066-0.105,0.084-0.192c-0.264-0.145-0.491-0.482-0.437-0.879c-0.328-0.38-0.689-0.142-0.989-0.033
			c0.526-0.544,1.144-0.747,1.562-0.506c0.9-0.297,1.213,0.122,1.299,0.624c0.102,0.581,1.006,0.66,1.939,0.66
			c2.047,0,5.296-1.904,5.06-3.414c-0.484-0.121-0.538-0.105-0.917-0.105c-1.094,0-2.459,1.371-3.537,1.388
			c0.541-0.608,0.208-1.225,0.503-1.676c-0.589-0.015-1.191,0.356-2.321,0.255c0.382-0.226,0.641-1.022,0.641-1.298
			c0-0.28,0-0.835-1.213-0.835c-0.119,0.032-0.447,0.139-0.692,0.139c-0.287,0-1.091-0.075-1.091-0.709
			c-0.396-0.087-0.69,0.017-1.118,0.338c0.085-0.438,0.913-0.992,1.16-1.029c0.167-0.341,0.504-0.487,0.669-0.468
			c0.036-0.176,0.029-0.017,0.04-0.226c-0.412-0.054-0.937-0.205-0.925-0.892c-0.292-0.269-0.475-0.327-1.131-0.155
			c0.813-0.605,1.104-0.515,1.367-0.416c0.595-0.445,1.083-0.201,1.25-0.009c0.071-0.089,0.135-0.104,0.166-0.175
			c-0.138-0.433-0.057-0.857,0.131-1.046c-0.015-0.471-0.231-0.618-0.669-0.709c0.898,0.016,1.261,0.226,1.555,0.555
			c0.519,0.068,0.842,0.522,0.853,0.848c0.014,0.85-0.883,1.429,0.846,2.323c0.539,0.276,1.302,0.553,2.065,0.78
			c0.764,0.225,1.711,0.569,2.093,0.569c-0.297-0.466-0.176-0.935-0.662-1.404c0.556-0.035,1.23,0.156,1.734,0.26
			c-0.104-0.678,0.064-0.681-0.386-1.097c0.382,0.053,0.924,0.06,1.219,0.092c1.972,0.211,2-0.766,2.383-2.01
			c-0.673,0.038-1.805,0.206-2.879,0.921c0.105-0.372-0.011-0.667-0.011-0.979c0-0.589,0.463-0.708,0.693-0.708
			c0.104,0,0.396-0.046,0.617-0.046c0.435,0,1.037-0.489,0.755-1.45c-0.134-0.458-0.484-0.746-0.886-0.626
			c-0.294,0.084-0.363,0.077-0.792,0.237c-0.333,0.121-0.435,0.377-0.469,0.727c-0.067-0.158-0.187-0.6-0.244-0.711
			c-0.064-0.131-0.107-0.21-0.227-0.506c-0.039-0.093-0.029-0.095-0.083-0.214c-0.207-0.486,0.122-0.889,0.537-0.971
			c0.347-0.071,0.903-0.211,1.248-0.314c0.688-0.205,0.896-0.471,1.04-0.832c0.154-0.378,0.247-0.528,0.876-0.528
			c0.198,0,0.913,0.017,1.239,0.017c0.956,0,2.03-0.777,1.676-1.603c0.667,0.121,0.932,1.185,0.768,1.603
			c0.308,0,1.349-0.202,1.583-0.4c-0.004,0.717-0.564,1.602-0.965,1.824c0.51,0.052,1.408-0.022,1.677-0.256
			c-0.166,0.545-0.748,1.709-1.113,1.875c0.888,0.306,1.472,0.786,1.87,1.89c-0.676-0.278-1.073,0.056-1.664-0.035
			c1.215,1.42,1.666,3.583,2.015,4.119c-0.329-0.176-0.985-0.542-1.475-0.724c0.502,1.178-0.243,2.341-0.13,2.969
			c-0.381-0.222-0.876-0.494-1.035-0.805c-0.203,0.478-0.621,1.405-0.457,2.607c-0.31-0.33-0.841-0.585-1.076-0.768
			c-0.455,0.657-0.73,1.079-0.73,2.755c0,2.292,1.066,4.482,1.533,5.351c0.711,1.335,0.888,2.468,1,2.919
			c0.225,0.894,0.868,1.477,1.715,1.477c0.819,0,1.511-0.747,1.511-1.66c0-1.659-2.021-2.711-2.021-5.628
			c0-1.914,1.474-2.869,1.515-4.089c0.039-1.08-0.953-0.409-1.69-0.892c0.945-0.188,1.503-1.235,2.346-1.188
			c0.743,0.043,0.912,0.437,0.952,0.816c0.054,0.519-0.285,1.125-0.394,1.342c0.823-0.71,1.189-1.798,1.189-2.348
			c0-0.82-1.151-1.727-0.852-3.297c0.04-0.214,0.037-0.181,0.09-0.309c0.338,1.766,2.843,2.222,2.843,3.971
			c0,1.649-1.419,1.334-2.233,2.478C92.148,148.66,93.158,148.838,93.158,149.82z"/>
		<path fill="#FFFFFF" d="M35.564,139.029c-0.133,0.251-0.044,0.682,0.09,0.883c0.216-0.021,0.731-0.168,1.009-0.342
			c0.323-0.199,0.413-0.352,0.757-0.595C37.089,138.95,35.613,138.941,35.564,139.029z"/>
		<path fill="#FFFFFF" d="M81.346,135.807c-0.139,0.261-0.048,0.711,0.094,0.921c0.225-0.022,0.76-0.177,1.051-0.358
			c0.335-0.205,0.429-0.365,0.788-0.618C82.935,135.725,81.395,135.718,81.346,135.807z"/>
	</g>
	<g>
		<path fill="#FFFFFF" d="M296.286,366.078c3.412,0,7.229,0,11.367-0.311v2.482c0,0-0.622-0.105-1.758-0.105
			c-7.646,0-7.646,4.543-7.646,11.258v30.166c0,3.131-0.101,6.137-0.606,8.623c-2.987,14.674-14.195,18.543-25.913,18.543
			c-15.431,0-24.88-7.811-27.481-18.832c-0.416-1.77-0.748-5.277-0.748-9.492v-30.762c0-7.127-1.345-9.195-9.919-9.396v-2.379
			c4.856,0.312,9.919,0.416,15.29,0.416c5.374,0,10.431-0.104,15.289-0.416v2.379c-0.517,0-1.035,0-1.547,0
			c-7.234,0-8.368,3.513-8.368,9.396v32.449c0,3.779,0.19,7.041,1,9.807c2.435,8.312,8.729,13.219,18.434,13.219
			c11.785,0,18.996-4.65,21.144-15.281c0.469-2.316,0.536-4.926,0.536-7.838v-30.602c0-8.676-0.518-11.15-9.297-11.15v-2.481
			C288.952,365.977,292.361,366.078,296.286,366.078z"/>
		<path fill="#FFFFFF" d="M340.193,388.6c9.142,0,15.174,4.646,15.174,13.532c0,0.311,0,1.238,0,2.584v21.484
			c0,0.725,0,1.244,0,1.445c0,4.135,2.06,5.268,7.435,5.371v2.174c-4.646-0.312-8.561-0.521-11.866-0.521
			c-3.103,0-7.128,0.105-11.98,0.521v-2.174c5.265-0.104,7.434-1.34,7.434-5.166c0-0.102,0-0.723,0-1.65v-23.445
			c0-7.342-3.199-10.95-9.711-10.95c-7.021,0-13.016,6.196-13.016,14.868v19.527c0,0.725,0,1.244,0,1.445
			c0,4.135,2.064,5.268,7.438,5.371v2.174c-4.646-0.312-8.559-0.521-11.867-0.521c-3.1,0-7.128,0.105-11.982,0.521v-2.174
			c5.271-0.104,7.335-1.34,7.335-5.166c0-0.102,0.104-0.723,0.104-1.65v-24.793c0-5.994-0.932-7.953-6.508-7.953
			c-0.312,0-0.619,0-0.931,0v-2.065c4.03,0,8.665-1.447,14.447-3.929c0.776,1.834,1.35,4.49,1.438,10.713
			C324.079,396.496,328.656,388.6,340.193,388.6z"/>
		<path fill="#FFFFFF" d="M383.78,426.201c0,0.725,0,1.244,0,1.445c0,3.93,1.958,5.168,7.023,5.371v2.174
			c-3.928-0.312-7.854-0.521-11.57-0.521c-3.72,0-7.425,0.207-11.247,0.521v-2.174c4.854-0.203,6.816-1.441,6.816-5.166
			c0-0.102,0-0.723,0-1.65v-23.244c0-0.93,0-1.756,0-2.584c0-5.059-0.308-6.918-5.683-6.918c-0.312,0-0.513,0-0.823,0v-2.065
			c4.542-0.41,9.591-1.757,15.482-3.929L383.78,426.201L383.78,426.201z M383.568,366.802c0,2.892-2.374,5.273-5.367,5.273
			c-2.997,0-5.271-2.385-5.271-5.273c0-2.995,2.272-5.375,5.271-5.375C381.094,361.427,383.568,363.807,383.568,366.802z"/>
		<path fill="#FFFFFF" d="M402.188,389.939c3.412,0,7.896-0.1,11.198-0.412v2.275c-3.815,0-5.476,0.514-5.476,2.895
			c0,1.236,0.621,3.92,2.375,7.955l9.611,22.203l4.543-11.773c3.513-9.301,5.894-15.08,5.894-17.768c0-2.381-1.76-3.512-5.371-3.512
			v-2.275c2.479,0.213,5.712,0.412,8.086,0.412c2.168,0,6.019-0.2,8.603-0.412v2.275c-0.104,0-0.639,0-0.639,0
			c-5.394,0-6.854,3.609-9.852,11.055l-13.327,33.264h-2.274l-16.741-39.568c-1.346-3.098-2.916-4.747-8.171-4.747v-2.277
			C394.57,389.841,398.883,389.939,402.188,389.939z"/>
		<path fill="#FFFFFF" d="M451.629,406.781c-0.21,2.172-0.312,3.82-0.312,5.168c0,12.395,6.923,20.658,16.525,20.658
			c5.478,0,9.095-1.965,13.323-6.818l1.862,1.963c-4.232,5.994-10.223,8.883-18.076,8.883c-14.252,0-23.538-10.225-23.538-23.242
			c0-13.113,9.695-24.995,23.848-24.995c11.265,0,19.217,7.231,19.217,17.452c0,0.312,0,0.623,0,0.934L451.629,406.781
			L451.629,406.781z M475.182,401.408c0-6.922-4.337-10.846-10.126-10.846c-6.609,0-11.776,4.959-12.81,13.219h22.626
			C475.074,402.441,475.182,401.615,475.182,401.408z"/>
		<path fill="#FFFFFF" d="M519.767,389.117c5.266,0,8.37,2.271,8.37,5.473c0,2.584-1.557,4.131-3.619,4.131
			c-4.65,0-2.272-5.991-8.06-5.991c-5.68,0-10.429,5.526-10.429,13.944v19.527c0,0.725,0,1.244,0,1.445
			c0,4.135,2.062,5.268,7.432,5.371v2.174c-4.648-0.312-8.679-0.521-11.982-0.521c-3.097,0-7.01,0.105-11.862,0.521v-2.174
			c5.263-0.104,7.438-1.34,7.438-5.166c0-0.102,0-0.723,0-1.65v-23.76c0-6.812-1.66-9.092-7.339-9.092c-0.31,0-0.722,0-1.138,0
			v-2.066c4.752-0.619,9.703-1.854,14.97-3.512c1.301,3.463,1.749,9.752,1.639,11.332
			C507.27,393.875,512.413,389.117,519.767,389.117z"/>
		<path fill="#FFFFFF" d="M560.997,394.436l0.1,6.675h-2.027c-1.136-5.988-5.231-10.445-12.555-10.445
			c-4.55,0-7.732,2.914-7.732,6.318c0,5.092,3.643,6.062,10.122,9.293c3.158,1.6,5.944,2.805,8.229,4.219
			c4.2,2.602,6.702,5.916,6.702,11.143c0,8.887-6.479,14.998-17.165,14.998c-4.656,0-9.103-1.549-12.507-4.232l-1.4,2.895h-1.77
			c0.113-3.824,0.113-6.096,0.113-6.92c0-1.656-0.113-4.029-0.113-7.232h1.798c1.596,8.156,6.611,13.02,13.999,13.02
			c6.415,0,9.888-4.053,9.888-8.389c0-5.396-3.686-6.986-10.95-10.396c-8.644-4.166-13.878-6.811-13.878-14.488
			c0-7.047,6.827-12.49,14.326-12.49c5.515,0,7.783,0.926,11.308,2.783l2.155-2.58h1.477L560.997,394.436z"/>
		<path fill="#FFFFFF" d="M587.212,426.201c0,0.725,0,1.244,0,1.445c0,3.93,1.965,5.168,7.029,5.371v2.174
			c-3.93-0.312-7.64-0.521-11.362-0.521c-3.718,0-7.425,0.207-11.248,0.521v-2.174c4.854-0.203,6.823-1.441,6.823-5.166
			c0-0.102,0-0.723,0-1.65v-23.244c0-0.93,0-1.756,0-2.584c0-5.059-0.316-6.918-5.683-6.918c-0.312,0-0.521,0-0.832,0v-2.065
			c4.546-0.41,9.387-1.757,15.271-3.929L587.212,426.201L587.212,426.201z M587.219,366.802c0,2.892-2.374,5.273-5.374,5.273
			c-2.995,0-5.264-2.385-5.264-5.273c0-2.995,2.269-5.375,5.264-5.375C584.734,361.427,587.219,363.807,587.219,366.802z"/>
		<path fill="#FFFFFF" d="M613.824,378.27v11.362h11.558v3.097h-11.451v31.099c0,6.195,1.745,9.297,6.505,9.297
			c2.782,0,5.464-1.539,7.526-4.736l1.667,1.533c-2.478,4.441-6.76,6.303-11.974,6.303c-8.423,0-12.499-4.342-12.499-12.91V392.73
			h-4.854v-1.652c4.542-2.682,8.565-7.022,11.766-12.807L613.824,378.27L613.824,378.27L613.824,378.27z"/>
		<path fill="#FFFFFF" d="M637.835,389.939c1.547,0,5.572-0.1,11.874-0.412v2.275c-4.126,0.102-5.988,0.721-5.988,3.408
			c0,0.619,0.308,1.65,0.724,2.789l10.328,26.648l9.817-23.76c0.724-1.756,1.031-3.613,1.031-5.165c0-2.793-1.55-3.82-5.374-3.923
			v-2.276c3.099,0.213,5.579,0.414,7.232,0.414c2.066,0,5.509-0.201,8.194-0.414v2.276c-0.104,0-0.207,0-0.31,0
			c-4.546,0-5.203,2.27-7.271,7.332l-13.326,32.127c-9.495,23.033-13.526,32.852-18.281,32.852c-1.653,0-3.213-1.139-3.213-3
			c0-3.385,3.479-4.178,6-5.678c2.58-1.533,4.781-6.158,9.195-16.113l1.922-4.395l-14.834-35.584
			c-1.86-4.444-2.168-7.541-7.431-7.541v-2.276C632.05,389.841,635.148,389.939,637.835,389.939z"/>
	</g>
	<path fill="#FFFFFF" d="M228.911,336.658c13.331-0.322,15.419-3.535,15.419-14.609v-71.315c0-11.104-2.089-14.317-15.419-14.637
		V232.4c6.102,0.16,11.564,0.318,16.545,0.318c12.368,0,19.542-0.639,30.357-0.639c22.633,0,38.503,5.871,48.33,17.233
		c7.4,8.55,11.569,20.002,11.569,35.419c0,17.342-5.353,30.956-14.673,40.409c-9.748,9.885-23.912,15.211-43.947,15.211
		c-9.797,0-20.076-0.479-30.515-0.479c-5.782,0-11.564,0-17.667,0.322L228.911,336.658L228.911,336.658z M260.873,314.333
		c0,14.773,3.373,22.002,19.271,22.002c25.855,0,36.292-19.606,36.292-51.403c0-37.12-14.037-49.32-42.877-49.32
		c-9.634,0-12.685,0-12.685,8.83V314.333z"/>
	<path fill="#FFFFFF" d="M354.663,269.526c3.371,0,7.709-0.161,12.53-0.319v50.592c0,0.158,0,0.158,0,0.479
		c0,10.916,5.135,16.541,15.093,16.541c10.924,0,20.238-9.635,20.238-23.129v-30.514c0-1.602,0-2.566,0-2.889
		c0-4.976-3.374-7.551-10.277-7.551c-0.486,0-0.804,0-1.288,0v-3.529c4.976,0.156,9.477,0.318,13.328,0.318
		c3.375,0,7.546-0.162,12.365-0.318v52.678c0,0.162,0,0.162,0,0.479c0,8.672,1.256,14.377,9.278,14.377
		c0.646,0,0.867,0.041,1.516,0.041v3.373c-7.843-0.724-13.766-0.64-24.061-0.15L403,327.343
		c-6.262,9.957-14.774,14.453-26.176,14.453c-18.468,0-23.771-8.836-23.771-25.053v-33.57c0-1.6-0.156-2.565-0.156-2.887
		c0-4.977-3.375-7.552-10.118-7.552c-0.484,0-0.807,0-1.286,0v-3.53C346.471,269.365,350.808,269.526,354.663,269.526z"/>
	<path fill="#FFFFFF" d="M480.42,268.565c8.202,0,12.861,4.496,12.861,8.908c0,4.017-2.518,6.026-5.252,6.026
		c-8.188,0-4.165-9.314-12.745-9.314c-8.117,0-16.217,7.708-16.217,21.686v30.346c0,1.129,0,1.933,0,2.254
		c0,6.423,3.212,8.189,11.557,8.349v3.377c-7.225-0.483-13.486-0.803-18.626-0.803c-4.823,0-11.081,0.155-18.63,0.803v-3.377
		c8.189-0.159,11.562-2.088,11.562-8.024c0-0.164,0-1.129,0-2.576v-36.938c0-10.6-2.567-14.132-11.403-14.132
		c-0.478,0-1.119,0-1.762,0v-3.217c7.388-0.96,14.969-1.966,23.155-4.534c2.071,4.678,2.723,13.786,2.723,16.779
		C460.511,277.473,468.19,268.565,480.42,268.565z"/>
	<path fill="#FFFFFF" d="M515.021,281.945c4.854-9.148,14.772-14.184,25.858-14.184c15.09,0,23.767,7.797,23.767,21.037
		c0,0.482,0,1.93,0,4.019v33.401c0,1.13,0,1.933,0,2.255c0,6.422,3.209,8.187,11.562,8.349v3.377
		c-7.229-0.484-13.488-0.804-18.63-0.804c-4.816,0-11.082,0.153-18.627,0.804v-3.377c8.193-0.162,11.562-2.091,11.562-8.027
		c0-0.164,0-1.127,0-2.574v-36.451c0-11.407-4.976-17.027-15.095-17.027c-10.921,0-20.396,9.639-20.396,23.131v30.348
		c0,1.129,0,1.932,0,2.254c0,6.422,3.215,8.188,11.564,8.348v3.379c-7.23-0.484-13.491-0.805-18.638-0.805
		c-4.812,0-11.074,0.154-18.627,0.805v-3.379c8.19-0.16,11.563-2.088,11.563-8.025c0-0.164,0-1.127,0-2.574v-84.504
		c0-7.064-3.214-9.635-11.563-9.797v-2.889c4.976-0.324,13.49-1.766,25.697-4.658L515.021,281.945L515.021,281.945z"/>
	<path fill="#FFFFFF" d="M623.498,331.162c-3.477,3.746-9.147,10.324-24.04,10.324c-12.115,0-20.101-6.412-20.101-16.119
		c0-10.602,8.668-17.104,26.332-24.008l8.519-3.212c7.386-2.892,9.795-2.729,9.795-8.353v-3.485c0-10.12-3.853-15.497-15.9-15.497
		c-12.46,0-12.838,5.368-13.37,9.898c-0.342,2.857-1.079,6.162-6.338,6.162c-3.053,0-5.193-2.57-5.193-5.942
		c0-6.911,8.935-13.332,26.509-13.332c18.794,0,27.622,5.944,27.622,18.47v40.793c0,6.27,2.016,8.889,5.385,8.889
		c2.25,0,4.052-1.031,5.86-3.43l2.091,2.252c-3.38,5.301-7.88,6.906-14.145,6.906C629.085,341.479,624.582,337.234,623.498,331.162z
		 M594.288,322.529c0,7.549,4.012,13.221,11.244,13.221c10.726,0,18.146-7.037,18.146-15.02v-22.904
		C603.767,305.693,594.288,312.574,594.288,322.529z"/>
	<path fill="#FFFFFF" d="M748.256,267.599c16.221,0,23.179,8.729,23.179,23.283v35.334c0,0.81,0,1.447,0,2.254
		c0,6.423,3.207,8.189,11.565,8.349v3.377c-7.232-0.483-13.495-0.803-18.634-0.803c-4.812,0-11.082,0.155-18.631,0.803v-3.377
		c8.19-0.159,11.399-2.088,11.399-8.024c0-0.164,0.164-1.129,0.164-2.576V288.48c0-10.275-4.817-15.74-13.971-15.74
		c-11.28,0-18.954,8.084-18.954,22.541v30.938c0,1.13,0,1.934,0,2.255c0,6.259,3.213,8.188,11.242,8.349v3.377
		c-6.902-0.484-13.009-0.803-18.304-0.803c-5.786,0-11.562,0.316-17.827,0.803v-3.377c7.542-0.322,10.758-2.246,10.758-8.025
		c0-0.164,0-1.129,0-2.576v-37.74c0-10.12-4.815-15.74-13.979-15.74c-11.11,0-18.94,8.834-18.94,23.287v30.191
		c0,1.129,0,1.933,0,2.254c0,6.423,3.21,8.188,11.562,8.35v3.377c-7.226-0.484-13.495-0.804-18.627-0.804
		c-4.822,0-10.417,0.153-17.962,0.804v-3.377c8.187-0.162,10.891-2.091,10.891-8.027c0-0.164,0-1.127,0-2.574v-38.541
		c0-9.316-1.442-12.363-10.118-12.363c-0.478,0-0.962,0-1.439,0V272.1c6.268,0,13.651-2.249,22.645-6.103
		c1.29,4.817,1.9,9.994,1.9,14.813c0,0.698,0.055,1.325,0,1.446c4.275-8.809,14.319-14.818,25.401-14.818
		c16.042,0,21.295,10.391,21.361,15.137C725.3,276.354,733.702,267.599,748.256,267.599z"/>
</g>
</svg>
