<?xml version="1.0" encoding="UTF-8" standalone="no"?>
<!-- Generator: Adobe Illustrator 16.0.0, SVG Export Plug-In . SVG Version: 6.00 Build 0)  -->

<svg
   xmlns:dc="http://purl.org/dc/elements/1.1/"
   xmlns:cc="http://creativecommons.org/ns#"
   xmlns:rdf="http://www.w3.org/1999/02/22-rdf-syntax-ns#"
   xmlns:svg="http://www.w3.org/2000/svg"
   xmlns="http://www.w3.org/2000/svg"
   xmlns:sodipodi="http://sodipodi.sourceforge.net/DTD/sodipodi-0.dtd"
   xmlns:inkscape="http://www.inkscape.org/namespaces/inkscape"
   version="1.1"
   id="Layer_1"
   x="0px"
   y="0px"
   width="600"
   height="400"
   viewBox="8.338 125.944 600.00001 400.00001"
   enable-background="new 8.338 125.944 774.662 338.167"
   xml:space="preserve"
   inkscape:version="0.91 r13725"
   sodipodi:docname="du.svg"><metadata
     id="metadata63"><rdf:RDF><cc:Work
         rdf:about=""><dc:format>image/svg+xml</dc:format><dc:type
           rdf:resource="http://purl.org/dc/dcmitype/StillImage" /><dc:title></dc:title></cc:Work></rdf:RDF></metadata><defs
     id="defs61" /><sodipodi:namedview
     pagecolor="#000000"
     bordercolor="#666666"
     borderopacity="1"
     objecttolerance="10"
     gridtolerance="10"
     guidetolerance="10"
     inkscape:pageopacity="0"
     inkscape:pageshadow="2"
     inkscape:window-width="1920"
     inkscape:window-height="1056"
     id="namedview59"
     showgrid="false"
     inkscape:zoom="0.76936781"
     inkscape:cx="127.44455"
     inkscape:cy="68.464101"
     inkscape:window-x="0"
     inkscape:window-y="24"
     inkscape:window-maximized="1"
     inkscape:current-layer="Layer_1" /><g
     id="g3"
     transform="matrix(0.74225975,0,0,0.74225975,14.648618,106.95733)"><path
       d="m 213.336,219.74 c 1.9,-18.125 0.108,-54.542 -3.497,-74.25 -0.833,-4.563 -3.793,-10.205 -11.659,-12.04 -20.116,-4.686 -46.717,-7.289 -75.079,-7.506 -2.466,20.305 -4.547,48.445 -4.547,80.231 l 0.031,12.156 0.006,0.672 3.016,0.285 c 1.443,0.131 2,0.918 2.206,2.375 0.204,1.435 0.388,3.215 0.388,3.215 0,0 54.045,-0.313 89.135,-5.138 z"
       id="path5"
       inkscape:connector-curvature="0"
       style="fill:#ffffff" /><path
       d="m 104.301,245.216 -3.025,-0.284 c -1.445,-0.136 -2.05,-0.911 -2.205,-2.378 -0.148,-1.363 -0.389,-3.215 -0.389,-3.215 l 0.007,-0.019 c -24.071,0 -51.209,0.13 -86.297,4.956 4.731,27.104 35.707,88.411 85.61,114.646 2.468,-20.305 6.357,-69.797 6.357,-101.584 l -0.051,-11.467 -0.003,-0.674 -0.004,0.019 z"
       id="path7"
       inkscape:connector-curvature="0"
       style="fill:#ffffff" /><path
       d="m 124.186,239.321 c 24.065,0 51.449,0.13 86.537,4.956 -4.734,27.104 -35.709,88.411 -85.615,114.646 -2.461,-20.305 -6.579,-69.797 -6.579,-101.584 l 0.183,-11.674 -0.024,-0.469 2.894,-0.264 c 1.446,-0.135 2.029,-0.913 2.206,-2.378 0.163,-1.328 0.389,-3.214 0.389,-3.214 l 0.009,-0.019 z"
       id="path9"
       inkscape:connector-curvature="0"
       style="fill:#ffffff" /><g
       id="g11"><path
         d="m 58.2,184.437 c -0.13,0.248 -0.045,0.672 0.09,0.871 0.21,-0.021 0.717,-0.168 0.991,-0.337 0.314,-0.193 0.405,-0.345 0.742,-0.585 -0.327,-0.025 -1.778,-0.032 -1.823,0.051 z"
         id="path13"
         inkscape:connector-curvature="0"
         style="fill:#ffffff" /><path
         d="M 57.697,172.41 8.854,219.74 c 34.876,4.795 65.391,5.137 89.395,5.143 l 0.44,0 c 0,0 0.2,-1.619 0.387,-3.213 0.17,-1.467 0.761,-2.246 2.207,-2.379 l 3.023,-0.287 0.003,-0.053 -46.612,-46.541 z m -4.259,13.884 c -0.213,0.785 -0.205,1.793 0.893,1.793 0.852,0 2.338,-0.73 2.648,-0.875 l 0.128,0.279 c -0.244,0.1 -2.186,1.657 -3.752,1.678 -0.876,0.014 -1.175,-0.514 -1.175,-1.028 0,-0.795 0.618,-1.079 1.258,-1.847 z m 15.899,11.358 c 0,0.846 -1.287,1.342 -1.547,1.723 -0.129,0.19 -0.237,0.306 -0.29,0.512 -0.155,-0.547 0.136,-0.997 0.136,-1.389 0,-0.443 -0.312,-0.654 -0.759,-0.654 -0.675,0 -2.489,1.637 -1.395,4.256 -0.072,-0.932 0.272,-1.543 0.428,-1.715 0.156,-0.174 0.3,-0.514 0.267,-0.789 0.352,0.648 0.426,0.941 0.426,1.457 0,1.119 -0.811,1.353 -0.431,2.184 0.069,0.227 0.144,0.415 0.262,0.708 0,-0.394 0.069,-0.737 0.138,-1.013 0.068,-0.275 0.5,-0.789 0.55,-0.996 0.052,-0.208 0.069,-0.415 0.017,-0.672 0.362,0.449 0.603,0.838 0.603,1.564 0,0.842 -0.379,1.325 -0.484,1.563 -0.102,0.243 -0.222,0.481 -0.272,0.894 -0.235,1.856 -1.151,2.73 -2.356,2.73 -0.756,0 -1.322,-0.118 -1.802,-0.43 0,2.388 -2.719,2.201 -2.719,3.762 0,0.433 0.293,0.945 0.583,1.24 0.291,0.289 1.396,0.699 1.806,1.23 -0.594,0.04 -1.233,0.246 -1.576,0.643 0.976,0.485 0.951,1.039 1.078,1.777 -0.959,-0.479 -1.397,-0.201 -1.645,0.059 -0.293,0.309 -0.152,0.718 -0.488,1.193 -0.154,-0.375 -0.406,-0.693 -0.817,-0.693 -0.416,0 -1.264,0.742 -1.277,0.984 -0.036,0.652 -0.345,0.911 -0.934,0.986 -0.438,0.468 -0.335,0.708 -0.319,1.145 -0.38,-0.359 -0.441,-0.593 -0.296,-1.246 -0.441,-0.18 -0.389,-0.549 -0.257,-0.875 l -0.165,-0.115 c -0.238,0.211 -0.481,0.512 -1.067,0.234 -0.226,0.096 -0.521,0.443 -0.567,0.856 -0.154,-0.985 0.157,-1.327 0.32,-1.472 -0.1,-0.225 0.042,-0.69 0.443,-0.863 0,-0.1 -0.037,-0.148 -0.05,-0.196 -0.33,0 -0.605,-0.131 -0.721,-0.345 -0.316,-0.062 -0.749,0.316 -0.83,0.545 0,-0.553 0.441,-1.111 0.766,-1.247 0.369,-0.733 1.076,-0.864 1.5,-0.438 0.236,0.233 0.8,0.488 1.374,0.488 0.569,0 1.091,-0.473 1.229,-0.662 0.138,-0.189 0.153,-0.224 0.223,-0.38 0.125,-0.282 0.364,-0.616 -0.223,-1.354 -0.464,-0.584 -1.62,-1.717 -1.642,-2.525 -0.036,-1.332 0.581,-2.107 1.181,-2.637 -0.211,0 -0.155,0 -0.475,0 -0.85,0 -0.922,-0.531 -1.789,-0.531 -0.634,0 -1.01,0.637 -1.01,1.188 0,0.549 0.098,0.666 0.292,1.022 0.264,0.489 0.359,0.759 0.29,1.255 -0.5,-0.451 -1.214,-0.68 -1.782,-0.177 -0.221,0.635 -0.357,0.884 -0.766,1.19 -0.035,-0.529 -1.123,-1.375 -2.095,-0.475 -0.095,0.227 -0.18,0.732 -0.858,0.732 -0.404,0 -0.364,-0.098 -0.533,-0.166 -0.277,0.24 -0.511,0.507 -0.591,0.854 -0.142,-0.523 0.044,-0.979 0.226,-1.197 -0.065,-0.229 -0.045,-0.793 0.246,-0.949 -0.086,-0.096 -0.052,-0.032 -0.132,-0.17 -0.423,0.356 -1.088,0.4 -1.379,-0.006 -0.245,0.045 -0.479,0.217 -0.74,0.746 -0.063,-0.537 0.301,-1.146 0.552,-1.32 0.005,-0.407 0.563,-0.762 1.138,-0.641 0.044,-0.068 -0.01,-0.111 0.054,-0.197 0.059,-0.086 -0.023,-0.045 -0.023,-0.045 -0.166,-0.092 -0.711,-0.115 -0.676,-0.797 -0.333,-0.117 -0.646,0.039 -0.874,0.237 0.225,-0.583 0.714,-0.769 1.087,-0.804 0.136,-0.256 0.553,-0.285 0.767,-0.285 0.398,0 0.666,0.189 0.732,0.439 0.402,0.713 1.313,0.949 2.207,0.949 0.449,0 0.829,-0.341 0.829,-0.854 0,-0.516 -0.874,-2.018 -0.874,-2.708 0,-0.685 1.232,-2.007 2.06,-2.007 2.517,0 3.097,1.052 3.662,1.052 0.793,0 0.899,-0.165 1.021,-0.29 -1.186,-1.458 -1.941,-1.43 -3.071,-2.205 -0.568,-0.393 -0.862,-1.05 -0.948,-1.665 -0.699,0.163 -1.381,1.097 -1.711,1.679 -0.156,-0.275 -0.396,-0.461 -0.687,-0.461 -0.56,0 -0.96,0.729 -1.222,1.352 -0.162,-0.713 -0.589,-1.372 -1.404,-1.372 -0.458,0 -0.978,0.194 -1.108,0.493 -0.129,0.291 -0.562,0.732 -1.235,0.562 -0.242,0.171 -0.465,0.241 -0.635,0.988 -0.23,-0.937 10e-4,-1.111 0.133,-1.343 -0.133,-0.616 0.123,-0.838 0.24,-0.987 l -0.065,-0.164 c -0.365,0.12 -0.905,0.077 -1.064,-0.237 -0.411,-0.021 -0.529,0.032 -0.882,0.559 0.069,-0.594 0.409,-1.086 0.782,-1.229 0.141,-0.351 0.625,-0.493 1.01,-0.493 0.033,-0.099 0.062,-0.099 0.081,-0.18 -0.25,-0.139 -0.465,-0.455 -0.412,-0.83 -0.31,-0.357 -0.65,-0.134 -0.933,-0.029 0.494,-0.516 1.079,-0.707 1.472,-0.478 0.85,-0.283 1.145,0.114 1.224,0.59 0.098,0.546 0.95,0.62 1.832,0.62 1.929,0 4.992,-1.796 4.77,-3.221 -0.457,-0.114 -0.507,-0.098 -0.864,-0.098 -1.032,0 -2.32,1.291 -3.334,1.309 0.508,-0.575 0.194,-1.154 0.474,-1.582 -0.557,-0.014 -1.125,0.336 -2.189,0.24 0.358,-0.213 0.606,-0.963 0.606,-1.226 0,-0.262 0,-0.786 -1.146,-0.786 -0.113,0.031 -0.423,0.131 -0.652,0.131 -0.269,0 -1.026,-0.068 -1.026,-0.67 -0.377,-0.08 -0.652,0.018 -1.057,0.32 0.08,-0.416 0.862,-0.934 1.091,-0.969 0.159,-0.318 0.478,-0.459 0.635,-0.441 0.032,-0.166 0.026,-0.015 0.035,-0.212 -0.388,-0.052 -0.881,-0.194 -0.871,-0.841 -0.275,-0.253 -0.45,-0.309 -1.068,-0.145 0.765,-0.574 1.039,-0.49 1.288,-0.393 0.563,-0.422 1.021,-0.191 1.18,-0.012 0.067,-0.084 0.128,-0.098 0.158,-0.163 -0.132,-0.41 -0.055,-0.81 0.123,-0.987 -0.013,-0.445 -0.219,-0.582 -0.631,-0.669 0.847,0.017 1.19,0.211 1.468,0.522 0.488,0.064 0.792,0.492 0.801,0.8 0.014,0.8 -0.833,1.348 0.8,2.192 0.508,0.26 1.225,0.521 1.946,0.735 0.722,0.21 1.612,0.536 1.974,0.536 -0.281,-0.441 -0.164,-0.883 -0.623,-1.323 0.521,-0.034 1.16,0.146 1.634,0.242 -0.099,-0.638 0.061,-0.64 -0.364,-1.033 0.359,0.05 0.874,0.058 1.15,0.087 1.859,0.198 1.885,-0.723 2.247,-1.894 -0.633,0.038 -1.702,0.192 -2.713,0.864 0.098,-0.346 -0.012,-0.625 -0.012,-0.92 0,-0.555 0.437,-0.668 0.652,-0.668 0.099,0 0.375,-0.043 0.585,-0.043 0.408,0 0.976,-0.459 0.71,-1.365 -0.125,-0.434 -0.457,-0.705 -0.836,-0.592 -0.276,0.078 -0.341,0.072 -0.746,0.224 -0.312,0.116 -0.41,0.358 -0.444,0.687 -0.063,-0.148 -0.176,-0.566 -0.229,-0.67 -0.061,-0.123 -0.103,-0.197 -0.216,-0.479 -0.035,-0.09 -0.026,-0.09 -0.076,-0.203 -0.194,-0.456 0.114,-0.84 0.508,-0.916 0.327,-0.064 0.852,-0.197 1.177,-0.294 0.644,-0.193 0.843,-0.445 0.98,-0.784 0.144,-0.359 0.233,-0.497 0.826,-0.497 0.185,0 0.859,0.015 1.167,0.015 0.898,0 1.912,-0.731 1.578,-1.51 0.628,0.111 0.878,1.116 0.724,1.51 0.292,0 1.27,-0.19 1.493,-0.377 -0.004,0.676 -0.533,1.512 -0.91,1.719 0.481,0.05 1.327,-0.021 1.582,-0.242 -0.156,0.514 -0.705,1.613 -1.051,1.77 0.839,0.289 1.387,0.741 1.764,1.779 -0.637,-0.262 -1.013,0.055 -1.569,-0.031 1.146,1.34 1.569,3.377 1.902,3.887 -0.309,-0.17 -0.93,-0.516 -1.393,-0.685 0.476,1.11 -0.227,2.207 -0.121,2.798 -0.361,-0.207 -0.828,-0.465 -0.979,-0.758 -0.187,0.448 -0.582,1.326 -0.431,2.458 -0.291,-0.31 -0.789,-0.549 -1.012,-0.722 -0.429,0.617 -0.688,1.016 -0.688,2.597 0,2.161 1.007,4.229 1.446,5.048 0.669,1.256 0.835,2.325 0.943,2.75 0.213,0.844 0.816,1.391 1.616,1.391 0.774,0 1.424,-0.705 1.424,-1.563 0,-1.563 -1.907,-2.558 -1.907,-5.308 0,-1.805 1.391,-2.705 1.429,-3.855 0.035,-1.018 -0.899,-0.387 -1.595,-0.84 0.894,-0.178 1.419,-1.167 2.213,-1.122 0.701,0.042 0.862,0.413 0.898,0.771 0.051,0.49 -0.268,1.061 -0.37,1.266 0.777,-0.67 1.123,-1.695 1.123,-2.212 0,-0.772 -1.087,-1.632 -0.807,-3.111 0.041,-0.2 0.036,-0.171 0.085,-0.292 0.321,1.667 2.685,2.096 2.685,3.745 0,1.554 -1.342,1.261 -2.112,2.338 0.838,-0.342 1.788,-0.174 1.788,0.751 z"
         id="path15"
         inkscape:connector-curvature="0"
         style="fill:#ffffff" /></g><g
       id="g17"><path
         d="m 99.817,125.945 c -28.461,0.242 -55.177,3.019 -75.083,7.506 -7.877,1.777 -10.806,7.48 -11.658,12.04 -2.414,12.917 -5.538,38.453 -4.55,64.709 4.842,-4.607 49.465,-48.005 49.465,-48.005 l 46.368,46.296 c 0,-31.788 -2.079,-62.241 -4.542,-82.546 z M 30.72,140.918 c -0.215,0.799 -0.206,1.824 0.909,1.824 0.866,0 2.379,-0.743 2.694,-0.891 l 0.13,0.285 c -0.25,0.101 -2.225,1.685 -3.817,1.707 -0.893,0.013 -1.198,-0.525 -1.198,-1.049 0.001,-0.808 0.634,-1.094 1.282,-1.876 z m 16.18,11.556 c 0,0.86 -1.31,1.365 -1.575,1.751 -0.131,0.194 -0.241,0.313 -0.296,0.521 -0.157,-0.555 0.139,-1.013 0.139,-1.413 0,-0.452 -0.317,-0.665 -0.772,-0.665 -0.687,0 -2.53,1.662 -1.418,4.329 -0.075,-0.947 0.275,-1.569 0.436,-1.745 0.157,-0.177 0.304,-0.523 0.268,-0.802 0.362,0.66 0.436,0.955 0.436,1.481 0,1.141 -0.822,1.377 -0.438,2.222 0.072,0.232 0.146,0.421 0.267,0.718 0,-0.398 0.071,-0.748 0.142,-1.029 0.068,-0.278 0.505,-0.8 0.558,-1.015 0.055,-0.213 0.07,-0.422 0.019,-0.683 0.366,0.455 0.611,0.853 0.611,1.591 0,0.856 -0.386,1.349 -0.493,1.593 -0.1,0.247 -0.225,0.49 -0.275,0.907 -0.239,1.89 -1.17,2.778 -2.396,2.778 -0.77,0 -1.346,-0.121 -1.839,-0.435 0,2.429 -2.763,2.237 -2.763,3.829 0,0.438 0.298,0.96 0.595,1.258 0.295,0.296 1.418,0.711 1.834,1.251 -0.602,0.043 -1.255,0.252 -1.602,0.655 0.994,0.494 0.969,1.056 1.095,1.81 -0.977,-0.487 -1.422,-0.203 -1.673,0.058 -0.299,0.317 -0.156,0.732 -0.496,1.217 -0.159,-0.385 -0.414,-0.708 -0.833,-0.708 -0.423,0 -1.286,0.76 -1.299,1.003 -0.035,0.663 -0.35,0.927 -0.951,1.002 -0.447,0.479 -0.34,0.721 -0.324,1.167 -0.386,-0.366 -0.449,-0.604 -0.302,-1.271 -0.45,-0.18 -0.395,-0.558 -0.26,-0.888 l -0.168,-0.118 c -0.24,0.216 -0.489,0.521 -1.085,0.239 -0.23,0.099 -0.527,0.449 -0.577,0.87 -0.158,-1.002 0.161,-1.35 0.326,-1.495 -0.104,-0.229 0.042,-0.703 0.449,-0.881 0,-0.099 -0.035,-0.148 -0.051,-0.198 -0.332,0 -0.614,-0.134 -0.731,-0.348 -0.323,-0.067 -0.763,0.318 -0.846,0.552 0,-0.562 0.449,-1.133 0.781,-1.269 0.374,-0.746 1.091,-0.881 1.525,-0.448 0.239,0.24 0.813,0.499 1.396,0.499 0.579,0 1.111,-0.482 1.251,-0.673 0.139,-0.193 0.159,-0.229 0.225,-0.387 0.129,-0.286 0.374,-0.625 -0.225,-1.38 -0.471,-0.594 -1.649,-1.747 -1.672,-2.568 -0.036,-1.357 0.593,-2.144 1.204,-2.686 -0.215,0 -0.157,0 -0.485,0 -0.864,0 -0.939,-0.54 -1.82,-0.54 -0.645,0 -1.027,0.646 -1.027,1.207 0,0.561 0.101,0.678 0.296,1.041 0.271,0.5 0.366,0.772 0.294,1.278 -0.509,-0.459 -1.233,-0.692 -1.812,-0.182 -0.224,0.652 -0.364,0.9 -0.779,1.211 -0.035,-0.538 -1.14,-1.396 -2.128,-0.48 -0.1,0.229 -0.186,0.745 -0.876,0.745 -0.409,0 -0.369,-0.1 -0.542,-0.169 -0.282,0.245 -0.518,0.518 -0.602,0.868 -0.145,-0.532 0.044,-0.996 0.231,-1.219 -0.065,-0.229 -0.048,-0.805 0.251,-0.964 -0.091,-0.097 -0.054,-0.033 -0.136,-0.173 -0.43,0.366 -1.107,0.407 -1.404,-0.007 -0.249,0.048 -0.488,0.226 -0.752,0.759 -0.064,-0.543 0.308,-1.163 0.561,-1.343 0.005,-0.418 0.574,-0.774 1.159,-0.648 0.043,-0.07 -0.007,-0.119 0.055,-0.205 0.062,-0.087 -0.021,-0.047 -0.021,-0.047 -0.169,-0.093 -0.725,-0.116 -0.688,-0.807 -0.338,-0.122 -0.659,0.039 -0.891,0.238 0.23,-0.594 0.728,-0.782 1.107,-0.819 0.14,-0.257 0.565,-0.286 0.781,-0.286 0.406,0 0.678,0.192 0.746,0.446 0.41,0.727 1.335,0.968 2.246,0.968 0.458,0 0.841,-0.349 0.841,-0.872 0,-0.526 -0.89,-2.052 -0.89,-2.755 0,-0.696 1.254,-2.039 2.097,-2.039 2.559,0 3.149,1.069 3.725,1.069 0.807,0 0.914,-0.169 1.042,-0.294 -1.21,-1.484 -1.98,-1.455 -3.131,-2.247 -0.578,-0.399 -0.874,-1.066 -0.962,-1.693 -0.715,0.167 -1.406,1.119 -1.741,1.711 -0.159,-0.281 -0.403,-0.471 -0.698,-0.471 -0.569,0 -0.979,0.743 -1.247,1.376 -0.164,-0.726 -0.595,-1.398 -1.428,-1.398 -0.466,0 -0.995,0.202 -1.125,0.503 -0.133,0.295 -0.574,0.748 -1.255,0.572 -0.249,0.175 -0.474,0.244 -0.647,1.006 -0.232,-0.954 0.002,-1.131 0.135,-1.366 -0.135,-0.627 0.127,-0.854 0.243,-1.002 l -0.065,-0.17 c -0.372,0.119 -0.922,0.079 -1.085,-0.241 -0.417,-0.019 -0.536,0.033 -0.896,0.57 0.071,-0.608 0.415,-1.106 0.797,-1.253 0.144,-0.356 0.637,-0.501 1.028,-0.501 0.033,-0.1 0.063,-0.102 0.082,-0.186 -0.254,-0.139 -0.47,-0.46 -0.419,-0.842 -0.315,-0.365 -0.66,-0.138 -0.949,-0.032 0.503,-0.521 1.095,-0.718 1.497,-0.485 0.865,-0.287 1.165,0.116 1.247,0.601 0.098,0.555 0.965,0.632 1.862,0.632 1.963,0 5.081,-1.829 4.853,-3.275 -0.465,-0.119 -0.515,-0.101 -0.879,-0.101 -1.048,0 -2.359,1.312 -3.391,1.329 0.515,-0.583 0.198,-1.174 0.481,-1.607 -0.566,-0.017 -1.145,0.34 -2.228,0.245 0.365,-0.217 0.616,-0.982 0.616,-1.248 0,-0.267 0,-0.802 -1.165,-0.802 -0.116,0.034 -0.429,0.134 -0.665,0.134 -0.274,0 -1.046,-0.068 -1.046,-0.679 -0.382,-0.084 -0.661,0.016 -1.075,0.324 0.083,-0.42 0.877,-0.952 1.113,-0.989 0.161,-0.324 0.484,-0.466 0.644,-0.447 0.034,-0.166 0.028,-0.015 0.039,-0.214 -0.396,-0.056 -0.898,-0.199 -0.886,-0.855 -0.281,-0.26 -0.458,-0.312 -1.087,-0.149 0.779,-0.583 1.057,-0.495 1.311,-0.401 0.571,-0.424 1.038,-0.194 1.2,-0.008 0.066,-0.085 0.128,-0.098 0.16,-0.166 -0.132,-0.418 -0.056,-0.825 0.125,-1.007 -0.013,-0.45 -0.223,-0.59 -0.641,-0.68 0.861,0.015 1.211,0.214 1.492,0.532 0.495,0.065 0.808,0.499 0.816,0.813 0.015,0.815 -0.848,1.371 0.812,2.231 0.518,0.264 1.248,0.532 1.981,0.747 0.734,0.215 1.641,0.547 2.009,0.547 -0.285,-0.449 -0.166,-0.896 -0.637,-1.347 0.536,-0.036 1.183,0.149 1.667,0.246 -0.103,-0.648 0.061,-0.65 -0.372,-1.05 0.365,0.052 0.888,0.059 1.173,0.089 1.89,0.202 1.917,-0.736 2.284,-1.927 -0.646,0.035 -1.732,0.196 -2.761,0.883 0.1,-0.355 -0.012,-0.637 -0.012,-0.939 0,-0.564 0.446,-0.678 0.664,-0.678 0.103,0 0.38,-0.046 0.598,-0.046 0.413,0 0.992,-0.469 0.721,-1.391 -0.129,-0.44 -0.465,-0.716 -0.851,-0.601 -0.283,0.082 -0.347,0.073 -0.762,0.227 -0.316,0.116 -0.416,0.364 -0.449,0.7 -0.063,-0.153 -0.18,-0.578 -0.233,-0.682 -0.062,-0.127 -0.105,-0.206 -0.219,-0.487 -0.036,-0.089 -0.026,-0.09 -0.079,-0.208 -0.198,-0.463 0.115,-0.854 0.516,-0.93 0.333,-0.069 0.866,-0.204 1.196,-0.3 0.659,-0.199 0.86,-0.453 1,-0.799 0.146,-0.364 0.235,-0.507 0.839,-0.507 0.191,0 0.875,0.018 1.188,0.018 0.917,0 1.947,-0.747 1.608,-1.538 0.64,0.114 0.893,1.134 0.735,1.538 0.297,0 1.292,-0.194 1.519,-0.384 -0.005,0.688 -0.541,1.538 -0.924,1.748 0.488,0.051 1.349,-0.021 1.609,-0.245 -0.158,0.522 -0.718,1.641 -1.07,1.802 0.853,0.293 1.413,0.751 1.795,1.811 -0.649,-0.267 -1.031,0.054 -1.596,-0.033 1.165,1.363 1.597,3.438 1.931,3.951 -0.312,-0.168 -0.943,-0.521 -1.415,-0.693 0.483,1.13 -0.231,2.243 -0.125,2.846 -0.363,-0.211 -0.837,-0.473 -0.993,-0.77 -0.193,0.458 -0.594,1.348 -0.438,2.502 -0.296,-0.316 -0.805,-0.56 -1.03,-0.737 -0.437,0.629 -0.702,1.033 -0.702,2.644 0,2.198 1.024,4.301 1.471,5.134 0.682,1.281 0.852,2.367 0.96,2.801 0.215,0.858 0.83,1.415 1.643,1.415 0.789,0 1.453,-0.717 1.453,-1.591 0,-1.591 -1.943,-2.601 -1.943,-5.4 0,-1.838 1.414,-2.753 1.454,-3.923 0.036,-1.036 -0.915,-0.393 -1.622,-0.856 0.907,-0.179 1.442,-1.183 2.251,-1.14 0.714,0.042 0.878,0.417 0.914,0.786 0.054,0.497 -0.272,1.077 -0.377,1.283 0.79,-0.68 1.142,-1.723 1.142,-2.248 0,-0.788 -1.105,-1.66 -0.821,-3.167 0.042,-0.204 0.039,-0.174 0.089,-0.294 0.328,1.692 2.73,2.13 2.73,3.808 0,1.583 -1.366,1.282 -2.145,2.38 0.85,-0.351 1.818,-0.176 1.818,0.764 z m 29.397,-14.699 c -0.227,0.834 -0.216,1.902 0.946,1.902 0.902,0 2.479,-0.774 2.81,-0.928 l 0.134,0.296 c -0.261,0.105 -2.319,1.757 -3.98,1.779 -0.928,0.014 -1.245,-0.546 -1.245,-1.091 -0.001,-0.842 0.658,-1.143 1.335,-1.958 z m 16.861,12.045 c 0,0.895 -1.365,1.424 -1.641,1.827 -0.135,0.201 -0.251,0.326 -0.308,0.541 -0.165,-0.579 0.145,-1.054 0.145,-1.472 0,-0.469 -0.331,-0.691 -0.807,-0.691 -0.715,0 -2.637,1.732 -1.477,4.511 -0.078,-0.987 0.287,-1.638 0.453,-1.818 0.167,-0.184 0.318,-0.546 0.281,-0.835 0.379,0.686 0.451,0.993 0.451,1.542 0,1.189 -0.857,1.435 -0.454,2.315 0.075,0.242 0.151,0.439 0.276,0.75 0,-0.417 0.076,-0.782 0.147,-1.073 0.072,-0.291 0.529,-0.837 0.584,-1.058 0.052,-0.22 0.072,-0.441 0.016,-0.713 0.384,0.476 0.639,0.889 0.639,1.658 0,0.893 -0.4,1.407 -0.512,1.661 -0.106,0.255 -0.236,0.509 -0.291,0.945 -0.246,1.972 -1.218,2.896 -2.497,2.896 -0.802,0 -1.401,-0.124 -1.914,-0.453 0,2.532 -2.88,2.333 -2.88,3.989 0,0.457 0.31,1.002 0.62,1.314 0.308,0.309 1.477,0.741 1.913,1.305 -0.628,0.044 -1.308,0.261 -1.672,0.683 1.038,0.514 1.011,1.098 1.144,1.884 -1.018,-0.508 -1.484,-0.213 -1.742,0.059 -0.312,0.332 -0.161,0.763 -0.518,1.271 -0.165,-0.401 -0.432,-0.738 -0.869,-0.738 -0.439,0 -1.34,0.79 -1.353,1.045 -0.037,0.692 -0.366,0.965 -0.99,1.045 -0.468,0.499 -0.357,0.751 -0.338,1.218 -0.403,-0.383 -0.469,-0.632 -0.315,-1.324 -0.468,-0.192 -0.41,-0.584 -0.271,-0.928 l -0.176,-0.123 c -0.251,0.226 -0.509,0.541 -1.132,0.25 -0.239,0.101 -0.553,0.469 -0.601,0.907 -0.162,-1.045 0.165,-1.406 0.339,-1.561 -0.106,-0.235 0.044,-0.731 0.468,-0.917 0,-0.103 -0.037,-0.157 -0.052,-0.206 -0.347,0 -0.638,-0.141 -0.765,-0.362 -0.333,-0.068 -0.792,0.333 -0.878,0.575 0,-0.584 0.465,-1.181 0.812,-1.321 0.391,-0.779 1.139,-0.919 1.591,-0.465 0.249,0.246 0.847,0.519 1.455,0.519 0.605,0 1.157,-0.501 1.305,-0.702 0.146,-0.203 0.165,-0.236 0.235,-0.405 0.131,-0.298 0.386,-0.652 -0.235,-1.439 -0.492,-0.616 -1.72,-1.819 -1.741,-2.675 -0.039,-1.413 0.617,-2.233 1.253,-2.796 -0.222,0 -0.164,0 -0.503,0 -0.902,0 -0.98,-0.565 -1.897,-0.565 -0.674,0 -1.072,0.675 -1.072,1.261 0,0.582 0.105,0.705 0.311,1.083 0.279,0.521 0.381,0.804 0.304,1.332 -0.53,-0.479 -1.287,-0.721 -1.887,-0.19 -0.233,0.678 -0.38,0.937 -0.812,1.266 -0.036,-0.565 -1.183,-1.458 -2.215,-0.505 -0.103,0.24 -0.191,0.777 -0.912,0.777 -0.426,0 -0.383,-0.102 -0.564,-0.178 -0.295,0.257 -0.541,0.541 -0.627,0.907 -0.151,-0.555 0.045,-1.036 0.24,-1.27 -0.07,-0.242 -0.049,-0.842 0.26,-1.008 -0.091,-0.101 -0.058,-0.035 -0.141,-0.178 -0.445,0.38 -1.155,0.425 -1.46,-0.006 -0.264,0.05 -0.512,0.23 -0.787,0.79 -0.067,-0.567 0.319,-1.215 0.586,-1.4 0.004,-0.431 0.598,-0.809 1.205,-0.676 0.047,-0.074 -0.008,-0.124 0.059,-0.213 0.063,-0.088 -0.021,-0.048 -0.021,-0.048 -0.179,-0.096 -0.758,-0.12 -0.718,-0.844 -0.353,-0.125 -0.686,0.042 -0.928,0.251 0.239,-0.618 0.756,-0.817 1.155,-0.854 0.141,-0.271 0.586,-0.3 0.812,-0.3 0.422,0 0.707,0.201 0.775,0.465 0.428,0.756 1.394,1.008 2.344,1.008 0.473,0 0.875,-0.362 0.875,-0.907 0,-0.549 -0.932,-2.141 -0.932,-2.873 0,-0.729 1.308,-2.127 2.184,-2.127 2.668,0 3.282,1.114 3.883,1.114 0.84,0 0.954,-0.174 1.084,-0.308 -1.257,-1.547 -2.059,-1.514 -3.26,-2.339 -0.604,-0.416 -0.913,-1.11 -1.002,-1.764 -0.745,0.174 -1.466,1.162 -1.815,1.781 -0.166,-0.292 -0.421,-0.491 -0.73,-0.491 -0.593,0 -1.017,0.775 -1.297,1.433 -0.17,-0.755 -0.62,-1.454 -1.489,-1.454 -0.487,0 -1.036,0.208 -1.173,0.524 -0.139,0.307 -0.596,0.778 -1.308,0.595 -0.26,0.183 -0.495,0.256 -0.674,1.047 -0.244,-0.991 0.002,-1.18 0.14,-1.422 -0.14,-0.651 0.129,-0.889 0.252,-1.047 l -0.07,-0.175 c -0.387,0.127 -0.959,0.083 -1.127,-0.252 -0.435,-0.02 -0.562,0.035 -0.936,0.595 0.076,-0.633 0.433,-1.152 0.831,-1.304 0.15,-0.374 0.664,-0.524 1.072,-0.524 0.034,-0.105 0.066,-0.105 0.084,-0.192 -0.264,-0.145 -0.491,-0.482 -0.437,-0.879 -0.328,-0.38 -0.689,-0.142 -0.989,-0.033 0.526,-0.544 1.144,-0.747 1.562,-0.506 0.9,-0.297 1.213,0.122 1.299,0.624 0.102,0.581 1.006,0.66 1.939,0.66 2.047,0 5.296,-1.904 5.06,-3.414 -0.484,-0.121 -0.538,-0.105 -0.917,-0.105 -1.094,0 -2.459,1.371 -3.537,1.388 0.541,-0.608 0.208,-1.225 0.503,-1.676 -0.589,-0.015 -1.191,0.356 -2.321,0.255 0.382,-0.226 0.641,-1.022 0.641,-1.298 0,-0.28 0,-0.835 -1.213,-0.835 -0.119,0.032 -0.447,0.139 -0.692,0.139 -0.287,0 -1.091,-0.075 -1.091,-0.709 -0.396,-0.087 -0.69,0.017 -1.118,0.338 0.085,-0.438 0.913,-0.992 1.16,-1.029 0.167,-0.341 0.504,-0.487 0.669,-0.468 0.036,-0.176 0.029,-0.017 0.04,-0.226 -0.412,-0.054 -0.937,-0.205 -0.925,-0.892 -0.292,-0.269 -0.475,-0.327 -1.131,-0.155 0.813,-0.605 1.104,-0.515 1.367,-0.416 0.595,-0.445 1.083,-0.201 1.25,-0.009 0.071,-0.089 0.135,-0.104 0.166,-0.175 -0.138,-0.433 -0.057,-0.857 0.131,-1.046 -0.015,-0.471 -0.231,-0.618 -0.669,-0.709 0.898,0.016 1.261,0.226 1.555,0.555 0.519,0.068 0.842,0.522 0.853,0.848 0.014,0.85 -0.883,1.429 0.846,2.323 0.539,0.276 1.302,0.553 2.065,0.78 0.764,0.225 1.711,0.569 2.093,0.569 -0.297,-0.466 -0.176,-0.935 -0.662,-1.404 0.556,-0.035 1.23,0.156 1.734,0.26 -0.104,-0.678 0.064,-0.681 -0.386,-1.097 0.382,0.053 0.924,0.06 1.219,0.092 1.972,0.211 2,-0.766 2.383,-2.01 -0.673,0.038 -1.805,0.206 -2.879,0.921 0.105,-0.372 -0.011,-0.667 -0.011,-0.979 0,-0.589 0.463,-0.708 0.693,-0.708 0.104,0 0.396,-0.046 0.617,-0.046 0.435,0 1.037,-0.489 0.755,-1.45 -0.134,-0.458 -0.484,-0.746 -0.886,-0.626 -0.294,0.084 -0.363,0.077 -0.792,0.237 -0.333,0.121 -0.435,0.377 -0.469,0.727 -0.067,-0.158 -0.187,-0.6 -0.244,-0.711 -0.064,-0.131 -0.107,-0.21 -0.227,-0.506 -0.039,-0.093 -0.029,-0.095 -0.083,-0.214 -0.207,-0.486 0.122,-0.889 0.537,-0.971 0.347,-0.071 0.903,-0.211 1.248,-0.314 0.688,-0.205 0.896,-0.471 1.04,-0.832 0.154,-0.378 0.247,-0.528 0.876,-0.528 0.198,0 0.913,0.017 1.239,0.017 0.956,0 2.03,-0.777 1.676,-1.603 0.667,0.121 0.932,1.185 0.768,1.603 0.308,0 1.349,-0.202 1.583,-0.4 -0.004,0.717 -0.564,1.602 -0.965,1.824 0.51,0.052 1.408,-0.022 1.677,-0.256 -0.166,0.545 -0.748,1.709 -1.113,1.875 0.888,0.306 1.472,0.786 1.87,1.89 -0.676,-0.278 -1.073,0.056 -1.664,-0.035 1.215,1.42 1.666,3.583 2.015,4.119 -0.329,-0.176 -0.985,-0.542 -1.475,-0.724 0.502,1.178 -0.243,2.341 -0.13,2.969 -0.381,-0.222 -0.876,-0.494 -1.035,-0.805 -0.203,0.478 -0.621,1.405 -0.457,2.607 -0.31,-0.33 -0.841,-0.585 -1.076,-0.768 -0.455,0.657 -0.73,1.079 -0.73,2.755 0,2.292 1.066,4.482 1.533,5.351 0.711,1.335 0.888,2.468 1,2.919 0.225,0.894 0.868,1.477 1.715,1.477 0.819,0 1.511,-0.747 1.511,-1.66 0,-1.659 -2.021,-2.711 -2.021,-5.628 0,-1.914 1.474,-2.869 1.515,-4.089 0.039,-1.08 -0.953,-0.409 -1.69,-0.892 0.945,-0.188 1.503,-1.235 2.346,-1.188 0.743,0.043 0.912,0.437 0.952,0.816 0.054,0.519 -0.285,1.125 -0.394,1.342 0.823,-0.71 1.189,-1.798 1.189,-2.348 0,-0.82 -1.151,-1.727 -0.852,-3.297 0.04,-0.214 0.037,-0.181 0.09,-0.309 0.338,1.766 2.843,2.222 2.843,3.971 0,1.649 -1.419,1.334 -2.233,2.478 0.884,-0.361 1.894,-0.183 1.894,0.799 z"
         id="path19"
         inkscape:connector-curvature="0"
         style="fill:#ffffff" /><path
         d="m 35.564,139.029 c -0.133,0.251 -0.044,0.682 0.09,0.883 0.216,-0.021 0.731,-0.168 1.009,-0.342 0.323,-0.199 0.413,-0.352 0.757,-0.595 -0.331,-0.025 -1.807,-0.034 -1.856,0.054 z"
         id="path21"
         inkscape:connector-curvature="0"
         style="fill:#ffffff" /><path
         d="m 81.346,135.807 c -0.139,0.261 -0.048,0.711 0.094,0.921 0.225,-0.022 0.76,-0.177 1.051,-0.358 0.335,-0.205 0.429,-0.365 0.788,-0.618 -0.344,-0.027 -1.884,-0.034 -1.933,0.055 z"
         id="path23"
         inkscape:connector-curvature="0"
         style="fill:#ffffff" /></g><g
       id="g25"><path
         d="m 296.286,366.078 c 3.412,0 7.229,0 11.367,-0.311 l 0,2.482 c 0,0 -0.622,-0.105 -1.758,-0.105 -7.646,0 -7.646,4.543 -7.646,11.258 l 0,30.166 c 0,3.131 -0.101,6.137 -0.606,8.623 -2.987,14.674 -14.195,18.543 -25.913,18.543 -15.431,0 -24.88,-7.811 -27.481,-18.832 -0.416,-1.77 -0.748,-5.277 -0.748,-9.492 l 0,-30.762 c 0,-7.127 -1.345,-9.195 -9.919,-9.396 l 0,-2.379 c 4.856,0.312 9.919,0.416 15.29,0.416 5.374,0 10.431,-0.104 15.289,-0.416 l 0,2.379 c -0.517,0 -1.035,0 -1.547,0 -7.234,0 -8.368,3.513 -8.368,9.396 l 0,32.449 c 0,3.779 0.19,7.041 1,9.807 2.435,8.312 8.729,13.219 18.434,13.219 11.785,0 18.996,-4.65 21.144,-15.281 0.469,-2.316 0.536,-4.926 0.536,-7.838 l 0,-30.602 c 0,-8.676 -0.518,-11.15 -9.297,-11.15 l 0,-2.481 c 2.889,0.206 6.298,0.307 10.223,0.307 z"
         id="path27"
         inkscape:connector-curvature="0"
         style="fill:#ffffff" /><path
         d="m 340.193,388.6 c 9.142,0 15.174,4.646 15.174,13.532 0,0.311 0,1.238 0,2.584 l 0,21.484 c 0,0.725 0,1.244 0,1.445 0,4.135 2.06,5.268 7.435,5.371 l 0,2.174 c -4.646,-0.312 -8.561,-0.521 -11.866,-0.521 -3.103,0 -7.128,0.105 -11.98,0.521 l 0,-2.174 c 5.265,-0.104 7.434,-1.34 7.434,-5.166 0,-0.102 0,-0.723 0,-1.65 l 0,-23.445 c 0,-7.342 -3.199,-10.95 -9.711,-10.95 -7.021,0 -13.016,6.196 -13.016,14.868 l 0,19.527 c 0,0.725 0,1.244 0,1.445 0,4.135 2.064,5.268 7.438,5.371 l 0,2.174 c -4.646,-0.312 -8.559,-0.521 -11.867,-0.521 -3.1,0 -7.128,0.105 -11.982,0.521 l 0,-2.174 c 5.271,-0.104 7.335,-1.34 7.335,-5.166 0,-0.102 0.104,-0.723 0.104,-1.65 l 0,-24.793 c 0,-5.994 -0.932,-7.953 -6.508,-7.953 -0.312,0 -0.619,0 -0.931,0 l 0,-2.065 c 4.03,0 8.665,-1.447 14.447,-3.929 0.776,1.834 1.35,4.49 1.438,10.713 0.942,-1.677 5.519,-9.573 17.056,-9.573 z"
         id="path29"
         inkscape:connector-curvature="0"
         style="fill:#ffffff" /><path
         d="m 383.78,426.201 c 0,0.725 0,1.244 0,1.445 0,3.93 1.958,5.168 7.023,5.371 l 0,2.174 c -3.928,-0.312 -7.854,-0.521 -11.57,-0.521 -3.72,0 -7.425,0.207 -11.247,0.521 l 0,-2.174 c 4.854,-0.203 6.816,-1.441 6.816,-5.166 0,-0.102 0,-0.723 0,-1.65 l 0,-23.244 c 0,-0.93 0,-1.756 0,-2.584 0,-5.059 -0.308,-6.918 -5.683,-6.918 -0.312,0 -0.513,0 -0.823,0 l 0,-2.065 c 4.542,-0.41 9.591,-1.757 15.482,-3.929 l 0.002,38.74 0,0 z m -0.212,-59.399 c 0,2.892 -2.374,5.273 -5.367,5.273 -2.997,0 -5.271,-2.385 -5.271,-5.273 0,-2.995 2.272,-5.375 5.271,-5.375 2.893,0 5.367,2.38 5.367,5.375 z"
         id="path31"
         inkscape:connector-curvature="0"
         style="fill:#ffffff" /><path
         d="m 402.188,389.939 c 3.412,0 7.896,-0.1 11.198,-0.412 l 0,2.275 c -3.815,0 -5.476,0.514 -5.476,2.895 0,1.236 0.621,3.92 2.375,7.955 l 9.611,22.203 4.543,-11.773 c 3.513,-9.301 5.894,-15.08 5.894,-17.768 0,-2.381 -1.76,-3.512 -5.371,-3.512 l 0,-2.275 c 2.479,0.213 5.712,0.412 8.086,0.412 2.168,0 6.019,-0.2 8.603,-0.412 l 0,2.275 c -0.104,0 -0.639,0 -0.639,0 -5.394,0 -6.854,3.609 -9.852,11.055 l -13.327,33.264 -2.274,0 -16.741,-39.568 c -1.346,-3.098 -2.916,-4.747 -8.171,-4.747 l 0,-2.277 c 3.923,0.312 8.236,0.41 11.541,0.41 z"
         id="path33"
         inkscape:connector-curvature="0"
         style="fill:#ffffff" /><path
         d="m 451.629,406.781 c -0.21,2.172 -0.312,3.82 -0.312,5.168 0,12.395 6.923,20.658 16.525,20.658 5.478,0 9.095,-1.965 13.323,-6.818 l 1.862,1.963 c -4.232,5.994 -10.223,8.883 -18.076,8.883 -14.252,0 -23.538,-10.225 -23.538,-23.242 0,-13.113 9.695,-24.995 23.848,-24.995 11.265,0 19.217,7.231 19.217,17.452 0,0.312 0,0.623 0,0.934 l -32.849,-0.003 0,0 z m 23.553,-5.373 c 0,-6.922 -4.337,-10.846 -10.126,-10.846 -6.609,0 -11.776,4.959 -12.81,13.219 l 22.626,0 c 0.202,-1.34 0.31,-2.166 0.31,-2.373 z"
         id="path35"
         inkscape:connector-curvature="0"
         style="fill:#ffffff" /><path
         d="m 519.767,389.117 c 5.266,0 8.37,2.271 8.37,5.473 0,2.584 -1.557,4.131 -3.619,4.131 -4.65,0 -2.272,-5.991 -8.06,-5.991 -5.68,0 -10.429,5.526 -10.429,13.944 l 0,19.527 c 0,0.725 0,1.244 0,1.445 0,4.135 2.062,5.268 7.432,5.371 l 0,2.174 c -4.648,-0.312 -8.679,-0.521 -11.982,-0.521 -3.097,0 -7.01,0.105 -11.862,0.521 l 0,-2.174 c 5.263,-0.104 7.438,-1.34 7.438,-5.166 0,-0.102 0,-0.723 0,-1.65 l 0,-23.76 c 0,-6.812 -1.66,-9.092 -7.339,-9.092 -0.31,0 -0.722,0 -1.138,0 l 0,-2.066 c 4.752,-0.619 9.703,-1.854 14.97,-3.512 1.301,3.463 1.749,9.752 1.639,11.332 2.083,-5.228 7.226,-9.986 14.58,-9.986 z"
         id="path37"
         inkscape:connector-curvature="0"
         style="fill:#ffffff" /><path
         d="m 560.997,394.436 0.1,6.675 -2.027,0 c -1.136,-5.988 -5.231,-10.445 -12.555,-10.445 -4.55,0 -7.732,2.914 -7.732,6.318 0,5.092 3.643,6.062 10.122,9.293 3.158,1.6 5.944,2.805 8.229,4.219 4.2,2.602 6.702,5.916 6.702,11.143 0,8.887 -6.479,14.998 -17.165,14.998 -4.656,0 -9.103,-1.549 -12.507,-4.232 l -1.4,2.895 -1.77,0 c 0.113,-3.824 0.113,-6.096 0.113,-6.92 0,-1.656 -0.113,-4.029 -0.113,-7.232 l 1.798,0 c 1.596,8.156 6.611,13.02 13.999,13.02 6.415,0 9.888,-4.053 9.888,-8.389 0,-5.396 -3.686,-6.986 -10.95,-10.396 -8.644,-4.166 -13.878,-6.811 -13.878,-14.488 0,-7.047 6.827,-12.49 14.326,-12.49 5.515,0 7.783,0.926 11.308,2.783 l 2.155,-2.58 1.477,0 -0.12,5.828 z"
         id="path39"
         inkscape:connector-curvature="0"
         style="fill:#ffffff" /><path
         d="m 587.212,426.201 c 0,0.725 0,1.244 0,1.445 0,3.93 1.965,5.168 7.029,5.371 l 0,2.174 c -3.93,-0.312 -7.64,-0.521 -11.362,-0.521 -3.718,0 -7.425,0.207 -11.248,0.521 l 0,-2.174 c 4.854,-0.203 6.823,-1.441 6.823,-5.166 0,-0.102 0,-0.723 0,-1.65 l 0,-23.244 c 0,-0.93 0,-1.756 0,-2.584 0,-5.059 -0.316,-6.918 -5.683,-6.918 -0.312,0 -0.521,0 -0.832,0 l 0,-2.065 c 4.546,-0.41 9.387,-1.757 15.271,-3.929 l 0.002,38.74 0,0 z m 0.007,-59.399 c 0,2.892 -2.374,5.273 -5.374,5.273 -2.995,0 -5.264,-2.385 -5.264,-5.273 0,-2.995 2.269,-5.375 5.264,-5.375 2.889,0 5.374,2.38 5.374,5.375 z"
         id="path41"
         inkscape:connector-curvature="0"
         style="fill:#ffffff" /><path
         d="m 613.824,378.27 0,11.362 11.558,0 0,3.097 -11.451,0 0,31.099 c 0,6.195 1.745,9.297 6.505,9.297 2.782,0 5.464,-1.539 7.526,-4.736 l 1.667,1.533 c -2.478,4.441 -6.76,6.303 -11.974,6.303 -8.423,0 -12.499,-4.342 -12.499,-12.91 l 0,-30.585 -4.854,0 0,-1.652 c 4.542,-2.682 8.565,-7.022 11.766,-12.807 l 1.756,-0.001 0,0 0,0 z"
         id="path43"
         inkscape:connector-curvature="0"
         style="fill:#ffffff" /><path
         d="m 637.835,389.939 c 1.547,0 5.572,-0.1 11.874,-0.412 l 0,2.275 c -4.126,0.102 -5.988,0.721 -5.988,3.408 0,0.619 0.308,1.65 0.724,2.789 l 10.328,26.648 9.817,-23.76 c 0.724,-1.756 1.031,-3.613 1.031,-5.165 0,-2.793 -1.55,-3.82 -5.374,-3.923 l 0,-2.276 c 3.099,0.213 5.579,0.414 7.232,0.414 2.066,0 5.509,-0.201 8.194,-0.414 l 0,2.276 c -0.104,0 -0.207,0 -0.31,0 -4.546,0 -5.203,2.27 -7.271,7.332 l -13.326,32.127 c -9.495,23.033 -13.526,32.852 -18.281,32.852 -1.653,0 -3.213,-1.139 -3.213,-3 0,-3.385 3.479,-4.178 6,-5.678 2.58,-1.533 4.781,-6.158 9.195,-16.113 l 1.922,-4.395 -14.834,-35.584 c -1.86,-4.444 -2.168,-7.541 -7.431,-7.541 l 0,-2.276 c 3.926,0.318 7.024,0.416 9.711,0.416 z"
         id="path45"
         inkscape:connector-curvature="0"
         style="fill:#ffffff" /></g><path
       d="m 228.911,336.658 c 13.331,-0.322 15.419,-3.535 15.419,-14.609 l 0,-71.315 c 0,-11.104 -2.089,-14.317 -15.419,-14.637 l 0,-3.697 c 6.102,0.16 11.564,0.318 16.545,0.318 12.368,0 19.542,-0.639 30.357,-0.639 22.633,0 38.503,5.871 48.33,17.233 7.4,8.55 11.569,20.002 11.569,35.419 0,17.342 -5.353,30.956 -14.673,40.409 -9.748,9.885 -23.912,15.211 -43.947,15.211 -9.797,0 -20.076,-0.479 -30.515,-0.479 -5.782,0 -11.564,0 -17.667,0.322 l 0.001,-3.536 0,0 z m 31.962,-22.325 c 0,14.773 3.373,22.002 19.271,22.002 25.855,0 36.292,-19.606 36.292,-51.403 0,-37.12 -14.037,-49.32 -42.877,-49.32 -9.634,0 -12.685,0 -12.685,8.83 l 0,69.891 z"
       id="path47"
       inkscape:connector-curvature="0"
       style="fill:#ffffff" /><path
       d="m 354.663,269.526 c 3.371,0 7.709,-0.161 12.53,-0.319 l 0,50.592 c 0,0.158 0,0.158 0,0.479 0,10.916 5.135,16.541 15.093,16.541 10.924,0 20.238,-9.635 20.238,-23.129 l 0,-30.514 c 0,-1.602 0,-2.566 0,-2.889 0,-4.976 -3.374,-7.551 -10.277,-7.551 -0.486,0 -0.804,0 -1.288,0 l 0,-3.529 c 4.976,0.156 9.477,0.318 13.328,0.318 3.375,0 7.546,-0.162 12.365,-0.318 l 0,52.678 c 0,0.162 0,0.162 0,0.479 0,8.672 1.256,14.377 9.278,14.377 0.646,0 0.867,0.041 1.516,0.041 l 0,3.373 c -7.843,-0.724 -13.766,-0.64 -24.061,-0.15 L 403,327.343 c -6.262,9.957 -14.774,14.453 -26.176,14.453 -18.468,0 -23.771,-8.836 -23.771,-25.053 l 0,-33.57 c 0,-1.6 -0.156,-2.565 -0.156,-2.887 0,-4.977 -3.375,-7.552 -10.118,-7.552 -0.484,0 -0.807,0 -1.286,0 l 0,-3.53 c 4.978,0.161 9.315,0.322 13.17,0.322 z"
       id="path49"
       inkscape:connector-curvature="0"
       style="fill:#ffffff" /><path
       d="m 480.42,268.565 c 8.202,0 12.861,4.496 12.861,8.908 0,4.017 -2.518,6.026 -5.252,6.026 -8.188,0 -4.165,-9.314 -12.745,-9.314 -8.117,0 -16.217,7.708 -16.217,21.686 l 0,30.346 c 0,1.129 0,1.933 0,2.254 0,6.423 3.212,8.189 11.557,8.349 l 0,3.377 c -7.225,-0.483 -13.486,-0.803 -18.626,-0.803 -4.823,0 -11.081,0.155 -18.63,0.803 l 0,-3.377 c 8.189,-0.159 11.562,-2.088 11.562,-8.024 0,-0.164 0,-1.129 0,-2.576 l 0,-36.938 c 0,-10.6 -2.567,-14.132 -11.403,-14.132 -0.478,0 -1.119,0 -1.762,0 l 0,-3.217 c 7.388,-0.96 14.969,-1.966 23.155,-4.534 2.071,4.678 2.723,13.786 2.723,16.779 2.868,-6.705 10.547,-15.613 22.777,-15.613 z"
       id="path51"
       inkscape:connector-curvature="0"
       style="fill:#ffffff" /><path
       d="m 515.021,281.945 c 4.854,-9.148 14.772,-14.184 25.858,-14.184 15.09,0 23.767,7.797 23.767,21.037 0,0.482 0,1.93 0,4.019 l 0,33.401 c 0,1.13 0,1.933 0,2.255 0,6.422 3.209,8.187 11.562,8.349 l 0,3.377 c -7.229,-0.484 -13.488,-0.804 -18.63,-0.804 -4.816,0 -11.082,0.153 -18.627,0.804 l 0,-3.377 c 8.193,-0.162 11.562,-2.091 11.562,-8.027 0,-0.164 0,-1.127 0,-2.574 l 0,-36.451 c 0,-11.407 -4.976,-17.027 -15.095,-17.027 -10.921,0 -20.396,9.639 -20.396,23.131 l 0,30.348 c 0,1.129 0,1.932 0,2.254 0,6.422 3.215,8.188 11.564,8.348 l 0,3.379 c -7.23,-0.484 -13.491,-0.805 -18.638,-0.805 -4.812,0 -11.074,0.154 -18.627,0.805 l 0,-3.379 c 8.19,-0.16 11.563,-2.088 11.563,-8.025 0,-0.164 0,-1.127 0,-2.574 l 0,-84.504 c 0,-7.064 -3.214,-9.635 -11.563,-9.797 l 0,-2.889 c 4.976,-0.324 13.49,-1.766 25.697,-4.658 l 0.003,57.568 0,0 z"
       id="path53"
       inkscape:connector-curvature="0"
       style="fill:#ffffff" /><path
       d="m 623.498,331.162 c -3.477,3.746 -9.147,10.324 -24.04,10.324 -12.115,0 -20.101,-6.412 -20.101,-16.119 0,-10.602 8.668,-17.104 26.332,-24.008 l 8.519,-3.212 c 7.386,-2.892 9.795,-2.729 9.795,-8.353 l 0,-3.485 c 0,-10.12 -3.853,-15.497 -15.9,-15.497 -12.46,0 -12.838,5.368 -13.37,9.898 -0.342,2.857 -1.079,6.162 -6.338,6.162 -3.053,0 -5.193,-2.57 -5.193,-5.942 0,-6.911 8.935,-13.332 26.509,-13.332 18.794,0 27.622,5.944 27.622,18.47 l 0,40.793 c 0,6.27 2.016,8.889 5.385,8.889 2.25,0 4.052,-1.031 5.86,-3.43 l 2.091,2.252 c -3.38,5.301 -7.88,6.906 -14.145,6.906 -7.439,10e-4 -11.942,-4.244 -13.026,-10.316 z m -29.21,-8.633 c 0,7.549 4.012,13.221 11.244,13.221 10.726,0 18.146,-7.037 18.146,-15.02 l 0,-22.904 c -19.911,7.867 -29.39,14.748 -29.39,24.703 z"
       id="path55"
       inkscape:connector-curvature="0"
       style="fill:#ffffff" /><path
       d="m 748.256,267.599 c 16.221,0 23.179,8.729 23.179,23.283 l 0,35.334 c 0,0.81 0,1.447 0,2.254 0,6.423 3.207,8.189 11.565,8.349 l 0,3.377 c -7.232,-0.483 -13.495,-0.803 -18.634,-0.803 -4.812,0 -11.082,0.155 -18.631,0.803 l 0,-3.377 c 8.19,-0.159 11.399,-2.088 11.399,-8.024 0,-0.164 0.164,-1.129 0.164,-2.576 l 0,-37.739 c 0,-10.275 -4.817,-15.74 -13.971,-15.74 -11.28,0 -18.954,8.084 -18.954,22.541 l 0,30.938 c 0,1.13 0,1.934 0,2.255 0,6.259 3.213,8.188 11.242,8.349 l 0,3.377 c -6.902,-0.484 -13.009,-0.803 -18.304,-0.803 -5.786,0 -11.562,0.316 -17.827,0.803 l 0,-3.377 c 7.542,-0.322 10.758,-2.246 10.758,-8.025 0,-0.164 0,-1.129 0,-2.576 l 0,-37.74 c 0,-10.12 -4.815,-15.74 -13.979,-15.74 -11.11,0 -18.94,8.834 -18.94,23.287 l 0,30.191 c 0,1.129 0,1.933 0,2.254 0,6.423 3.21,8.188 11.562,8.35 l 0,3.377 c -7.226,-0.484 -13.495,-0.804 -18.627,-0.804 -4.822,0 -10.417,0.153 -17.962,0.804 l 0,-3.377 c 8.187,-0.162 10.891,-2.091 10.891,-8.027 0,-0.164 0,-1.127 0,-2.574 l 0,-38.541 c 0,-9.316 -1.442,-12.363 -10.118,-12.363 -0.478,0 -0.962,0 -1.439,0 l 0,-3.219 c 6.268,0 13.651,-2.249 22.645,-6.103 1.29,4.817 1.9,9.994 1.9,14.813 0,0.698 0.055,1.325 0,1.446 4.275,-8.809 14.319,-14.818 25.401,-14.818 16.042,0 21.295,10.391 21.361,15.137 2.363,-6.221 10.765,-14.976 25.319,-14.976 z"
       id="path57"
       inkscape:connector-curvature="0"
       style="fill:#ffffff" /></g></svg>