<!DOCTYPE svg PUBLIC "-//W3C//DTD SVG 20010904//EN" "http://www.w3.org/TR/2001/REC-SVG-20010904/DTD/svg10.dtd">
<svg version="1.0" xmlns="http://www.w3.org/2000/svg" width="512px" height="512px" viewBox="0 0 5120 5120" preserveAspectRatio="xMidYMid meet">
<g id="layer1" fill="#rgba(255,0,255,1)" stroke="none">
 <path d="M1265 3694 c-28 -15 -133 -75 -235 -134 -102 -58 -279 -160 -394 -226 -114 -65 -223 -133 -241 -149 -18 -17 -38 -48 -44 -70 -7 -27 -11 -205 -11 -540 0 -465 2 -503 19 -540 10 -22 29 -50 42 -62 21 -19 314 -193 325 -193 2 0 44 -24 92 -53 106 -66 340 -199 364 -209 17 -7 18 3 16 179 l-3 186 -145 85 c-80 46 -190 110 -245 142 -55 33 -108 62 -117 66 -16 5 -18 21 -18 125 l0 119 198 0 c136 1 203 4 218 13 80 47 114 114 94 188 -15 53 -64 104 -115 118 -22 6 -120 11 -217 11 l-178 0 0 113 0 112 33 19 c17 10 104 60 192 111 88 51 227 131 309 178 l149 86 41 -23 c22 -13 106 -62 186 -108 80 -47 214 -124 298 -172 l152 -88 0 -397 0 -397 -235 -135 c-130 -74 -247 -143 -261 -154 l-25 -20 3 -182 3 -183 110 64 c61 35 153 88 205 118 226 132 298 173 350 201 85 46 131 79 154 110 21 28 21 38 24 565 2 373 -1 545 -8 563 -7 15 -24 38 -38 52 -24 22 -385 237 -399 237 -3 0 -17 9 -32 19 -15 11 -130 79 -256 150 -257 148 -271 152 -360 105z"/>
 <path d="M2490 2901 l0 -201 55 0 c98 0 134 55 135 205 0 139 -30 183 -129 192 l-61 6 0 -202z m104 133 c24 -23 28 -53 24 -158 -3 -100 -12 -121 -53 -128 -19 -3 -20 3 -23 150 -2 145 -2 152 17 152 11 0 27 -7 35 -16z"/>
 <path d="M2764 3092 c-26 -17 -34 -56 -34 -156 l0 -106 25 0 25 0 0 104 c0 108 10 136 45 122 12 -4 15 -26 15 -116 l0 -110 25 0 25 0 0 113 c0 137 -9 157 -73 157 -23 0 -47 -4 -53 -8z"/>
 <path d="M2950 2965 l0 -135 25 0 c14 0 25 5 25 11 0 5 10 3 22 -5 32 -23 40 -20 36 11 -2 18 -10 29 -23 32 -31 5 -35 19 -35 124 0 97 0 97 -25 97 l-25 0 0 -135z"/>
 <path d="M3092 2878 c3 -223 3 -223 26 -226 22 -3 22 -1 22 97 l0 100 29 -16 c27 -16 30 -16 55 0 26 17 26 19 26 142 l0 125 -25 0 c-24 0 -24 0 -27 -112 -3 -101 -5 -113 -22 -116 -29 -6 -36 16 -36 126 l0 102 -25 0 -25 0 2 -222z"/>
 <path d="M3313 3074 c-21 -32 -24 -177 -5 -211 20 -37 49 -47 78 -28 13 8 24 11 24 5 0 -5 11 -10 25 -10 l25 0 0 135 0 135 -25 0 c-17 0 -25 -6 -25 -17 -1 -17 -1 -17 -11 0 -16 27 -65 22 -86 -9z m87 -40 c22 -56 6 -164 -24 -164 -20 0 -26 23 -26 99 0 85 29 122 50 65z"/>
 <path d="M3520 2965 l0 -135 25 0 c14 0 25 5 25 10 0 6 11 3 25 -6 23 -15 27 -15 50 0 23 15 27 15 49 1 32 -21 75 -10 87 22 5 13 9 74 9 134 l0 109 -25 0 c-25 0 -25 -1 -25 -92 0 -117 -6 -140 -34 -136 -20 3 -21 10 -24 116 -3 112 -3 112 -27 112 -25 0 -25 -1 -25 -92 0 -117 -6 -140 -34 -136 -20 3 -21 10 -24 116 -3 112 -3 112 -27 112 l-25 0 0 -135z"/>
 <path d="M3350 2380 l0 -190 25 0 c14 0 25 5 25 12 0 9 3 9 12 0 7 -7 24 -12 40 -12 40 0 58 41 58 135 0 82 -18 134 -48 136 -29 2 -47 -3 -54 -14 -4 -7 -8 18 -8 56 0 65 -1 67 -25 67 l-25 0 0 -190z m100 21 c5 -11 10 -45 10 -76 0 -60 -12 -95 -34 -95 -20 0 -26 23 -26 95 0 35 3 70 6 79 8 22 31 20 44 -3z"/>
 <path d="M3200 2461 c-47 -13 -71 -106 -51 -197 14 -60 33 -77 83 -72 40 4 66 40 70 98 l3 45 -58 3 c-61 3 -65 9 -47 56 12 33 37 33 52 1 15 -33 48 -34 48 -1 0 48 -49 81 -100 67z m50 -180 c0 -53 -33 -70 -50 -25 -15 39 -13 44 20 44 23 0 30 -5 30 -19z"/>
 <path d="M4159 2459 c-36 -13 -53 -59 -52 -142 0 -51 5 -75 19 -94 53 -71 126 -35 140 70 l7 47 -62 0 c-33 0 -61 4 -61 9 0 4 5 22 11 40 13 37 38 39 54 3 6 -13 19 -22 32 -22 20 0 21 3 12 32 -15 54 -52 74 -100 57z m51 -189 c0 -19 -6 -33 -16 -37 -19 -7 -29 4 -38 40 -6 25 -4 27 24 27 27 0 30 -3 30 -30z"/>
 <path d="M4365 2460 c-44 -8 -55 -39 -55 -162 l0 -108 25 0 25 0 0 103 c0 109 7 131 36 125 17 -3 19 -15 22 -116 3 -112 3 -112 27 -112 l25 0 0 113 c0 147 -18 173 -105 157z"/>
 <path d="M4693 2460 c-13 -5 -23 -18 -23 -28 0 -16 7 -19 37 -18 55 2 55 -26 2 -80 -31 -32 -42 -51 -42 -73 0 -44 28 -71 75 -71 33 0 38 3 38 24 0 19 -4 23 -20 19 -20 -5 -50 12 -50 27 0 5 18 25 40 46 34 33 40 44 40 80 0 59 -46 94 -97 74z"/>
 <path d="M2490 2260 l0 -200 70 0 c68 0 70 1 70 25 0 23 -4 25 -45 25 l-45 0 0 60 0 60 40 0 c36 0 40 3 40 25 0 23 -4 25 -40 25 l-40 0 0 70 0 70 45 0 c38 0 45 3 45 20 0 18 -7 20 -70 20 l-70 0 0 -200z"/>
 <path d="M2680 2325 l0 -135 25 0 c14 0 25 4 25 9 0 6 12 4 26 -3 33 -18 63 -9 75 21 5 13 9 74 9 134 l0 109 -25 0 -25 0 0 -102 c0 -110 -7 -132 -36 -126 -17 3 -19 15 -22 116 -3 112 -3 112 -27 112 l-25 0 0 -135z"/>
 <path d="M2900 2345 c0 -96 -3 -115 -15 -115 -8 0 -15 -9 -15 -20 0 -11 7 -20 15 -20 11 0 15 -11 15 -40 0 -36 3 -40 25 -40 23 0 25 4 25 40 0 28 4 40 14 40 9 0 14 9 13 20 -1 11 -7 20 -14 20 -10 0 -13 28 -13 115 l0 115 -25 0 -25 0 0 -115z"/>
 <path d="M3010 2325 l0 -135 25 0 c17 0 25 6 25 18 1 16 1 16 11 0 16 -28 49 -23 49 7 0 18 -5 25 -20 25 -30 0 -40 31 -40 129 0 90 0 91 -25 91 l-25 0 0 -135z"/>
 <path d="M3560 2325 l0 -135 25 0 c17 0 25 6 25 18 1 16 1 16 11 0 16 -28 49 -23 49 7 0 18 -5 25 -20 25 -30 0 -40 31 -40 129 0 90 0 91 -25 91 l-25 0 0 -135z"/>
 <path d="M3713 2434 c-21 -33 -24 -155 -5 -201 26 -59 101 -61 129 -3 6 14 13 43 15 65 l3 40 -57 3 c-62 3 -66 9 -48 56 12 33 37 33 52 1 14 -32 48 -34 48 -2 0 43 -27 67 -75 67 -37 0 -47 -4 -62 -26z m87 -153 c0 -53 -33 -70 -50 -25 -15 39 -13 44 20 44 23 0 30 -5 30 -19z"/>
 <path d="M3900 2325 l0 -135 25 0 c14 0 25 5 25 12 0 9 3 9 12 0 7 -7 27 -12 45 -12 45 0 53 24 53 161 l0 109 -25 0 c-25 0 -25 0 -25 -98 0 -104 -12 -141 -44 -129 -13 5 -16 24 -16 117 l0 110 -25 0 -25 0 0 -135z"/>
 <path d="M4530 2325 l0 -135 25 0 c14 0 25 5 25 12 0 9 3 9 12 0 22 -22 48 -14 48 13 0 20 -5 25 -24 25 -32 0 -36 15 -36 126 0 94 0 94 -25 94 l-25 0 0 -135z"/>
 </g>
<g id="layer2" fill="#ffffff" stroke="none">
 <path d="M0 2560 l0 -2560 2560 0 2560 0 0 2560 0 2560 -2560 0 -2560 0 0 -2560z m1625 1029 c126 -71 241 -139 256 -150 15 -10 29 -19 32 -19 14 0 375 -215 399 -237 14 -14 31 -37 38 -52 7 -18 10 -190 8 -563 -3 -527 -3 -537 -24 -565 -23 -31 -69 -64 -154 -110 -52 -28 -124 -69 -350 -201 -52 -30 -144 -83 -205 -118 l-110 -64 -3 183 -3 182 25 20 c14 11 131 80 261 154 l235 135 0 397 0 397 -152 88 c-84 48 -218 125 -298 172 -80 46 -164 95 -186 108 l-41 23 -149 -86 c-82 -47 -221 -127 -309 -178 -88 -51 -175 -101 -192 -111 l-33 -19 0 -112 0 -113 178 0 c199 0 242 -8 288 -54 82 -82 60 -199 -50 -263 -15 -9 -82 -12 -218 -13 l-198 0 0 -119 c0 -104 2 -120 18 -125 9 -4 62 -33 117 -66 55 -32 165 -96 245 -142 l145 -85 3 -186 c2 -176 1 -186 -16 -179 -24 10 -258 143 -364 209 -48 29 -90 53 -92 53 -11 0 -304 174 -325 193 -13 12 -32 40 -42 62 -17 37 -19 75 -19 540 0 335 4 513 11 540 6 22 26 53 44 70 18 16 127 84 241 149 115 66 292 168 394 226 102 59 207 119 235 134 89 47 103 43 360 -105z m1011 -520 c31 -29 44 -77 44 -164 -1 -99 -13 -145 -50 -177 -25 -23 -39 -28 -85 -28 l-55 0 0 201 0 202 61 -6 c44 -4 67 -11 85 -28z m238 9 c12 -17 16 -49 16 -135 l0 -113 -25 0 -25 0 0 110 c0 90 -3 112 -15 116 -35 14 -45 -14 -45 -122 l0 -104 -25 0 -25 0 0 106 c0 141 12 164 87 164 32 0 46 -5 57 -22z m126 -75 c0 -105 4 -119 35 -124 13 -3 21 -14 23 -32 4 -31 -4 -34 -36 -11 -12 8 -22 10 -22 5 0 -6 -11 -11 -25 -11 l-25 0 0 135 0 135 25 0 c25 0 25 0 25 -97z m140 -5 c0 -110 7 -132 36 -126 17 3 19 15 22 116 3 112 3 112 27 112 l25 0 0 -125 c0 -123 0 -125 -26 -142 -25 -16 -28 -16 -55 0 l-29 16 0 -100 c0 -98 0 -100 -22 -97 -23 3 -23 3 -26 226 l-2 222 25 0 25 0 0 -102z m259 85 c10 -17 10 -17 11 0 0 11 8 17 25 17 l25 0 0 -135 0 -135 -25 0 c-14 0 -25 5 -25 10 0 6 -11 3 -24 -5 -29 -19 -58 -9 -78 28 -19 34 -16 179 5 211 21 31 70 36 86 9z m173 -95 c3 -106 4 -113 24 -116 28 -4 34 19 34 136 0 91 0 92 25 92 24 0 24 0 27 -112 3 -106 4 -113 24 -116 28 -4 34 19 34 136 0 91 0 92 25 92 l25 0 0 -109 c0 -60 -4 -121 -9 -134 -12 -32 -55 -43 -87 -22 -22 14 -26 14 -49 -1 -23 -15 -27 -15 -50 0 -14 9 -25 12 -25 6 0 -5 -11 -10 -25 -10 l-25 0 0 135 0 135 25 0 c24 0 24 0 27 -112z m-172 -485 c0 -38 4 -63 8 -56 7 11 25 16 54 14 30 -2 48 -54 48 -136 0 -94 -18 -135 -58 -135 -16 0 -33 5 -40 12 -9 9 -12 9 -12 0 0 -7 -11 -12 -25 -12 l-25 0 0 190 0 190 25 0 c24 0 25 -2 25 -67z m-117 -65 c9 -11 17 -31 17 -44 0 -33 -33 -32 -48 1 -15 32 -40 32 -52 -1 -18 -47 -14 -53 47 -56 l58 -3 -3 -45 c-4 -58 -30 -94 -70 -98 -50 -5 -69 12 -83 72 -12 56 -7 124 14 166 21 43 86 47 120 8z m955 8 c7 -7 16 -26 21 -44 9 -29 8 -32 -12 -32 -13 0 -26 9 -32 22 -16 36 -41 34 -54 -3 -6 -18 -11 -36 -11 -40 0 -5 28 -9 61 -9 l62 0 -7 -47 c-14 -105 -87 -141 -140 -70 -23 31 -27 145 -7 194 20 48 82 63 119 29z m217 -9 c11 -16 15 -51 15 -134 l0 -113 -25 0 c-24 0 -24 0 -27 112 -3 101 -5 113 -22 116 -29 6 -36 -16 -36 -125 l0 -103 -25 0 -25 0 0 108 c0 66 5 117 13 132 21 42 105 46 132 7z m318 5 c11 -10 17 -30 17 -56 0 -36 -6 -47 -40 -80 -22 -21 -40 -41 -40 -46 0 -15 30 -32 50 -27 16 4 20 0 20 -19 0 -21 -5 -24 -38 -24 -47 0 -75 27 -75 71 0 22 11 41 42 73 53 54 53 82 -2 80 -30 -1 -37 2 -37 18 0 37 64 44 103 10z m-2143 -2 c0 -17 -7 -20 -45 -20 l-45 0 0 -70 0 -70 40 0 c36 0 40 -2 40 -25 0 -22 -4 -25 -40 -25 l-40 0 0 -60 0 -60 45 0 c41 0 45 -2 45 -25 0 -24 -2 -25 -70 -25 l-70 0 0 200 0 200 70 0 c63 0 70 -2 70 -20z m102 -92 c3 -101 5 -113 22 -116 29 -6 36 16 36 126 l0 102 25 0 25 0 0 -109 c0 -60 -4 -121 -9 -134 -12 -30 -42 -39 -75 -21 -14 7 -26 9 -26 3 0 -5 -11 -9 -25 -9 l-25 0 0 135 0 135 25 0 c24 0 24 0 27 -112z m218 -3 c0 -87 3 -115 13 -115 7 0 13 -9 14 -20 1 -11 -4 -20 -13 -20 -10 0 -14 -12 -14 -40 0 -36 -2 -40 -25 -40 -22 0 -25 4 -25 40 0 29 -4 40 -15 40 -8 0 -15 9 -15 20 0 11 7 20 15 20 12 0 15 19 15 115 l0 115 25 0 25 0 0 -115z m110 24 c0 -98 10 -129 40 -129 15 0 20 -7 20 -25 0 -30 -33 -35 -49 -7 -10 16 -10 16 -11 0 0 -12 -8 -18 -25 -18 l-25 0 0 135 0 135 25 0 c25 0 25 -1 25 -91z m550 0 c0 -98 10 -129 40 -129 15 0 20 -7 20 -25 0 -30 -33 -35 -49 -7 -10 16 -10 16 -11 0 0 -12 -8 -18 -25 -18 l-25 0 0 135 0 135 25 0 c25 0 25 -1 25 -91z m224 69 c9 -12 16 -33 16 -45 0 -32 -34 -30 -48 2 -15 32 -40 32 -52 -1 -18 -47 -14 -53 48 -56 l57 -3 -3 -40 c-7 -81 -48 -122 -102 -103 -38 13 -55 58 -54 144 0 97 18 124 79 124 34 0 47 -5 59 -22z m116 -88 c0 -93 3 -112 16 -117 32 -12 44 25 44 129 0 98 0 98 25 98 l25 0 0 -109 c0 -137 -8 -161 -53 -161 -18 0 -38 5 -45 12 -9 9 -12 9 -12 0 0 -7 -11 -12 -25 -12 l-25 0 0 135 0 135 25 0 25 0 0 -110z m630 16 c0 -111 4 -126 36 -126 19 0 24 -5 24 -25 0 -27 -26 -35 -48 -13 -9 9 -12 9 -12 0 0 -7 -11 -12 -25 -12 l-25 0 0 135 0 135 25 0 c25 0 25 0 25 -94z"/>
 <path d="M2542 2898 c3 -147 4 -153 23 -150 41 7 50 28 53 128 2 52 1 106 -2 119 -8 31 -33 55 -57 55 -19 0 -19 -7 -17 -152z"/>
 <path d="M3362 3048 c-12 -12 -17 -134 -6 -162 9 -24 33 -19 44 10 19 50 7 164 -18 164 -4 0 -13 -5 -20 -12z"/>
 <path d="M3406 2404 c-3 -9 -6 -44 -6 -79 0 -72 6 -95 26 -95 22 0 34 35 34 95 0 60 -12 95 -34 95 -8 0 -17 -7 -20 -16z"/>
 <path d="M3190 2291 c0 -45 41 -79 54 -45 14 37 7 54 -24 54 -16 0 -30 -4 -30 -9z"/>
 <path d="M4156 2273 c9 -36 19 -47 38 -40 10 4 16 18 16 37 0 27 -3 30 -30 30 -28 0 -30 -2 -24 -27z"/>
 <path d="M3740 2291 c0 -45 41 -79 54 -45 14 37 7 54 -24 54 -16 0 -30 -4 -30 -9z"/>
 </g>

</svg>
