<?xml version="1.0" encoding="utf-8"?>
<!-- Generator: Adobe Illustrator 16.0.0, SVG Export Plug-In . SVG Version: 6.00 Build 0)  -->
<!DOCTYPE svg PUBLIC "-//W3C//DTD SVG 1.1//EN" "http://www.w3.org/Graphics/SVG/1.1/DTD/svg11.dtd">
<svg version="1.1" id="Layer_1" xmlns="http://www.w3.org/2000/svg" xmlns:xlink="http://www.w3.org/1999/xlink" x="0px" y="0px"
	 width="445px" height="221.062px" viewBox="34 151 445 221.062" enable-background="new 34 151 445 221.062" xml:space="preserve">
<g id="layer1">
	<path fill="#FFFFFF" d="M126.5,369.4c-2.8-1.5-13.3-7.5-23.5-13.4c-10.2-5.8-27.9-16-39.4-22.6c-11.4-6.5-22.3-13.301-24.1-14.9
		c-1.8-1.7-3.8-4.8-4.4-7c-0.7-2.7-1.1-20.5-1.1-54c0-46.5,0.2-50.3,1.9-54c1-2.2,2.9-5,4.2-6.2c2.1-1.9,31.4-19.3,32.5-19.3
		c0.2,0,4.4-2.4,9.2-5.3c10.6-6.6,34-19.9,36.4-20.9c1.7-0.7,1.8,0.3,1.6,17.9l-0.3,18.6l-14.5,8.5c-8,4.6-19,11-24.5,14.2
		c-5.5,3.3-10.8,6.2-11.7,6.6c-1.6,0.5-1.8,2.1-1.8,12.5V242h19.8c13.6,0.1,20.3,0.4,21.8,1.3c8,4.7,11.4,11.4,9.4,18.8
		c-1.5,5.301-6.4,10.4-11.5,11.801c-2.2,0.6-12,1.1-21.7,1.1H67v11.3v11.2l3.3,1.9c1.7,1,10.4,6,19.2,11.1s22.7,13.1,30.9,17.8
		l14.9,8.601l4.1-2.301c2.2-1.3,10.6-6.199,18.6-10.8c8-4.7,21.4-12.399,29.8-17.2l15.2-8.8v-39.7v-39.7l-23.5-13.5
		c-13-7.4-24.7-14.3-26.1-15.4l-2.5-2l0.3-18.2l0.3-18.3l11,6.4c6.1,3.5,15.3,8.8,20.5,11.8c22.6,13.2,29.8,17.3,35,20.1
		c8.5,4.6,13.1,7.9,15.4,11c2.1,2.8,2.1,3.8,2.4,56.5c0.2,37.3-0.1,54.5-0.8,56.3c-0.7,1.5-2.4,3.801-3.8,5.2
		c-2.4,2.2-38.5,23.7-39.9,23.7c-0.3,0-1.7,0.9-3.2,1.9c-1.5,1.1-13,7.899-25.6,15C136.8,373.7,135.4,374.1,126.5,369.4z"/>
	<path fill="#FFFFFF" d="M249,290.1V270h5.5c9.8,0,13.4,5.5,13.5,20.5c0,13.9-3,18.3-12.9,19.2l-6.1,0.6V290.1z M259.4,303.4
		c2.399-2.301,2.8-5.301,2.399-15.801c-0.3-10-1.2-12.1-5.3-12.8c-1.9-0.3-2,0.3-2.3,15c-0.2,14.5-0.2,15.2,1.7,15.2
		C257,305,258.6,304.3,259.4,303.4z"/>
	<path fill="#FFFFFF" d="M276.4,309.2c-2.601-1.7-3.4-5.601-3.4-15.601V283h2.5h2.5v10.4c0,10.8,1,13.6,4.5,12.199
		c1.2-0.399,1.5-2.6,1.5-11.6v-11h2.5h2.5v11.3c0,13.7-0.9,15.7-7.3,15.7C279.4,310,277,309.6,276.4,309.2z"/>
	<path fill="#FFFFFF" d="M295,296.5V283h2.5c1.4,0,2.5,0.5,2.5,1.1c0,0.5,1,0.301,2.2-0.5c3.2-2.3,4-2,3.6,1.101
		c-0.2,1.8-1,2.899-2.3,3.2c-3.1,0.5-3.5,1.899-3.5,12.399c0,9.7,0,9.7-2.5,9.7H295V296.5z"/>
	<path fill="#FFFFFF" d="M309.2,287.8c0.3-22.3,0.3-22.3,2.6-22.6c2.2-0.3,2.2-0.101,2.2,9.7v10l2.9-1.601c2.699-1.6,3-1.6,5.5,0
		c2.6,1.7,2.6,1.9,2.6,14.2V310h-2.5c-2.4,0-2.4,0-2.7-11.2c-0.3-10.1-0.5-11.3-2.2-11.6c-2.899-0.601-3.6,1.6-3.6,12.6V310h-2.5
		H309L309.2,287.8z"/>
	<path fill="#FFFFFF" d="M331.3,307.4c-2.1-3.2-2.399-17.7-0.5-21.101c2-3.7,4.9-4.7,7.8-2.8c1.301,0.8,2.4,1.1,2.4,0.5
		c0-0.5,1.1-1,2.5-1h2.5v13.5V310h-2.5c-1.7,0-2.5-0.6-2.5-1.7c-0.1-1.7-0.1-1.7-1.1,0C338.3,311,333.4,310.5,331.3,307.4z
		 M340,303.4c2.2-5.601,0.6-16.4-2.4-16.4c-2,0-2.6,2.3-2.6,9.9C335,305.4,337.9,309.1,340,303.4z"/>
	<path fill="#FFFFFF" d="M352,296.5V283h2.5c1.4,0,2.5,0.5,2.5,1c0,0.6,1.1,0.3,2.5-0.6c2.3-1.5,2.7-1.5,5,0s2.7,1.5,4.9,0.1
		c3.199-2.1,7.5-1,8.699,2.2c0.5,1.3,0.9,7.399,0.9,13.399V310h-2.5c-2.5,0-2.5-0.1-2.5-9.2c0-11.7-0.6-14-3.4-13.6
		c-2,0.3-2.1,1-2.399,11.6c-0.3,11.2-0.3,11.2-2.7,11.2c-2.5,0-2.5-0.1-2.5-9.2c0-11.7-0.6-14-3.4-13.6c-2,0.3-2.1,1-2.399,11.6
		c-0.3,11.2-0.3,11.2-2.7,11.2H352V296.5z"/>
	<path fill="#FFFFFF" d="M335,238v-19h2.5c1.4,0,2.5,0.5,2.5,1.2c0,0.9,0.3,0.9,1.2,0c0.7-0.7,2.399-1.2,4-1.2c4,0,5.8,4.1,5.8,13.5
		c0,8.2-1.8,13.4-4.8,13.6c-2.9,0.2-4.7-0.3-5.4-1.4c-0.399-0.7-0.8,1.8-0.8,5.6c0,6.5-0.1,6.7-2.5,6.7H335V238z M345,240.1
		c0.5-1.1,1-4.5,1-7.6c0-6-1.2-9.5-3.4-9.5c-2,0-2.6,2.3-2.6,9.5c0,3.5,0.3,7,0.6,7.9C341.4,242.6,343.7,242.4,345,240.1z"/>
	<path fill="#FFFFFF" d="M320,246.1c-4.7-1.3-7.1-10.6-5.1-19.7c1.399-6,3.3-7.7,8.3-7.2c4,0.4,6.6,4,7,9.8l0.3,4.5l-5.8,0.3
		c-6.101,0.3-6.5,0.9-4.7,5.6c1.2,3.3,3.7,3.3,5.2,0.1c1.5-3.3,4.8-3.4,4.8-0.1C330,244.2,325.1,247.5,320,246.1z M325,228.1
		c0-5.3-3.3-7-5-2.5c-1.5,3.9-1.3,4.4,2,4.4C324.3,230,325,229.5,325,228.1z"/>
	<path fill="#FFFFFF" d="M415.9,245.9c-3.601-1.3-5.301-5.9-5.2-14.2c0-5.1,0.5-7.5,1.899-9.4c5.301-7.1,12.601-3.5,14,7l0.7,4.7
		h-6.2c-3.3,0-6.1,0.4-6.1,0.9c0,0.4,0.5,2.2,1.1,4c1.301,3.7,3.801,3.9,5.4,0.3c0.6-1.3,1.9-2.2,3.2-2.2c2,0,2.1,0.3,1.2,3.2
		C424.4,245.6,420.7,247.6,415.9,245.9z M421,227c0-1.9-0.6-3.3-1.6-3.7c-1.9-0.7-2.9,0.4-3.801,4c-0.6,2.5-0.399,2.7,2.4,2.7
		C420.7,230,421,229.7,421,227z"/>
	<path fill="#FFFFFF" d="M436.5,246c-4.4-0.8-5.5-3.9-5.5-16.2V219h2.5h2.5v10.3c0,10.9,0.7,13.1,3.6,12.5c1.7-0.3,1.9-1.5,2.2-11.6
		c0.3-11.2,0.3-11.2,2.7-11.2h2.5v11.3C447,245,445.2,247.6,436.5,246z"/>
	<path fill="#FFFFFF" d="M469.3,246c-1.3-0.5-2.3-1.8-2.3-2.8c0-1.6,0.7-1.9,3.7-1.8c5.5,0.2,5.5-2.6,0.2-8
		c-3.101-3.2-4.2-5.1-4.2-7.3c0-4.4,2.8-7.1,7.5-7.1c3.3,0,3.8,0.3,3.8,2.4c0,1.9-0.4,2.3-2,1.9c-2-0.5-5,1.2-5,2.7
		c0,0.5,1.8,2.5,4,4.6c3.4,3.3,4,4.4,4,8C479,244.5,474.4,248,469.3,246z"/>
	<path fill="#FFFFFF" d="M249,226v-20h7c6.8,0,7,0.1,7,2.5c0,2.3-0.4,2.5-4.5,2.5H254v6v6h4c3.6,0,4,0.3,4,2.5c0,2.3-0.4,2.5-4,2.5
		h-4v7v7h4.5c3.8,0,4.5,0.3,4.5,2c0,1.8-0.7,2-7,2h-7V226z"/>
	<path fill="#FFFFFF" d="M268,232.5V219h2.5c1.4,0,2.5,0.4,2.5,0.9c0,0.6,1.2,0.4,2.6-0.3c3.301-1.8,6.301-0.9,7.5,2.1
		c0.5,1.3,0.9,7.4,0.9,13.4V246h-2.5H279v-10.2c0-11-0.7-13.2-3.6-12.6c-1.7,0.3-1.9,1.5-2.2,11.6c-0.3,11.2-0.3,11.2-2.7,11.2H268
		V232.5z"/>
	<path fill="#FFFFFF" d="M290,234.5c0-9.6-0.3-11.5-1.5-11.5c-0.8,0-1.5-0.9-1.5-2s0.7-2,1.5-2c1.1,0,1.5-1.1,1.5-4
		c0-3.6,0.3-4,2.5-4c2.3,0,2.5,0.4,2.5,4c0,2.8,0.4,4,1.4,4c0.899,0,1.399,0.9,1.3,2c-0.101,1.1-0.7,2-1.4,2c-1,0-1.3,2.8-1.3,11.5
		V246h-2.5H290V234.5z"/>
	<path fill="#FFFFFF" d="M301,232.5V219h2.5c1.7,0,2.5,0.6,2.5,1.8c0.1,1.6,0.1,1.6,1.1,0c1.601-2.8,4.9-2.3,4.9,0.7
		c0,1.8-0.5,2.5-2,2.5c-3,0-4,3.1-4,12.9c0,9,0,9.1-2.5,9.1H301V232.5z"/>
	<path fill="#FFFFFF" d="M356,232.5V219h2.5c1.7,0,2.5,0.6,2.5,1.8c0.1,1.6,0.1,1.6,1.1,0c1.601-2.8,4.9-2.3,4.9,0.7
		c0,1.8-0.5,2.5-2,2.5c-3,0-4,3.1-4,12.9c0,9,0,9.1-2.5,9.1H356V232.5z"/>
	<path fill="#FFFFFF" d="M371.3,243.4c-2.1-3.3-2.399-15.5-0.5-20.1c2.601-5.9,10.101-6.1,12.9-0.3c0.6,1.4,1.3,4.3,1.5,6.5l0.3,4
		l-5.7,0.3c-6.2,0.3-6.6,0.9-4.8,5.6c1.2,3.3,3.7,3.3,5.2,0.1c1.399-3.2,4.8-3.4,4.8-0.2c0,4.3-2.7,6.7-7.5,6.7
		C373.8,246,372.8,245.6,371.3,243.4z M380,228.1c0-5.3-3.3-7-5-2.5c-1.5,3.9-1.3,4.4,2,4.4C379.3,230,380,229.5,380,228.1z"/>
	<path fill="#FFFFFF" d="M390,232.5V219h2.5c1.4,0,2.5,0.5,2.5,1.2c0,0.9,0.3,0.9,1.2,0c0.7-0.7,2.7-1.2,4.5-1.2
		c4.5,0,5.3,2.4,5.3,16.1V246h-2.5c-2.5,0-2.5,0-2.5-9.8c0-10.4-1.2-14.1-4.4-12.9c-1.3,0.5-1.6,2.4-1.6,11.7v11h-2.5H390V232.5z"/>
	<path fill="#FFFFFF" d="M453,232.5V219h2.5c1.4,0,2.5,0.5,2.5,1.2c0,0.9,0.3,0.9,1.2,0c2.2-2.2,4.8-1.4,4.8,1.3
		c0,2-0.5,2.5-2.4,2.5c-3.199,0-3.6,1.5-3.6,12.6c0,9.4,0,9.4-2.5,9.4H453V232.5z"/>
</g>
</svg>
