<?xml version="1.0" encoding="UTF-8" standalone="no"?>
<!-- Generator: Adobe Illustrator 16.0.0, SVG Export Plug-In . SVG Version: 6.00 Build 0)  -->

<svg
   xmlns:dc="http://purl.org/dc/elements/1.1/"
   xmlns:cc="http://creativecommons.org/ns#"
   xmlns:rdf="http://www.w3.org/1999/02/22-rdf-syntax-ns#"
   xmlns:svg="http://www.w3.org/2000/svg"
   xmlns="http://www.w3.org/2000/svg"
   xmlns:sodipodi="http://sodipodi.sourceforge.net/DTD/sodipodi-0.dtd"
   xmlns:inkscape="http://www.inkscape.org/namespaces/inkscape"
   version="1.1"
   id="Layer_1"
   x="0px"
   y="0px"
   width="600"
   height="400"
   viewBox="0 0 600.00001 400"
   enable-background="new 0 0 480.244 129.875"
   xml:space="preserve"
   inkscape:version="0.91 r13725"
   sodipodi:docname="gh.svg"><metadata
     id="metadata27"><rdf:RDF><cc:Work
         rdf:about=""><dc:format>image/svg+xml</dc:format><dc:type
           rdf:resource="http://purl.org/dc/dcmitype/StillImage" /><dc:title /></cc:Work></rdf:RDF></metadata><defs
     id="defs25" /><sodipodi:namedview
     pagecolor="#000000"
     bordercolor="#666666"
     borderopacity="1"
     objecttolerance="10"
     gridtolerance="10"
     guidetolerance="10"
     inkscape:pageopacity="0"
     inkscape:pageshadow="2"
     inkscape:window-width="1920"
     inkscape:window-height="1056"
     id="namedview23"
     showgrid="false"
     inkscape:zoom="0.62051792"
     inkscape:cx="-3.5759471e-06"
     inkscape:cy="64.9375"
     inkscape:window-x="0"
     inkscape:window-y="24"
     inkscape:window-maximized="1"
     inkscape:current-layer="Layer_1" /><g
     id="g3"
     transform="matrix(1.197308,0,0,1.197308,12.500008,122.25041)"><path
       d="m 92.497,55.587 -40.356,0 c -1.041,0 -1.886,0.845 -1.886,1.887 l 0,19.73 c 0,1.041 0.845,1.889 1.886,1.889 l 15.743,0 0,24.514 c 0,0 -3.535,1.205 -13.308,1.205 -11.53,0 -27.637,-4.213 -27.637,-39.631 0,-35.425 16.771,-40.086 32.518,-40.086 13.63,0 19.502,2.399 23.238,3.556 1.174,0.359 2.26,-0.81 2.26,-1.851 L 89.457,7.736 C 89.457,7.248 89.292,6.661 88.736,6.263 87.219,5.18 77.962,0 54.576,0 27.635,0 0,11.462 0,66.562 c 0,55.102 31.64,63.312 58.302,63.312 22.076,0 35.469,-9.434 35.469,-9.434 0.552,-0.305 0.611,-1.076 0.611,-1.43 l 0,-61.536 c 0,-1.041 -0.844,-1.887 -1.885,-1.887 z"
       id="path5"
       inkscape:connector-curvature="0"
       style="fill:#ffffff" /><path
       d="m 300.475,6.602 c 0,-1.05 -0.832,-1.897 -1.873,-1.897 l -22.723,0 c -1.038,0 -1.882,0.847 -1.882,1.897 0,0.005 0.006,43.913 0.006,43.913 l -35.419,0 0,-43.913 c 0,-1.05 -0.836,-1.897 -1.875,-1.897 l -22.722,0 c -1.034,0 -1.877,0.847 -1.877,1.897 l 0,118.903 c 0,1.049 0.843,1.902 1.877,1.902 l 22.722,0 c 1.039,0 1.875,-0.854 1.875,-1.902 l 0,-50.859 35.419,0 c 0,0 -0.062,50.855 -0.062,50.859 0,1.049 0.843,1.902 1.882,1.902 l 22.777,0 c 1.041,0 1.873,-0.854 1.875,-1.902 l 0,-118.903 z"
       id="path7"
       inkscape:connector-curvature="0"
       style="fill:#ffffff" /><g
       id="g9"><g
         id="g11"><path
           d="m 135.376,22.205 c 0,-8.182 -6.56,-14.793 -14.653,-14.793 -8.085,0 -14.649,6.612 -14.649,14.793 0,8.174 6.564,14.804 14.649,14.804 8.093,-10e-4 14.653,-6.631 14.653,-14.804 z"
           id="path13"
           inkscape:connector-curvature="0"
           style="fill:#ffffff" /><path
           d="m 133.751,100.423 c 0,-3.047 0,-54.886 0,-54.886 0,-1.042 -0.841,-1.894 -1.88,-1.894 l -22.651,0 c -1.039,0 -1.969,1.072 -1.969,2.114 0,0 0,66.045 0,78.635 0,2.311 1.44,2.998 3.304,2.998 0,0 9.668,0 20.408,0 2.239,0 2.788,-1.1 2.788,-3.035 0,-4.215 0,-20.727 0,-23.932 z"
           id="path15"
           inkscape:connector-curvature="0"
           style="fill:#ffffff" /></g></g><path
       d="m 386.832,43.822 -22.549,0 c -1.034,0 -1.876,0.853 -1.876,1.901 l 0,58.302 c 0,0 -5.729,4.191 -13.859,4.191 -8.13,0 -10.288,-3.689 -10.288,-11.65 0,-7.971 0,-50.843 0,-50.843 0,-1.049 -0.84,-1.901 -1.875,-1.901 l -22.885,0 c -1.033,0 -1.879,0.853 -1.879,1.901 0,0 0,31.048 0,54.692 0,23.646 13.179,29.432 31.309,29.432 14.873,0 26.865,-8.217 26.865,-8.217 0,0 0.571,4.33 0.829,4.844 0.259,0.512 0.932,1.029 1.659,1.029 l 14.559,-0.064 c 1.033,0 1.879,-0.854 1.879,-1.898 l -0.007,-79.817 c 0,-1.05 -0.843,-1.902 -1.882,-1.902 z"
       id="path17"
       inkscape:connector-curvature="0"
       style="fill:#ffffff" /><path
       d="m 448.461,41.151 c -12.807,0 -21.518,5.714 -21.518,5.714 l 0,-40.263 c 0,-1.05 -0.839,-1.897 -1.875,-1.897 l -22.787,0 c -1.036,0 -1.878,0.847 -1.878,1.897 l 0,118.903 c 0,1.049 0.842,1.902 1.881,1.902 0.002,0 15.805,0 15.81,0 0.712,0 1.251,-0.367 1.649,-1.01 0.393,-0.639 0.96,-5.482 0.96,-5.482 0,0 9.317,8.83 26.957,8.83 20.708,0 32.584,-10.504 32.584,-47.154 0,-36.651 -18.967,-41.44 -31.783,-41.44 z m -8.894,66.993 c -7.821,-0.238 -13.126,-3.787 -13.126,-3.787 l 0,-37.654 c 0,0 5.233,-3.208 11.654,-3.781 8.12,-0.727 15.944,1.726 15.944,21.096 0.001,20.425 -3.53,24.456 -14.472,24.126 z"
       id="path19"
       inkscape:connector-curvature="0"
       style="fill:#ffffff" /><path
       d="m 199.058,43.632 -17.045,0 c 0,0 -0.025,-22.513 -0.025,-22.518 0,-0.853 -0.439,-1.278 -1.425,-1.278 l -23.228,0 c -0.903,0 -1.388,0.397 -1.388,1.265 l 0,23.27 c 0,0 -11.641,2.81 -12.428,3.037 -0.783,0.228 -1.36,0.95 -1.36,1.812 l 0,14.623 c 0,1.052 0.84,1.9 1.879,1.9 l 11.909,0 c 0,0 0,15.294 0,35.179 0,26.129 18.328,28.695 30.695,28.695 5.651,0 12.411,-1.814 13.527,-2.227 0.675,-0.248 1.067,-0.947 1.067,-1.705 l 0.019,-16.086 c 0,-1.049 -0.886,-1.898 -1.884,-1.898 -0.993,0 -3.534,0.404 -6.15,0.404 -8.372,0 -11.209,-3.893 -11.209,-8.932 0,-5.035 -0.001,-33.431 -0.001,-33.431 l 17.046,0 c 1.039,0 1.881,-0.848 1.881,-1.9 l 0,-18.315 c 0,-1.049 -0.841,-1.895 -1.88,-1.895 z"
       id="path21"
       inkscape:connector-curvature="0"
       style="fill:#ffffff" /></g></svg>