<?xml version="1.0" encoding="UTF-8" standalone="no"?>
<!-- Generator: Adobe Illustrator 16.0.0, SVG Export Plug-In . SVG Version: 6.00 Build 0)  -->

<svg
   xmlns:dc="http://purl.org/dc/elements/1.1/"
   xmlns:cc="http://creativecommons.org/ns#"
   xmlns:rdf="http://www.w3.org/1999/02/22-rdf-syntax-ns#"
   xmlns:svg="http://www.w3.org/2000/svg"
   xmlns="http://www.w3.org/2000/svg"
   xmlns:sodipodi="http://sodipodi.sourceforge.net/DTD/sodipodi-0.dtd"
   xmlns:inkscape="http://www.inkscape.org/namespaces/inkscape"
   version="1.1"
   id="svg2472"
   sodipodi:docname="jpm.svg"
   inkscape:version="0.91 r13725"
   sodipodi:version="0.32"
   inkscape:output_extension="org.inkscape.output.svg.inkscape"
   x="0px"
   y="0px"
   width="600"
   height="400"
   viewBox="0 0 600 400"
   enable-background="new 0 0 360 90"
   xml:space="preserve"><metadata
     id="metadata11"><rdf:RDF><cc:Work
         rdf:about=""><dc:format>image/svg+xml</dc:format><dc:type
           rdf:resource="http://purl.org/dc/dcmitype/StillImage" /><dc:title></dc:title></cc:Work></rdf:RDF></metadata><defs
     id="defs3"><inkscape:perspective
       id="perspective2480"
       inkscape:persp3d-origin="372.04724 : 350.78739 : 1"
       inkscape:vp_z="744.09448 : 526.18109 : 1"
       inkscape:vp_y="0 : 1000 : 0"
       sodipodi:type="inkscape:persp3d"
       inkscape:vp_x="0 : 526.18109 : 1" /></defs><sodipodi:namedview
     units="pt"
     id="base"
     inkscape:window-x="0"
     inkscape:window-height="949"
     inkscape:window-width="1279"
     inkscape:pageopacity="0"
     inkscape:current-layer="layer1"
     inkscape:window-y="25"
     inkscape:pageshadow="2"
     inkscape:document-units="px"
     gridtolerance="10000"
     borderopacity="1.0"
     bordercolor="#666666"
     pagecolor="#000000"
     showgrid="true"
     inkscape:cy="189.83029"
     inkscape:cx="334.63796"
     inkscape:zoom="0.9899495"
     objecttolerance="10"
     guidetolerance="10"
     inkscape:window-maximized="0"><inkscape:grid
       type="xygrid"
       units="pt"
       id="grid2482"
       empspacing="8"
       spacingy="9pt"
       spacingx="9pt"
       enabled="true"
       visible="true" /></sodipodi:namedview><g
     id="layer1"
     inkscape:groupmode="layer"
     inkscape:label="Layer 1"
     transform="translate(0,310)"><path
       id="path33"
       d="m 36.681786,-168.47281 0,2.88784 10.769187,0 0,56.11818 c 0,16.863519 -4.676666,21.612608 -15.105469,21.612608 -6.557833,0 -7.640546,-4.982651 -7.640546,-7.560882 0,-6.135976 -0.340384,-9.889256 -5.92776,-9.889256 -5.619966,0 -6.277198,5.676092 -6.277198,7.408794 0,7.729264 3.438246,13.640729 18.793571,13.640729 18.301101,0 28.083535,-6.177617 28.083535,-26.696653 l 0,-54.64982 11.122245,0.0163 0,-2.88783 -33.817565,0 m 33.652805,73.08671 c -1.303601,1.298168 -1.948159,2.838951 -1.948159,4.709256 0,1.85763 0.644558,3.38574 1.964454,4.618728 1.310842,1.287305 2.871542,1.910137 4.692961,1.910137 1.852199,0 3.41833,-0.622832 4.756331,-1.910137 1.287305,-1.232988 1.940916,-2.759287 1.940916,-4.618728 0,-1.88841 -0.653611,-3.432814 -1.940916,-4.709256 -1.290927,-1.294548 -2.848005,-1.893842 -4.756331,-1.893842 -1.886599,0 -3.441867,0.599294 -4.709256,1.893842 m 75.096429,0 c -1.2873,1.298168 -1.90832,2.838951 -1.90832,4.709256 0,1.85763 0.62102,3.38574 1.90832,4.618728 1.37059,1.287305 2.88784,1.910137 4.70926,1.910137 1.88479,0 3.45816,-0.622832 4.7853,-1.910137 1.30722,-1.232988 1.95178,-2.759287 1.95178,-4.618728 0,-1.88841 -0.64456,-3.432814 -1.94454,-4.709256 -1.31627,-1.294548 -2.89146,-1.893842 -4.79254,-1.893842 -1.86125,0 -3.42557,0.599294 -4.70926,1.893842 m -51.96658,-73.07947 0,2.87878 9.72812,0 0,64.01583 c 0,5.031535 -0.3096,6.340567 -0.87088,7.798065 -0.60291,1.625879 -1.96083,2.909563 -3.97236,3.74604 -1.49733,0.630074 -3.76776,0.963216 -6.7932,1.044691 l 0,2.647033 35.64441,0 0,-2.618064 c -3.02181,-0.07423 -5.32665,-0.420049 -6.83484,-0.957784 -2.12741,-0.840098 -3.50524,-2.074897 -4.17877,-3.749662 -0.59024,-1.441202 -0.89441,-2.710402 -0.89441,-5.241559 l 0,-21.9204 8.81922,-0.038 c 25.61755,0 32.81632,-10.10834 32.81632,-23.90115 0,-13.94128 -4.41956,-23.71285 -30.35759,-23.71285 l -33.10602,0.009 m 21.82626,3.24632 6.12692,-0.0833 c 19.75497,0 24.06772,8.12759 24.06772,21.29576 0,13.25146 -7.76729,20.01389 -23.43584,20.01389 l -6.76061,0 0,-41.22636 m 134.11331,-3.05984 c -0.29693,0.76043 -25.10336,62.57281 -25.10336,62.57281 l -0.56489,0.36936 -0.59386,-0.36936 c 0,0 -26.43412,-61.81238 -26.74192,-62.57281 l -23.32358,0 0,2.64522 10.12282,0 0,63.57224 -0.21727,5.788351 c -0.16295,1.52992 -0.63912,2.893269 -1.38688,3.975981 -0.7894,1.184104 -2.07128,2.078518 -3.7388,2.67057 -1.10082,0.360301 -2.74118,0.602915 -4.77987,0.648179 l 0,2.645223 23.14977,0 0,-2.609012 c -1.96807,-0.08147 -2.82447,-0.275204 -3.97598,-0.660853 -1.6983,-0.559461 -2.97474,-1.399559 -3.81846,-2.609011 -0.75319,-1.124355 -1.24023,-2.467788 -1.41043,-4.059266 l -0.25709,-5.788352 0,-54.91235 1.35791,0 c 0,0 29.93392,69.872978 30.24715,70.640654 l 2.49857,0 28.32977,-69.863924 0.71336,0 0,56.617896 c 0,2.422524 -0.24624,4.292829 -0.71336,5.743084 -0.55946,1.69468 -1.7671,2.974744 -3.5161,3.836568 -1.29998,0.579378 -3.28073,0.919763 -5.88974,1.021154 l 0,2.645222 32.29851,0 0,-2.645222 c -2.57823,-0.126739 -4.57347,-0.474366 -5.92776,-1.080902 -1.87755,-0.914331 -3.09243,-2.237847 -3.62836,-3.930717 -0.46712,-1.475603 -0.69344,-3.280728 -0.69344,-5.590997 l 0,-66.003816 8.58566,-0.0833 0,-2.61264 -21.02237,0 m 28.53074,53.17603 c 0,29.247725 22.75688,31.181399 27.66892,31.181399 9.72812,0 28.16863,-6.068984 28.16863,-31.731799 0,-19.96863 -11.79577,-30.83739 -27.77936,-30.83739 -17.24193,-0.002 -28.05819,11.4246 -28.05819,31.38779 m 12.87125,0.32228 c 0,-16.03971 0.99761,-28.07629 14.95519,-28.07629 15.08193,0 15.15254,12.45482 15.15254,27.066 0,20.99521 -3.58852,28.239244 -15.15254,28.239244 -12.95815,0 -14.95519,-6.476358 -14.95519,-27.228954 m 71.69439,-18.52017 -0.8075,-0.029 c -0.0887,0.029 -1.48466,-9.022 -2.01153,-11.68714 -4.02487,0 -19.95776,-0.0398 -19.95776,-0.0398 l 0,3.06165 10.80178,0 c 0,0 -0.0616,9.16865 -0.0616,12.47292 l 0,28.07991 c 0,4.021246 -0.4454,6.825797 -1.31266,8.524098 -1.10444,2.002475 -3.58128,3.009145 -7.68038,3.009145 l -1.74718,0 0,3.577658 33.4464,0 0,-3.577658 -1.80331,0 c -4.38879,0 -6.28082,-0.952353 -7.45768,-2.855247 -1.06461,-1.676575 -1.54079,-4.515527 -1.54079,-8.677996 l 0,-21.05858 c 0,-7.101 5.34657,-15.18513 11.75413,-15.18513 6.69725,0 6.53973,10.31836 14.1332,6.16675 4.12626,-2.25776 3.43101,-14.08069 -9.38049,-14.08069 -10.31655,0 -13.53209,6.09252 -16.37467,12.29911 m 104.41481,-8.66538 c -3.81846,2.90594 -5.30493,5.591 -5.30493,9.43843 0,1.78521 0.48161,3.04535 1.48466,3.89269 1.00666,0.89623 2.19077,1.30723 3.64102,1.30723 3.32237,0 5.19268,-1.69106 5.88069,-6.06356 0.51058,-3.24451 1.22031,-5.09309 2.81722,-6.78415 1.70736,-1.79064 4.37612,-2.68506 7.98094,-2.68506 4.19324,0 7.16074,1.12979 8.82646,3.38756 1.52629,2.12197 2.3338,5.0098 2.3338,8.57479 l 0,9.84942 c -10.71849,0.96684 -36.0192,2.99828 -34.89122,22.271653 0.42186,7.540966 7.07203,14.158548 15.66131,14.158548 9.49817,0 15.50922,-5.409941 19.59021,-9.738981 0.6518,4.10272 4.46302,9.002085 11.38659,9.002085 7.7872,0 12.4349,-3.816652 12.97807,-13.361904 l -1.99886,0 c -0.52687,4.149795 -3.09243,6.385832 -5.20354,6.385832 -3.58309,0 -4.71649,-1.991612 -4.98265,-5.30674 l -0.21002,-7.515623 0,-24.60183 c 0,-5.31217 -0.85639,-8.88078 -3.98866,-12.00942 -3.08156,-3.12864 -9.04553,-4.72917 -17.66921,-4.72917 -8.27605,0 -14.42289,1.52992 -18.33188,4.5282 m 4.47569,40.92762 c 0,-10.93576 14.97692,-16.40545 23.18598,-16.40545 l 0,18.893153 -0.20097,0.467123 -0.25167,0.237183 c -5.73041,5.198106 -10.10652,7.052116 -13.30758,7.052116 -8.1982,-0.0018 -9.42576,-6.829418 -9.42576,-10.244125 m 71.44816,-33.37398 -1.07366,-0.0434 -2.09481,-10.66961 -18.17798,-0.0326 0,3.06165 c 3.41471,0.14303 9.10529,0.2064 9.10529,0.2064 l 0,40.38083 c 0,3.137698 -0.24624,5.395461 -0.70974,6.892791 -0.48523,1.785208 -1.64399,3.034492 -3.35858,3.755093 -1.09901,0.474366 -2.83171,0.735086 -5.03697,0.834666 l 0,3.695345 28.90372,0 0,-3.722503 c -2.90595,-0.235372 -4.86678,-1.021154 -5.91328,-2.50762 -1.12798,-1.589668 -1.64399,-4.318176 -1.64399,-8.305022 l 0,-15.51103 c 0,-6.48722 -0.0362,-12.75175 2.1781,-16.62996 2.38813,-4.22584 6.76062,-6.55421 11.65636,-6.55421 4.39965,0 6.71717,1.40861 8.17104,4.2023 1.18411,2.27225 1.95178,9.03829 1.95178,13.69142 l -0.14122,19.22087 c 0,3.201059 0.40375,5.567456 0.14122,7.084702 -0.3259,1.770724 -1.12797,3.148557 -2.51848,4.064698 -1.0121,0.697064 -2.59996,1.057365 -4.63503,1.211262 l 0,3.753283 27.85903,0 0,-3.695345 c -3.52515,-0.229941 -5.82999,-1.086334 -6.84028,-2.732129 -1.14427,-1.680196 -2.08938,-4.506474 -2.08938,-8.721451 l 0.15752,-26.60612 c 0,-3.84562 -0.5142,-7.13721 -1.96084,-9.83856 -1.46111,-2.62531 -3.51066,-4.61873 -6.06355,-5.92957 -2.59452,-1.3036 -5.56384,-1.94454 -8.82827,-1.94454 -11.75051,0.002 -16.46701,7.17343 -19.038,11.3884 m -93.05895,-14.45186 c -1.72184,0.55041 -2.86611,2.08214 -3.47265,4.67305 -0.45083,2.38812 -1.35792,3.77138 -2.56737,4.15884 -1.20945,0.35668 -2.56012,0.25348 -4.16971,-0.29331 -2.99466,-2.78463 -8.74136,-6.16675 -18.85513,-6.16675 -16.28233,0 -23.45937,11.60023 -23.45937,22.18293 0,12.38783 4.75995,18.38439 15.23583,20.59146 0.6355,0.13398 0.6355,0.83466 0.0833,0.9614 -8.93509,1.81056 -16.85265,4.423189 -16.85265,12.914697 0,5.116631 2.93853,7.921183 6.69724,9.456534 4.1498,1.687438 9.98522,2.561937 17.30892,2.690486 6.40393,0.07242 10.94119,0.296932 13.89783,0.64999 3.19744,0.363922 5.72678,1.276442 7.59528,2.63798 1.92281,1.488277 2.94215,3.682671 2.94215,6.554213 0,3.928906 -2.09843,7.088327 -6.28806,9.429376 -3.89813,2.178098 -9.22659,3.316938 -15.85142,3.316938 -5.68514,0 -10.33465,-0.622831 -14.53152,-3.235463 -3.10872,-1.926432 -3.71526,-5.712305 -3.05984,-8.437191 0.57757,-2.755667 -0.40919,-5.66342 -3.60482,-6.202965 -1.75805,-0.296932 -3.97055,0.660853 -4.99351,2.257763 -0.95778,1.484656 -1.29636,3.251759 -1.29636,5.359246 0,6.985125 5.39365,10.25861 9.51809,11.460819 6.28988,1.917379 10.45959,2.379071 16.2425,2.379071 7.66771,0 13.89421,-1.169619 18.34637,-3.425572 4.45215,-2.250521 7.55726,-4.998945 9.21211,-8.160176 1.74718,-3.182957 2.58185,-6.431095 2.58185,-9.559736 0,-4.220406 -0.92701,-7.662273 -2.72851,-10.198862 -5.81913,-8.000847 -14.0825,-6.976072 -32.65881,-7.861434 -8.9369,0 -10.65874,-1.613205 -10.65874,-4.361629 0,-4.028487 3.31151,-5.616345 16.25155,-7.598905 12.72821,-1.98075 24.5964,-6.65379 24.5964,-22.20285 0,-4.47207 -1.0465,-8.31226 -2.30846,-10.99913 2.63255,0.58662 5.08948,0.58662 7.33094,-0.15389 2.57099,-0.79303 4.23671,-2.07852 5.20354,-3.88546 0.96684,-1.81055 1.18411,-3.51247 0.64818,-5.17638 -0.85096,-2.71945 -2.30846,-4.07918 -4.41232,-4.07918 -0.59024,0.004 -1.23118,0.11045 -1.92281,0.32409 m -40.714,24.55657 c 0,-10.91946 3.80941,-19.04343 11.95873,-19.04343 9.4855,0 12.25927,7.40156 12.25927,18.81711 0,16.3276 -5.14017,18.46405 -12.25927,18.46405 -7.60434,0 -11.95873,-2.76291 -11.95873,-18.23773"
       inkscape:connector-curvature="0"
       style="fill:#ffffff" /><rect
       id="rect3296"
       width="360"
       height="90"
       x="0"
       y="0"
       style="fill:none" /></g></svg>