<?xml version="1.0" encoding="utf-8"?>
<!-- Generator: Adobe Illustrator 16.0.0, SVG Export Plug-In . SVG Version: 6.00 Build 0)  -->
<!DOCTYPE svg PUBLIC "-//W3C//DTD SVG 1.1//EN" "http://www.w3.org/Graphics/SVG/1.1/DTD/svg11.dtd">
<svg version="1.1"
	 id="svg2472" sodipodi:docname="003.svg" inkscape:version="0.46" sodipodi:version="0.32" inkscape:output_extension="org.inkscape.output.svg.inkscape" xmlns:inkscape="http://www.inkscape.org/namespaces/inkscape" xmlns:sodipodi="http://sodipodi.sourceforge.net/DTD/sodipodi-0.dtd" xmlns:rdf="http://www.w3.org/1999/02/22-rdf-syntax-ns#" xmlns:dc="http://purl.org/dc/elements/1.1/" xmlns:svg="http://www.w3.org/2000/svg" xmlns:cc="http://creativecommons.org/ns#"
	 xmlns="http://www.w3.org/2000/svg" xmlns:xlink="http://www.w3.org/1999/xlink" x="0px" y="0px" width="360px" height="90px"
	 viewBox="0 0 360 90" enable-background="new 0 0 360 90" xml:space="preserve">
<defs>
	
	
		<inkscape:perspective  id="perspective2480" inkscape:persp3d-origin="372.04724 : 350.78739 : 1" inkscape:vp_z="744.09448 : 526.18109 : 1" inkscape:vp_y="0 : 1000 : 0" sodipodi:type="inkscape:persp3d" inkscape:vp_x="0 : 526.18109 : 1">
		</inkscape:perspective>
</defs>
<sodipodi:namedview  units="pt" id="base" inkscape:window-x="0" inkscape:window-height="949" inkscape:window-width="1279" inkscape:pageopacity="0.0" inkscape:current-layer="layer1" inkscape:window-y="25" inkscape:pageshadow="2" inkscape:document-units="pt" gridtolerance="10000" borderopacity="1.0" bordercolor="#666666" pagecolor="#ffffff" showgrid="true" inkscape:cy="15.51845" inkscape:cx="153.6968" inkscape:zoom="1.979899" objecttolerance="10" guidetolerance="10">
	
		<inkscape:grid  type="xygrid" units="pt" id="grid2482" empspacing="8" spacingy="9pt" spacingx="9pt" enabled="true" visible="true">
		</inkscape:grid>
</sodipodi:namedview>
<g id="layer1" inkscape:groupmode="layer" inkscape:label="Layer 1">
	<path id="path33" fill="#FFFFFF" d="M34.565,16.703v1.595h5.948v30.995c0,9.314-2.583,11.937-8.343,11.937
		c-3.622,0-4.22-2.752-4.22-4.176c0-3.389-0.188-5.462-3.274-5.462c-3.104,0-3.467,3.135-3.467,4.092
		c0,4.269,1.899,7.534,10.38,7.534c10.108,0,15.511-3.412,15.511-14.745V18.289l6.143,0.009v-1.595H34.565 M53.152,57.07
		c-0.72,0.717-1.076,1.568-1.076,2.601c0,1.026,0.356,1.87,1.085,2.551c0.724,0.711,1.586,1.055,2.592,1.055
		c1.023,0,1.888-0.344,2.627-1.055c0.711-0.681,1.072-1.524,1.072-2.551c0-1.043-0.361-1.896-1.072-2.601
		c-0.713-0.715-1.573-1.046-2.627-1.046C54.711,56.024,53.852,56.355,53.152,57.07 M94.629,57.07
		c-0.711,0.717-1.054,1.568-1.054,2.601c0,1.026,0.343,1.87,1.054,2.551c0.757,0.711,1.595,1.055,2.601,1.055
		c1.041,0,1.91-0.344,2.643-1.055c0.722-0.681,1.078-1.524,1.078-2.551c0-1.043-0.356-1.896-1.074-2.601
		c-0.727-0.715-1.597-1.046-2.647-1.046C96.202,56.024,95.338,56.355,94.629,57.07 M65.927,16.707v1.59H71.3v35.357
		c0,2.779-0.171,3.502-0.481,4.307c-0.333,0.898-1.083,1.607-2.194,2.069c-0.827,0.348-2.081,0.532-3.752,0.577v1.462H84.56v-1.446
		c-1.669-0.041-2.942-0.232-3.775-0.529c-1.175-0.464-1.936-1.146-2.308-2.071c-0.326-0.796-0.494-1.497-0.494-2.895V43.021
		L82.854,43c14.149,0,18.125-5.583,18.125-13.201c0-7.7-2.441-13.097-16.767-13.097L65.927,16.707 M77.982,18.5l3.384-0.046
		c10.911,0,13.293,4.489,13.293,11.762c0,7.319-4.29,11.054-12.944,11.054h-3.734V18.5 M152.054,16.81
		c-0.164,0.42-13.865,34.56-13.865,34.56l-0.312,0.204l-0.328-0.204c0,0-14.6-34.14-14.77-34.56h-12.882v1.461h5.591v35.112
		l-0.12,3.197c-0.09,0.845-0.353,1.598-0.766,2.196c-0.436,0.654-1.144,1.148-2.065,1.475c-0.608,0.199-1.514,0.333-2.64,0.358
		v1.461h12.786v-1.441c-1.087-0.045-1.56-0.152-2.196-0.365c-0.938-0.309-1.643-0.773-2.109-1.441
		c-0.416-0.621-0.685-1.363-0.779-2.242l-0.142-3.197V23.055h0.75c0,0,16.533,38.592,16.706,39.016h1.38l15.647-38.587h0.394v31.271
		c0,1.338-0.136,2.371-0.394,3.172c-0.309,0.936-0.976,1.643-1.942,2.119c-0.718,0.32-1.812,0.508-3.253,0.564v1.461h17.839v-1.461
		c-1.424-0.07-2.526-0.262-3.274-0.597c-1.037-0.505-1.708-1.236-2.004-2.171c-0.258-0.815-0.383-1.812-0.383-3.088V18.299
		l4.742-0.046V16.81H152.054 M167.812,46.18c0,16.154,12.569,17.222,15.282,17.222c5.373,0,15.558-3.352,15.558-17.526
		c0-11.029-6.515-17.032-15.343-17.032C173.786,28.843,167.812,35.154,167.812,46.18 M174.921,46.358
		c0-8.859,0.551-15.507,8.26-15.507c8.33,0,8.369,6.879,8.369,14.949c0,11.596-1.982,15.597-8.369,15.597
		C176.024,61.397,174.921,57.82,174.921,46.358 M214.519,36.129l-0.446-0.016c-0.049,0.016-0.82-4.983-1.111-6.455
		c-2.223,0-11.023-0.022-11.023-0.022v1.691h5.966c0,0-0.034,5.064-0.034,6.889v15.509c0,2.221-0.246,3.77-0.725,4.708
		c-0.61,1.106-1.978,1.662-4.242,1.662h-0.965v1.976h18.473v-1.976h-0.996c-2.424,0-3.469-0.526-4.119-1.577
		c-0.588-0.926-0.851-2.494-0.851-4.793V42.094c0-3.922,2.953-8.387,6.492-8.387c3.699,0,3.612,5.699,7.806,3.406
		c2.279-1.247,1.895-7.777-5.181-7.777C217.865,29.336,216.089,32.701,214.519,36.129 M272.189,31.343
		c-2.109,1.605-2.93,3.088-2.93,5.213c0,0.986,0.266,1.682,0.82,2.15c0.556,0.495,1.21,0.722,2.011,0.722
		c1.835,0,2.868-0.934,3.248-3.349c0.282-1.792,0.674-2.813,1.556-3.747c0.943-0.989,2.417-1.483,4.408-1.483
		c2.316,0,3.955,0.624,4.875,1.871c0.843,1.172,1.289,2.767,1.289,4.736v5.44c-5.92,0.534-19.894,1.656-19.271,12.301
		c0.233,4.165,3.906,7.82,8.65,7.82c5.246,0,8.566-2.988,10.82-5.379c0.36,2.266,2.465,4.972,6.289,4.972
		c4.301,0,6.868-2.108,7.168-7.38h-1.104c-0.291,2.292-1.708,3.527-2.874,3.527c-1.979,0-2.605-1.1-2.752-2.931l-0.116-4.151V38.087
		c0-2.934-0.473-4.905-2.203-6.633c-1.702-1.728-4.996-2.612-9.759-2.612C277.743,28.842,274.348,29.687,272.189,31.343
		 M274.661,53.948c0-6.04,8.272-9.061,12.806-9.061v10.435l-0.111,0.258l-0.139,0.131c-3.165,2.871-5.582,3.895-7.35,3.895
		C275.339,59.605,274.661,55.834,274.661,53.948 M314.123,35.515l-0.593-0.024l-1.157-5.893l-10.04-0.018v1.691
		c1.886,0.079,5.029,0.114,5.029,0.114v22.303c0,1.733-0.136,2.98-0.392,3.807c-0.268,0.986-0.908,1.676-1.855,2.074
		c-0.607,0.262-1.564,0.406-2.782,0.461v2.041h15.964v-2.056c-1.605-0.13-2.688-0.564-3.266-1.385
		c-0.623-0.878-0.908-2.385-0.908-4.587v-8.567c0-3.583-0.02-7.043,1.203-9.185c1.319-2.334,3.734-3.62,6.438-3.62
		c2.43,0,3.71,0.778,4.513,2.321c0.654,1.255,1.078,4.992,1.078,7.562l-0.078,10.616c0,1.768,0.223,3.075,0.078,3.913
		c-0.18,0.978-0.623,1.739-1.391,2.245c-0.559,0.385-1.436,0.584-2.56,0.669v2.073h15.387v-2.041c-1.947-0.127-3.22-0.6-3.778-1.509
		c-0.632-0.928-1.154-2.489-1.154-4.817l0.087-14.695c0-2.124-0.284-3.942-1.083-5.434c-0.807-1.45-1.939-2.551-3.349-3.275
		c-1.433-0.72-3.073-1.074-4.876-1.074C318.148,29.226,315.543,33.187,314.123,35.515 M262.725,27.533
		c-0.951,0.304-1.583,1.15-1.918,2.581c-0.249,1.319-0.75,2.083-1.418,2.297c-0.668,0.197-1.414,0.14-2.303-0.162
		c-1.654-1.538-4.828-3.406-10.414-3.406c-8.993,0-12.957,6.407-12.957,12.252c0,6.842,2.629,10.154,8.415,11.373
		c0.351,0.074,0.351,0.461,0.046,0.531c-4.935,1-9.308,2.443-9.308,7.133c0,2.826,1.623,4.375,3.699,5.223
		c2.292,0.932,5.515,1.415,9.56,1.486c3.537,0.04,6.043,0.164,7.676,0.359c1.766,0.201,3.163,0.705,4.195,1.457
		c1.062,0.822,1.625,2.034,1.625,3.62c0,2.17-1.159,3.915-3.473,5.208c-2.153,1.203-5.096,1.832-8.755,1.832
		c-3.14,0-5.708-0.344-8.026-1.787c-1.717-1.064-2.052-3.155-1.69-4.66c0.319-1.522-0.226-3.128-1.991-3.426
		c-0.971-0.164-2.193,0.365-2.758,1.247c-0.529,0.82-0.716,1.796-0.716,2.96c0,3.858,2.979,5.666,5.257,6.33
		c3.474,1.059,5.777,1.314,8.971,1.314c4.235,0,7.674-0.646,10.133-1.892c2.459-1.243,4.174-2.761,5.088-4.507
		c0.965-1.758,1.426-3.552,1.426-5.28c0-2.331-0.512-4.232-1.507-5.633c-3.214-4.419-7.778-3.853-18.038-4.342
		c-4.936,0-5.887-0.891-5.887-2.409c0-2.225,1.829-3.102,8.976-4.197c7.03-1.094,13.585-3.675,13.585-12.263
		c0-2.47-0.578-4.591-1.275-6.075c1.454,0.324,2.811,0.324,4.049-0.085c1.42-0.438,2.34-1.148,2.874-2.146
		c0.534-1,0.654-1.94,0.358-2.859c-0.47-1.502-1.275-2.253-2.437-2.253C263.461,27.356,263.107,27.415,262.725,27.533
		 M240.238,41.096c0-6.031,2.104-10.518,6.605-10.518c5.239,0,6.771,4.088,6.771,10.393c0,9.018-2.839,10.198-6.771,10.198
		C242.643,51.169,240.238,49.643,240.238,41.096"/>
	<rect id="rect3296" fill="none" width="360" height="90"/>
</g>
</svg>
