<?xml version="1.0" encoding="UTF-8" standalone="no"?>
<svg
   xmlns:dc="http://purl.org/dc/elements/1.1/"
   xmlns:cc="http://creativecommons.org/ns#"
   xmlns:rdf="http://www.w3.org/1999/02/22-rdf-syntax-ns#"
   xmlns:svg="http://www.w3.org/2000/svg"
   xmlns="http://www.w3.org/2000/svg"
   xmlns:sodipodi="http://sodipodi.sourceforge.net/DTD/sodipodi-0.dtd"
   xmlns:inkscape="http://www.inkscape.org/namespaces/inkscape"
   width="600"
   height="400"
   viewBox="0 0 600 400"
   version="1.1"
   id="svg2"
   inkscape:version="0.91 r13725"
   sodipodi:docname="mlh.svg">
  <metadata
     id="metadata59">
    <rdf:RDF>
      <cc:Work
         rdf:about="">
        <dc:format>image/svg+xml</dc:format>
        <dc:type
           rdf:resource="http://purl.org/dc/dcmitype/StillImage" />
        <dc:title>mlh-logo-white</dc:title>
      </cc:Work>
    </rdf:RDF>
  </metadata>
  <sodipodi:namedview
     pagecolor="#000000"
     bordercolor="#666666"
     borderopacity="1"
     objecttolerance="10"
     gridtolerance="10"
     guidetolerance="10"
     inkscape:pageopacity="0"
     inkscape:pageshadow="2"
     inkscape:window-width="1920"
     inkscape:window-height="1056"
     id="namedview57"
     showgrid="false"
     inkscape:zoom="0.86880466"
     inkscape:cx="171.5"
     inkscape:cy="72.5"
     inkscape:window-x="0"
     inkscape:window-y="24"
     inkscape:window-maximized="1"
     inkscape:current-layer="svg2" />
  <!-- Generator: Sketch 3.8.3 (29802) - http://www.bohemiancoding.com/sketch -->
  <title
     id="title4">mlh-logo-white</title>
  <desc
     id="desc6">Created with Sketch.</desc>
  <defs
     id="defs8" />
  <g
     id="Page-1"
     style="fill:none;fill-rule:evenodd;stroke:none;stroke-width:1"
     transform="matrix(1.6803039,0,0,1.6803039,11.15576,78.934104)">
    <g
       id="mlh-logo-white"
       style="fill:#ffffff">
      <g
         id="Layer_1_1_">
        <g
           id="g13">
          <g
             id="Group"
             transform="translate(1,125)">
            <path
               d="m 17.1,1.2 c 0.4,0.2 0.7,0.4 1,0.6 0.3,0.3 0.5,0.6 0.6,1 0.1,0.4 0.2,0.8 0.2,1.2 l 0,14.6 c 0,0.1 0,0.3 -0.1,0.3 C 18.7,19 18.6,19 18.5,19 l -3.6,0 c -0.1,0 -0.2,0 -0.3,-0.1 -0.1,-0.1 -0.1,-0.2 -0.1,-0.3 l 0,-13.2 -2.9,0 0,13.2 c 0,0.1 0,0.3 -0.1,0.3 C 11.4,19 11.3,19 11.2,19 L 7.9,19 C 7.8,19 7.6,19 7.6,18.9 7.5,18.8 7.5,18.7 7.5,18.6 l 0,-13.2 -2.9,0 0,13.2 c 0,0.3 -0.2,0.5 -0.5,0.5 l -3.6,0 C 0.2,19.1 0,18.9 0,18.6 L 0,1.5 C 0,1.2 0.2,1 0.5,1 l 15.6,0 c 0.3,-0.1 0.7,0 1,0.2 l 0,0 z"
               id="Shape"
               inkscape:connector-curvature="0" />
            <path
               d="m 35.2,0.9 c 0.4,0 0.8,0.1 1.2,0.2 0.4,0.2 0.7,0.4 1,0.6 0.3,0.3 0.5,0.6 0.6,1 0.1,0.4 0.2,0.8 0.2,1.2 l 0,14.6 c 0,0.1 0,0.3 -0.1,0.3 -0.1,0.1 -0.2,0.1 -0.3,0.1 l -3.6,0 c -0.1,0 -0.3,0 -0.3,-0.1 -0.1,-0.1 -0.1,-0.2 -0.1,-0.3 l 0,-4.6 c 0,-0.1 0,-0.3 -0.1,-0.3 -0.1,-0.1 -0.2,-0.1 -0.3,-0.1 l -5.1,0 c -0.1,0 -0.3,0 -0.3,0.1 -0.1,0.1 -0.1,0.2 -0.1,0.3 l 0,4.6 c 0,0.3 -0.2,0.5 -0.5,0.5 l -3.6,0 c -0.3,0 -0.5,-0.2 -0.5,-0.5 l 0,-14.6 c 0,-0.4 0.1,-0.8 0.2,-1.2 0.2,-0.4 0.4,-0.7 0.6,-1 0.3,-0.3 0.6,-0.5 1,-0.6 0.4,-0.2 0.8,-0.2 1.2,-0.2 l 8.9,0 0,0 z m -1.6,8.6 0,-4.5 -6.1,0 0,4.5 6.1,0 0,0 z"
               id="path17"
               inkscape:connector-curvature="0" />
            <path
               d="m 54.5,1.1 c 0.1,0.1 0.1,0.2 0.1,0.3 l 0,14.6 c 0,0.4 -0.1,0.8 -0.2,1.2 -0.2,0.4 -0.4,0.7 -0.6,1 -0.3,0.3 -0.6,0.5 -1,0.6 C 52.4,19 52,19 51.6,19 l -7.8,0 C 43.4,19 43,18.9 42.6,18.8 42.2,18.6 41.9,18.4 41.6,18.2 41.3,17.9 41.1,17.6 41,17.2 40.8,16.8 40.8,16.4 40.8,16 l 0,-5.5 C 40.8,10.2 41,10 41.3,10 l 3.6,0 c 0.3,0 0.5,0.2 0.5,0.5 l 0,3.7 c 0,0.1 0,0.2 0.1,0.3 0.1,0.1 0.2,0.1 0.3,0.1 l 3.7,0 c 0.1,0 0.3,0 0.3,-0.1 0.1,-0.1 0.1,-0.2 0.1,-0.3 l 0,-12.7 c 0,-0.1 0,-0.3 0.1,-0.3 0.1,-0.1 0.2,-0.1 0.3,-0.1 l 3.6,0 c 0.3,-0.2 0.5,-0.1 0.6,0 l 0,0 z"
               id="path19"
               inkscape:connector-curvature="0" />
            <path
               d="m 70.8,0.9 c 0.4,0 0.8,0.1 1.2,0.2 0.4,0.2 0.7,0.4 1,0.6 0.3,0.3 0.5,0.6 0.6,1 0.1,0.4 0.2,0.8 0.2,1.2 l 0,12 c 0,0.4 -0.1,0.8 -0.2,1.2 -0.2,0.4 -0.4,0.7 -0.6,1 -0.3,0.3 -0.6,0.5 -1,0.6 -0.4,0.2 -0.8,0.2 -1.2,0.2 l -9.1,0 c -0.4,0 -0.8,-0.1 -1.2,-0.2 -0.4,-0.2 -0.7,-0.4 -1,-0.6 -0.3,-0.3 -0.5,-0.6 -0.6,-1 -0.2,-0.4 -0.2,-0.8 -0.2,-1.2 l 0,-12 c 0,-0.4 0.1,-0.8 0.2,-1.2 0.1,-0.4 0.4,-0.7 0.6,-1 0.3,-0.3 0.6,-0.5 1,-0.6 0.4,-0.2 0.8,-0.2 1.2,-0.2 l 9.1,0 0,0 z m -1.6,4.4 -6.1,0 0,9.3 6.1,0 0,-9.3 0,0 z"
               id="path21"
               inkscape:connector-curvature="0" />
            <path
               d="m 93.6,18.6 c 0.1,0.1 0.1,0.2 0,0.3 C 93.5,19 93.5,19 93.3,19 l -4.1,0 c -0.1,0 -0.3,0 -0.4,-0.1 l -0.3,-0.3 -2.7,-4.9 c 0,-0.1 -0.1,-0.1 -0.2,-0.1 l -3.1,0 c -0.1,0 -0.1,0 -0.1,0.1 l 0,4.8 c 0,0.3 -0.2,0.5 -0.5,0.5 l -3.6,0 C 78,19 77.8,18.8 77.8,18.5 l 0,-17.1 c 0,-0.3 0.2,-0.5 0.5,-0.5 l 11.7,0 c 0.4,0 0.8,0.1 1.2,0.2 0.4,0.2 0.7,0.4 1,0.6 0.3,0.3 0.5,0.6 0.6,1 C 93,3.1 93,3.5 93,3.9 l 0,6.8 c 0,0.7 -0.2,1.2 -0.6,1.8 -0.4,0.5 -0.9,0.9 -1.5,1.1 l -0.1,0 c -0.1,0 -0.1,0.1 -0.1,0.2 l 0,0.1 2.9,4.7 0,0 z m -5.1,-13.5 -6.2,0 0,4.4 6.2,0 0,-4.4 0,0 z"
               id="path23"
               inkscape:connector-curvature="0" />
            <path
               d="m 117.9,14.6 c 0.1,0 0.2,0 0.3,0.1 0.1,0.1 0.1,0.2 0.1,0.3 l 0,3.4 c 0,0.1 0,0.3 -0.1,0.3 -0.1,0.1 -0.2,0.1 -0.3,0.1 l -11.1,0 c -0.3,0 -0.5,-0.2 -0.5,-0.5 l 0,-17.1 c 0,-0.3 0.2,-0.5 0.5,-0.5 l 3.6,0 c 0.3,0 0.5,0.2 0.5,0.5 l 0,12.7 c 0,0.1 0,0.2 0.1,0.3 0.1,0.1 0.2,0.1 0.3,0.1 l 6.6,0 0,0.3 0,0 z"
               id="path25"
               inkscape:connector-curvature="0" />
            <path
               d="m 134.6,1.1 c 0.1,0.1 0.1,0.2 0.1,0.3 l 0,1.5 0,0.8 0,1 c 0,0.1 0,0.2 -0.1,0.3 -0.1,0.1 -0.2,0.1 -0.3,0.1 l -1.8,0 -5.4,0 -1.4,0 c -0.1,0 -0.1,0 -0.1,0.1 l 0,2.8 c 0,0.1 0,0.1 0.1,0.1 l 7.4,0 c 0.1,0 0.2,0 0.3,0.1 0.1,0.1 0.1,0.2 0.1,0.3 l 0,2.6 c 0,0.1 0,0.3 -0.1,0.3 -0.1,0.1 -0.2,0.1 -0.3,0.1 l -7.4,0 c -0.1,0 -0.1,0 -0.1,0.1 l 0,1.3 0,0 0,1.5 c 0,0.1 0,0.1 0.1,0.1 l 1.1,0 5.8,0 1.7,0 c 0.1,0 0.3,0 0.3,0.1 0.1,0.1 0.1,0.2 0.1,0.3 l 0,1 0,1.3 0,0.9 c 0,0.1 0,0.3 -0.1,0.3 -0.1,0.1 -0.2,0.1 -0.3,0.1 l -1.5,0 -9.8,0 -1.5,0 c -0.3,0 -0.5,-0.2 -0.5,-0.5 l 0,-0.9 0,-15 0,-1.2 c 0,-0.1 0,-0.3 0.1,-0.3 0.1,-0.1 0.2,-0.1 0.3,-0.1 l 1.9,0 10.1,0 0.8,0 c 0.2,0.4 0.3,0.5 0.4,0.6 l 0,0 z"
               id="path27"
               inkscape:connector-curvature="0" />
            <path
               d="m 151,0.9 c 0.4,0 0.8,0.1 1.2,0.2 0.4,0.2 0.7,0.4 1,0.6 0.3,0.3 0.5,0.6 0.6,1 0.1,0.4 0.2,0.8 0.2,1.2 l 0,14.6 c 0,0.1 0,0.3 -0.1,0.3 -0.1,0.1 -0.2,0.1 -0.3,0.1 l -3.7,0 c -0.1,0 -0.3,0 -0.3,-0.1 -0.1,-0.1 -0.1,-0.2 -0.1,-0.3 l 0,-4.6 c 0,-0.1 0,-0.3 -0.1,-0.3 -0.1,-0.1 -0.2,-0.1 -0.3,-0.1 l -5.2,0 c -0.1,0 -0.3,0 -0.3,0.1 -0.1,0.1 -0.1,0.2 -0.1,0.3 l 0,4.6 c 0,0.3 -0.2,0.5 -0.5,0.5 l -3.6,0 c -0.3,0 -0.5,-0.2 -0.5,-0.5 l 0,-14.6 c 0,-0.4 0.1,-0.8 0.2,-1.2 0.2,-0.4 0.4,-0.7 0.6,-1 0.3,-0.3 0.6,-0.5 1,-0.6 0.4,-0.2 0.8,-0.2 1.2,-0.2 l 9.1,0 0,0 z m -1.6,8.6 0,-4.5 -6.1,0 0,4.5 6.1,0 0,0 z"
               id="path29"
               inkscape:connector-curvature="0" />
            <path
               d="m 173.1,9.3 c 0.1,0.1 0.1,0.2 0.1,0.3 l 0,6.4 c 0,0.4 -0.1,0.8 -0.2,1.2 -0.2,0.4 -0.4,0.7 -0.6,1 -0.3,0.3 -0.6,0.5 -1,0.6 -0.4,0.2 -0.8,0.2 -1.2,0.2 l -9.1,0 c -0.4,0 -0.8,-0.1 -1.2,-0.2 -0.4,-0.2 -0.7,-0.4 -1,-0.6 -0.3,-0.3 -0.5,-0.6 -0.6,-1 -0.2,-0.4 -0.2,-0.8 -0.2,-1.2 l 0,-12 c 0,-0.4 0.1,-0.8 0.2,-1.2 0.1,-0.4 0.4,-0.7 0.6,-1 0.3,-0.3 0.6,-0.5 1,-0.6 C 160.3,1 160.7,1 161.1,1 l 10.7,0 c 0.1,0 0.3,0 0.3,0.1 0.1,0.1 0.1,0.2 0.1,0.3 l 0,3.4 c 0,0.1 0,0.3 -0.1,0.3 -0.1,0.1 -0.2,0.1 -0.3,0.1 l -8.6,0 c -0.1,0 -0.3,0 -0.3,0.1 -0.1,0.1 -0.1,0.2 -0.1,0.3 l 0,8.4 c 0,0.1 0,0.2 0.1,0.3 0.1,0.1 0.2,0.1 0.3,0.1 l 5.1,0 c 0.1,0 0.2,0 0.3,-0.1 0.1,-0.1 0.1,-0.2 0.1,-0.3 l 0,-4.5 c 0,-0.1 0,-0.3 0.1,-0.3 0.1,-0.1 0.2,-0.1 0.3,-0.1 l 3.6,0 c 0.1,0 0.3,0.1 0.4,0.2 l 0,0 z"
               id="path31"
               inkscape:connector-curvature="0" />
            <path
               d="m 192.1,1.1 c 0.1,0.1 0.1,0.2 0.1,0.3 l 0,14.6 c 0,0.4 -0.1,0.8 -0.2,1.2 -0.2,0.4 -0.4,0.7 -0.6,1 -0.3,0.3 -0.6,0.5 -1,0.6 -0.4,0.2 -0.8,0.2 -1.2,0.2 l -9.1,0 c -0.4,0 -0.8,-0.1 -1.2,-0.2 -0.4,-0.2 -0.7,-0.4 -1,-0.6 -0.3,-0.3 -0.5,-0.6 -0.6,-1 -0.2,-0.4 -0.2,-0.8 -0.2,-1.2 l 0,-14.6 c 0,-0.3 0.2,-0.5 0.5,-0.5 l 3.6,0 c 0.3,0 0.5,0.2 0.5,0.5 l 0,12.7 c 0,0.1 0,0.2 0.1,0.3 0.1,0.1 0.2,0.1 0.3,0.1 l 5.1,0 c 0.1,0 0.2,0 0.3,-0.1 0.1,-0.1 0.1,-0.2 0.1,-0.3 l 0,-12.7 c 0,-0.1 0,-0.3 0.1,-0.3 C 187.8,1 187.9,1 188,1 l 3.6,0 c 0.3,-0.1 0.4,0 0.5,0.1 l 0,0 z"
               id="path33"
               inkscape:connector-curvature="0" />
            <path
               d="m 210,1.1 c 0.1,0.1 0.1,0.2 0.1,0.3 l 0,1.5 0,0.8 0,1 c 0,0.1 0,0.2 -0.1,0.3 -0.1,0.1 -0.2,0.1 -0.3,0.1 l -1.8,0 -5.4,0 -1.4,0 c -0.1,0 -0.1,0 -0.1,0.1 l 0,2.8 c 0,0.1 0,0.1 0.1,0.1 l 7.4,0 c 0.1,0 0.2,0 0.3,0.1 0.1,0.1 0.1,0.2 0.1,0.3 l 0,2.6 c 0,0.1 0,0.3 -0.1,0.3 -0.1,0.1 -0.2,0.1 -0.3,0.1 l -7.4,0 c -0.1,0 -0.1,0 -0.1,0.1 l 0,1.3 0,0 0,1.5 c 0,0.1 0,0.1 0.1,0.1 l 1.1,0 5.8,0 1.7,0 c 0.1,0 0.3,0 0.3,0.1 0.1,0.1 0.1,0.2 0.1,0.3 l 0,1 0,1.3 0,0.9 c 0,0.1 0,0.3 -0.1,0.3 -0.1,0.1 -0.2,0.1 -0.3,0.1 l -1.5,0 -9.8,0 -1.5,0 c -0.3,0 -0.5,-0.2 -0.5,-0.5 l 0,-0.9 0,-15 0,-1.2 c 0,-0.1 0,-0.3 0.1,-0.3 0.1,-0.1 0.2,-0.1 0.3,-0.1 l 1.9,0 10.1,0 0.8,0 c 0.2,0.4 0.3,0.5 0.4,0.6 l 0,0 z"
               id="path35"
               inkscape:connector-curvature="0" />
            <path
               d="m 237.7,0.9 c 0.1,0 0.3,0 0.3,0.1 0.1,0.1 0.1,0.2 0.1,0.3 l 0,17.1 c 0,0.1 0,0.3 -0.1,0.3 -0.1,0.1 -0.2,0.1 -0.3,0.1 l -3.6,0 c -0.1,0 -0.3,0 -0.3,-0.1 -0.1,-0.1 -0.1,-0.2 -0.1,-0.3 l 0,-6 c 0,-0.1 0,-0.2 -0.1,-0.3 C 233.5,12 233.4,12 233.3,12 l -5.1,0 c -0.1,0 -0.3,0 -0.3,0.1 -0.1,0.1 -0.1,0.2 -0.1,0.3 l 0,6 c 0,0.3 -0.2,0.5 -0.5,0.5 l -3.6,0 c -0.3,0 -0.5,-0.2 -0.5,-0.5 l 0,-17.1 c 0,-0.3 0.2,-0.5 0.5,-0.5 l 3.6,0 c 0.3,0 0.5,0.2 0.5,0.5 l 0,5.8 c 0,0.3 0.2,0.5 0.5,0.5 l 5.1,0 c 0.1,0 0.2,0 0.3,-0.1 0.1,-0.1 0.1,-0.2 0.1,-0.3 l 0,-5.8 c 0,-0.1 0,-0.3 0.1,-0.3 C 234,1 234.1,1 234.2,1 l 3.5,0 0,-0.1 0,0 0,0 z"
               id="path37"
               inkscape:connector-curvature="0" />
            <path
               d="m 254.4,0.9 c 0.4,0 0.8,0.1 1.2,0.2 0.4,0.2 0.7,0.4 1,0.6 0.3,0.3 0.5,0.6 0.6,1 0.1,0.4 0.2,0.8 0.2,1.2 l 0,14.6 c 0,0.1 0,0.3 -0.1,0.3 -0.1,0.1 -0.2,0.1 -0.3,0.1 l -3.6,0 c -0.1,0 -0.3,0 -0.3,-0.1 C 253,18.7 253,18.6 253,18.5 l 0,-4.6 c 0,-0.1 0,-0.3 -0.1,-0.3 -0.1,-0.1 -0.2,-0.1 -0.3,-0.1 l -5.1,0 c -0.1,0 -0.3,0 -0.3,0.1 -0.1,0.1 -0.1,0.2 -0.1,0.3 l 0,4.6 c 0,0.3 -0.2,0.5 -0.5,0.5 l -3.6,0 c -0.3,0 -0.5,-0.2 -0.5,-0.5 l 0,-14.6 c 0,-0.4 0.1,-0.8 0.2,-1.2 0.2,-0.4 0.4,-0.7 0.6,-1 0.3,-0.3 0.6,-0.5 1,-0.6 0.4,-0.2 0.8,-0.2 1.2,-0.2 l 8.9,0 0,0 z m -1.5,8.6 0,-4.5 -6.1,0 0,4.5 6.1,0 0,0 z"
               id="path39"
               inkscape:connector-curvature="0" />
            <path
               d="M 266.1,5.4 C 266,5.5 266,5.6 266,5.7 l 0,8.4 c 0,0.1 0,0.2 0.1,0.3 0.1,0.1 0.2,0.1 0.3,0.1 l 8.3,0 c 0.1,0 0.3,0 0.3,0.1 0.1,0.1 0.1,0.2 0.1,0.3 l 0,3.4 c 0,0.1 0,0.3 -0.1,0.3 -0.1,0.1 -0.2,0.1 -0.3,0.1 l -5.4,0 -4.4,0 -0.5,0 c -0.4,0 -0.8,-0.1 -1.2,-0.2 -0.4,-0.2 -0.7,-0.4 -1,-0.6 -0.3,-0.3 -0.5,-0.6 -0.6,-1 -0.2,-0.4 -0.2,-0.8 -0.2,-1.2 l 0,-0.5 0,-1.9 0,-6 0,-1.7 0,-2 c 0,-0.4 0.1,-0.8 0.2,-1.2 0.2,-0.4 0.4,-0.7 0.6,-1 0.3,-0.3 0.6,-0.5 1,-0.6 0.4,-0.2 0.8,-0.2 1.2,-0.2 l 0.5,0 9.8,0 c 0.1,0 0.3,0 0.3,0.1 0.1,0.1 0.1,0.2 0.1,0.3 l 0,3.4 c 0,0.1 0,0.3 -0.1,0.3 -0.1,0.1 -0.2,0.1 -0.3,0.1 l -8.3,0 c -0.1,0.5 -0.2,0.6 -0.3,0.6 l 0,0 z"
               id="path41"
               inkscape:connector-curvature="0" />
            <path
               d="m 289.6,8.5 c -0.1,0.1 -0.1,0.1 0,0.2 l 6,9.9 c 0.1,0.1 0.1,0.2 0,0.3 -0.1,0.1 -0.1,0.1 -0.3,0.1 l -4.3,0 c -0.1,0 -0.3,0 -0.4,-0.1 -0.1,-0.1 -0.2,-0.2 -0.3,-0.3 l -3.9,-7 c -0.1,-0.1 -0.1,-0.1 -0.1,0 l -2.1,2.3 c -0.1,0.1 -0.2,0.2 -0.2,0.4 -0.1,0.2 -0.1,0.3 -0.1,0.5 l 0,3.8 c 0,0.3 -0.2,0.5 -0.5,0.5 l -3.5,0 c -0.3,0 -0.5,-0.2 -0.5,-0.5 l 0,-17.1 c 0,-0.3 0.2,-0.5 0.5,-0.5 l 3.6,0 c 0.3,0 0.5,0.2 0.5,0.5 l 0,7.7 6.7,-7.8 c 0.1,-0.1 0.2,-0.2 0.4,-0.3 C 291.3,1 291.4,1 291.5,1 l 4.3,0 c 0.1,0 0.2,0 0.2,0.1 0,0.1 0,0.2 -0.1,0.3 l -6.3,7.1 0,0 z"
               id="path43"
               inkscape:connector-curvature="0" />
            <path
               d="m 303.5,18.5 c 0,0.3 -0.2,0.5 -0.5,0.5 l -3.6,0 c -0.3,0 -0.5,-0.2 -0.5,-0.5 l 0,-17.1 c 0,-0.3 0.2,-0.5 0.5,-0.5 l 3.6,0 c 0.3,0 0.5,0.2 0.5,0.5 l 0,17.1 0,0 z"
               id="path45"
               inkscape:connector-curvature="0" />
            <path
               d="m 320.9,1.2 c 0.4,0.2 0.7,0.4 1,0.6 0.3,0.3 0.5,0.6 0.6,1 0.2,0.4 0.2,0.8 0.2,1.2 l 0,14.6 c 0,0.1 0,0.3 -0.1,0.3 -0.1,0.1 -0.2,0.1 -0.3,0.1 l -3.6,0 c -0.1,0 -0.2,0 -0.3,-0.1 -0.1,-0.1 -0.1,-0.2 -0.1,-0.3 l 0,-12.7 c 0,-0.1 0,-0.2 -0.1,-0.3 -0.1,-0.1 -0.2,-0.1 -0.3,-0.1 l -5.1,0 c -0.1,0 -0.3,0 -0.3,0.1 0,0.1 -0.1,0.2 -0.1,0.3 l 0,12.7 c 0,0.3 -0.2,0.5 -0.5,0.5 l -3.6,0 c -0.3,0 -0.5,-0.2 -0.5,-0.5 l 0,-17.1 C 307.8,1.2 308,1 308.3,1 L 320,1 c 0.2,-0.1 0.6,0 0.9,0.2 l 0,0 z"
               id="path47"
               inkscape:connector-curvature="0" />
            <path
               d="m 341.8,9.3 c 0.1,0.1 0.1,0.2 0.1,0.3 l 0,6.4 c 0,0.4 -0.1,0.8 -0.2,1.2 -0.2,0.4 -0.4,0.7 -0.6,1 -0.3,0.3 -0.6,0.5 -1,0.6 -0.4,0.2 -0.8,0.2 -1.2,0.2 l -9.1,0 c -0.4,0 -0.8,-0.1 -1.2,-0.2 -0.4,-0.2 -0.7,-0.4 -1,-0.6 -0.3,-0.3 -0.5,-0.6 -0.6,-1 -0.2,-0.4 -0.2,-0.8 -0.2,-1.2 l 0,-12 c 0,-0.4 0.1,-0.8 0.2,-1.2 0.1,-0.4 0.4,-0.7 0.6,-1 0.3,-0.3 0.6,-0.5 1,-0.6 C 329,1 329.4,1 329.8,1 l 10.7,0 c 0.1,0 0.3,0 0.3,0.1 0.1,0.1 0.1,0.2 0.1,0.3 l 0,3.4 c 0,0.1 0,0.3 -0.1,0.3 -0.1,0.1 -0.2,0.1 -0.3,0.1 l -8.6,0 c -0.1,0 -0.3,0 -0.3,0.1 -0.1,0.1 -0.1,0.2 -0.1,0.3 l 0,8.4 c 0,0.1 0,0.2 0.1,0.3 0.1,0.1 0.2,0.1 0.3,0.1 l 5.1,0 c 0.1,0 0.2,0 0.3,-0.1 0.1,-0.1 0.1,-0.2 0.1,-0.3 l 0,-4.5 c 0,-0.1 0,-0.3 0.1,-0.3 0.1,-0.1 0.2,-0.1 0.3,-0.1 l 3.6,0 c 0.2,0 0.3,0.1 0.4,0.2 l 0,0 z"
               id="path49"
               inkscape:connector-curvature="0" />
          </g>
          <path
             d="m 109.8,1.5 c 2.3,1 4.3,2.4 6,4.1 1.7,1.7 3,3.7 4.1,6 1,2.3 1.5,4.8 1.5,7.4 l 0,94.8 c 0,0.9 -0.3,1.6 -0.9,2.2 -0.6,0.6 -1.3,0.9 -2.2,0.9 l -22.7,0 c -0.9,0 -1.6,-0.3 -2.1,-0.9 -0.5,-0.6 -0.8,-1.3 -0.8,-2.2 l 0,-86.2 -18.3,0 0,86.2 c 0,0.9 -0.3,1.6 -0.8,2.2 -0.5,0.6 -1.3,0.9 -2.1,0.9 l -20.6,0 c -0.9,0 -1.6,-0.3 -2.2,-0.9 -0.6,-0.6 -0.9,-1.3 -0.9,-2.2 l 0,-86.2 -18.3,0 0,86.2 c 0,2.1 -1,3.1 -3.1,3.1 l -22.5,0 c -2.1,0 -3.1,-1 -3.1,-3.1 L 0.8,3.1 C 0.8,1 1.8,0 3.9,0 l 98.4,0 c 2.7,0 5.1,0.5 7.5,1.5 l 0,0 z"
             id="path51"
             inkscape:connector-curvature="0" />
          <path
             d="m 220.3,88.5 c 0.9,0 1.7,0.3 2.2,0.9 0.6,0.6 0.9,1.4 0.9,2.3 l 0,22.1 c 0,0.9 -0.3,1.6 -0.9,2.3 -0.6,0.6 -1.3,0.9 -2.2,0.9 l -77.7,0 c -2.2,0 -3.3,-1.1 -3.3,-3.2 l 0,-110.6 c 0,-2.1 1.1,-3.2 3.3,-3.2 l 23.8,0 c 2.2,0 3.3,1.1 3.3,3.2 l 0,82.4 c 0,0.9 0.3,1.6 1,2.2 0.6,0.6 1.4,0.8 2.3,0.8 l 47.3,0 0,-0.1 0,0 0,0 z"
             id="path53"
             inkscape:connector-curvature="0" />
          <path
             d="m 339.7,0 c 0.9,0 1.7,0.3 2.3,0.9 0.6,0.6 1,1.4 1,2.3 l 0,110.9 c 0,0.9 -0.3,1.6 -1,2.3 -0.6,0.6 -1.4,0.9 -2.3,0.9 l -24.2,0 c -0.9,0 -1.7,-0.3 -2.3,-0.9 -0.6,-0.6 -1,-1.4 -1,-2.3 l 0,-38.7 c 0,-0.9 -0.3,-1.6 -0.9,-2.2 -0.6,-0.6 -1.3,-0.8 -2.3,-0.8 l -33.9,0 c -0.9,0 -1.7,0.3 -2.3,0.8 -0.6,0.6 -1,1.3 -1,2.2 l 0,38.7 c 0,2.1 -1.1,3.2 -3.3,3.2 l -24,0 c -2.2,0 -3.3,-1.1 -3.3,-3.2 l 0,-110.9 c 0,-2.1 1.1,-3.2 3.3,-3.2 l 24,0 c 2.2,0 3.3,1.1 3.3,3.2 l 0,37.5 c 0,2.1 1.1,3.2 3.3,3.2 l 33.9,0 c 0.9,0 1.7,-0.3 2.3,-0.9 0.6,-0.6 0.9,-1.4 0.9,-2.3 l 0,-37.5 c 0,-0.9 0.3,-1.6 1,-2.3 0.6,-0.6 1.4,-0.9 2.3,-0.9 l 24.2,0 0,0 z"
             id="path55"
             inkscape:connector-curvature="0" />
        </g>
      </g>
    </g>
  </g>
</svg>
