<?xml version="1.0" encoding="UTF-8" standalone="no"?>
<!-- Generator: Adobe Illustrator 19.1.0, SVG Export Plug-In . SVG Version: 6.00 Build 0)  -->

<svg
   xmlns:dc="http://purl.org/dc/elements/1.1/"
   xmlns:cc="http://creativecommons.org/ns#"
   xmlns:rdf="http://www.w3.org/1999/02/22-rdf-syntax-ns#"
   xmlns:svg="http://www.w3.org/2000/svg"
   xmlns="http://www.w3.org/2000/svg"
   xmlns:sodipodi="http://sodipodi.sourceforge.net/DTD/sodipodi-0.dtd"
   xmlns:inkscape="http://www.inkscape.org/namespaces/inkscape"
   version="1.1"
   x="0px"
   y="0px"
   viewBox="0 0 392.8 688"
   style="enable-background:new 0 0 392.8 688;"
   xml:space="preserve"
   id="svg2"
   inkscape:version="0.91 r13725"
   sodipodi:docname="mlh-shield-purple.svg"><metadata
     id="metadata287"><rdf:RDF><cc:Work
         rdf:about=""><dc:format>image/svg+xml</dc:format><dc:type
           rdf:resource="http://purl.org/dc/dcmitype/StillImage" /></cc:Work></rdf:RDF></metadata><defs
     id="defs285" /><sodipodi:namedview
     pagecolor="#ffffff"
     bordercolor="#666666"
     borderopacity="1"
     objecttolerance="10"
     gridtolerance="10"
     guidetolerance="10"
     inkscape:pageopacity="0"
     inkscape:pageshadow="2"
     inkscape:window-width="1009"
     inkscape:window-height="556"
     id="namedview283"
     showgrid="false"
     inkscape:zoom="0.68604651"
     inkscape:cx="356.64826"
     inkscape:cy="269.9822"
     inkscape:window-x="0"
     inkscape:window-y="0"
     inkscape:window-maximized="0"
     inkscape:current-layer="svg2"
     inkscape:snap-text-baseline="false" /><style
     type="text/css"
     id="style4">
	.st0{fill:#F7F7F7;}
	.st1{display:none;opacity:8.000000e-02;}
	.st2{opacity:0.42;fill:#E0E0E0;}
	.st3{display:none;}
	.st4{display:inline;}
	.st5{fill:#FFFFFF;}
	.st6{fill:#6B7373;}
	.st7{fill:#353535;}
	.st8{fill:#C53C02;}
	.st9{fill:#751B00;}
	.st10{fill:#7E317B;}
	.st11{fill:#162F51;}
	.st12{fill:#FDEE00;}
	.st13{fill:#ECC700;}
	.st14{opacity:0.42;fill:#BC1B00;}
	.st15{fill:#662263;}
	.st16{fill:#D3AA00;}
	.st17{opacity:0.42;fill:#232323;}
</style><g
     id="Layer_1"><g
       id="g7"><path
         class="st10"
         d="M22,267.7c0-2.6,5.6-3.7,9.3-3.7h332.3c3.7,0,4.5,1.1,4.5,3.7V622c0,2.6-1.6,5.7-4.9,6.9l-159,58.2    c-3.3,1.2-8.4,1.2-11.7,0L29.1,628.9c-3.3-1.2-7.1-4.3-7.1-6.9V267.7z"
         id="path9" /><path
         class="st1"
         d="M38.9,379c0,0,161.3,34,315.5-0.1v-17.5c0,0-141.9,28.5-315.5,0.1V379z"
         id="path11" /><polygon
         class="st15"
         points="356.1,400.7 356.1,360 34.5,360   "
         id="polygon13" /><g
         class="st3"
         id="g15"><g
           class="st4"
           id="g17"><g
             id="g19"><polygon
               class="st5"
               points="63,601.7 63,426.8 41.7,426.8 41.7,352.8 142,352.8 142,601.7      "
               id="polygon21" /><path
               d="M128.7,366.1v222.2H76.3V413.4H55v-47.3H128.7 M155.4,339.4h-26.7H55H28.3v26.7v47.3v26.7h21.3v148.3V615h26.7h52.4       h26.7v-26.7V366.1V339.4L155.4,339.4z"
               id="path23" /></g><g
             id="g25"><polygon
               class="st5"
               points="167.6,601.2 241.3,425.7 156,425.7 156,351.8 358.7,351.8 248.8,601.2      "
               id="polygon27" /><path
               d="M338.2,365.1l-98.2,222.8h-52.4l73.7-175.5h-92v-47.3H338.2 M379.1,338.4h-40.9H169.4h-26.7v26.7v47.3v26.7h26.7h51.9       l-58.2,138.4l-15.6,37h40.2h52.4h17.4l7-15.9l98.2-222.8L379.1,338.4L379.1,338.4z"
               id="path29" /></g></g></g><g
         id="g31"><path
           class="st5"
           d="M377.3,342.5c0,0-159.8,52.8-361.4,0V239.7c186,48.4,361.4,0,361.4,0V342.5z"
           id="path33" /><path
           class="st10"
           d="M377.3,239.7v102.8c0,0-71,23.5-178.1,23.5c-53.5,0-116.1-5.9-183.3-23.5V239.7     c62,16.1,122.8,21.5,176.3,21.5C299.3,261.2,377.3,239.7,377.3,239.7 M392.9,219.3l-19.7,5.4c-0.8,0.2-77.5,21-180.9,21     c-60.8,0-118.8-7.1-172.4-21l-19.5-5.1v20.2v102.8v12l11.6,3c60.7,15.9,123.7,24,187.2,24c108.3,0,180-23.3,183-24.3l10.7-3.5     v-11.3V239.7V219.3L392.9,219.3z"
           id="path35" /></g><g
         id="g37"><path
           class="st10"
           d="M393.1,219.2l-19.9-9.9V-0.5H18.4V211L0.1,220l18.3,12.7v0.3h0.4l1.1,0.8L20,233h6.2v0     c0,0,170.4,51.2,344.5,0.8l2.6,0V233c0,0,0.1,0,0.1,0L393.1,219.2z"
           id="path39" /></g><g
         class="st3"
         id="g41"><g
           class="st4"
           id="g43"><g
             id="g45"><g
               id="g47"><g
                 id="g49"><g
                   id="g51"><polygon
                     class="st5"
                     points="140.5,204.5 139.5,204.5 139.5,163 140.5,163 140.5,204.5         "
                     id="polygon53" /></g><g
                   id="g55"><g
                     id="g57"><path
                       class="st5"
                       d="M108.4,165.2c-5.1,0-9.7,2-13,5.3l0,0c-3.3,3.3-5.4,7.8-5.4,12.8l0,0c0,5,2.1,9.6,5.4,12.8l0,0           c3.3,3.3,7.9,5.3,13,5.3l0,0c5.1,0,9.7-2,13-5.3l0,0c3.3-3.3,5.4-7.8,5.4-12.8l0,0c0-5-2.1-9.6-5.4-12.8l0,0           C118.1,167.2,113.4,165.2,108.4,165.2L108.4,165.2 M122.9,169L122.9,169 M108.4,163c11.4,0,20.6,9.1,20.6,20.4l0,0           c0,11.3-9.2,20.4-20.6,20.4l0,0c-11.4,0-20.6-9.1-20.6-20.4l0,0C87.7,172.1,97,163,108.4,163L108.4,163 M93.8,169L93.8,169           "
                       id="path59" /></g><g
                     id="g61"><path
                       class="st5"
                       d="M98.6,183.2c0-1.2-0.8-1.9-1.9-1.9H96v3.7h0.7C97.7,185.1,98.6,184.5,98.6,183.2L98.6,183.2z            M110.9,184.6l-5.1,4l-4.7-3.6c-0.7,1.6-2.3,2.7-4.2,2.7h-4v-8.8h4c2.1,0,3.6,1.3,4.2,2.7l4.7-3.6l1.7,1.3l-4.3,3.3           l0.8,0.6l4.3-3.3l1.7,1.3l-4.3,3.3l0.8,0.6l4.3-3.3v-3h3.1v6.2h3.1v2.6h-6.2V184.6L110.9,184.6z M121,185h3.1v2.6h-6.2           v-8.8h3.1V185L121,185z"
                       id="path63" /></g></g></g></g><g
               id="g65"><g
                 id="g67"><path
                   class="st5"
                   d="M150.2,173.2l12.6-1.7v12h-12.6 M164.3,171.2l16.7-2.4v14.6h-16.7 M150.2,184.8h12.6v12.1l-12.6-1.7          M164.3,184.9H181v14.4l-16.7-2.3"
                   id="path69" /></g><g
                 id="g71"><g
                   id="g73"><path
                     class="st5"
                     d="M191.5,174.9c0.7,0,1.4,0,2.1,0c1.1,4,2.2,8,3.3,11.9c0.2,0.8,0.4,1.7,0.5,2.6          c1.2-4.9,2.7-9.7,4.1-14.5c0.6,0,1.2,0,1.8,0c1,3.4,1.9,6.9,2.9,10.4c0.4,1.4,0.8,2.7,1,4.1c1-4.9,2.5-9.6,3.7-14.5          c0.7,0,1.4,0,2.1,0c-1.5,5.5-3.1,11.1-4.7,16.6h-2.3c-1.1-4-2.2-8-3.4-11.9c-0.2-0.6-0.3-1.3-0.3-2          c-0.1,0.6-0.2,1.2-0.3,1.7c-1.1,4-2.3,8.1-3.4,12.1c-0.8,0-1.5,0-2.3,0C194.8,186,193.1,180.5,191.5,174.9"
                     id="path75" /></g><g
                   id="g77"><path
                     class="st5"
                     d="M214.3,175.1c0.1-0.7,0.7-1.2,1.4-1.1s1.2,0.7,1.1,1.4s-0.7,1.2-1.4,1.1c-0.6-0.1-1-0.5-1.1-1.1           M214.6,179.6h1.9v11.9h-1.9"
                     id="path79" /></g><g
                   id="g81"><path
                     class="st5"
                     d="M221.5,181.5c1.1-1.9,3.6-2.8,5.6-1.9c1.6,0.6,2.2,2.5,2.3,4.1c0.1,2.6,0,5.2,0,7.8c-0.6,0-1.3,0-1.9,0          c0-2.5,0.1-5,0-7.5c-0.1-1.2-0.6-2.7-1.9-3c-2-0.6-4,1.2-4,3.1c-0.1,2.5,0,5,0,7.4h-1.9c0-4,0-7.9,0-11.9h1.9          C221.5,180.3,221.5,180.9,221.5,181.5"
                     id="path83" /></g><g
                   id="g85"><path
                     class="st5"
                     d="M240.8,174c0.6,0,1.3,0,1.9,0v17.5h-1.9c0-0.6,0-1.3-0.1-1.9c-1.4,2.4-5,3-7.1,1.2          c-1.5-1.3-1.9-3.3-1.9-5.2c0-1.9,0.6-3.9,2.2-5.2c2-1.6,5.5-1.5,6.9,0.9C240.8,178.8,240.8,176.4,240.8,174 M236.7,180.9          c-1.5,0.2-2.5,1.6-2.8,3c-0.4,1.7-0.3,3.7,0.8,5.1c1.2,1.5,3.8,1.6,5,0.1c0.9-0.9,1.1-2.1,1.1-3.3c0-1.3,0.1-2.7-0.7-3.7          C239.3,181.1,238,180.7,236.7,180.9"
                     id="path87" /></g><g
                   id="g89"><path
                     class="st5"
                     d="M250,179.3c1.7-0.1,3.6,0.1,4.8,1.3c1.4,1.3,1.9,3.4,1.8,5.2c0,1.7-0.6,3.4-1.9,4.5          c-2.6,2.3-7.4,1.8-9-1.4c-1.3-2.7-1-6.4,1.3-8.4C247.9,179.9,249,179.6,250,179.3 M249.7,181c-2.8,0.8-3.2,4.5-2.4,6.8          c0.7,2.1,3.4,3,5.3,2.1c1.3-0.6,1.9-2.1,2-3.4c0.1-1.6,0-3.3-1.1-4.6C252.6,180.9,251,180.6,249.7,181"
                     id="path91" /></g><g
                   id="g93"><path
                     class="st5"
                     d="M257.4,179.6h2c0.8,2.8,1.5,5.7,2.3,8.5c0.2,0.5,0.2,1.1,0.3,1.6c0.9-3.4,2-6.8,3-10.1l1.7,0          c0.9,3.4,1.9,6.7,2.7,10.1c0.7-3.4,1.8-6.7,2.6-10.1c0.6,0,1.3,0,1.9,0c-1.2,4-2.4,8-3.6,11.9h-2c-0.9-3.2-2-6.4-2.6-9.7          c-0.8,3.3-2,6.4-2.9,9.7H261C259.8,187.6,258.6,183.6,257.4,179.6"
                     id="path95" /></g><g
                   id="g97"><path
                     class="st5"
                     d="M278.7,179.3c1.2-0.1,2.4,0,3.5,0.5c0.3,0.6,0.1,1.3,0.1,2c-1.3-0.8-3.2-1.4-4.6-0.5          c-1,0.5-1,2.1-0.1,2.7c1.4,0.9,3.1,1.1,4.4,2.3c1.3,1.3,1,3.8-0.6,4.7c-1.9,1.2-4.5,1.1-6.5,0.2c0-0.7,0-1.4,0-2.1          c1.4,1.1,3.4,1.7,5.2,0.9c1-0.5,1.1-2,0.2-2.7c-1.4-1-3.3-1.2-4.5-2.4c-1.2-1.2-1-3.4,0.4-4.5          C276.9,179.8,277.9,179.6,278.7,179.3"
                     id="path99" /></g><g
                   id="g101"><path
                     class="st5"
                     d="M291.9,174.7c0.2,0,0.5-0.1,0.7-0.1c0,5.7,0,11.3,0,17h-1.9c0-4.7,0-9.4,0-14.1          c-1.2,0.8-2.5,1.5-3.9,1.9c0-0.6,0-1.3,0-1.9C288.7,176.8,290.4,175.8,291.9,174.7"
                     id="path103" /></g><g
                   id="g105"><path
                     class="st5"
                     d="M299.5,174.6c1.6-0.3,3.5,0.3,4.4,1.7c1.4,1.9,1.5,4.4,1.6,6.7c0,2.4-0.3,5.1-1.9,7          c-1.4,1.9-4.4,2.3-6.3,0.9c-1.6-1.1-2.2-3.1-2.5-4.9c-0.3-2.7-0.3-5.5,0.7-8.1C296.1,176.4,297.6,174.9,299.5,174.6           M299.2,176.3c-1.7,0.7-2.2,2.7-2.4,4.3c-0.2,2.2-0.3,4.5,0.2,6.7c0.3,1.1,0.8,2.2,1.9,2.7c1.2,0.6,2.9,0.1,3.5-1.1          c1-1.8,1.1-3.9,1.1-5.9c0-1.9-0.1-4-1.2-5.7C301.7,176.3,300.3,175.9,299.2,176.3"
                     id="path107" /></g></g></g></g></g><g
           class="st4"
           id="g109"><g
             id="g111"><g
               id="g113"><g
                 id="g115"><path
                   class="st5"
                   d="M157,60.5c1.5,0.6,2.8,1.5,3.8,2.5c1.1,1,1.9,2.3,2.6,3.7c0.7,1.5,1,3,1,4.6v58.9c0,0.5-0.2,1-0.6,1.4         c-0.4,0.4-0.8,0.6-1.4,0.6h-14.4c-0.6,0-1-0.2-1.4-0.6c-0.3-0.4-0.5-0.8-0.5-1.4V76.7h-11.6v53.6c0,0.5-0.2,1-0.5,1.4         c-0.3,0.4-0.8,0.6-1.4,0.6h-13.1c-0.6,0-1-0.2-1.4-0.6c-0.4-0.4-0.6-0.8-0.6-1.4V76.7H106v53.6c0,1.3-0.7,1.9-2,1.9H89.7         c-1.3,0-2-0.6-2-1.9V61.4c0-1.3,0.7-1.9,2-1.9h62.6C154,59.5,155.6,59.8,157,60.5z"
                   id="path117" /></g><g
                 id="g119"><path
                   class="st5"
                   d="M157,60.5c1.5,0.6,2.8,1.5,3.8,2.5c1.1,1,1.9,2.3,2.6,3.7c0.7,1.5,1,3,1,4.6v5.3l-18.3,0.1h-11.6h-16.9         H106l-18.3-0.1V61.4c0-1.3,0.7-1.9,2-1.9h62.6C154,59.5,155.6,59.8,157,60.5z"
                   id="path121" /></g></g><g
               id="g123"><g
                 id="g125"><path
                   class="st5"
                   d="M227.4,114.5c0.6,0,1.1,0.2,1.4,0.6c0.4,0.4,0.6,0.8,0.6,1.4v13.7c0,0.6-0.2,1-0.6,1.4         c-0.4,0.4-0.8,0.6-1.4,0.6H178c-1.4,0-2.1-0.7-2.1-2V61.5c0-1.3,0.7-2,2.1-2h15.2c1.4,0,2.1,0.7,2.1,2v51.2         c0,0.6,0.2,1,0.6,1.4c0.4,0.3,0.9,0.5,1.5,0.5H227.4z"
                   id="path127" /></g><g
                 id="g129"><path
                   class="st5"
                   d="M195.1,132.2H178c-1.4,0-2.1-0.7-2.1-2V61.5c0-1.3,0.7-2,2.1-2h15.1c1.4,0,2.1,0.7,2.1,2v51.2         C195.2,113.2,195.1,132.2,195.1,132.2z"
                   id="path131" /></g></g><g
               id="g133"><g
                 id="g135"><path
                   class="st5"
                   d="M303.4,59.5c0.6,0,1.1,0.2,1.5,0.6c0.4,0.4,0.6,0.9,0.6,1.4v69c0,0.6-0.2,1-0.6,1.4         c-0.4,0.4-0.9,0.6-1.5,0.6H288c-0.6,0-1.1-0.2-1.5-0.6c-0.4-0.4-0.6-0.8-0.6-1.4v-24.1c0-0.6-0.2-1-0.6-1.4         c-0.4-0.3-0.8-0.5-1.4-0.5h-21.6c-0.6,0-1.1,0.2-1.5,0.5c-0.4,0.3-0.6,0.8-0.6,1.4v24.1c0,1.3-0.7,2-2.1,2h-15.3         c-1.4,0-2.1-0.7-2.1-2v-69c0-1.3,0.7-2,2.1-2h15.3c1.4,0,2.1,0.7,2.1,2v23.3c0,1.3,0.7,2,2.1,2h21.6c0.6,0,1.1-0.2,1.4-0.6         c0.4-0.4,0.6-0.8,0.6-1.4V61.5c0-0.6,0.2-1,0.6-1.4c0.4-0.4,0.9-0.6,1.5-0.6H303.4z"
                   id="path137" /></g><g
                 id="g139"><path
                   class="st5"
                   d="M260.3,106.4v24.1c0,1.3-0.7,2-2.1,2h-15.3c-1.4,0-2.1-0.7-2.1-2v-69c0-1.3,0.7-2,2.1-2h15.3         c1.4,0,2.1,0.7,2.1,2v23.3C260.3,86.1,260.3,105.8,260.3,106.4z"
                   id="path141" /></g><g
                 id="g143"><path
                   class="st5"
                   d="M303.4,59.5c0.6,0,1.1,0.2,1.5,0.6c0.4,0.4,0.6,0.9,0.6,1.4v69c0,0.6-0.2,1-0.6,1.4         c-0.4,0.4-0.9,0.6-1.5,0.6H288c-0.6,0-1.1-0.2-1.5-0.6c-0.4-0.4-0.6-0.8-0.6-1.4v-24.1c0-0.6,0-21,0-21.6V61.5         c0-0.6,0.2-1,0.6-1.4c0.4-0.4,0.9-0.6,1.5-0.6H303.4z"
                   id="path145" /></g></g></g></g><g
           class="st4"
           id="g147"><g
             id="g149"><g
               id="g151"><path
                 class="st5"
                 d="M160.1,145.4c0,1-0.3,1.7-1,2.3c-0.7,0.5-1.6,0.8-2.9,0.8h-1.6v4.2H154v-10.2h2.5        C158.9,142.4,160.1,143.4,160.1,145.4z M154.7,147.8h1.4c1.2,0,2-0.2,2.5-0.6c0.5-0.4,0.8-1,0.8-1.8c0-0.8-0.2-1.4-0.7-1.8        c-0.5-0.4-1.2-0.6-2.2-0.6h-1.7V147.8z"
                 id="path153" /></g><g
               id="g155"><path
                 class="st5"
                 d="M170.9,147.5c0,1.6-0.4,2.9-1.2,3.8c-0.8,0.9-1.9,1.4-3.4,1.4c-1.4,0-2.5-0.5-3.3-1.4        c-0.8-0.9-1.2-2.2-1.2-3.9c0-1.6,0.4-2.9,1.2-3.8c0.8-0.9,1.9-1.4,3.4-1.4c1.4,0,2.5,0.5,3.3,1.4        C170.5,144.6,170.9,145.9,170.9,147.5z M162.6,147.5c0,1.5,0.3,2.6,1,3.4c0.7,0.8,1.6,1.2,2.8,1.2c1.2,0,2.2-0.4,2.8-1.2        c0.6-0.8,1-1.9,1-3.4c0-1.5-0.3-2.6-1-3.4c-0.6-0.8-1.6-1.2-2.8-1.2c-1.2,0-2.2,0.4-2.8,1.2S162.6,146.1,162.6,147.5z"
                 id="path157" /></g><g
               id="g159"><path
                 class="st5"
                 d="M181.4,152.6h-0.6l-2.2-7.9c-0.2-0.6-0.3-1.2-0.4-1.6c-0.1,0.4-0.2,0.9-0.3,1.4c-0.1,0.5-0.9,3.2-2.3,8.1        H175l-2.8-10.2h0.7l1.8,6.6c0.1,0.3,0.1,0.5,0.2,0.7c0.1,0.2,0.1,0.4,0.2,0.6c0,0.2,0.1,0.4,0.1,0.6c0,0.2,0.1,0.4,0.1,0.6        c0.1-0.6,0.3-1.6,0.7-2.9l1.7-6.2h0.8l2,7.1c0.2,0.8,0.4,1.5,0.5,2c0.1-0.3,0.1-0.7,0.2-1.1c0.1-0.4,0.8-3.1,2.2-8h0.7        L181.4,152.6z"
                 id="path161" /></g><g
               id="g163"><path
                 class="st5"
                 d="M191.6,152.6h-5.6v-10.2h5.6v0.7h-4.9v3.9h4.6v0.7h-4.6v4.4h4.9V152.6z"
                 id="path165" /></g><g
               id="g167"><path
                 class="st5"
                 d="M194.7,148.2v4.5H194v-10.2h2.4c1.3,0,2.2,0.2,2.8,0.7c0.6,0.5,0.9,1.2,0.9,2.1c0,0.7-0.2,1.3-0.5,1.7        c-0.4,0.5-0.9,0.8-1.6,1l2.8,4.7h-0.9l-2.6-4.5H194.7z M194.7,147.6h1.9c0.9,0,1.5-0.2,2-0.6c0.5-0.4,0.7-1,0.7-1.7        c0-0.8-0.2-1.3-0.7-1.7c-0.5-0.4-1.2-0.5-2.3-0.5h-1.7V147.6z"
                 id="path169" /></g><g
               id="g171"><path
                 class="st5"
                 d="M208,152.6h-5.6v-10.2h5.6v0.7h-4.9v3.9h4.6v0.7h-4.6v4.4h4.9V152.6z"
                 id="path173" /></g><g
               id="g175"><path
                 class="st5"
                 d="M218.1,147.4c0,1.7-0.4,3-1.3,3.9c-0.9,0.9-2.2,1.3-4,1.3h-2.4v-10.2h2.8c1.6,0,2.9,0.4,3.7,1.3        C217.7,144.6,218.1,145.8,218.1,147.4z M217.3,147.5c0-1.5-0.4-2.6-1.1-3.3c-0.7-0.7-1.8-1.1-3.3-1.1h-1.9v9h1.7        C215.8,152,217.3,150.5,217.3,147.5z"
                 id="path177" /></g><g
               id="g179"><path
                 class="st5"
                 d="M224.2,142.4h2.8c1.3,0,2.2,0.2,2.8,0.6c0.6,0.4,0.9,1.1,0.9,1.9c0,0.6-0.2,1.1-0.5,1.5        c-0.4,0.4-0.9,0.6-1.6,0.8v0c0.8,0.1,1.4,0.4,1.8,0.8c0.4,0.4,0.6,0.9,0.6,1.6c0,0.9-0.3,1.7-0.9,2.2        c-0.6,0.5-1.5,0.8-2.7,0.8h-3.1V142.4z M224.9,147h2.2c1,0,1.7-0.2,2.1-0.5c0.4-0.3,0.7-0.8,0.7-1.5c0-0.7-0.2-1.2-0.7-1.5        c-0.5-0.3-1.2-0.5-2.2-0.5h-2.1V147z M224.9,147.6v4.4h2.4c1.9,0,2.8-0.8,2.8-2.3c0-1.4-1-2.1-3-2.1H224.9z"
                 id="path181" /></g><g
               id="g183"><path
                 class="st5"
                 d="M235.5,148l3-5.6h0.8l-3.4,6.3v3.9h-0.7v-3.9l-3.4-6.3h0.8L235.5,148z"
                 id="path185" /></g></g><g
             id="g187"><g
               id="g189"><rect
                 x="243.3"
                 y="146.7"
                 class="st5"
                 width="62.2"
                 height="3"
                 id="rect191" /></g><g
               id="g193"><rect
                 x="87.7"
                 y="146.7"
                 class="st5"
                 width="62.2"
                 height="3"
                 id="rect195" /></g></g></g></g></g><g
       id="g197"><g
         id="g199"><path
           class="st10"
           d="M74.7,330.7c-12.7-2.2-19-3.5-31.5-6.3c0-4.3,0-6.5,0-10.8c10,2.2,15.1,3.3,25.1,5.1c0-3.8,0-5.7,0-9.6     c-7.5-1.4-11.3-2.1-18.8-3.7c-1.7-0.4-3.2-1.2-4.5-2.5s-1.9-2.8-1.9-4.3c0-8-0.1-12-0.1-19.9c0-1.5,0.6-2.6,1.9-3.4     c1.3-0.8,2.8-1,4.5-0.6c12.6,2.7,18.9,3.9,31.5,6c0,4.3,0,6.5,0,10.8c-10.1-1.7-15.1-2.6-25.1-4.7c0,3.6,0,5.4,0,9     c7.5,1.5,11.3,2.2,18.8,3.6c1.7,0.3,3.2,1.1,4.4,2.3c1.2,1.3,1.9,2.7,1.9,4.2c0,8.2,0,12.2,0.1,20.4c0,1.6-0.6,2.8-1.8,3.6     C77.9,330.7,76.4,331,74.7,330.7z"
           id="path201" /><path
           class="st10"
           d="M103.4,295.2c0,3.7,0,5.6,0,9.3c6.2,0.8,9.3,1.2,15.5,1.9c0,4.3,0,6.4,0,10.7c-6.2-0.7-9.3-1.1-15.5-1.9     c0,3.7,0,5.5,0,9.2c11.2,1.5,16.9,2.1,28.1,3.2c0,4.3,0,6.4,0,10.7c-16.3-1.5-24.4-2.5-40.6-4.9C91,313,91,302.8,90.9,282.5     c16.2,2.5,24.4,3.4,40.7,5c0,4.4,0,6.6,0,10.9C120.3,297.3,114.7,296.7,103.4,295.2z"
           id="path203" /><path
           class="st10"
           d="M178.2,341.1c-1.7-4.8-2.5-7.3-4.2-12.1c-8.1-0.3-12.1-0.4-20.2-0.9c-1.7,4.7-2.6,7-4.3,11.7     c-5.3-0.4-7.9-0.6-13.2-1c7.1-19.7,10.6-29.6,17.7-49.5c7.8,0.5,11.7,0.7,19.6,0.9c5.9,17,11.9,34.1,17.8,51.1     C186.1,341.3,183.4,341.2,178.2,341.1z M163.8,300.5c-2.5,6.7-3.7,10.1-6.2,16.8c4.9,0.3,7.4,0.4,12.3,0.6     C167.5,310.9,166.3,307.5,163.8,300.5z"
           id="path205" /><path
           class="st10"
           d="M228.8,340.6c-12.8,0.6-19.2,0.7-32,0.8c0-4.3,0-6.5,0-10.8c10.2,0,15.3-0.1,25.5-0.5c0-3.8,0-5.7,0-9.5     c-7.6,0.3-11.4,0.4-19.1,0.5c-1.7,0-3.3-0.5-4.5-1.5c-1.3-1-1.9-2.3-1.9-3.9c0-8,0-11.9,0-19.9c0-1.5,0.6-2.7,1.9-3.8     c1.3-1.1,2.8-1.6,4.6-1.6c12.8-0.1,19.2-0.3,31.9-1c0,4.3,0,6.5,0,10.8c-10.2,0.6-15.2,0.8-25.4,1c0,3.6,0,5.4,0,9     c7.6-0.1,11.4-0.3,19.1-0.6c1.7-0.1,3.2,0.4,4.5,1.3c1.2,1,1.9,2.2,1.9,3.8c0,8.2,0,12.2,0,20.4c0,1.6-0.6,2.9-1.9,4     C232,339.9,230.6,340.5,228.8,340.6z"
           id="path207" /><path
           class="st10"
           d="M283.8,335.8c-12.4,1.6-18.6,2.2-31,3.2c-1.7,0.1-3.2-0.2-4.5-1.2c-1.2-0.9-1.9-2.2-1.9-3.7     c0-16.1,0-24.1,0.1-40.2c0-1.5,0.6-2.8,1.9-3.9c1.2-1.1,2.7-1.8,4.5-1.9c12.4-1,18.6-1.6,31-3.2c1.7-0.2,3.2,0.1,4.5,1     c1.2,0.9,1.9,2.1,1.8,3.5c0,16.1-0.1,24.1-0.1,40.2c0,1.6-0.6,2.9-1.9,4.1C287,334.9,285.5,335.6,283.8,335.8z M259.3,327.6     c7.3-0.7,10.9-1,18.1-1.9c0-11.7,0-17.5,0.1-29.2c-7.2,0.8-10.9,1.2-18.1,1.9C259.3,310.1,259.3,316,259.3,327.6z"
           id="path209" /><path
           class="st10"
           d="M349.3,324.4c-4.4,1-6.6,1.5-11,2.4c-9.6-11.8-14.3-17.8-24-29.9c0,13.8-0.1,20.7-0.1,34.5     c-5,0.9-7.5,1.3-12.6,2c0.1-20.4,0.1-30.5,0.2-50.9c7.3-1.1,10.9-1.7,18.1-3c6.8,8.6,10.1,12.8,16.9,21.2     c0-9.8,0.1-14.7,0.1-24.5c5.1-1,7.6-1.6,12.6-2.7C349.4,293.9,349.4,304,349.3,324.4z"
           id="path211" /></g></g><g
       id="g213"><g
         id="g215"><g
           id="g217"><path
             class="st5"
             d="M80.9,157.5c0.3,0.1,0.5,0.3,0.7,0.5c0.2,0.2,0.4,0.4,0.5,0.7c0.1,0.3,0.2,0.6,0.2,0.9v11      c0,0.1,0,0.2-0.1,0.3c-0.1,0.1-0.2,0.1-0.3,0.1h-2.7c-0.1,0-0.2,0-0.3-0.1c-0.1-0.1-0.1-0.2-0.1-0.3v-9.9h-2.2v9.9      c0,0.1,0,0.2-0.1,0.3c-0.1,0.1-0.1,0.1-0.3,0.1h-2.4c-0.1,0-0.2,0-0.3-0.1c-0.1-0.1-0.1-0.2-0.1-0.3v-9.9h-2.2v9.9      c0,0.2-0.1,0.4-0.4,0.4h-2.7c-0.2,0-0.4-0.1-0.4-0.4v-12.9c0-0.2,0.1-0.4,0.4-0.4H80C80.3,157.3,80.6,157.4,80.9,157.5z"
             id="path219" /><path
             class="st5"
             d="M94.5,157.3c0.3,0,0.6,0.1,0.9,0.2c0.3,0.1,0.5,0.3,0.7,0.5c0.2,0.2,0.4,0.4,0.5,0.7      c0.1,0.3,0.2,0.6,0.2,0.9v11c0,0.1,0,0.2-0.1,0.3c-0.1,0.1-0.2,0.1-0.3,0.1h-2.7c-0.1,0-0.2,0-0.3-0.1c-0.1-0.1-0.1-0.2-0.1-0.3      v-3.5c0-0.1,0-0.2-0.1-0.3c-0.1-0.1-0.2-0.1-0.3-0.1h-3.8c-0.1,0-0.2,0-0.3,0.1c-0.1,0.1-0.1,0.2-0.1,0.3v3.5      c0,0.2-0.1,0.4-0.4,0.4h-2.7c-0.2,0-0.4-0.1-0.4-0.4v-11c0-0.3,0.1-0.6,0.2-0.9c0.1-0.3,0.3-0.5,0.5-0.7      c0.2-0.2,0.4-0.4,0.7-0.5c0.3-0.1,0.6-0.2,0.9-0.2H94.5z M93.3,163.8v-3.4h-4.6v3.4H93.3z"
             id="path221" /><path
             class="st5"
             d="M109,157.4c0.1,0.1,0.1,0.2,0.1,0.3v11c0,0.3-0.1,0.6-0.2,0.9c-0.1,0.3-0.3,0.5-0.5,0.7      c-0.2,0.2-0.4,0.4-0.7,0.5c-0.3,0.1-0.6,0.2-0.9,0.2h-5.8c-0.3,0-0.6-0.1-0.9-0.2c-0.3-0.1-0.5-0.3-0.7-0.5      c-0.2-0.2-0.4-0.4-0.5-0.7c-0.1-0.3-0.2-0.6-0.2-0.9v-4.2c0-0.2,0.1-0.4,0.4-0.4h2.7c0.2,0,0.4,0.1,0.4,0.4v2.8      c0,0.1,0,0.2,0.1,0.3c0.1,0.1,0.2,0.1,0.3,0.1h2.8c0.1,0,0.2,0,0.3-0.1s0.1-0.1,0.1-0.3v-9.6c0-0.1,0-0.2,0.1-0.3      c0.1-0.1,0.1-0.1,0.3-0.1h2.7C108.8,157.3,108.9,157.4,109,157.4z"
             id="path223" /><path
             class="st5"
             d="M121.2,157.3c0.3,0,0.6,0.1,0.9,0.2c0.3,0.1,0.5,0.3,0.7,0.5c0.2,0.2,0.4,0.4,0.5,0.7      c0.1,0.3,0.2,0.6,0.2,0.9v9.1c0,0.3-0.1,0.6-0.2,0.9c-0.1,0.3-0.3,0.5-0.5,0.7c-0.2,0.2-0.4,0.4-0.7,0.5      c-0.3,0.1-0.6,0.2-0.9,0.2h-6.9c-0.3,0-0.6-0.1-0.9-0.2c-0.3-0.1-0.5-0.3-0.7-0.5c-0.2-0.2-0.4-0.4-0.5-0.7      c-0.1-0.3-0.2-0.6-0.2-0.9v-9.1c0-0.3,0.1-0.6,0.2-0.9c0.1-0.3,0.3-0.5,0.5-0.7c0.2-0.2,0.5-0.4,0.7-0.5      c0.3-0.1,0.6-0.2,0.9-0.2H121.2z M120.1,160.6h-4.6v7h4.6V160.6z"
             id="path225" /><path
             class="st5"
             d="M138.4,170.6c0.1,0.1,0.1,0.2,0,0.2c0,0.1-0.1,0.1-0.2,0.1h-3.1c-0.1,0-0.2,0-0.3-0.1      c-0.1-0.1-0.2-0.1-0.2-0.2l-2.1-3.7c0-0.1-0.1-0.1-0.1-0.1h-2.3c-0.1,0-0.1,0-0.1,0.1v3.6c0,0.2-0.1,0.4-0.4,0.4h-2.7      c-0.2,0-0.4-0.1-0.4-0.4v-12.9c0-0.2,0.1-0.4,0.4-0.4h8.8c0.3,0,0.6,0.1,0.9,0.2c0.3,0.1,0.5,0.3,0.7,0.5      c0.2,0.2,0.4,0.4,0.5,0.7c0.1,0.3,0.2,0.6,0.2,0.9v5.1c0,0.5-0.1,0.9-0.4,1.3c-0.3,0.4-0.7,0.7-1.1,0.8l-0.1,0      c-0.1,0-0.1,0.1-0.1,0.1l0,0L138.4,170.6z M134.5,160.5h-4.7v3.3h4.7V160.5z"
             id="path227" /><path
             class="st5"
             d="M156.7,167.6c0.1,0,0.2,0,0.3,0.1c0.1,0.1,0.1,0.2,0.1,0.3v2.6c0,0.1,0,0.2-0.1,0.3      c-0.1,0.1-0.2,0.1-0.3,0.1h-8.4c-0.2,0-0.4-0.1-0.4-0.4v-12.9c0-0.2,0.1-0.4,0.4-0.4h2.7c0.2,0,0.4,0.1,0.4,0.4v9.6      c0,0.1,0,0.2,0.1,0.3c0.1,0.1,0.2,0.1,0.3,0.1H156.7z"
             id="path229" /><path
             class="st5"
             d="M169.3,157.4c0.1,0.1,0.1,0.2,0.1,0.3v1.1v0.6v0.8c0,0.1,0,0.2-0.1,0.3c-0.1,0.1-0.2,0.1-0.3,0.1h-1.4h-4      h-1.1c-0.1,0-0.1,0-0.1,0.1v2.1c0,0.1,0,0.1,0.1,0.1h5.6c0.1,0,0.2,0,0.3,0.1c0.1,0.1,0.1,0.2,0.1,0.3v1.9c0,0.1,0,0.2-0.1,0.3      s-0.1,0.1-0.3,0.1h-5.6c-0.1,0-0.1,0-0.1,0.1v1v0v1.1c0,0.1,0,0.1,0.1,0.1h0.8h4.4h1.3c0.1,0,0.2,0,0.3,0.1      c0.1,0.1,0.1,0.2,0.1,0.3v0.8v1v0.6c0,0.1,0,0.2-0.1,0.3c-0.1,0.1-0.2,0.1-0.3,0.1h-1.1h-7.4h-1.2c-0.2,0-0.4-0.1-0.4-0.4v-0.7      v-11.3v-0.9c0-0.1,0-0.2,0.1-0.3c0.1-0.1,0.2-0.1,0.3-0.1h1.4h7.6h0.6C169.1,157.3,169.2,157.4,169.3,157.4z"
             id="path231" /><path
             class="st5"
             d="M181.6,157.3c0.3,0,0.6,0.1,0.9,0.2c0.3,0.1,0.5,0.3,0.7,0.5c0.2,0.2,0.4,0.4,0.5,0.7      c0.1,0.3,0.2,0.6,0.2,0.9v11c0,0.1,0,0.2-0.1,0.3c-0.1,0.1-0.2,0.1-0.3,0.1h-2.7c-0.1,0-0.2,0-0.3-0.1c-0.1-0.1-0.1-0.2-0.1-0.3      v-3.5c0-0.1,0-0.2-0.1-0.3c-0.1-0.1-0.2-0.1-0.3-0.1h-3.8c-0.1,0-0.2,0-0.3,0.1c-0.1,0.1-0.1,0.2-0.1,0.3v3.5      c0,0.2-0.1,0.4-0.4,0.4h-2.7c-0.2,0-0.4-0.1-0.4-0.4v-11c0-0.3,0.1-0.6,0.2-0.9c0.1-0.3,0.3-0.5,0.5-0.7      c0.2-0.2,0.4-0.4,0.7-0.5c0.3-0.1,0.6-0.2,0.9-0.2H181.6z M180.4,163.8v-3.4h-4.6v3.4H180.4z"
             id="path233" /><path
             class="st5"
             d="M198.2,163.6c0.1,0.1,0.1,0.2,0.1,0.3v4.8c0,0.3-0.1,0.6-0.2,0.9c-0.1,0.3-0.3,0.5-0.5,0.7      c-0.2,0.2-0.4,0.4-0.7,0.5c-0.3,0.1-0.6,0.2-0.9,0.2h-6.9c-0.3,0-0.6-0.1-0.9-0.2c-0.3-0.1-0.5-0.3-0.7-0.5      c-0.2-0.2-0.4-0.4-0.5-0.7c-0.1-0.3-0.2-0.6-0.2-0.9v-9.1c0-0.3,0.1-0.6,0.2-0.9c0.1-0.3,0.3-0.5,0.5-0.7      c0.2-0.2,0.5-0.4,0.7-0.5c0.3-0.1,0.6-0.2,0.9-0.2h8c0.1,0,0.2,0,0.3,0.1c0.1,0.1,0.1,0.2,0.1,0.3v2.6c0,0.1,0,0.2-0.1,0.3      c-0.1,0.1-0.2,0.1-0.3,0.1h-6.5c-0.1,0-0.2,0-0.3,0.1c-0.1,0.1-0.1,0.1-0.1,0.3v6.3c0,0.1,0,0.2,0.1,0.3      c0.1,0.1,0.2,0.1,0.3,0.1h3.8c0.1,0,0.2,0,0.3-0.1c0.1-0.1,0.1-0.1,0.1-0.3v-3.4c0-0.1,0-0.2,0.1-0.3c0.1-0.1,0.2-0.1,0.3-0.1      h2.7C198,163.5,198.1,163.5,198.2,163.6z"
             id="path235" /><path
             class="st5"
             d="M212.5,157.4c0.1,0.1,0.1,0.2,0.1,0.3v11c0,0.3-0.1,0.6-0.2,0.9c-0.1,0.3-0.3,0.5-0.5,0.7      c-0.2,0.2-0.4,0.4-0.7,0.5c-0.3,0.1-0.6,0.2-0.9,0.2h-6.9c-0.3,0-0.6-0.1-0.9-0.2c-0.3-0.1-0.5-0.3-0.7-0.5      c-0.2-0.2-0.4-0.4-0.5-0.7c-0.1-0.3-0.2-0.6-0.2-0.9v-11c0-0.2,0.1-0.4,0.4-0.4h2.7c0.2,0,0.4,0.1,0.4,0.4v9.6      c0,0.1,0,0.2,0.1,0.3c0.1,0.1,0.2,0.1,0.3,0.1h3.8c0.1,0,0.2,0,0.3-0.1s0.1-0.1,0.1-0.3v-9.6c0-0.1,0-0.2,0.1-0.3      c0.1-0.1,0.2-0.1,0.3-0.1h2.7C212.4,157.3,212.5,157.4,212.5,157.4z"
             id="path237" /><path
             class="st5"
             d="M226,157.4c0.1,0.1,0.1,0.2,0.1,0.3v1.1v0.6v0.8c0,0.1,0,0.2-0.1,0.3c-0.1,0.1-0.2,0.1-0.3,0.1h-1.4h-4      h-1.1c-0.1,0-0.1,0-0.1,0.1v2.1c0,0.1,0,0.1,0.1,0.1h5.6c0.1,0,0.2,0,0.3,0.1c0.1,0.1,0.1,0.2,0.1,0.3v1.9c0,0.1,0,0.2-0.1,0.3      s-0.1,0.1-0.3,0.1h-5.6c-0.1,0-0.1,0-0.1,0.1v1v0v1.1c0,0.1,0,0.1,0.1,0.1h0.8h4.4h1.3c0.1,0,0.2,0,0.3,0.1      c0.1,0.1,0.1,0.2,0.1,0.3v0.8v1v0.6c0,0.1,0,0.2-0.1,0.3c-0.1,0.1-0.2,0.1-0.3,0.1h-1.1h-7.4h-1.2c-0.2,0-0.4-0.1-0.4-0.4v-0.7      v-11.3v-0.9c0-0.1,0-0.2,0.1-0.3c0.1-0.1,0.2-0.1,0.3-0.1h1.4h7.6h0.6C225.8,157.3,225.9,157.4,226,157.4z"
             id="path239" /><path
             class="st5"
             d="M246.8,157.3c0.1,0,0.2,0,0.3,0.1c0.1,0.1,0.1,0.2,0.1,0.3v12.9c0,0.1,0,0.2-0.1,0.3      c-0.1,0.1-0.2,0.1-0.3,0.1h-2.7c-0.1,0-0.2,0-0.3-0.1c-0.1-0.1-0.1-0.2-0.1-0.3v-4.5c0-0.1,0-0.2-0.1-0.3s-0.1-0.1-0.3-0.1h-3.8      c-0.1,0-0.2,0-0.3,0.1c-0.1,0.1-0.1,0.1-0.1,0.3v4.5c0,0.2-0.1,0.4-0.4,0.4h-2.7c-0.2,0-0.4-0.1-0.4-0.4v-12.9      c0-0.2,0.1-0.4,0.4-0.4h2.7c0.2,0,0.4,0.1,0.4,0.4v4.4c0,0.2,0.1,0.4,0.4,0.4h3.8c0.1,0,0.2,0,0.3-0.1c0.1-0.1,0.1-0.2,0.1-0.3      v-4.4c0-0.1,0-0.2,0.1-0.3c0.1-0.1,0.2-0.1,0.3-0.1H246.8z"
             id="path241" /><path
             class="st5"
             d="M259.4,157.3c0.3,0,0.6,0.1,0.9,0.2c0.3,0.1,0.5,0.3,0.7,0.5c0.2,0.2,0.4,0.4,0.5,0.7      c0.1,0.3,0.2,0.6,0.2,0.9v11c0,0.1,0,0.2-0.1,0.3c-0.1,0.1-0.2,0.1-0.3,0.1h-2.7c-0.1,0-0.2,0-0.3-0.1c-0.1-0.1-0.1-0.2-0.1-0.3      v-3.5c0-0.1,0-0.2-0.1-0.3c-0.1-0.1-0.2-0.1-0.3-0.1h-3.8c-0.1,0-0.2,0-0.3,0.1c-0.1,0.1-0.1,0.2-0.1,0.3v3.5      c0,0.2-0.1,0.4-0.4,0.4h-2.7c-0.2,0-0.4-0.1-0.4-0.4v-11c0-0.3,0.1-0.6,0.2-0.9c0.1-0.3,0.3-0.5,0.5-0.7      c0.2-0.2,0.4-0.4,0.7-0.5c0.3-0.1,0.6-0.2,0.9-0.2H259.4z M258.3,163.8v-3.4h-4.6v3.4H258.3z"
             id="path243" /><path
             class="st5"
             d="M268.2,160.7c-0.1,0.1-0.1,0.1-0.1,0.3v6.3c0,0.1,0,0.2,0.1,0.3s0.2,0.1,0.3,0.1h6.2c0.1,0,0.2,0,0.3,0.1      c0.1,0.1,0.1,0.2,0.1,0.3v2.6c0,0.1,0,0.2-0.1,0.3c-0.1,0.1-0.2,0.1-0.3,0.1h-4.1h-3.3H267c-0.3,0-0.6-0.1-0.9-0.2      c-0.3-0.1-0.5-0.3-0.7-0.5c-0.2-0.2-0.4-0.4-0.5-0.7c-0.1-0.3-0.2-0.6-0.2-0.9v-0.4v-1.4v-4.5v-1.3v-1.5c0-0.3,0.1-0.6,0.2-0.9      c0.1-0.3,0.3-0.5,0.5-0.7c0.2-0.2,0.5-0.4,0.7-0.5c0.3-0.1,0.6-0.2,0.9-0.2h0.3h7.4c0.1,0,0.2,0,0.3,0.1      c0.1,0.1,0.1,0.2,0.1,0.3v2.6c0,0.1,0,0.2-0.1,0.3c-0.1,0.1-0.2,0.1-0.3,0.1h-6.2C268.4,160.6,268.3,160.7,268.2,160.7z"
             id="path245" /><path
             class="st5"
             d="M285.9,163c0,0,0,0.1,0,0.1l4.5,7.4c0.1,0.1,0.1,0.2,0,0.2c0,0.1-0.1,0.1-0.2,0.1H287c-0.1,0-0.2,0-0.3-0.1      c-0.1-0.1-0.2-0.1-0.2-0.2l-2.9-5.3c0-0.1-0.1-0.1-0.1,0l-1.6,1.8c-0.1,0.1-0.1,0.2-0.2,0.3c0,0.1-0.1,0.2-0.1,0.3v2.9      c0,0.2-0.1,0.4-0.4,0.4h-2.7c-0.2,0-0.4-0.1-0.4-0.4v-12.9c0-0.2,0.1-0.4,0.4-0.4h2.7c0.2,0,0.4,0.1,0.4,0.4v5.8l5-5.9      c0.1-0.1,0.2-0.1,0.3-0.2c0.1-0.1,0.2-0.1,0.3-0.1h3.2c0.1,0,0.2,0,0.2,0.1c0,0.1,0,0.1-0.1,0.2L285.9,163z"
             id="path247" /><path
             class="st5"
             d="M296.4,170.5c0,0.2-0.1,0.4-0.4,0.4h-2.7c-0.2,0-0.4-0.1-0.4-0.4v-12.9c0-0.2,0.1-0.4,0.4-0.4h2.7      c0.2,0,0.4,0.1,0.4,0.4V170.5z"
             id="path249" /><path
             class="st5"
             d="M309.5,157.5c0.3,0.1,0.5,0.3,0.7,0.5c0.2,0.2,0.4,0.4,0.5,0.7c0.1,0.3,0.2,0.6,0.2,0.9v11      c0,0.1,0,0.2-0.1,0.3c-0.1,0.1-0.2,0.1-0.3,0.1h-2.7c-0.1,0-0.2,0-0.3-0.1c-0.1-0.1-0.1-0.2-0.1-0.3V161c0-0.1,0-0.2-0.1-0.3      c-0.1-0.1-0.2-0.1-0.3-0.1h-3.8c-0.1,0-0.2,0-0.3,0.1c-0.1,0.1-0.1,0.1-0.1,0.3v9.6c0,0.2-0.1,0.4-0.4,0.4h-2.7      c-0.2,0-0.4-0.1-0.4-0.4v-12.9c0-0.2,0.1-0.4,0.4-0.4h8.8C308.9,157.3,309.2,157.4,309.5,157.5z"
             id="path251" /><path
             class="st5"
             d="M325.2,163.6c0.1,0.1,0.1,0.2,0.1,0.3v4.8c0,0.3-0.1,0.6-0.2,0.9c-0.1,0.3-0.3,0.5-0.5,0.7      c-0.2,0.2-0.4,0.4-0.7,0.5c-0.3,0.1-0.6,0.2-0.9,0.2h-6.9c-0.3,0-0.6-0.1-0.9-0.2c-0.3-0.1-0.5-0.3-0.7-0.5      c-0.2-0.2-0.4-0.4-0.5-0.7c-0.1-0.3-0.2-0.6-0.2-0.9v-9.1c0-0.3,0.1-0.6,0.2-0.9c0.1-0.3,0.3-0.5,0.5-0.7      c0.2-0.2,0.5-0.4,0.7-0.5c0.3-0.1,0.6-0.2,0.9-0.2h8c0.1,0,0.2,0,0.3,0.1c0.1,0.1,0.1,0.2,0.1,0.3v2.6c0,0.1,0,0.2-0.1,0.3      c-0.1,0.1-0.2,0.1-0.3,0.1h-6.5c-0.1,0-0.2,0-0.3,0.1s-0.1,0.1-0.1,0.3v6.3c0,0.1,0,0.2,0.1,0.3s0.2,0.1,0.3,0.1h3.8      c0.1,0,0.2,0,0.3-0.1c0.1-0.1,0.1-0.1,0.1-0.3v-3.4c0-0.1,0-0.2,0.1-0.3c0.1-0.1,0.2-0.1,0.3-0.1h2.7      C325,163.5,325.1,163.5,325.2,163.6z"
             id="path253" /></g></g><g
         id="g255"><path
           class="st5"
           d="M149.8,63.7c1.8,0.8,3.3,1.8,4.5,3.1c1.3,1.3,2.3,2.8,3.1,4.5c0.8,1.8,1.2,3.6,1.2,5.6v71.3     c0,0.7-0.2,1.2-0.7,1.7c-0.5,0.4-1,0.7-1.7,0.7h-17.1c-0.7,0-1.2-0.2-1.6-0.7c-0.4-0.4-0.6-1-0.6-1.7V83.4h-13.7v64.8     c0,0.7-0.2,1.2-0.6,1.7c-0.4,0.4-0.9,0.7-1.6,0.7h-15.5c-0.7,0-1.2-0.2-1.7-0.7c-0.5-0.4-0.7-1-0.7-1.7V83.4H89.5v64.8     c0,1.6-0.8,2.3-2.3,2.3H70.2c-1.6,0-2.3-0.8-2.3-2.3V64.9c0-1.6,0.8-2.3,2.3-2.3h74C146.2,62.6,148.1,62.9,149.8,63.7z"
           id="path257" /><path
           class="st5"
           d="M149.8,63.7c1.8,0.8,3.3,1.8,4.5,3.1c1.3,1.3,2.3,2.8,3.1,4.5c0.8,1.8,1.2,3.6,1.2,5.6v6.4L137,83.4h-13.7     h-20H89.5l-21.6-0.1V64.9c0-1.6,0.8-2.3,2.3-2.3h74C146.2,62.6,148.1,62.9,149.8,63.7z"
           id="path259" /></g><g
         id="g261"><path
           class="st5"
           d="M233,129.2c0.7,0,1.3,0.2,1.7,0.7c0.4,0.5,0.7,1,0.7,1.7v16.6c0,0.7-0.2,1.2-0.7,1.7c-0.4,0.5-1,0.7-1.7,0.7     h-58.4c-1.6,0-2.5-0.8-2.5-2.4V64.9c0-1.6,0.8-2.4,2.5-2.4h17.9c1.6,0,2.5,0.8,2.5,2.4v62c0,0.7,0.2,1.2,0.7,1.6     c0.5,0.4,1.1,0.6,1.8,0.6H233z"
           id="path263" /><path
           class="st5"
           d="M194.8,150.6h-20.2c-1.6,0-2.5-0.8-2.5-2.4V64.9c0-1.6,0.8-2.4,2.5-2.4h17.9c1.6,0,2.5,0.8,2.5,2.4v62     C194.9,127.6,194.8,150.6,194.8,150.6z"
           id="path265" /></g><g
         id="g267"><path
           class="st5"
           d="M322.8,62.6c0.7,0,1.3,0.2,1.8,0.7c0.5,0.5,0.7,1,0.7,1.7v83.5c0,0.7-0.2,1.2-0.7,1.7     c-0.5,0.5-1.1,0.7-1.8,0.7h-18.2c-0.7,0-1.3-0.2-1.8-0.7c-0.5-0.5-0.7-1-0.7-1.7v-29.1c0-0.7-0.2-1.2-0.7-1.6     c-0.4-0.4-1-0.6-1.7-0.6h-25.5c-0.7,0-1.3,0.2-1.8,0.6c-0.5,0.4-0.7,1-0.7,1.6v29.1c0,1.6-0.8,2.4-2.5,2.4h-18     c-1.7,0-2.5-0.8-2.5-2.4V65c0-1.6,0.8-2.4,2.5-2.4h18c1.7,0,2.5,0.8,2.5,2.4v28.2c0,1.6,0.8,2.4,2.5,2.4h25.5     c0.7,0,1.3-0.2,1.7-0.7c0.4-0.5,0.7-1,0.7-1.7V65c0-0.7,0.2-1.2,0.7-1.7c0.5-0.5,1.1-0.7,1.8-0.7H322.8z"
           id="path269" /><path
           class="st5"
           d="M271.8,119.3v29.1c0,1.6-0.8,2.4-2.5,2.4h-18c-1.7,0-2.5-0.8-2.5-2.4V65c0-1.6,0.8-2.4,2.5-2.4h18     c1.7,0,2.5,0.8,2.5,2.4v28.2C271.8,94.8,271.8,118.6,271.8,119.3z"
           id="path271" /><path
           class="st5"
           d="M322.8,62.6c0.7,0,1.3,0.2,1.8,0.7c0.5,0.5,0.7,1,0.7,1.7v83.5c0,0.7-0.2,1.2-0.7,1.7     c-0.5,0.5-1.1,0.7-1.8,0.7h-18.2c-0.7,0-1.3-0.2-1.8-0.7c-0.5-0.5-0.7-1-0.7-1.7v-29.1c0-0.7,0-25.4,0-26.1V65     c0-0.7,0.2-1.2,0.7-1.7c0.5-0.5,1.1-0.7,1.8-0.7H322.8z"
           id="path273" /></g></g><g
       id="g275"><path
         class="st5"
         d="M144.6,419.5v158.8c0,3-1.5,4.6-4.6,4.6h-33.1c-3,0-4.6-1.5-4.6-4.6V459.8c0-0.6-0.4-0.9-1.1-0.8    c-0.7,0.1-1.6,0.5-2.5,1.3L87,469.4c-1,0.8-1.8,1-2.5,0.6c-0.7-0.4-1.1-1.2-1.1-2.5v-33.6c0-1.3,0.4-2.6,1.1-4    c0.7-1.4,1.6-2.4,2.5-3.2l11.8-9.1c1-0.8,2.2-1.4,3.8-1.9c1.6-0.5,3-0.7,4.3-0.7h5.5H140C143,414.9,144.6,416.5,144.6,419.5z"
         id="path277" /><path
         class="st5"
         d="M299.5,491.9c-0.8,0.8-1.6,1.8-2.4,3c-0.8,1.2-1.2,2.4-1.2,3.7c0.2,1.3,0.6,2.6,1.4,3.8    c0.8,1.3,1.6,2.4,2.4,3.4l2.2,2.4l1.9,2.6l3.1,3.4c0.8,1,1.5,2.2,2,3.7c0.6,1.5,0.8,2.9,0.8,4.2v22.3v10.3c0,0.8,0,1.6-0.1,2.3    c-0.1,0.7-0.2,1.5-0.4,2.3c0,0.5-0.1,0.9-0.2,1.2c-0.2,1.3-0.6,2.6-1.2,4.1c-0.2,0.5-0.4,1-0.7,1.7c-0.5,1.1-1,2.2-1.7,3.4    c-0.3,0.3-0.5,0.6-0.5,1c-0.2,0.2-0.3,0.2-0.4,0.2c-0.1,0-0.2,0.1-0.4,0.2c-0.3,0.6-0.6,1.1-1,1.4c-0.2,0.5-0.5,0.8-1,1    c-0.2,0.3-0.5,0.7-1,1.2l-1,1c-0.3,0.2-0.6,0.4-1,0.7c-0.3,0.3-0.6,0.5-0.7,0.6c-0.2,0.1-0.4,0.3-0.7,0.6    c-0.2,0.2-0.3,0.2-0.4,0.2c-0.1,0-0.2,0.1-0.4,0.2l-1,0.5c-1.3,0.8-2.7,1.6-4.2,2.3c-1.5,0.7-3.2,1.2-4.9,1.6h-1.2    c-0.8,0.2-1.5,0.3-2.2,0.4c-0.6,0.1-1.4,0.1-2.2,0.1h-72.4c-1.3,0-2.2-0.1-2.9-0.2c-3.5-0.3-6.8-1.3-9.8-2.9c-3-1.6-5.7-3.6-8-6.1    c-2.3-2.5-4.1-5.3-5.4-8.5c-1.3-3.2-1.9-6.6-1.9-10.3v-10.3v-22.3c0-1.3,0.3-2.7,0.8-4.2c0.6-1.5,1.2-2.8,2-3.7l2.9-3.4l2.2-2.6    l2.2-2.4c0.8-1,1.6-2.1,2.4-3.4c0.8-1.3,1.2-2.6,1.2-3.8c0.2-1.3-0.2-2.5-1-3.7c-0.8-1.2-1.6-2.2-2.4-3l-2.4-3.1l-5.3-6.7    c-0.8-1-1.4-2.2-1.9-3.7c-0.5-1.5-0.7-2.9-0.7-4.2V443c0-3.8,0.7-7.5,2.2-10.9c1.4-3.4,3.4-6.4,6-8.9c2.6-2.5,5.6-4.5,9-6    c3.4-1.5,7.1-2.3,10.9-2.3h25.9h9.4h17.8h19.4c3.8,0,7.5,0.8,10.9,2.3c3.4,1.5,6.4,3.5,8.9,6c2.5,2.5,4.5,5.4,6,8.9    c1.5,3.4,2.3,7.1,2.3,10.9v31.2c0,1.3-0.3,2.7-0.8,4.2c-0.6,1.5-1.2,2.8-2,3.7l-5,6.7L299.5,491.9z M269.8,451.4h-48.7v6.2v19.2    v4.6h4.6h21.1h18.7h4.3v-4.6v-19.2V451.4z M269.8,513.3h-48.7v3.1v28.1v1.7h48.7v-1.7v-28.1V513.3z"
         id="path279" /></g></g><g
     id="Layer_3" /><g
     id="Layer_2" /><path
     style="fill:#603c81;fill-opacity:1;fill-rule:nonzero"
     d="M 112.44067,657.32707 C 66.744062,640.92617 27.716096,626.47901 25.711858,625.22224 22.883676,623.44887 22.067791,593.30712 22.067791,490.59735 l 0,-132.33992 -10.20339,-1.91419 -10.2033902,-1.91415 0,-66.65155 0,-66.65154 8.7457632,-4.52261 8.745762,-4.52261 0,-106.33191 0,-106.33192085 176.372884,0 176.37288,0 0.063,105.67797085 0.063,105.67796 9.41149,4.37288 9.41149,4.37288 0,66.95745 0,66.95744 -11.66102,3.27086 -11.66102,3.27082 -1.45762,133.509 -1.45763,133.50896 -81.62712,30.08636 c -44.89491,16.54751 -82.93898,30.08207 -84.54237,30.07685 -1.60339,-0.006 -40.30339,-13.42842 -86,-29.82931 l 2.3e-4,0 z m 31.38302,-158.67283 0.77285,-85.27119 -20.90446,0 c -17.91773,0 -22.29745,1.06249 -30.6542,7.43649 -9.518061,7.25977 -9.749751,7.95255 -9.749751,29.15255 0,11.94382 0.899348,21.71605 1.99855,21.71605 1.099203,0 5.034796,-2.85241 8.745763,-6.33867 l 6.747208,-6.3387 0,61.48557 c 0,46.42706 0.89248,61.86117 3.64407,63.01914 2.00424,0.84347 11.51526,1.28076 21.1356,0.97177 l 17.49152,-0.56183 0.77285,-85.27118 z m 147.61776,82.66387 c 15.50178,-6.47706 19.23651,-14.39174 19.23651,-40.76619 0,-20.05692 -0.94897,-24.37117 -7.14867,-32.4994 l -7.1487,-9.3724 7.1487,-9.68948 c 6.16815,-8.36046 7.14867,-12.85068 7.14867,-32.73668 0,-22.32353 -0.31123,-23.35841 -9.91186,-32.95904 l -9.91187,-9.91187 -45.76949,0 -45.76949,0 -9.91187,9.91187 c -9.62513,9.62512 -9.91186,10.58849 -9.91186,33.30173 0,20.83282 0.81464,24.35806 7.45158,32.2456 7.84455,9.32272 7.11534,15.19914 -2.91954,23.52735 -3.42125,2.8394 -4.53204,9.58822 -4.53204,27.53531 0,39.66198 7.91479,45.18936 64.95804,45.36404 25.50494,0.0781 40.33298,-1.16858 46.99189,-3.95084 z m 65.88058,-200.37134 c 0,-15.31287 -0.64168,-17.32626 -5.1017,-16.00787 -15.65238,4.62695 -59.60937,11.08528 -95.87088,14.08572 -49.10897,4.06352 -132.32717,-0.25205 -181.807083,-9.42822 -39.376561,-7.30248 -38.469966,-7.3544 -37.363129,2.14058 1.083309,9.29319 2.586834,9.72832 59.227536,17.14146 27.347656,3.57927 64.680726,5.19988 134.101696,5.82127 52.91186,0.47364 102.10678,2.00348 109.32203,3.39968 7.21526,1.39618 14.10254,2.04911 15.30509,1.4509 1.20254,-0.59818 2.18644,-8.96977 2.18644,-18.60352 z m -59.76271,-21.37885 c 17.63728,-2.57731 42.56271,-7.02083 55.38983,-9.87449 l 23.32203,-5.18845 0.79543,-53.23619 c 0.74385,-49.78497 0.46035,-53.14002 -4.37288,-51.75291 -56.29764,16.15699 -186.46074,24.29929 -259.63915,16.24161 -25.83716,-2.84494 -71.806516,-10.80336 -91.715603,-15.87823 l -8.016949,-2.04354 0,52.73507 c 0,52.2894 0.05543,52.74806 6.559322,54.27178 24.875899,5.82785 66.202575,13.12071 89.64407,15.81939 15.2322,1.75358 32.28644,3.72056 37.8983,4.37105 21.90629,2.53924 119.72698,-1.02154 150.1356,-5.46509 z M 138.67796,163.55593 c 0,-6.66868 -0.82725,-6.98407 -16.76271,-6.3909 -9.21949,0.34319 -17.84649,2.05043 -19.1711,3.79388 -1.69497,2.23091 -2.846377,2.09045 -3.887,-0.47416 -0.927074,-2.28477 -7.368921,-3.64407 -17.269585,-3.64407 -14.836005,0 -15.790961,0.43413 -15.790961,7.17872 l 0,7.17871 36.440676,-0.31366 36.44068,-0.31365 0,-7.01487 z m 87.45763,0.5364 c 0,-6.11389 -1.37219,-7.25165 -8.74577,-7.25165 -6.25696,0 -8.84199,1.45179 -9.08393,5.10169 -0.32207,4.85876 -0.40166,4.85876 -1.67139,0 -1.12829,-4.31755 -4.885,-5.10169 -24.44148,-5.10169 -18.59719,0 -23.10828,0.85365 -23.10828,4.37288 0,2.40508 -1.31186,4.37288 -2.91525,4.37288 -1.60339,0 -2.91526,-1.9678 -2.91526,-4.37288 0,-2.40509 -1.31186,-4.37288 -2.91525,-4.37288 -1.60339,0 -2.91526,3.20942 -2.91526,7.13203 l 0,7.13204 39.35593,0.11961 39.35594,0.11962 0,-7.25166 z m 99.11864,0.0613 0,-6.87574 -45.18644,0.023 c -45.11767,0.023 -45.18644,0.0331 -45.18644,6.68579 0,6.64545 0.11746,6.66327 45.18644,6.85272 l 45.18644,0.18996 0,-6.87574 z M 91.400556,116.75593 c 0.666267,-26.509145 1.644317,-32.796608 5.101695,-32.796608 3.511739,0 4.277399,6.001144 4.277399,33.525428 l 0,33.52542 11.66102,0 11.66102,0 0,-33.52542 c 0,-31.581924 0.338,-33.525428 5.83051,-33.525428 5.49251,0 5.83051,1.943504 5.83051,33.525428 l 0,33.52542 11.66101,0 11.66102,0 0,-40.36173 c 0,-52.808604 2.45459,-50.448347 -51.34032,-49.367245 l -40.490189,0.81372 -0.805668,44.629005 -0.805669,44.629 12.466686,-0.90019 12.466685,-0.90019 0.824291,-32.79661 z m 144.938424,22.59322 0,-10.20339 -19.58372,-0.85986 -19.58371,-0.85986 -0.82307,-32.665564 -0.82306,-32.665561 -12.38983,-0.896435 -12.38983,-0.896434 0,45.449544 0,45.44953 32.79661,-0.82429 32.79661,-0.82429 0,-10.20339 z m 36.44067,-4.37288 0,-16.0339 14.57628,0 14.57627,0 0,16.0339 0,16.0339 11.66101,0 11.66102,0 0,-45.18644 0,-45.186442 -11.51554,0 -11.51552,0 -0.87432,16.762712 -0.87428,16.762712 -13.84746,0.888543 -13.84746,0.888543 0,-17.818876 0,-17.818876 -12.38983,0.896434 -12.38983,0.896435 -0.80474,44.457625 -0.80474,44.45763 13.19457,0 13.19457,0 0,-16.0339 z"
     id="path4415"
     inkscape:connector-curvature="0" /><path
     style="fill:#603c81;fill-opacity:1;fill-rule:nonzero"
     d="m 234.15254,481.21459 c 6.8144,-0.61376 17.96525,-0.61376 24.77966,0 6.8144,0.61376 1.23898,1.11593 -12.38983,1.11593 -13.62882,0 -19.20424,-0.50217 -12.38983,-1.11593 z"
     id="path4417"
     inkscape:connector-curvature="0" /><path
     style="fill:#603c81;fill-opacity:1;fill-rule:nonzero"
     d="m 223.22033,529.99322 0,-14.57627 23.32204,0 23.32203,0 0,14.57627 0,14.57627 -23.32203,0 -23.32204,0 0,-14.57627 z"
     id="path4419"
     inkscape:connector-curvature="0" /><path
     style="fill:#603c81;fill-opacity:1;fill-rule:nonzero"
     d="m 223.22033,467.31525 0,-13.11864 23.32204,0 23.32203,0 0,13.11864 0,13.11865 -23.32203,0 -23.32204,0 0,-13.11865 z"
     id="path4421"
     inkscape:connector-curvature="0" /><path
     style="fill:#603c81;fill-opacity:1;fill-rule:nonzero"
     d="m 319.42372,395.64571 c -10.42203,-1.29983 -25.20941,-2.60424 -32.86084,-2.8987 -7.65143,-0.29445 -14.53136,-1.538 -15.28872,-2.76344 -0.75736,-1.22543 -12.20727,-3.26063 -25.44424,-4.52265 l -24.06721,-2.29459 37.8983,-3.68937 c 20.84407,-2.02916 50.15264,-5.8681 65.13015,-8.53098 17.93791,-3.18922 28.21506,-3.8584 30.11272,-1.96074 1.68165,1.68165 2.04,8.48822 0.86088,16.35121 -2.27812,15.19159 -0.72563,14.75117 -36.34104,10.30926 z"
     id="path4423"
     inkscape:connector-curvature="0" /><path
     style="fill:#603c81;fill-opacity:1;fill-rule:nonzero"
     d="m 120.06461,336.59237 c -2.40508,-0.29018 -9.78432,-1.24355 -16.3983,-2.11859 l -12.025425,-1.59099 0,-24.62911 c 0,-13.54601 0.491949,-24.62386 1.09322,-24.61746 0.601272,0.006 8.939475,0.9903 18.529345,2.18644 9.58987,1.19614 17.95301,2.1748 18.58475,2.1748 0.63174,0 1.14862,2.33996 1.14862,5.19992 0,4.26093 -0.46063,5.06702 -2.55085,4.46393 -1.40297,-0.4048 -7.63432,-1.182 -13.84746,-1.72711 l -11.29661,-0.99111 0,5.08516 c 0,5.00153 0.11986,5.10106 7.28814,6.05196 6.96636,0.92413 7.28813,1.16584 7.28813,5.47494 l 0,4.50813 -7.3638,-0.70757 -7.3638,-0.70757 0.44007,5.25941 0.44008,5.2594 13.11864,1.45763 13.11864,1.45762 0.45676,4.73729 c 0.49229,5.10571 0.46539,5.11523 -10.66015,3.77288 z"
     id="path4278"
     inkscape:connector-curvature="0" /><path
     style="fill:#603c81;fill-opacity:1;fill-rule:nonzero"
     d="m 80.479558,316.42119 c 0.0053,-6.41356 0.261558,-8.85597 0.569475,-5.42758 0.307916,3.4284 0.303585,8.67586 -0.0096,11.66102 -0.313217,2.98517 -0.565149,0.18012 -0.559854,-6.23344 z"
     id="path4280"
     inkscape:connector-curvature="0" /><path
     style="fill:#603c81;fill-opacity:1;fill-rule:nonzero"
     d="m 57.751055,327.03829 -14.211865,-2.97542 0,-4.94183 c 0,-4.37379 0.376982,-4.85622 3.279661,-4.19704 21.579727,4.90063 21.5,4.90551 21.5,-1.31472 0,-4.92924 -0.115903,-5.0203 -8.381356,-6.58508 -15.126735,-2.86373 -15.606424,-3.39471 -16.08807,-17.80815 -0.33537,-10.03608 0.01404,-12.69215 1.757703,-13.36125 1.196956,-0.45932 9.420486,0.58197 18.274511,2.31396 l 16.098229,3.14909 0,4.8252 c 0,4.23641 -0.4002,4.74109 -3.279661,4.13588 -9.392016,-1.97403 -18.88702,-3.7391 -20.114119,-3.7391 -0.762234,0 -1.385881,2.22149 -1.385881,4.93665 l 0,4.93664 9.838983,1.81632 c 15.514126,2.86396 15.114382,2.37467 14.629912,17.90733 -0.409861,13.14059 -0.489408,13.4077 -4.062115,13.64001 -2.004238,0.13031 -10.039407,-1.102 -17.855932,-2.73849 z"
     id="path4282"
     inkscape:connector-curvature="0" /><path
     style="fill:#603c81;fill-opacity:1;fill-rule:nonzero"
     d="m 176.63867,334.80691 c -2.37824,-6.05442 -5.68097,-7.40018 -18.25283,-7.43748 -5.05056,-0.015 -5.52293,0.36892 -7.15446,5.81447 -1.64404,5.48733 -2.07646,5.83051 -7.34664,5.83051 -3.49773,0 -5.60707,-0.68396 -5.61918,-1.82204 -0.0107,-1.00212 3.69277,-12.20441 8.22985,-24.89399 7.52934,-21.05846 8.51689,-23.00011 11.31601,-22.24871 1.68671,0.45278 5.80022,0.83219 9.14111,0.84314 6.93094,0.0227 5.29481,-2.9402 17.11532,30.99448 l 6.47365,18.58474 -5.83875,0 c -5.43001,0 -5.99454,-0.39659 -8.06408,-5.66512 z m -6.28592,-16.66844 c 0,-1.55735 -4.96157,-15.05802 -5.92454,-16.12097 -1.12415,-1.24085 -4.93017,6.31072 -6.66565,13.22541 -0.79059,3.14995 -0.41574,3.36472 5.87285,3.36472 3.69454,0 6.71734,-0.21112 6.71734,-0.46916 z"
     id="path4284"
     inkscape:connector-curvature="0" /><path
     style="fill:#603c81;fill-opacity:1;fill-rule:nonzero"
     d="m 198.04767,336.09915 c 0,-4.10359 0.34652,-4.37288 5.62706,-4.37288 3.09489,0 8.67031,-0.41712 12.38983,-0.92694 6.50284,-0.89131 6.76277,-1.11314 6.76277,-5.77156 l 0,-4.84462 -12.02543,-0.42335 -12.02542,-0.42336 -0.41856,-13.44169 c -0.49243,-15.81389 -2.08132,-14.66652 21.19117,-15.30251 l 14.9421,-0.40834 -0.001,4.73729 -0.001,4.73728 -7.83474,0 c -4.30911,0 -9.88454,0.40996 -12.38983,0.91102 -4.041,0.8082 -4.55509,1.47619 -4.55509,5.91877 l 0,5.00776 10.19277,-1.00437 c 13.82205,-1.36199 14.58689,-0.58585 14.58689,14.80249 0,15.06244 -0.16004,15.17789 -21.03976,15.17789 l -15.40091,0 0,-4.37288 z"
     id="path4286"
     inkscape:connector-curvature="0" /><path
     style="fill:#603c81;fill-opacity:1;fill-rule:nonzero"
     d="m 277.2919,310.59068 c 0.004,-8.01695 0.24857,-11.11064 0.54395,-6.87487 0.29537,4.23577 0.29227,10.7951 -0.007,14.57627 -0.29917,3.78118 -0.54085,0.31555 -0.53705,-7.7014 z"
     id="path4288"
     inkscape:connector-curvature="0" /><path
     style="fill:#603c81;fill-opacity:1;fill-rule:nonzero"
     d="m 250.07154,337.81765 c -2.30426,-0.44376 -2.49917,-2.63482 -2.13571,-24.00797 l 0.39997,-23.51965 4.37288,-1.03813 c 10.24033,-2.43108 33.39838,-4.02723 35.31779,-2.43426 1.47408,1.22337 1.83133,6.75514 1.52414,23.59992 -0.39894,21.87525 -0.42224,22.01174 -4.04532,23.69536 -3.74356,1.7396 -30.89643,4.57854 -35.43375,3.70473 z m 24.86596,-11.2848 c 3.14295,-0.66376 3.27966,-1.31585 3.27966,-15.64405 l 0,-14.95143 -6.19492,0.46688 c -13.51523,1.01858 -12.75424,0.016 -12.75424,16.80357 l 0,14.95142 6.19492,-0.46688 c 3.4072,-0.25679 7.67076,-0.77857 9.47458,-1.15951 z"
     id="path4290"
     inkscape:connector-curvature="0" /><path
     style="fill:#603c81;fill-opacity:1;fill-rule:nonzero"
     d="m 302.71881,307.68727 c 0.3411,-13.63533 0.70718,-24.89219 0.8135,-25.01525 0.10633,-0.12305 3.82288,-0.67283 8.25902,-1.22173 l 8.06569,-0.99799 7.96821,10.27471 c 4.38251,5.65109 8.46015,10.30045 9.06142,10.3319 0.60127,0.0315 1.09322,-5.44173 1.09322,-12.16263 0,-11.44024 0.20923,-12.2759 3.27966,-13.09874 7.05287,-1.8901 6.92373,-2.33517 6.92373,23.86093 0,18.84137 -0.43664,24.78444 -1.82204,24.79957 -1.00211,0.0109 -3.20052,0.38996 -4.88535,0.84224 -2.5276,0.67853 -5.07672,-1.73445 -14.57627,-13.79781 -6.33212,-8.04109 -12.0049,-14.65146 -12.60617,-14.6897 -0.60127,-0.0383 -1.09322,7.73274 -1.09322,17.26887 l 0,17.33843 -5.5508,0.52935 -5.55079,0.52935 0.62019,-24.7915 z"
     id="path4292"
     inkscape:connector-curvature="0" /><path
     style="fill:#603c81;fill-opacity:1;fill-rule:nonzero"
     d="M 190.75953,685.01261 C 92.54326,650.58618 27.669352,626.91382 25.443962,624.68927 24.340015,623.58574 23.631572,583.11329 23.102063,490.89975 22.684524,418.18569 22.192575,358.58766 22.008842,358.45966 21.82511,358.33167 17.083258,357.4525 11.471393,356.50593 l -10.2033895,-1.72102 0,-66.89817 0,-66.89816 8.7457625,-4.41485 8.745763,-4.41485 0,-106.3858 0,-106.38579237 176.372881,0 176.37288,0 0,105.46218237 0,105.46218 9.83899,4.5344 9.83898,4.5344 -0.72881,67.29112 -0.72882,67.29112 -10.9322,3.09366 -10.93221,3.09365 -0.37783,30.61017 c -0.20781,16.83559 -0.88816,76.65916 -1.51188,132.94126 -0.62373,56.28211 -1.53548,102.73251 -2.02611,103.22315 -1.54316,1.54316 -156.42768,58.18075 -162.98248,59.59882 -2.00424,0.4336 -6.59576,-0.24625 -10.20339,-1.51079 z m 84.90662,-101.11693 c 15.67146,-1.52451 20.02548,-3.22302 26.77078,-10.44335 6.63411,-7.1013 7.84802,-12.49466 7.84802,-34.86839 l 0,-20.09712 -6.55932,-9.58088 c -3.60763,-5.26949 -6.55932,-10.00453 -6.55932,-10.52234 0,-0.51782 1.54519,-2.97118 3.43375,-5.45195 8.4294,-11.07258 9.68545,-15.57639 9.67676,-34.69815 -0.0102,-23.30493 -1.1364,-26.99396 -11.25205,-36.87026 l -8.20399,-8.00985 -45.14321,0 -45.14322,0 -6.27357,5.14072 c -3.45047,2.8274 -7.66071,7.08879 -9.35612,9.46975 -4.27064,5.99756 -6.32155,21.03738 -5.09666,37.37501 0.93572,12.48097 1.4757,14.28144 6.71336,22.38513 3.13269,4.84688 5.6958,10.39031 5.6958,12.31873 0,1.97297 -2.45267,6.34007 -5.60872,9.9866 -5.34526,6.17598 -5.65325,7.08733 -6.55689,19.40221 -1.10935,15.11842 0.63394,33.09126 3.80441,39.22224 4.77361,9.23117 13.75099,13.87508 29.49389,15.25688 17.58408,1.54342 46.36747,1.5365 62.3163,-0.015 l 0,3e-5 z M 144.16167,500.81102 c 0.42625,-45.29577 0.49256,-83.58479 0.14735,-85.0867 -0.58499,-2.54507 -1.9758,-2.68624 -20.45299,-2.07594 -21.56311,0.71225 -23.947099,1.43486 -34.401586,10.42758 l -5.830508,5.01526 0,20.43335 c 0,11.23833 0.488344,20.92168 1.085209,21.51855 0.596865,0.59686 4.26478,-1.59585 8.15092,-4.87268 l 7.06571,-5.95789 0.876015,59.76992 c 0.63454,43.29382 1.35931,60.35228 2.62924,61.88245 1.40153,1.68872 5.58496,2.03121 20.85442,1.70726 l 19.1012,-0.40523 0.77502,-82.35593 z M 356.01029,396.95509 c 0.48341,-1.80382 0.81074,-6.23136 0.72739,-9.83899 l -0.15155,-6.55932 -1.15486,6.85044 c -1.37044,8.12913 -2.31192,9.91227 -5.23361,9.91227 -1.20255,0 -1.78106,0.65593 -1.28559,1.45763 1.66463,2.69342 6.20014,1.5292 7.09822,-1.82203 z m -31.54383,-0.51625 c -0.48437,-0.48436 -1.74158,-0.53613 -2.79379,-0.11501 -1.1628,0.4653 -0.81741,0.8107 0.88065,0.88064 1.53657,0.0633 2.39749,-0.28122 1.91314,-0.76557 l 0,-6e-5 z m -25.84252,-2.29944 c -9.2195,-0.69306 -20.04238,-2.24598 -24.05085,-3.45097 -10.17075,-3.05741 -19.62309,-4.60984 -35.71187,-5.86523 -15.50505,-1.20983 -15.50384,-1.50578 0.0146,-3.47493 9.74521,-1.23661 8.88259,-1.31772 -8.03126,-0.75528 -23.87177,0.79382 -79.01938,-1.49655 -108.59322,-4.51003 -12.42627,-1.26621 -35.971289,-4.52894 -52.322259,-7.25049 -16.350968,-2.72156 -30.289528,-4.6019 -30.974576,-4.17852 -2.023821,1.25079 -1.420614,11.75651 0.779881,13.58275 4.139825,3.43576 47.156547,10.06265 86.889834,13.38573 17.94657,1.50096 116.00075,3.6967 167.62712,3.75372 l 21.13559,0.0233 -16.76271,-1.26009 -2.6e-4,1e-5 z m -37.5339,-15.27679 c -1.00212,-0.40436 -2.64195,-0.40436 -3.64407,0 -1.00212,0.40436 -0.1822,0.73521 1.82203,0.73521 2.00424,0 2.82416,-0.33085 1.82204,-0.73521 z m 94.58777,-12.52992 c -1.05601,-1.05601 -3.45012,-1.06222 -7.78924,-0.0203 l -6.26463,1.50438 6.24065,0.17505 c 4.48,0.12565 6.52405,0.89471 7.24508,2.72589 0.93427,2.37271 1.04241,2.3619 1.54858,-0.15483 0.29928,-1.48812 -0.14197,-3.39175 -0.98044,-4.23028 l 0,5e-5 z m -76.73184,-4.57955 c 25.31505,-2.87403 50.237,-7.09708 77.04852,-13.05592 l 20.6125,-4.58112 0,-51.74576 0,-51.74576 -4.37288,0.13454 c -2.40509,0.074 -12.57204,1.85399 -22.59322,3.95549 -21.34343,4.47583 -41.5442,7.22378 -78.71187,10.70736 -38.82846,3.63923 -135.66431,3.68513 -162.52542,0.0771 -24.185465,-3.24872 -66.001721,-10.50232 -81.856465,-14.19917 -6.750359,-1.57398 -12.65549,-2.86177 -13.122514,-2.86177 -1.241421,0 0.339187,99.38775 1.628235,102.38247 1.280286,2.97438 4.498182,3.90112 33.588029,9.67331 26.728835,5.30369 45.739088,8.33812 74.338985,11.86605 18.67689,2.30388 30.15193,2.62513 78.71186,2.20352 39.43376,-0.34237 63.09854,-1.20324 77.25424,-2.81035 z m -140.95689,-197.56716 -0.43294,-6.64615 -14.75409,0.0745 c -11.38175,0.0574 -15.62502,0.64517 -18.56444,2.57115 -3.64359,2.38737 -3.93884,2.36816 -6.745916,-0.43891 -2.505718,-2.5057 -4.848935,-2.93554 -16.002914,-2.93554 -11.427497,0 -13.256717,0.35382 -14.576271,2.81943 -1.731092,3.23457 -1.998787,9.32346 -0.476814,10.84543 0.567654,0.56766 16.996796,0.88004 36.509205,0.69418 l 35.47711,-0.33791 -0.43293,-6.64617 z m 87.97572,6.49322 c 0.38944,-0.38946 0.33478,-3.50514 -0.12142,-6.92373 l -0.82961,-6.21564 -8.00264,0 c -7.71227,0 -8.03655,0.15866 -8.9377,4.37288 -0.5143,2.40509 -1.01269,3.27185 -1.10755,1.92615 -0.40194,-5.70252 -3.58687,-6.59245 -24.4785,-6.83968 -11.08338,-0.13118 -20.89561,0.26479 -21.805,0.8799 -0.90936,0.6151 -1.90226,2.43024 -2.20639,4.03363 -0.30415,1.60339 -1.51892,2.91526 -2.69951,2.91526 -1.18059,0 -2.38315,-1.31187 -2.67237,-2.91526 -1.50223,-8.32812 -6.0129,-5.34006 -6.05108,4.00848 l -0.0223,5.4661 39.11299,0 c 21.51215,0 39.43164,-0.31864 39.82109,-0.70809 z m 99.57609,-0.67001 c 0.46239,-0.74816 0.41562,-4.01855 -0.10393,-7.26753 l -0.9446,-5.90725 -40.14939,0.22334 c -22.08217,0.12288 -42.16908,0.63641 -44.6376,1.14128 -3.96764,0.81147 -4.48823,1.50111 -4.48823,5.94556 0,4.43843 0.51247,5.12048 4.37288,5.82 7.8811,1.42803 85.07109,1.46809 85.95085,0.0446 l 2e-5,0 z M 89.460835,149.15847 c 0.354038,-1.00211 1.242713,-14.94067 1.974831,-30.97457 1.362123,-29.8315 2.045511,-34.254239 5.292858,-34.254239 3.096289,0 3.617466,5.2724 3.638216,36.805089 l 0.0199,30.24576 11.66101,0 11.66102,0 0.1453,-29.51695 c 0.15615,-31.722908 0.76414,-36.519233 4.72592,-37.282202 6.30623,-1.214469 6.7898,1.271825 6.7898,34.909832 l 0,31.88932 11.66102,0 11.66101,0 0,-38.69951 c 0,-42.953915 -0.43086,-45.284978 -9.04143,-48.917213 -3.80238,-1.60397 -12.87155,-1.926963 -43.42796,-1.546655 -21.242065,0.26438 -38.710817,0.592346 -38.819452,0.728814 -0.108634,0.136467 -0.485225,20.090071 -0.836867,44.341344 l -0.639352,44.09322 11.445229,0 c 7.84112,0 11.647932,-0.57377 12.088937,-1.82204 z m 143.205475,0.90331 c 2.99118,-0.80159 3.27966,-1.74599 3.27966,-10.73649 l 0,-9.85758 -19.44975,-1.04172 -19.44974,-1.04172 -0.93479,-32.151387 C 195.59755,77.54962 195.0029,62.926203 194.79025,62.736401 194.57759,62.5466 188.99216,61.92171 182.37817,61.347756 l -12.02542,-1.043552 0,45.338156 0,45.33815 29.51695,-0.0198 c 16.23432,-0.0117 30.9928,-0.41542 32.79661,-0.89883 l 0,-7e-5 z m 39.72034,-15.11517 0,-16.0339 14.57627,0 14.57627,0 0,16.09285 0,16.09284 12.02542,-0.42335 12.02543,-0.42336 0.40869,-41.54237 c 0.22476,-22.848303 0.0482,-43.018219 -0.39218,-44.822032 -0.74044,-3.032217 -1.61181,-3.279661 -11.54935,-3.279661 -12.77086,0 -12.50923,-0.359816 -12.54033,17.246333 -0.0117,6.949262 -0.59112,13.532893 -1.28631,14.630291 -0.85361,1.347466 -5.57885,2.241291 -14.55395,2.753029 l -13.28996,0.757759 0,-17.845416 0,-17.845419 -12.02543,1.043552 c -6.61398,0.573954 -12.10909,1.134172 -12.21135,1.244932 -0.10233,0.110765 -0.49124,20.043329 -0.86439,44.294602 l -0.67848,44.09322 12.88982,0 12.88983,0 0,-16.0339 z"
     id="path4294"
     inkscape:connector-curvature="0" /><path
     style="fill:#603c81;fill-opacity:1;fill-rule:nonzero"
     d="M 151.4036,672.98709 C 92.475091,652.12726 33.553902,630.60149 28.689248,628.15567 c -3.080965,-1.54902 -4.078659,-3.29491 -4.671162,-8.17414 -0.711896,-5.86245 -2.302937,-162.59867 -2.33054,-229.58576 -0.01219,-29.58895 -0.1382,-30.97458 -2.816815,-30.97458 -1.542227,0 -6.140229,-0.77008 -10.2177797,-1.7113 l -7.4137285,-1.71128 0.3787972,-66.94889 0.3787971,-66.94888 8.3813559,-4.37255 8.381356,-4.37256 0,-106.25541 0,-106.25540525 176.363291,0 176.3633,0 0.37399,105.31356525 0.374,105.31356 9.85832,4.71068 9.85834,4.71069 -0.93323,66.71304 c -0.51327,36.69218 -1.34189,67.14274 -1.84138,67.66791 -0.49948,0.52518 -5.49968,2.2202 -11.11155,3.76671 l -10.20339,2.81184 -1.06819,124.50447 c -0.58751,68.47747 -1.45655,128.57533 -1.93121,133.55081 l -0.86303,9.04633 -11.54352,4.45165 c -46.78872,18.04365 -151.50356,55.49361 -154.84527,55.37851 -0.96183,-0.0331 -21.75471,-7.14204 -46.2064,-15.79759 z m 135.29992,-89.32281 c 6.03255,-1.14811 9.15891,-2.82613 14.0596,-7.54619 8.12534,-7.82589 9.50278,-13.13475 9.51707,-36.67995 l 0.0117,-18.94915 -6.83684,-10.01327 c -6.3703,-9.33 -6.69379,-10.24059 -4.74066,-13.3443 11.52053,-18.30716 10.80412,-16.05284 11.33265,-35.66047 0.61745,-22.90644 -0.63979,-27.24887 -11.04854,-38.16137 l -8.10642,-8.49856 -45.12668,0 -45.12668,0 -7.33722,6.14307 c -11.13413,9.32203 -12.67519,13.9867 -12.71331,38.48223 l -0.0321,20.57445 5.82704,8.57809 c 6.94693,10.22674 7.30671,14.79818 1.67486,21.2816 -7.06413,8.13228 -7.5056,9.98971 -7.43792,31.29389 0.0882,27.75583 2.65581,34.23851 15.96992,40.32049 4.88543,2.23171 11.02303,3.23727 24.05085,3.94043 21.35714,1.15273 55.54093,0.24151 66.06263,-1.76099 l 6e-5,0 z m -143.31687,-83.58207 0,-84.54238 -20.40678,0.3989 -20.40678,0.39889 -8.016951,5.5808 c -4.409322,3.06946 -8.827194,7.15351 -9.817494,9.07569 -3.044666,5.90973 -2.152112,40.66437 1.044325,40.66437 0.586197,0 4.111832,-2.32581 7.834746,-5.16847 l 6.768934,-5.16846 0.1822,20.47354 c 0.10021,11.26047 0.34619,22.44135 0.54661,24.84644 0.20043,2.40508 0.4464,20.06841 0.54661,39.25181 0.15604,29.87111 0.51717,35.21391 2.51522,37.21196 1.94028,1.94027 5.43679,2.26452 20.77118,1.92615 l 18.43818,-0.40687 z m 211.21664,-99.62208 c 0.41886,-0.67774 1.10096,-4.12138 1.51577,-7.65255 0.69554,-5.92089 0.65264,-6.029 -0.55142,-1.38981 -0.71808,2.76676 -2.33518,5.78332 -3.59353,6.70345 -1.25836,0.92013 -1.86082,2.10006 -1.33882,2.62207 1.31181,1.3118 3.05933,1.1871 3.968,-0.28316 z m -63.9963,-5.27304 c -7.21526,-1.00394 -16.86817,-2.861 -21.45094,-4.12681 -4.58276,-1.2658 -16.38954,-3.12062 -26.23729,-4.12182 -11.05212,-1.12364 -16.51028,-2.17167 -14.26093,-2.73828 2.00424,-0.50486 -11.44237,-1.37798 -29.88135,-1.94028 -56.24391,-1.71513 -87.90786,-4.72933 -138.474578,-13.18183 -11.223729,-1.8761 -20.898729,-3.13786 -21.5,-2.80389 -1.771569,0.98397 -1.249936,9.87946 0.728814,12.42854 2.159129,2.78146 6.439993,15.99373 36.805084,19.96868 36.8506,4.82394 73.07739,-3.97582 143.57627,-3.00964 37.27882,0.5109 71.38729,1.02381 75.79661,1.1398 6.28033,0.16519 5.17522,-0.18454 -5.10169,-1.61447 z m 65.47158,-26.08269 c -0.99437,-2.59127 -4.01211,-2.9193 -8.62412,-0.93745 -2.45739,1.05598 -2.18474,1.26882 1.736,1.35517 2.55819,0.0564 5.08362,0.80203 5.61207,1.65706 1.4021,2.26867 2.35084,0.72609 1.27605,-2.07478 z m -78.02219,-6.01928 c 24.36344,-2.67989 54.47001,-7.77141 80.33027,-13.58517 l 18.22034,-4.09619 0.3836,-50.83988 c 0.21099,-27.96194 -0.13964,-51.36312 -0.77912,-52.00261 -0.6395,-0.6395 -10.56671,0.77205 -22.06048,3.13677 -43.66296,8.98322 -86.6528,12.97935 -151.73044,14.10416 -69.15991,1.19536 -98.4782,-1.34126 -162.997199,-14.1025 -12.284897,-2.42983 -23.107779,-4.56577 -24.050847,-4.7465 -1.293886,-0.24797 -1.602715,11.47562 -1.258462,47.77307 0.250915,26.45594 0.779058,49.83303 1.173652,51.94908 0.65955,3.5369 1.799004,4.09475 14.120065,6.91292 33.908555,7.75586 66.138014,13.13977 96.487361,16.11812 8.81865,0.86544 18.32966,1.83791 21.1356,2.16105 12.89284,1.48482 111.21318,-0.603 131.02566,-2.78232 z m -140.06596,-197.40846 -0.43428,-6.6792 -14.77639,0.22316 c -11.30586,0.17073 -15.68542,0.81878 -18.64676,2.75913 -3.74148,2.45151 -3.96896,2.43016 -6.830047,-0.64086 -2.687778,-2.88499 -4.179161,-3.13845 -16.234844,-2.75913 l -13.27518,0.4177 -1.171569,4.37288 c -2.496188,9.31704 -3.349579,9.10306 36.05998,9.04143 l 35.74338,-0.0558 -0.43429,-6.67921 0,-7e-5 z m 87.46762,0.24453 -0.44427,-6.92373 -6.55933,-0.0736 c -7.56184,-0.0848 -10.15648,1.35298 -10.31846,5.71819 -0.10058,2.71061 -0.29296,2.61586 -1.52742,-0.75225 -1.72531,-4.70736 -7.01518,-5.74328 -28.11667,-5.50617 -16.73026,0.188 -18.11282,0.54871 -19.87574,5.18552 -1.78441,4.69336 -4.14146,4.32733 -5.97334,-0.9276 -2.57508,-7.38691 -5.61209,-4.56159 -5.61209,5.22091 l 0,4.98248 39.43579,0 39.4358,0 -0.44427,-6.92373 z m 99.40318,-0.46334 0,-6.97887 -43.81092,0.30607 c -46.21151,0.32284 -46.47759,0.36262 -46.53964,6.95767 -0.0568,6.04709 2.09427,6.30958 53.54548,6.53369 l 36.80508,0.16031 z M 88.160746,151.3226 c 1.021527,-0.67463 1.983943,-10.50988 2.600893,-26.57938 0.538635,-14.02966 1.367082,-28.348355 1.840993,-31.819318 0.892063,-6.533532 4.163799,-9.539419 6.451179,-5.926981 0.708507,1.118938 1.298239,16.300959 1.310519,33.737829 l 0.0223,31.70339 11.66101,0 11.66102,0 0,-29.78647 c 0,-16.38255 0.6397,-31.468997 1.42155,-33.525423 1.62978,-4.286655 7.89161,-5.246076 9.35471,-1.433304 0.48662,1.268113 0.88476,16.354557 0.88476,33.525427 l 0,31.21977 11.66102,0 11.66101,0 0,-37.94512 c 0,-41.875027 -0.7177,-46.18778 -8.20205,-49.286546 -2.96925,-1.229364 -15.63928,-1.620527 -43.54371,-1.344327 l -39.355932,0.389547 -0.38578,44.093226 -0.38578,44.09322 9.860356,-0.0223 c 5.423196,-0.0117 10.590056,-0.50423 11.481912,-1.09322 l 0,-2e-5 z m 142.319124,0.17996 5.4661,-0.90348 0,-9.78752 0,-9.78751 -19.15433,-0.91621 c -10.53487,-0.50391 -19.32815,-1.09718 -19.54063,-1.31838 -0.21246,-0.22119 -0.86548,-14.99666 -1.45115,-32.834376 l -1.06484,-32.432203 -6.72503,-0.01605 c -3.69877,-0.0089 -9.18478,-0.422612 -12.19114,-0.919532 l -5.4661,-0.903485 0,45.377166 0,45.37716 27.33051,-0.016 c 15.03178,-0.009 29.79025,-0.42261 32.79661,-0.91953 l 0,-1e-5 z m 41.90678,-15.09832 0,-16.0339 14.57627,0 14.57627,0 0,16.09285 0,16.09284 12.02542,-0.42335 12.02543,-0.42336 0.38685,-41.96067 c 0.25143,-27.27254 -0.1492,-42.96228 -1.14451,-44.822036 -1.23836,-2.313887 -3.07379,-2.86136 -9.59285,-2.86136 -13.19669,0 -13.70034,0.641741 -13.70034,17.456786 0,9.874275 -0.5683,14.790186 -1.79762,15.549954 -0.98869,0.611046 -7.54801,1.385922 -14.57627,1.721947 l -12.77865,0.610956 0,-17.679999 0,-17.679999 -10.5678,0.860862 c -5.81229,0.473474 -11.38771,1.113398 -12.38983,1.422057 -1.40471,0.432661 -1.82203,10.587164 -1.82203,44.335762 l 0,43.77456 12.38983,0 12.38983,0 z"
     id="path4296"
     inkscape:connector-curvature="0"
     sodipodi:nodetypes="sssssscccccccccccccscscsscscscsccsssscccsscssssscccccccsssscsssssccsssssssssssscsssssssccssscssssssssssssccsssscssccccccssssssscccccccscscccsssscccsssscccssscccccccccccscsccscccccccccccccccsssssscccssscccc" /><flowRoot
     xml:space="preserve"
     id="flowRoot4304"
     style="font-style:normal;font-weight:normal;font-size:40px;line-height:125%;font-family:sans-serif;letter-spacing:0px;word-spacing:0px;fill:#000000;fill-opacity:1;stroke:none;stroke-width:1px;stroke-linecap:butt;stroke-linejoin:miter;stroke-opacity:1"
     transform="matrix(1.5378776,0,0,2.2805235,367.38217,129.49605)"><flowRegion
       id="flowRegion4306"><rect
         id="rect4308"
         width="161.7966"
         height="51.016953"
         x="-157.42374"
         y="205.52542" /></flowRegion><flowPara
       id="flowPara4310"
       style="font-style:normal;font-variant:normal;font-weight:100;font-stretch:normal;font-size:25px;font-family:Skia;-inkscape-font-specification:'Skia Thin'" /></flowRoot><text
     xml:space="preserve"
     style="font-style:normal;font-weight:normal;font-size:40px;line-height:125%;font-family:sans-serif;letter-spacing:0px;word-spacing:0px;fill:#000000;fill-opacity:1;stroke:none;stroke-width:1px;stroke-linecap:butt;stroke-linejoin:miter;stroke-opacity:1"
     x="511.62711"
     y="581.5932"
     id="text4312"
     sodipodi:linespacing="125%"><tspan
       sodipodi:role="line"
       id="tspan4314"
       x="511.62711"
       y="581.5932" /></text>
<text
     xml:space="preserve"
     style="font-style:normal;font-weight:normal;font-size:40px;line-height:125%;font-family:sans-serif;letter-spacing:0px;word-spacing:0px;fill:#000000;fill-opacity:1;stroke:none;stroke-width:1px;stroke-linecap:butt;stroke-linejoin:miter;stroke-opacity:1"
     x="915.38983"
     y="448.94916"
     id="text4316"
     sodipodi:linespacing="125%"><tspan
       sodipodi:role="line"
       id="tspan4318"
       x="915.38983"
       y="448.94916" /></text>
<path
     style="fill:#000000;fill-opacity:1;fill-rule:nonzero"
     d=""
     id="path4299"
     inkscape:connector-curvature="0" /><path
     style="fill:#000000;fill-opacity:1;fill-rule:nonzero"
     d="m 149.94597,391.93876 c -33.97519,-2.24874 -100.799377,-10.3302 -107.87735,-13.04627 -1.411216,-0.54153 -2.173501,-2.82422 -2.173501,-6.50861 0,-3.12101 0.328509,-5.67456 0.730019,-5.67456 0.401511,0 13.356172,1.95059 28.788136,4.33464 47.632196,7.3586 67.665536,9.25079 124.261506,11.73678 17.63729,0.77472 34.36356,2.01179 37.16949,2.74903 2.80593,0.73724 11.98899,2.19918 20.40678,3.24874 l 15.30509,1.90829 -9.47458,0.95953 c -9.5222,0.96436 -93.51975,1.19363 -107.13559,0.29243 z"
     id="path4301"
     inkscape:connector-curvature="0" /><path
     style="fill:#603c81;fill-opacity:1;fill-rule:nonzero"
     d="M 157.89342,401.81739 C 119.61038,399.66821 43.674813,380.74562 40.760488,378.16438 c -1.149286,-1.01795 -1.166977,-9.63243 -0.02187,-10.64667 0.558685,-0.49483 16.038515,1.15326 34.399625,3.66243 47.391327,6.47635 71.999057,8.64906 118.057437,10.42369 24.49258,0.94371 52.38862,3.01889 70.84615,5.27024 16.74513,2.04248 30.64054,3.88128 30.87871,4.08622 2.60746,2.24367 -99.98697,12.9365 -137.02712,10.8571 z"
     id="path4303"
     inkscape:connector-curvature="0"
     sodipodi:nodetypes="ssssssss" /></svg>