<?xml version="1.0" encoding="utf-8"?>
<!-- Generator: Adobe Illustrator 16.0.0, SVG Export Plug-In . SVG Version: 6.00 Build 0)  -->
<!DOCTYPE svg PUBLIC "-//W3C//DTD SVG 1.1//EN" "http://www.w3.org/Graphics/SVG/1.1/DTD/svg11.dtd">
<svg version="1.1" id="svg5358" xmlns:svg="http://www.w3.org/2000/svg"
	 xmlns="http://www.w3.org/2000/svg" xmlns:xlink="http://www.w3.org/1999/xlink" x="0px" y="0px" width="1033.746px"
	 height="220.695px" viewBox="0 0 1033.746 220.695" enable-background="new 0 0 1033.746 220.695" xml:space="preserve">
<path id="path5056" fill="#FFFFFF" d="M1033.746,99.839v-18.18h-22.576V53.394l-0.76,0.234l-21.205,6.487l-0.418,0.128v21.415
	h-33.469v-11.93c0-5.555,1.242-9.806,3.689-12.641c2.432-2.802,5.91-4.226,10.344-4.226c3.188,0,6.49,0.752,9.811,2.233l0.832,0.371
	V36.321l-0.391-0.144c-3.1-1.114-7.314-1.675-12.539-1.675c-6.584,0-12.568,1.432-17.785,4.272
	c-5.223,2.844-9.33,6.903-12.205,12.065c-2.869,5.156-4.324,11.111-4.324,17.701v13.117h-15.719v18.18h15.719v76.589h22.568V99.839
	h33.469v48.671c0,20.045,9.455,30.204,28.102,30.204c3.064,0,6.289-0.36,9.582-1.063c3.352-0.722,5.635-1.443,6.979-2.213
	l0.297-0.175v-18.349l-0.918,0.607c-1.225,0.817-2.75,1.483-4.539,1.979c-1.795,0.505-3.295,0.759-4.457,0.759
	c-4.369,0-7.6-1.178-9.605-3.5c-2.027-2.344-3.057-6.444-3.057-12.178V99.839H1033.746L1033.746,99.839z M866.634,160.26
	c-8.191,0-14.648-2.717-19.201-8.066c-4.578-5.378-6.898-13.044-6.898-22.784c0-10.049,2.32-17.913,6.902-23.386
	c4.553-5.437,10.949-8.195,19.014-8.195c7.824,0,14.053,2.635,18.514,7.836c4.486,5.228,6.76,13.03,6.76,23.196
	c0,10.292-2.139,18.196-6.359,23.484C881.175,157.594,874.875,160.26,866.634,160.26 M867.638,79.375
	c-15.627,0-28.039,4.579-36.889,13.61c-8.844,9.032-13.328,21.531-13.328,37.154c0,14.837,4.377,26.772,13.012,35.467
	c8.633,8.699,20.383,13.105,34.92,13.105c15.148,0,27.312-4.643,36.16-13.799c8.844-9.147,13.326-21.527,13.326-36.785
	c0-15.07-4.205-27.094-12.504-35.731C894.035,83.756,882.359,79.375,867.638,79.375 M781.035,79.375
	c-10.629,0-19.422,2.719-26.139,8.08c-6.758,5.393-10.186,12.466-10.186,21.024c0,4.449,0.74,8.401,2.195,11.753
	c1.467,3.364,3.734,6.324,6.744,8.809c2.99,2.465,7.604,5.048,13.719,7.674c5.139,2.115,8.973,3.905,11.406,5.315
	c2.381,1.381,4.07,2.771,5.023,4.123c0.928,1.324,1.398,3.136,1.398,5.373c0,6.366-4.768,9.464-14.578,9.464
	c-3.639,0-7.791-0.759-12.338-2.258c-4.551-1.496-8.801-3.647-12.635-6.406l-0.936-0.671v21.726l0.344,0.16
	c3.193,1.474,7.219,2.717,11.963,3.695c4.736,0.979,9.039,1.478,12.779,1.478c11.533,0,20.822-2.732,27.6-8.125
	c6.822-5.43,10.279-12.67,10.279-21.526c0-6.388-1.861-11.866-5.529-16.284c-3.643-4.382-9.965-8.404-18.785-11.961
	c-7.027-2.82-11.527-5.161-13.385-6.957c-1.789-1.736-2.697-4.191-2.697-7.301c0-2.756,1.121-4.963,3.424-6.752
	c2.322-1.798,5.551-2.711,9.604-2.711c3.76,0,7.607,0.594,11.434,1.757c3.824,1.164,7.182,2.723,9.984,4.63l0.922,0.63V83.504
	l-0.354-0.152c-2.588-1.109-5.996-2.058-10.139-2.828C788.029,79.76,784.289,79.375,781.035,79.375 M685.878,160.26
	c-8.189,0-14.648-2.717-19.199-8.066c-4.58-5.378-6.896-13.041-6.896-22.784c0-10.049,2.318-17.913,6.902-23.386
	c4.549-5.437,10.943-8.195,19.012-8.195c7.822,0,14.051,2.635,18.514,7.836c4.484,5.228,6.76,13.03,6.76,23.196
	c0,10.292-2.141,18.196-6.361,23.484C700.419,157.594,694.121,160.26,685.878,160.26 M686.886,79.375
	c-15.633,0-28.045,4.579-36.889,13.61c-8.844,9.032-13.332,21.531-13.332,37.154c0,14.844,4.381,26.772,13.014,35.467
	c8.635,8.699,20.383,13.105,34.92,13.105c15.145,0,27.314-4.643,36.16-13.799c8.842-9.147,13.326-21.527,13.326-36.785
	c0-15.07-4.207-27.094-12.506-35.731C713.277,83.756,701.603,79.375,686.886,79.375 M602.41,98.07V81.658h-22.293v94.767h22.293
	v-48.477c0-8.243,1.867-15.015,5.555-20.13c3.643-5.054,8.494-7.614,14.418-7.614c2.008,0,4.262,0.331,6.703,0.985
	c2.416,0.651,4.166,1.358,5.199,2.102l0.936,0.679V81.496l-0.361-0.155c-2.076-0.882-5.012-1.327-8.729-1.327
	c-5.602,0-10.615,1.8-14.908,5.344c-3.77,3.115-6.494,7.387-8.578,12.713H602.41z M540.195,79.375
	c-10.225,0-19.348,2.193-27.108,6.517c-7.775,4.332-13.788,10.519-17.879,18.385c-4.072,7.848-6.14,17.014-6.14,27.234
	c0,8.954,2.005,17.172,5.967,24.413c3.966,7.254,9.578,12.929,16.682,16.865c7.093,3.931,15.292,5.925,24.371,5.925
	c10.594,0,19.639-2.119,26.891-6.295l0.293-0.169v-20.423l-0.938,0.684c-3.285,2.393-6.955,4.303-10.906,5.68
	c-3.939,1.375-7.531,2.069-10.68,2.069c-8.748,0-15.77-2.737-20.867-8.132c-5.109-5.404-7.699-12.99-7.699-22.538
	c0-9.607,2.701-17.389,8.025-23.131c5.307-5.726,12.342-8.629,20.908-8.629c7.326,0,14.467,2.481,21.223,7.381l0.934,0.679V84.371
	l-0.303-0.17c-2.541-1.423-6.008-2.598-10.312-3.488C548.371,79.823,544.179,79.375,540.195,79.375 M473.715,81.659h-22.293v94.766
	h22.293V81.659z M462.796,41.288c-3.668,0-6.868,1.248-9.497,3.724c-2.64,2.482-3.98,5.607-3.98,9.295
	c0,3.63,1.324,6.697,3.938,9.113c2.598,2.409,5.808,3.63,9.54,3.63c3.731,0,6.954-1.221,9.583-3.626
	c2.646-2.42,3.987-5.487,3.987-9.117c0-3.559-1.305-6.652-3.879-9.195C469.918,42.574,466.656,41.288,462.796,41.288
	 M407.177,74.667v101.758h22.75V44.189H398.44l-40.022,98.221l-38.839-98.221H286.81v132.235h21.378V74.657h0.735l41.013,101.768
	h16.134l40.372-101.758H407.177z"/>
<path id="path5058" fill="#FFFFFF" d="M104.868,104.868H0V0h104.868V104.868z"/>
<path id="path5060" fill="#FFFFFF" d="M220.654,104.868H115.788V0h104.866V104.868z"/>
<path id="path5062" fill="#FFFFFF" d="M104.865,220.695H0V115.828h104.865V220.695z"/>
<path id="path5064" fill="#FFFFFF" d="M220.654,220.695H115.788V115.828h104.866V220.695z"/>
</svg>
