<?xml version="1.0" encoding="UTF-8" standalone="no"?>
<!-- Generator: Adobe Illustrator 16.0.0, SVG Export Plug-In . SVG Version: 6.00 Build 0)  -->

<svg
   xmlns:dc="http://purl.org/dc/elements/1.1/"
   xmlns:cc="http://creativecommons.org/ns#"
   xmlns:rdf="http://www.w3.org/1999/02/22-rdf-syntax-ns#"
   xmlns:svg="http://www.w3.org/2000/svg"
   xmlns="http://www.w3.org/2000/svg"
   xmlns:sodipodi="http://sodipodi.sourceforge.net/DTD/sodipodi-0.dtd"
   xmlns:inkscape="http://www.inkscape.org/namespaces/inkscape"
   version="1.1"
   id="svg5358"
   x="0px"
   y="0px"
   width="600"
   height="400"
   viewBox="0 0 600.00002 399.99999"
   enable-background="new 0 0 1033.746 220.695"
   xml:space="preserve"
   inkscape:version="0.91 r13725"
   sodipodi:docname="ms.svg"><metadata
     id="metadata12"><rdf:RDF><cc:Work
         rdf:about=""><dc:format>image/svg+xml</dc:format><dc:type
           rdf:resource="http://purl.org/dc/dcmitype/StillImage" /><dc:title></dc:title></cc:Work></rdf:RDF></metadata><defs
     id="defs10" /><sodipodi:namedview
     pagecolor="#000000"
     bordercolor="#666666"
     borderopacity="1"
     objecttolerance="10"
     gridtolerance="10"
     guidetolerance="10"
     inkscape:pageopacity="0"
     inkscape:pageshadow="2"
     inkscape:window-width="1920"
     inkscape:window-height="1056"
     id="namedview8"
     showgrid="false"
     inkscape:zoom="0.81535629"
     inkscape:cx="-236.69576"
     inkscape:cy="-7.5168855"
     inkscape:window-x="0"
     inkscape:window-y="24"
     inkscape:window-maximized="1"
     inkscape:current-layer="svg5358" /><g
     id="g4140"
     transform="matrix(0.55622894,0,0,0.55622894,12.500001,38.886903)"><path
       style="fill:#ffffff"
       inkscape:connector-curvature="0"
       d="m 1033.746,279.14399 0,-18.18 -22.576,0 0,-28.265 -0.76,0.234 -21.205,6.487 -0.418,0.128 0,21.415 -33.469,0 0,-11.93 c 0,-5.555 1.242,-9.806 3.689,-12.641 2.432,-2.802 5.91,-4.226 10.344,-4.226 3.188,0 6.49,0.752 9.811,2.233 l 0.832,0.371 0,-19.144 -0.391,-0.144 c -3.1,-1.114 -7.314,-1.675 -12.539,-1.675 -6.584,0 -12.568,1.432 -17.785,4.272 -5.223,2.844 -9.33,6.903 -12.205,12.065 -2.869,5.156 -4.324,11.111 -4.324,17.701 l 0,13.117 -15.719,0 0,18.18 15.719,0 0,76.589 22.568,0 0,-76.587 33.469,0 0,48.671 c 0,20.045 9.455,30.204 28.102,30.204 3.064,0 6.289,-0.36 9.582,-1.063 3.352,-0.722 5.635,-1.443 6.979,-2.213 l 0.297,-0.175 0,-18.349 -0.918,0.607 c -1.225,0.817 -2.75,1.483 -4.539,1.979 -1.795,0.505 -3.295,0.759 -4.457,0.759 -4.369,0 -7.6,-1.178 -9.605,-3.5 -2.027,-2.344 -3.057,-6.444 -3.057,-12.178 l 0,-44.742 22.575,0 0,0 z m -167.112,60.421 c -8.191,0 -14.648,-2.717 -19.201,-8.066 -4.578,-5.378 -6.898,-13.044 -6.898,-22.784 0,-10.049 2.32,-17.913 6.902,-23.386 4.553,-5.437 10.949,-8.195 19.014,-8.195 7.824,0 14.053,2.635 18.514,7.836 4.486,5.228 6.76,13.03 6.76,23.196 0,10.292 -2.139,18.196 -6.359,23.484 -4.191,5.249 -10.491,7.915 -18.732,7.915 m 1.004,-80.885 c -15.627,0 -28.039,4.579 -36.889,13.61 -8.844,9.032 -13.328,21.531 -13.328,37.154 0,14.837 4.377,26.772 13.012,35.467 8.633,8.699 20.383,13.105 34.92,13.105 15.148,0 27.312,-4.643 36.16,-13.799 8.844,-9.147 13.326,-21.527 13.326,-36.785 0,-15.07 -4.205,-27.094 -12.504,-35.731 -8.3,-8.64 -19.976,-13.021 -34.697,-13.021 m -86.603,0 c -10.629,0 -19.422,2.719 -26.139,8.08 -6.758,5.393 -10.186,12.466 -10.186,21.024 0,4.449 0.74,8.401 2.195,11.753 1.467,3.364 3.734,6.324 6.744,8.809 2.99,2.465 7.604,5.048 13.719,7.674 5.139,2.115 8.973,3.905 11.406,5.315 2.381,1.381 4.07,2.771 5.023,4.123 0.928,1.324 1.398,3.136 1.398,5.373 0,6.366 -4.768,9.464 -14.578,9.464 -3.639,0 -7.791,-0.759 -12.338,-2.258 -4.551,-1.496 -8.801,-3.647 -12.635,-6.406 l -0.936,-0.671 0,21.726 0.344,0.16 c 3.193,1.474 7.219,2.717 11.963,3.695 4.736,0.979 9.039,1.478 12.779,1.478 11.533,0 20.822,-2.732 27.6,-8.125 6.822,-5.43 10.279,-12.67 10.279,-21.526 0,-6.388 -1.861,-11.866 -5.529,-16.284 -3.643,-4.382 -9.965,-8.404 -18.785,-11.961 -7.027,-2.82 -11.527,-5.161 -13.385,-6.957 -1.789,-1.736 -2.697,-4.191 -2.697,-7.301 0,-2.756 1.121,-4.963 3.424,-6.752 2.322,-1.798 5.551,-2.711 9.604,-2.711 3.76,0 7.607,0.594 11.434,1.757 3.824,1.164 7.182,2.723 9.984,4.63 l 0.922,0.63 0,-20.61 -0.354,-0.152 c -2.588,-1.109 -5.996,-2.058 -10.139,-2.828 -4.123,-0.764 -7.863,-1.149 -11.117,-1.149 m -95.157,80.885 c -8.189,0 -14.648,-2.717 -19.199,-8.066 -4.58,-5.378 -6.896,-13.041 -6.896,-22.784 0,-10.049 2.318,-17.913 6.902,-23.386 4.549,-5.437 10.943,-8.195 19.012,-8.195 7.822,0 14.051,2.635 18.514,7.836 4.484,5.228 6.76,13.03 6.76,23.196 0,10.292 -2.141,18.196 -6.361,23.484 -4.191,5.249 -10.489,7.915 -18.732,7.915 m 1.008,-80.885 c -15.633,0 -28.045,4.579 -36.889,13.61 -8.844,9.032 -13.332,21.531 -13.332,37.154 0,14.844 4.381,26.772 13.014,35.467 8.635,8.699 20.383,13.105 34.92,13.105 15.145,0 27.314,-4.643 36.16,-13.799 8.842,-9.147 13.326,-21.527 13.326,-36.785 0,-15.07 -4.207,-27.094 -12.506,-35.731 -8.302,-8.64 -19.976,-13.021 -34.693,-13.021 m -84.476,18.695 0,-16.412 -22.293,0 0,94.767 22.293,0 0,-48.477 c 0,-8.243 1.867,-15.015 5.555,-20.13 3.643,-5.054 8.494,-7.614 14.418,-7.614 2.008,0 4.262,0.331 6.703,0.985 2.416,0.651 4.166,1.358 5.199,2.102 l 0.936,0.679 0,-22.474 -0.361,-0.155 c -2.076,-0.882 -5.012,-1.327 -8.729,-1.327 -5.602,0 -10.615,1.8 -14.908,5.344 -3.77,3.115 -6.494,7.387 -8.578,12.713 l -0.235,0 z m -62.215,-18.695 c -10.225,0 -19.348,2.193 -27.108,6.517 -7.775,4.332 -13.788,10.519 -17.879,18.385 -4.072,7.848 -6.14,17.014 -6.14,27.234 0,8.954 2.005,17.172 5.967,24.413 3.966,7.254 9.578,12.929 16.682,16.865 7.093,3.931 15.292,5.925 24.371,5.925 10.594,0 19.639,-2.119 26.891,-6.295 l 0.293,-0.169 0,-20.423 -0.938,0.684 c -3.285,2.393 -6.955,4.303 -10.906,5.68 -3.939,1.375 -7.531,2.069 -10.68,2.069 -8.748,0 -15.77,-2.737 -20.867,-8.132 -5.109,-5.404 -7.699,-12.99 -7.699,-22.538 0,-9.607 2.701,-17.389 8.025,-23.131 5.307,-5.726 12.342,-8.629 20.908,-8.629 7.326,0 14.467,2.481 21.223,7.381 l 0.934,0.679 0,-21.519 -0.303,-0.17 c -2.541,-1.423 -6.008,-2.598 -10.312,-3.488 -4.286,-0.89 -8.478,-1.338 -12.462,-1.338 m -66.48,2.284 -22.293,0 0,94.766 22.293,0 0,-94.766 z m -10.919,-40.371 c -3.668,0 -6.868,1.248 -9.497,3.724 -2.64,2.482 -3.98,5.607 -3.98,9.295 0,3.63 1.324,6.697 3.938,9.113 2.598,2.409 5.808,3.63 9.54,3.63 3.731,0 6.954,-1.221 9.583,-3.626 2.646,-2.42 3.987,-5.487 3.987,-9.117 0,-3.559 -1.305,-6.652 -3.879,-9.195 -2.57,-2.538 -5.832,-3.824 -9.692,-3.824 m -55.619,33.379 0,101.758 22.75,0 0,-132.236 -31.487,0 -40.022,98.221 -38.839,-98.221 -32.769,0 0,132.235 21.378,0 0,-101.767 0.735,0 41.013,101.768 16.134,0 40.372,-101.758 0.735,0 z"
       id="path5056" /><path
       style="fill:#ffffff"
       inkscape:connector-curvature="0"
       d="m 104.868,284.17299 -104.868,0 0,-104.868 104.868,0 0,104.868 z"
       id="path5058" /><path
       style="fill:#ffffff"
       inkscape:connector-curvature="0"
       d="m 220.654,284.17299 -104.866,0 0,-104.868 104.866,0 0,104.868 z"
       id="path5060" /><path
       style="fill:#ffffff"
       inkscape:connector-curvature="0"
       d="m 104.865,399.99999 -104.865,0 0,-104.867 104.865,0 0,104.867 z"
       id="path5062" /><path
       style="fill:#ffffff"
       inkscape:connector-curvature="0"
       d="m 220.654,399.99999 -104.866,0 0,-104.867 104.866,0 0,104.867 z"
       id="path5064" /></g></svg>