<?xml version="1.0" encoding="UTF-8" standalone="no"?>
<!-- Created with Inkscape (http://www.inkscape.org/) -->

<svg
   xmlns:dc="http://purl.org/dc/elements/1.1/"
   xmlns:cc="http://creativecommons.org/ns#"
   xmlns:rdf="http://www.w3.org/1999/02/22-rdf-syntax-ns#"
   xmlns:svg="http://www.w3.org/2000/svg"
   xmlns="http://www.w3.org/2000/svg"
   xmlns:sodipodi="http://sodipodi.sourceforge.net/DTD/sodipodi-0.dtd"
   xmlns:inkscape="http://www.inkscape.org/namespaces/inkscape"
   width="41.869297mm"
   height="41.644501mm"
   viewBox="0 0 148.35578 147.55925"
   id="svg2"
   version="1.1"
   inkscape:version="0.91 r13725"
   sodipodi:docname="SDS.svg">
  <defs
     id="defs4" />
  <sodipodi:namedview
     id="base"
     pagecolor="#8e888e"
     bordercolor="#666666"
     borderopacity="1.0"
     inkscape:pageopacity="0"
     inkscape:pageshadow="2"
     inkscape:zoom="1.4"
     inkscape:cx="75.352739"
     inkscape:cy="222.64383"
     inkscape:document-units="px"
     inkscape:current-layer="layer1"
     showgrid="false"
     fit-margin-top="0"
     fit-margin-left="0"
     fit-margin-right="0"
     fit-margin-bottom="0"
     inkscape:window-width="1535"
     inkscape:window-height="876"
     inkscape:window-x="65"
     inkscape:window-y="24"
     inkscape:window-maximized="1" />
  <metadata
     id="metadata7">
    <rdf:RDF>
      <cc:Work
         rdf:about="">
        <dc:format>image/svg+xml</dc:format>
        <dc:type
           rdf:resource="http://purl.org/dc/dcmitype/StillImage" />
        <dc:title></dc:title>
      </cc:Work>
    </rdf:RDF>
  </metadata>
  <g
     inkscape:label="Layer 1"
     inkscape:groupmode="layer"
     id="layer1"
     transform="translate(-299.64726,-810.60266)">
    <path
       style="fill:#ffffff"
       d="m 358.65455,957.47413 c -24.19692,-5.0496 -47.29648,-25.46954 -54.98961,-48.61068 -14.00612,-42.13077 9.803,-85.59866 52.83698,-96.46355 7.03482,-1.7761 10.34583,-2.04464 20,-1.62213 6.36323,0.27849 14.26951,1.25326 17.56951,2.16616 13.88994,3.84245 28.94957,13.86896 38.05918,25.33931 5.48027,6.90048 11.67707,19.35326 14.04387,28.22183 2.60126,9.74718 2.39968,27.26852 -0.42925,37.30932 -6.887,24.44421 -24.56655,43.07938 -48.6738,51.30473 -6.82185,2.32761 -9.9145,2.76988 -21,3.00318 -7.15,0.15047 -14.98759,-0.14121 -17.41688,-0.64817 z m 35.95883,-38.05217 c 5.71475,-11.32085 5.82872,-10.45328 -1.88343,-14.33706 l -6.7919,-3.42035 -4.23369,8.53655 c -2.32853,4.69509 -4.09852,8.65537 -3.93331,8.80061 0.73757,0.6484 12.37714,6.41218 13.03599,6.45526 0.40458,0.0265 2.11743,-2.6893 3.80634,-6.03501 z m 15.64295,-17.98051 c 6.42628,-2.42802 12.24949,-10.94245 12.29314,-17.97449 0.0298,-4.80578 -3.68116,-11.71205 -8.24339,-15.34122 -7.59742,-6.0436 -20.05772,-4.30793 -26.11854,3.63821 -7.4987,9.83131 -4.63657,22.9799 6.25494,28.73513 4.03775,2.13361 11.48619,2.57747 15.81385,0.94237 z m -21.6849,-11.43638 c 0,-0.825 0.41383,-1.5 0.91963,-1.5 1.49504,0 4.58691,-10.33115 3.22748,-10.7843 -0.63091,-0.2103 -1.14711,-1.01987 -1.14711,-1.79903 0,-1.05051 1.42157,-1.41667 5.5,-1.41667 4.07843,0 5.5,0.36616 5.5,1.41667 0,0.77916 -0.44514,1.56666 -0.9892,1.75 -1.14705,0.38652 1.91956,10.83333 3.18007,10.83333 0.44502,0 0.80913,0.675 0.80913,1.5 0,1.08333 -1.11111,1.5 -4,1.5 -2.78431,0 -4,-0.43056 -4,-1.41667 0,-0.77916 0.52967,-1.59322 1.17705,-1.80901 1.71487,-0.57163 0.0245,-2.77432 -2.12908,-2.77432 -1.0087,0 -2.09301,0.675 -2.4096,1.5 -0.31658,0.825 -0.13972,1.5 0.39301,1.5 0.53274,0 0.96862,0.675 0.96862,1.5 0,1.04762 -1.05556,1.5 -3.5,1.5 -2.44444,0 -3.5,-0.45238 -3.5,-1.5 z m 9.22717,-9.09195 c -0.3618,-1.89263 -0.72496,-2.22988 -1.34601,-1.25 -1.27922,2.01832 -1.0513,3.84195 0.48017,3.84195 0.92573,0 1.20278,-0.82936 0.86584,-2.59195 z m 9.77283,7.59195 c 0,-3.51735 0.8914,-3.77563 3.3044,-0.95745 0.96189,1.1234 2.1869,1.77184 2.72224,1.44098 1.78793,-1.105 0.92686,-2.96436 -2.31516,-4.99927 -5.96767,-3.74571 -4.49406,-9.48925 2.36448,-9.21575 3.37617,0.13463 3.92404,0.47586 3.92404,2.44398 0,2.56388 -1.10507,2.86335 -3.96809,1.07537 -1.06752,-0.66668 -2.29892,-0.83891 -2.73643,-0.38272 -0.43751,0.45619 0.0408,1.33915 1.06285,1.96214 4.62874,2.82138 6.64167,4.94451 6.64167,7.0053 0,3.31315 -1.90292,4.62742 -6.7,4.62742 -4.11111,0 -4.3,-0.13178 -4.3,-3 z m -76.94427,3.94427 c 4.13272,-4.13272 1.79393,-9.51187 -5.80573,-13.35298 -3.56432,-1.80152 -4.1375,-3.31349 -1.62204,-4.27877 1.03928,-0.3988 2.25863,0.2114 3.37204,1.68748 2.44255,3.23817 5,2.04278 5,-2.33708 l 0,-3.39985 -5.58138,-0.0502 c -6.3224,-0.0568 -9.41862,2.00996 -9.41862,6.28708 0,2.77834 2.10241,5.14499 6.84339,7.70349 3.43497,1.85371 4.14116,4.48147 1.4789,5.50308 -1.10034,0.42224 -2.17473,-0.10478 -3.12197,-1.53139 -0.79434,-1.19635 -2.28938,-2.17518 -3.32229,-2.17518 -1.51288,0 -1.87803,0.7502 -1.87803,3.85841 l 0,3.85841 6.05573,0.0859 c 4.74124,0.0672 6.47776,-0.33617 8,-1.85841 z m 18.84362,0.41368 c 2.04765,-1.43424 2.14077,-1.75599 0.73576,-2.54228 -0.99967,-0.55944 -2.38502,-0.4847 -3.65963,0.19745 -2.17936,1.16636 -5.97548,0.47993 -5.97548,-1.08051 0,-0.51293 0.004,-1.25815 0.009,-1.65603 0.005,-0.39788 2.47998,-0.62328 5.5,-0.50088 5.11179,0.20717 5.4909,0.0654 5.4909,-2.05407 0,-5.39871 -5.83932,-8.87381 -11.37464,-6.76929 -3.48077,1.32339 -6.00274,6.92488 -4.68191,10.39892 1.99992,5.26019 9.21067,7.33037 13.9559,4.00669 z m -9.29065,-9.78063 c 0.78068,-2.03441 3.41082,-2.80601 5.01805,-1.47213 2.28391,1.89548 1.56056,2.89481 -2.09536,2.89481 -2.58859,0 -3.33011,-0.36095 -2.92269,-1.42268 z m 34.03821,9.49634 c 6.19929,-3.78011 6.85735,-13.30025 1.28815,-18.63588 -2.90345,-2.78168 -3.45225,-2.9131 -12.21468,-2.92516 -7.94517,-0.0109 -9.22102,0.22189 -9.52083,1.73738 -0.24042,1.21528 0.28731,1.75 1.72713,1.75 1.92498,0 2.07332,0.57236 2.07332,8 0,7.33333 -0.16667,8 -2,8 -1.92719,0 -2.7099,1.95677 -1.33333,3.33333 0.36666,0.36667 4.30416,0.66499 8.75,0.66293 6.20465,-0.003 8.81471,-0.44971 11.23024,-1.9226 z m -10.64691,-9.51464 c 0,-4.09254 0.41224,-7.69576 0.91608,-8.00716 1.17938,-0.72889 6.3145,1.21357 7.29825,2.7607 0.41528,0.65309 0.76194,2.87494 0.77036,4.93744 0.0181,4.42502 -2.76406,7.75 -6.48469,7.75 -2.44268,0 -2.5,-0.1706 -2.5,-7.44098 z m 61.06461,-26.07716 c 2.16446,-4.68497 3.93539,-8.76319 3.93539,-9.06271 0,-0.64083 -13.08622,-6.6817 -13.49158,-6.22799 -0.15176,0.16986 -2.12976,4.01437 -4.39555,8.54335 l -4.11962,8.23451 6.75338,3.46631 c 3.71435,1.90647 6.89494,3.48844 7.06798,3.51549 0.17304,0.0271 2.08554,-3.78398 4.25,-8.46896 z"
       id="path3380"
       inkscape:connector-curvature="0" />
  </g>
</svg>
