<?xml version="1.0" encoding="UTF-8" standalone="no"?>
<!-- Generator: Adobe Illustrator 16.0.0, SVG Export Plug-In . SVG Version: 6.00 Build 0)  -->

<svg
   xmlns:dc="http://purl.org/dc/elements/1.1/"
   xmlns:cc="http://creativecommons.org/ns#"
   xmlns:rdf="http://www.w3.org/1999/02/22-rdf-syntax-ns#"
   xmlns:svg="http://www.w3.org/2000/svg"
   xmlns="http://www.w3.org/2000/svg"
   xmlns:sodipodi="http://sodipodi.sourceforge.net/DTD/sodipodi-0.dtd"
   xmlns:inkscape="http://www.inkscape.org/namespaces/inkscape"
   version="1.1"
   id="Layer_1"
   x="0px"
   y="0px"
   width="600"
   height="400"
   viewBox="0 0 600 399.99999"
   enable-background="new 0 0 864.724 193.658"
   xml:space="preserve"
   inkscape:version="0.91 r13725"
   sodipodi:docname="sl.svg"><metadata
     id="metadata65"><rdf:RDF><cc:Work
         rdf:about=""><dc:format>image/svg+xml</dc:format><dc:type
           rdf:resource="http://purl.org/dc/dcmitype/StillImage" /><dc:title></dc:title></cc:Work></rdf:RDF></metadata><defs
     id="defs63" /><sodipodi:namedview
     pagecolor="#000000"
     bordercolor="#666666"
     borderopacity="1"
     objecttolerance="10"
     gridtolerance="10"
     guidetolerance="10"
     inkscape:pageopacity="0"
     inkscape:pageshadow="2"
     inkscape:window-width="1920"
     inkscape:window-height="1056"
     id="namedview61"
     showgrid="false"
     inkscape:zoom="0.97472868"
     inkscape:cx="308.39573"
     inkscape:cy="51.232329"
     inkscape:window-x="0"
     inkscape:window-y="24"
     inkscape:window-maximized="1"
     inkscape:current-layer="Layer_1" /><g
     id="g3"
     transform="matrix(0.66495129,0,0,0.66495129,12.499998,135.61338)"><path
       d="m 864.46,115.756 c 0.093,0.546 0.193,0.9 0.202,1.257 0.009,0.364 -0.072,0.731 -0.143,1.351 -287.823,0 -575.643,0 -863.744,0 -0.08,-0.741 -0.165,-1.537 -0.28,-2.607 288.005,-0.001 575.825,-0.001 863.965,-0.001 z"
       id="path5"
       inkscape:connector-curvature="0"
       style="clip-rule:evenodd;fill:#ffffff;fill-rule:evenodd" /><path
       d="m 204.587,72.142 c -19.017,-0.044 -33.16,-11.595 -35.36,-28.901 -3.361,-26.45 16.184,-45.651 42.791,-41.845 13.776,1.97 23.79,9.241 27.908,22.778 4.315,14.182 2.481,27.583 -8.518,38.452 -7.335,7.249 -16.78,9.447 -26.821,9.516 z M 225.33,40.795 C 225.046,29.701 223.968,21.693 219.422,14.596 215.646,8.7 210.446,5.338 203.155,5.942 c -6.982,0.579 -11.725,4.491 -14.188,10.666 -5.57,13.97 -4.875,27.89 2.072,41.235 3.396,6.524 9.205,9.772 16.665,9.319 7.86,-0.478 12.638,-5.233 14.78,-12.349 1.64,-5.44 2.293,-11.18 2.846,-14.018 z"
       id="path7"
       inkscape:connector-curvature="0"
       style="clip-rule:evenodd;fill:#ffffff;fill-rule:evenodd" /><path
       d="m 0,51.766 c 2.983,-2.241 3.989,-1.169 5.219,1.005 1.945,3.438 3.981,7.015 6.761,9.732 2.184,2.135 5.409,3.595 8.425,4.391 4.091,1.08 8.007,-0.167 10.688,-3.7 2.66,-3.505 2.679,-7.427 0.955,-11.35 C 30.201,47.643 26.72,45.008 22.919,42.74 19.493,40.696 15.921,38.869 12.635,36.623 8.631,33.885 5.633,30.21 4.299,25.429 1.139,14.1 8.27,3.799 20.728,1.494 c 7.578,-1.403 14.877,-0.366 22.671,2.24 0.565,4.737 1.147,9.624 1.781,14.939 -1.725,0.179 -2.864,0.298 -3.887,0.404 C 39.77,16.361 38.609,13.864 37.065,11.632 34.148,7.418 30.177,5.233 24.866,6.03 c -6.963,1.043 -10.575,8.399 -6.474,14.1 1.961,2.727 4.966,4.843 7.821,6.753 3.826,2.559 8.16,4.372 11.925,7.004 5.966,4.172 9.291,9.966 9.208,17.472 -0.081,7.376 -3.19,13.174 -9.585,16.693 C 27.174,73.878 16.184,73.347 5.267,68.882 4.083,68.398 2.821,66.888 2.535,65.638 1.459,60.949 0.773,56.171 0,51.766 Z"
       id="path9"
       inkscape:connector-curvature="0"
       style="clip-rule:evenodd;fill:#ffffff;fill-rule:evenodd" /><path
       d="m 138.084,50.863 c 1.117,0.198 2.153,0.382 3.482,0.618 -0.223,5.563 -1.243,10.648 -3.249,15.508 -0.318,0.771 -1.357,1.484 -2.212,1.759 -12.061,3.867 -24.261,4.914 -36.468,0.879 C 86.389,65.249 77.952,56.365 76.241,42.237 74.386,26.926 79.757,14.676 93.294,6.706 c 8.798,-5.18 18.567,-6.533 28.601,-5.629 5.427,0.489 10.8,1.581 16.198,2.4 0.433,5.783 0.824,10.994 1.247,16.647 -1.038,0.324 -2.103,0.657 -3.283,1.025 -0.561,-1.134 -1.025,-1.867 -1.304,-2.665 -5.267,-15.038 -23.327,-15.594 -32.191,-7.578 -2.452,2.218 -4.822,4.919 -6.182,7.88 -5.661,12.333 -5.454,24.789 1.069,36.742 4.846,8.879 13.776,12.911 23.346,11.283 5.912,-1.005 10.288,-4.334 13.503,-9.253 1.291,-1.975 2.336,-4.111 3.786,-6.695 z"
       id="path11"
       inkscape:connector-curvature="0"
       style="clip-rule:evenodd;fill:#ffffff;fill-rule:evenodd" /><path
       d="m 332.475,0.015 c -0.538,6.602 -1.021,12.544 -1.532,18.821 -0.891,0.158 -1.923,0.34 -3.099,0.547 -2.005,-4.048 -1.953,-9.518 -6.761,-10.892 -4.059,-1.16 -8.523,-0.898 -13.095,-1.291 -0.195,2.117 -0.423,3.453 -0.425,4.789 -0.024,14.877 -0.045,29.754 0,44.631 0.027,8.732 0.081,8.731 9.564,10.639 0.072,0.926 0.152,1.954 0.252,3.228 -11.711,0 -23.036,0 -34.729,0 0,-1.07 0,-2.174 0,-3.343 2.248,-0.325 4.216,-0.608 6.184,-0.896 2.179,-0.318 3.298,-1.647 3.475,-3.778 0.165,-1.992 0.346,-3.991 0.35,-5.986 0.03,-14.877 0.022,-29.755 0.007,-44.631 0,-1.227 -0.139,-2.455 -0.263,-4.496 -4.393,0.249 -8.643,0.029 -12.686,0.844 -4.384,0.883 -5.876,5.038 -7.59,8.674 -1.356,2.877 -1.378,2.866 -4.626,1.471 1.094,-5.908 2.198,-11.871 3.359,-18.146 0.912,0.054 2.135,-0.209 2.433,0.2 1.608,2.213 3.898,1.99 6.115,1.993 14.876,0.023 29.754,0.081 44.629,-0.075 1.933,-0.02 3.845,-1.226 5.786,-1.82 0.759,-0.232 1.57,-0.293 2.652,-0.483 z"
       id="path13"
       inkscape:connector-curvature="0"
       style="clip-rule:evenodd;fill:#ffffff;fill-rule:evenodd" /><path
       d="m 423.457,0 c -0.565,6.616 -1.072,12.561 -1.611,18.862 -0.869,0.144 -1.899,0.315 -3.05,0.506 -1.965,-3.953 -1.883,-9.295 -6.439,-10.73 -4.03,-1.27 -8.525,-1.067 -13.209,-1.556 -0.235,1.888 -0.51,3.074 -0.512,4.26 -0.017,15.501 0.003,31.001 0.02,46.502 10e-4,0.75 0.04,1.5 0.08,2.249 0.277,5.137 0.952,5.895 6.167,6.562 2.068,0.265 4.244,0.26 3.215,3.718 -11.355,0 -22.773,0 -34.609,0 -0.049,-0.919 -0.102,-1.919 -0.168,-3.17 2.054,-0.274 3.758,-0.538 5.471,-0.722 2.73,-0.293 4.381,-1.625 4.551,-4.498 0.082,-1.371 0.297,-2.737 0.3,-4.106 0.023,-15.501 0.021,-31.002 0.006,-46.503 -10e-4,-1.094 -0.164,-2.188 -0.272,-3.546 -4.179,0 -8.246,-0.596 -12.007,0.218 -2.333,0.505 -4.372,2.986 -6.218,4.894 -1.076,1.11 -1.582,2.811 -2.22,4.299 -1.096,2.553 -2.572,2.744 -4.518,1.019 1.126,-5.997 2.228,-11.858 3.368,-17.933 0.891,0 2.15,-0.327 2.424,0.054 1.601,2.221 3.892,2.012 6.112,2.016 14.75,0.026 29.501,0.035 44.252,0.005 2.21,-0.005 4.512,0.231 6.215,-1.854 0.384,-0.472 1.511,-0.338 2.652,-0.546 z"
       id="path15"
       inkscape:connector-curvature="0"
       style="clip-rule:evenodd;fill:#ffffff;fill-rule:evenodd" /><path
       d="M 587.894,72.111 C 566.926,72.04 551.614,57.09 551.753,36.823 c 0.143,-20.7 15.944,-36.056 37.033,-35.988 20.887,0.066 35.565,14.637 35.568,35.304 0.005,20.675 -15.571,36.043 -36.46,35.972 z M 561.621,33.739 c 0.772,9.749 2.807,18.788 9.115,26.332 11.335,13.558 32.935,11.155 39.783,-4.834 6.05,-14.124 4.538,-28.236 -3.946,-41.082 -5.404,-8.181 -13.809,-10.842 -23.312,-9.558 -9.09,1.228 -15.398,6.479 -18.481,15.008 -1.628,4.504 -2.143,9.41 -3.159,14.134 z"
       id="path17"
       inkscape:connector-curvature="0"
       style="clip-rule:evenodd;fill:#ffffff;fill-rule:evenodd" /><path
       d="m 692.213,42.98 c 8.684,0 17.367,0 26.051,0 0.175,0.237 0.35,0.475 0.524,0.712 -0.713,0.663 -1.355,1.782 -2.152,1.907 -3.309,0.518 -4.306,2.592 -4.312,5.557 -0.009,2.997 -0.246,6.014 0.017,8.987 0.229,2.603 1.014,5.158 1.698,8.435 -5.525,1.043 -11.655,2.53 -17.874,3.289 -7.111,0.867 -14.206,0.179 -21.114,-1.956 -15.045,-4.651 -24.732,-16.817 -25.01,-31.468 -0.312,-16.5 8.529,-29.472 23.841,-34.77 9.298,-3.217 18.83,-3.552 28.465,-1.828 2.937,0.526 5.855,1.16 8.995,1.787 0.56,4.942 1.114,9.831 1.792,15.814 -1.536,-0.857 -2.904,-1.145 -3.148,-1.832 -1.888,-5.294 -4.771,-9.671 -10.269,-11.681 -7.069,-2.583 -14.266,-2.418 -21.315,-0.08 -10.493,3.48 -15.829,11.421 -17.416,21.915 -1.272,8.406 -0.29,16.68 3.305,24.531 6.979,15.24 22.509,18.234 34.198,15.66 3.688,-0.812 4.761,-2.23 4.902,-6.034 0.129,-3.492 0.115,-6.996 -0.007,-10.488 -0.127,-3.621 -0.982,-4.54 -4.581,-5.215 -1.59,-0.299 -3.271,-0.207 -4.812,-0.639 -0.862,-0.242 -1.522,-1.196 -2.275,-1.829 0.165,-0.258 0.331,-0.516 0.497,-0.774 z"
       id="path19"
       inkscape:connector-curvature="0"
       style="clip-rule:evenodd;fill:#ffffff;fill-rule:evenodd" /><path
       d="m 861.476,4.063 c 0.496,5.212 0.955,10.03 1.521,15.973 -1.516,-0.88 -2.871,-1.193 -3.082,-1.864 -1.649,-5.258 -4.449,-9.542 -9.65,-11.778 -6.203,-2.667 -12.675,-2.666 -19.124,-1.163 -9.655,2.25 -16.193,8.175 -19.221,17.604 -3.216,10.015 -2.814,20.004 1.684,29.578 5.814,12.373 20.076,18.979 33.243,15.593 6.441,-1.657 11.005,-5.67 13.993,-11.552 0.709,-1.396 1.15,-3.219 3.885,-2.003 -0.619,4.775 -2.058,9.31 -4.526,13.51 -0.321,0.546 -1.179,0.878 -1.857,1.1 -11.723,3.824 -23.553,4.433 -35.341,0.524 -14.246,-4.724 -23.192,-16.856 -23.562,-31.463 -0.385,-15.233 7.978,-27.969 22.156,-33.764 11.095,-4.535 22.448,-4.117 33.896,-1.769 1.94,0.397 3.851,0.945 5.985,1.474 z"
       id="path21"
       inkscape:connector-curvature="0"
       style="clip-rule:evenodd;fill:#ffffff;fill-rule:evenodd" /><path
       d="m 528.961,56.285 c -1.39,4.718 -2.78,9.434 -4.191,14.221 -16.596,0 -32.797,0 -49.774,0 0.574,-1.065 0.777,-2.052 1.342,-2.348 0.84,-0.439 1.933,-0.404 2.922,-0.548 3.964,-0.573 4.814,-1.417 5.236,-5.483 0.193,-1.861 0.306,-3.74 0.31,-5.611 0.025,-13.25 0.017,-26.5 0.006,-39.749 -0.002,-1.374 -0.046,-2.751 -0.147,-4.121 -0.456,-6.14 -0.795,-6.5 -6.994,-7.442 -1.438,-0.219 -2.896,-0.338 -2.056,-2.686 8.734,0 17.54,0 26.367,0 0.986,2.048 -0.222,2.4 -1.748,2.674 -6.075,1.089 -6.733,1.743 -6.768,8.017 -0.079,14.625 -0.1,29.25 0.002,43.874 0.052,7.538 1.979,9.433 9.588,9.831 3.239,0.169 6.505,-0.142 9.739,0.062 5.528,0.346 8.94,-2.414 11.217,-7.09 0.492,-1.01 0.849,-2.129 1.531,-2.991 0.545,-0.688 1.489,-1.061 2.256,-1.573 0.387,0.321 0.775,0.642 1.162,0.963 z"
       id="path23"
       inkscape:connector-curvature="0"
       style="clip-rule:evenodd;fill:#ffffff;fill-rule:evenodd" /><path
       d="m 774.581,68.965 c -1.268,0.88 -1.868,1.658 -2.476,1.664 -8.339,0.081 -16.679,0.054 -24.858,0.054 -1.012,-2.545 0.576,-2.85 1.919,-2.887 5.502,-0.152 6.649,-2.664 6.66,-7.874 0.034,-15.619 0.066,-31.238 -0.017,-46.856 -0.033,-6.161 -0.645,-6.64 -6.899,-7.952 -0.85,-0.179 -1.547,-1.086 -2.834,-2.042 5.364,-1.338 25.904,-0.834 28.383,0.989 -1.807,0.511 -3.039,1.006 -4.316,1.192 -3.867,0.561 -5.148,1.558 -5.277,5.455 -0.269,8.113 -0.319,16.235 -0.341,24.354 -0.022,8.495 -0.04,16.995 0.199,25.485 0.164,5.783 0.626,6.047 6.414,7.21 0.903,0.181 1.757,0.606 3.443,1.208 z"
       id="path25"
       inkscape:connector-curvature="0"
       style="clip-rule:evenodd;fill:#ffffff;fill-rule:evenodd" /><path
       d="m 284.095,174.488 c 4.349,0 8.312,0 12.539,0 0,5.514 0,10.812 0,16.096 -7.432,4.763 -18.094,3.932 -23.418,-2.081 -5.216,-5.89 -5.514,-15.263 -0.507,-21.398 5.296,-6.49 14.902,-7.766 23.312,-2.971 0.059,0.483 0.197,1.087 0.188,1.689 -0.006,0.463 -0.197,0.923 -0.189,0.888 -3.847,-0.582 -7.5,-1.57 -11.159,-1.594 -6.806,-0.043 -11.869,5.595 -11.761,12.46 0.104,6.628 5.229,12.106 11.744,12.216 2.651,0.045 5.314,-0.562 8.023,-0.879 0,-3.911 0,-7.13 0,-10.756 -2.907,0 -5.72,0 -8.771,0 -10e-4,-1.507 -10e-4,-2.602 -10e-4,-3.67 z"
       id="path27"
       inkscape:connector-curvature="0"
       style="clip-rule:evenodd;fill:#ffffff;fill-rule:evenodd" /><path
       d="m 533.876,162.036 c 4.646,5.29 9.294,10.58 14.283,16.26 4.841,-5.545 9.477,-10.856 14.662,-16.797 0,10.911 0,21.016 0,31.397 -0.934,0 -1.976,0 -3.407,0 0,-7.137 0,-14.17 0,-21.202 -0.252,-0.11 -0.505,-0.22 -0.757,-0.331 -3.41,3.997 -6.82,7.994 -10.56,12.376 -3.676,-4.328 -7.087,-8.344 -10.499,-12.359 -0.235,0.084 -0.471,0.169 -0.706,0.253 0,7.018 0,14.034 0,21.286 -1.451,0 -2.491,0 -3.711,0 0,-10.282 0,-20.359 0,-30.437 0.233,-0.148 0.464,-0.297 0.695,-0.446 z"
       id="path29"
       inkscape:connector-curvature="0"
       style="clip-rule:evenodd;fill:#ffffff;fill-rule:evenodd" /><path
       d="m 241.896,193.625 c -8.954,0.004 -16.25,-7.256 -16.249,-16.167 0.001,-8.914 7.291,-16.193 16.222,-16.198 9,-0.005 16.145,7.146 16.156,16.171 0.011,9.03 -7.121,16.19 -16.129,16.194 z m 0.067,-3.767 c 6.883,-0.024 12.195,-5.487 12.154,-12.501 -0.039,-6.988 -5.42,-12.37 -12.328,-12.332 -6.781,0.036 -12.328,5.688 -12.276,12.506 0.052,6.837 5.622,12.352 12.45,12.327 z"
       id="path31"
       inkscape:connector-curvature="0"
       style="clip-rule:evenodd;fill:#ffffff;fill-rule:evenodd" /><path
       d="m 720.107,180.233 c -1.537,0 -2.875,0 -4.543,0 0,4.234 0,8.313 0,12.69 -1.366,0.076 -2.415,0.135 -3.738,0.208 0,-10.45 0,-20.603 0,-31.061 3.572,0 7.035,-0.217 10.459,0.062 3.438,0.278 6.234,1.866 7.252,5.505 1.19,4.251 -0.083,8.364 -3.275,10.775 -0.485,0.366 -1.019,0.668 -1.755,1.144 3.526,4.385 6.938,8.628 10.547,13.116 -2.798,1.051 -4.636,0.498 -6.307,-1.733 -2.693,-3.594 -5.632,-7.005 -8.64,-10.706 z m -4.434,-4.089 c 3.503,0.235 6.993,1.04 9.311,-2.269 1.388,-1.982 1.368,-4.452 -0.243,-6.275 -2.442,-2.762 -5.733,-2.214 -9.067,-1.733 -10e-4,3.503 -10e-4,6.795 -10e-4,10.277 z"
       id="path33"
       inkscape:connector-curvature="0"
       style="clip-rule:evenodd;fill:#ffffff;fill-rule:evenodd" /><path
       d="m 622.525,180.197 c -1.658,0 -2.89,0 -4.456,0 0,4.194 0,8.271 0,12.654 -1.347,0.125 -2.387,0.222 -3.738,0.348 0,-10.452 0,-20.599 0,-31.03 3.705,0 7.409,-0.268 11.054,0.08 3.308,0.314 5.99,2.125 6.634,5.659 0.665,3.648 0.567,7.272 -2.618,9.978 -0.656,0.557 -1.404,1.002 -2.396,1.699 3.452,4.304 6.849,8.536 10.427,12.998 -2.516,1.094 -4.296,0.818 -5.929,-1.303 -2.887,-3.751 -5.951,-7.365 -8.978,-11.083 z m -4.404,-14.52 c 0,3.683 0,6.977 0,10.479 3.496,0.219 7.179,1.125 9.216,-2.315 0.885,-1.495 0.888,-4.393 -10e-4,-5.88 -1.963,-3.284 -5.597,-2.385 -9.215,-2.284 z"
       id="path35"
       inkscape:connector-curvature="0"
       style="clip-rule:evenodd;fill:#ffffff;fill-rule:evenodd" /><path
       d="m 446.747,162.053 c 3.663,0 7.015,-0.221 10.323,0.06 3.569,0.303 6.547,1.867 7.399,5.76 0.877,4.012 0.393,7.71 -3.149,10.43 -0.482,0.369 -1.012,0.679 -1.849,1.234 3.471,4.365 6.838,8.599 10.417,13.1 -2.612,0.995 -4.396,0.681 -6.018,-1.444 -2.871,-3.76 -5.936,-7.372 -8.905,-11.028 -1.386,0 -2.621,0 -4.263,0 0,4.113 0,8.165 0,12.663 -1.487,0.111 -2.604,0.195 -3.956,0.297 0.001,-10.482 0.001,-20.545 0.001,-31.072 z m 4.018,3.729 c 0,3.744 0,7.03 0,10.426 3.503,0.141 7.139,1.008 9.045,-2.353 0.869,-1.533 0.859,-4.43 -0.046,-5.924 -1.984,-3.274 -5.567,-2.412 -8.999,-2.149 z"
       id="path37"
       inkscape:connector-curvature="0"
       style="clip-rule:evenodd;fill:#ffffff;fill-rule:evenodd" /><path
       d="m 400.691,192.929 c -1.184,0 -2.233,0 -3.691,0 0,-4.58 0,-9.023 0,-13.746 -4.81,0 -9.213,0 -13.871,0 0,4.586 0,8.937 0,13.604 -1.238,0.161 -2.27,0.295 -3.656,0.477 0,-10.475 0,-20.63 0,-31.123 0.972,-0.074 2.006,-0.152 3.492,-0.266 0,4.49 0,8.683 0,13.125 4.733,0 9.042,0 13.833,0 0,-4.231 0,-8.406 0,-12.876 1.505,-0.078 2.549,-0.132 3.893,-0.201 0,10.357 0,20.42 0,31.006 z"
       id="path39"
       inkscape:connector-curvature="0"
       style="clip-rule:evenodd;fill:#ffffff;fill-rule:evenodd" /><path
       d="m 158.09,192.981 c -1.662,0 -2.731,0 -4,0 -1.083,-2.371 -2.157,-4.722 -3.294,-7.212 -4.396,0 -8.721,0 -13.351,0 -1.045,2.274 -2.125,4.62 -3.297,7.171 -1.182,0 -2.362,0 -4.032,0 4.572,-10.45 9.033,-20.646 13.495,-30.844 0.293,-0.047 0.586,-0.093 0.879,-0.14 4.44,10.131 8.88,20.261 13.6,31.025 z m -8.97,-11.335 c -1.673,-3.968 -3.192,-7.568 -5.019,-11.9 -1.804,4.301 -3.315,7.904 -4.992,11.9 3.537,0 6.558,0 10.011,0 z"
       id="path41"
       inkscape:connector-curvature="0"
       style="clip-rule:evenodd;fill:#ffffff;fill-rule:evenodd" /><path
       d="m 577.847,192.991 c -1.107,0 -2.19,0 -4.017,0 4.617,-10.573 9.066,-20.763 13.515,-30.952 0.283,-0.05 0.564,-0.1 0.847,-0.148 4.45,10.165 8.9,20.33 13.578,31.016 -1.581,0.099 -2.718,0.169 -3.899,0.242 -1.182,-2.604 -2.255,-4.971 -3.364,-7.415 -4.479,0 -8.804,0 -13.315,0 -1.106,2.4 -2.193,4.757 -3.345,7.257 z M 592.86,181.63 c -1.686,-3.985 -3.193,-7.551 -5.044,-11.929 -1.85,4.486 -3.321,8.056 -4.918,11.929 3.59,0 6.509,0 9.962,0 z"
       id="path43"
       inkscape:connector-curvature="0"
       style="clip-rule:evenodd;fill:#ffffff;fill-rule:evenodd" /><path
       d="m 685.842,165.565 c 0,3.321 0,6.145 0,9.477 3.948,0 7.868,0 12.033,0 0.091,1.393 0.149,2.298 0.243,3.729 -4.179,0 -8.096,0 -12.241,0 0,3.69 0,6.88 0,10.574 3.874,0 7.789,0 11.993,0 0,1.494 0,2.492 0,3.621 -5.352,0 -10.536,0 -15.934,0 0,-10.305 0,-20.354 0,-30.763 5.33,0 10.586,0 16.039,0 0,1.002 0,1.932 0,3.362 -4.074,0 -8.007,0 -12.133,0 z"
       id="path45"
       inkscape:connector-curvature="0"
       style="clip-rule:evenodd;fill:#ffffff;fill-rule:evenodd" /><path
       d="m 328.944,175.083 c 0,1.485 0,2.305 0,3.65 -3.985,0 -7.898,0 -12.057,0 0,3.711 0,6.903 0,10.621 3.865,0 7.78,0 11.93,0 0.113,1.411 0.186,2.324 0.285,3.561 -5.518,0 -10.787,0 -16.243,0 0,-10.314 0,-20.379 0,-30.756 5.342,0 10.509,0 15.972,0 0,0.967 0,1.964 0,3.372 -4.004,0 -7.835,0 -11.933,0 0,3.317 0,6.231 0,9.552 3.977,0 7.801,0 12.046,0 z"
       id="path47"
       inkscape:connector-curvature="0"
       style="clip-rule:evenodd;fill:#ffffff;fill-rule:evenodd" /><path
       d="m 432.049,193.031 c -5.693,0 -10.65,0 -15.893,0 0,-10.328 0,-20.471 0,-30.9 5.222,0 10.383,0 15.775,0 0,1.001 0,1.937 0,3.292 -3.904,0 -7.722,0 -11.833,0 0,3.337 0,6.262 0,9.642 3.777,0 7.583,0 11.635,0 0.146,1.318 0.247,2.22 0.399,3.592 -4.091,0 -7.891,0 -12.009,0 0,3.715 0,7 0,10.732 3.72,0 7.521,0 11.706,0 0.086,1.409 0.146,2.403 0.22,3.642 z"
       id="path49"
       inkscape:connector-curvature="0"
       style="clip-rule:evenodd;fill:#ffffff;fill-rule:evenodd" /><path
       d="m 518.429,165.886 c -2.559,-0.347 -4.787,-1.055 -6.895,-0.792 -1.407,0.176 -3.483,1.55 -3.738,2.72 -0.32,1.468 0.483,3.7 1.591,4.828 1.416,1.441 3.621,2.104 5.48,3.112 2.506,1.359 4.396,3.229 5.171,6.082 1.752,6.45 -2.009,11.697 -8.68,11.727 -2.657,0.011 -5.318,-0.651 -8.087,-1.022 0,-1.701 0,-2.771 0,-3.963 0.464,0.062 0.796,0.094 1.125,0.151 2.301,0.407 4.589,1.037 6.905,1.169 2.273,0.129 4.178,-0.949 4.924,-3.268 0.796,-2.468 0.314,-4.831 -1.77,-6.421 -1.661,-1.267 -3.822,-1.883 -5.461,-3.171 -1.89,-1.484 -4.194,-3.095 -5.013,-5.168 -2.635,-6.677 2.914,-11.938 10.597,-10.296 2.259,0.483 4.982,0.827 3.851,4.312 z"
       id="path51"
       inkscape:connector-curvature="0"
       style="clip-rule:evenodd;fill:#ffffff;fill-rule:evenodd" /><path
       d="m 217.018,162.112 c 0,1.128 0,2.046 0,3.411 -3.404,0 -6.601,0 -10.131,0 0,9.269 0,18.1 0,27.322 -1.463,0.13 -2.615,0.232 -4.301,0.382 0,-9.28 0,-18.201 0,-27.615 -3.658,0 -6.838,0 -10.251,0 -0.098,-1.396 -0.163,-2.306 -0.246,-3.5 8.341,0 16.41,0 24.929,0 z"
       id="path53"
       inkscape:connector-curvature="0"
       style="clip-rule:evenodd;fill:#ffffff;fill-rule:evenodd" /><path
       d="m 351.59,165.544 c -3.595,0 -6.781,0 -10.191,0 -0.062,-1.348 -0.103,-2.264 -0.157,-3.443 8.292,0 16.344,0 24.818,0 0.053,0.942 0.109,1.938 0.189,3.371 -3.578,0 -6.769,0 -10.378,0 0,9.312 0,18.223 0,27.413 -1.571,0 -2.713,0 -4.282,0 10e-4,-9.099 10e-4,-18.004 10e-4,-27.341 z"
       id="path55"
       inkscape:connector-curvature="0"
       style="clip-rule:evenodd;fill:#ffffff;fill-rule:evenodd" /><path
       d="m 659.267,165.552 c 0,9.34 0,18.264 0,27.396 -1.466,0 -2.521,0 -4.022,0 0,-9.057 0,-17.976 0,-27.349 -3.615,0 -6.8,0 -10.188,0 -0.11,-1.372 -0.185,-2.298 -0.281,-3.497 8.29,0 16.346,0 24.686,0 0,1.024 0,2.023 0,3.449 -3.403,0.001 -6.599,0.001 -10.195,0.001 z"
       id="path57"
       inkscape:connector-curvature="0"
       style="clip-rule:evenodd;fill:#ffffff;fill-rule:evenodd" /><path
       d="m 173.421,162.141 c 0,9.202 0,17.909 0,27.054 3.588,0 6.9,0 10.529,0 0.119,1.435 0.203,2.455 0.311,3.764 -5,0 -9.673,0 -14.62,0 0,-10.317 0,-20.464 0,-31.001 1.299,0.063 2.408,0.116 3.78,0.183 z"
       id="path59"
       inkscape:connector-curvature="0"
       style="clip-rule:evenodd;fill:#ffffff;fill-rule:evenodd" /></g></svg>