<?xml version="1.0" encoding="UTF-8" standalone="no"?>
<!-- Generator: Adobe Illustrator 19.2.0, SVG Export Plug-In . SVG Version: 6.00 Build 0)  -->

<svg
   xmlns:dc="http://purl.org/dc/elements/1.1/"
   xmlns:cc="http://creativecommons.org/ns#"
   xmlns:rdf="http://www.w3.org/1999/02/22-rdf-syntax-ns#"
   xmlns:svg="http://www.w3.org/2000/svg"
   xmlns="http://www.w3.org/2000/svg"
   xmlns:sodipodi="http://sodipodi.sourceforge.net/DTD/sodipodi-0.dtd"
   xmlns:inkscape="http://www.inkscape.org/namespaces/inkscape"
   version="1.1"
   id="Layer_1"
   x="0px"
   y="0px"
   viewBox="0 0 348.41951 303.92691"
   xml:space="preserve"
   inkscape:version="0.91 r13725"
   sodipodi:docname="ssc.svg"
   width="348.41949"
   height="303.92691"><metadata
     id="metadata53"><rdf:RDF><cc:Work
         rdf:about=""><dc:format>image/svg+xml</dc:format><dc:type
           rdf:resource="http://purl.org/dc/dcmitype/StillImage" /><dc:title></dc:title></cc:Work></rdf:RDF></metadata><defs
     id="defs51" /><sodipodi:namedview
     pagecolor="#7590ff"
     bordercolor="#666666"
     borderopacity="1"
     objecttolerance="10"
     gridtolerance="10"
     guidetolerance="10"
     inkscape:pageopacity="0"
     inkscape:pageshadow="2"
     inkscape:window-width="1855"
     inkscape:window-height="1056"
     id="namedview49"
     showgrid="false"
     fit-margin-top="0"
     fit-margin-left="0"
     fit-margin-right="0"
     fit-margin-bottom="0"
     inkscape:zoom="1.2152124"
     inkscape:cx="16.41987"
     inkscape:cy="70.556427"
     inkscape:window-x="1985"
     inkscape:window-y="24"
     inkscape:window-maximized="1"
     inkscape:current-layer="Layer_1" /><style
     type="text/css"
     id="style3">
	.st0{fill:#FFFFFF;}
</style><path
     style="fill:#ffffff;fill-opacity:1"
     d="m 8.280071,303.19735 c -0.16242,-0.42324 -0.29531,-7.09435 -0.29531,-14.82471 l 0,-14.0552 -3.87578,-0.13661 c -3.29383001,-0.11615 -3.90006001,-0.26363 -4.03744001,-0.98248 -0.38351,-2.00668 0.50241,-2.2123 9.49970001,-2.20473 4.69019,0.005 8.81075,0.18671 9.1568,0.40602 0.34605,0.21936 0.55774,0.90411 0.47042,1.52168 -0.15081,1.06659 -0.35291,1.12972 -4.03307,1.25937 l -3.87432,0.13656 -0.12428,14.68176 -0.12428,14.6818 -1.23356,0.14305 c -0.80381,0.0932 -1.33646,-0.12504 -1.52888,-0.62651 z m 15.22864,0.37578 c -0.38809,-0.14772 -0.86116,-0.50147 -1.05124,-0.78608 -0.62381,-0.93402 -0.42959,-30.60204 0.20448,-31.23612 0.38439,-0.38438 2.63069,-0.56451 7.0398,-0.56451 6.06067,0 6.50855,0.0622 6.99489,0.97096 1.00503,1.87788 -0.0888,2.322 -5.71876,2.322 l -5.11705,0 0,5.88029 0,5.88028 5.12432,0 c 4.12099,0 5.17733,0.13817 5.3951,0.70564 0.69625,1.81442 -0.0747,2.1169 -5.3951,2.1169 l -5.12432,0 0,5.88028 0,5.88029 5.31578,0 c 3.50726,0 5.50783,0.19207 5.88028,0.56451 0.74395,0.74397 0.71251,1.10201 -0.17473,1.98922 -0.59865,0.59866 -1.87348,0.73217 -6.70352,0.70211 -3.28036,-0.0202 -6.28183,-0.15801 -6.66993,-0.30577 z m 20.22818,0 c -0.38809,-0.14772 -0.86116,-0.50147 -1.05124,-0.78608 -0.62381,-0.93402 -0.42958,-30.60204 0.20448,-31.23612 0.66027,-0.66024 12.45969,-0.79276 13.47173,-0.15129 0.34605,0.21936 0.55774,0.90411 0.47042,1.52168 -0.15528,1.0983 -0.2746,1.12577 -5.45102,1.25589 l -5.29225,0.13299 0,5.8649 0,5.86485 5.12432,0 c 4.12099,0 5.17733,0.13817 5.3951,0.70564 0.69625,1.81442 -0.0746,2.1169 -5.3951,2.1169 l -5.12432,0 0,5.86537 0,5.86537 5.52747,0.13252 5.52746,0.13252 0.14292,1.23218 c 0.11037,0.95157 -0.10389,1.29832 -0.94084,1.52247 -1.34404,0.35997 -11.64432,0.32751 -12.60913,-0.0395 z m 20.54986,-0.33866 c -2.3569,-0.84055 -3.61464,-2.02527 -3.61464,-3.40469 0,-1.6461 1.2064,-1.83121 3.68321,-0.56507 2.92093,1.49317 6.960168,1.55386 8.866108,0.13313 1.8316,-1.36531 3.06872,-3.64102 3.06872,-5.64507 0,-2.39455 -1.80706,-4.05975 -6.388038,-5.8865 -6.7935,-2.70907 -8.75108,-4.62119 -8.75647,-8.55318 -0.007,-4.98257 3.83581,-8.32667 9.568008,-8.32667 4.23883,0 7.80652,2.09884 7.1396,4.20013 -0.39013,1.22916 -1.63578,1.23998 -3.88643,0.0339 -3.43083,-1.83884 -7.623508,-0.83289 -8.859658,2.12565 -0.49751,1.19069 -0.54194,1.91768 -0.17603,2.88007 0.63372,1.6668 1.74723,2.42936 6.208638,4.25173 5.09348,2.08058 6.8212,3.2525 7.89346,5.3543 2.35857,4.62317 -0.019,10.96659 -4.95003,13.2067 -2.2692,1.03088 -7.179738,1.12901 -9.796448,0.19579 z m 38.633529,-0.14169 c -1.06356,-1.23994 -10.837721,-29.44376 -10.654101,-30.74288 0.11572,-0.81873 0.50095,-1.16778 1.4041,-1.27236 1.46288,-0.16939 0.99745,-1.24012 6.676991,15.36063 l 3.91841,11.4531 2.26209,-6.51367 c 1.24415,-3.58255 3.21339,-9.37152 4.3761,-12.86441 1.1627,-3.49289 2.33151,-6.626 2.59735,-6.96249 0.65702,-0.83166 2.873,-0.51356 3.0533,0.43829 0.13872,0.73231 -9.58718,28.86613 -10.69404,30.93429 -0.64589,1.20687 -1.98424,1.28402 -2.9402,0.1695 z m 14.98661,0.50965 c -0.17249,-0.1725 -0.31362,-0.72854 -0.31362,-1.23566 0,-1.0871 10.65558,-29.91009 11.3803,-30.78333 0.82525,-0.99434 3.10128,-0.72205 3.8569,0.46144 1.27743,2.0008 11.57341,30.39203 11.28969,31.1314 -0.33881,0.88293 -2.22605,0.98196 -2.8913,0.15171 -0.25914,-0.32342 -0.9485,-1.91109 -1.5319,-3.52817 l -1.06072,-2.94014 -7.82374,0 -7.82374,0 -0.86036,2.46972 c -0.47319,1.35834 -1.16282,2.94602 -1.53252,3.52817 -0.64566,1.01672 -2.03289,1.40096 -2.68899,0.74486 z m 19.36574,-10.44183 c -0.0862,-0.2234 -1.5253,-4.13967 -3.1979,-8.70282 -1.6726,-4.5632 -3.15443,-8.29313 -3.29296,-8.28871 -0.30293,0.009 -6.13215,16.0012 -6.13215,16.8227 0,0.42479 1.66891,0.57495 6.3899,0.57495 3.51446,0 6.31935,-0.18276 6.23311,-0.40612 z m 11.21621,10.16739 c -0.73327,-0.53722 -0.79182,-1.94929 -0.67794,-16.34719 l 0.12464,-15.75916 1.41127,0 1.41127,0 0.12429,14.68485 0.12428,14.68491 5.04479,0.13341 c 4.5566,0.12057 5.06166,0.22152 5.21913,1.04321 0.3207,1.67358 -1.16999,2.148 -6.74911,2.148 -3.44237,0 -5.50437,-0.20097 -6.03262,-0.58803 z m 16.66832,-0.0559 c -0.38107,-0.45914 -0.49885,-5.15033 -0.41042,-16.3472 l 0.12402,-15.70322 1.41127,0 1.41127,0 0.12428,14.68485 0.12429,14.68491 5.04479,0.13341 c 4.5566,0.12057 5.06166,0.22152 5.21912,1.04321 0.32452,1.69343 -1.16036,2.148 -7.01662,2.148 -4.07883,0 -5.63548,-0.16616 -6.032,-0.64396 z m 17.35446,0.30107 c -0.3881,-0.14772 -0.86116,-0.50147 -1.05125,-0.78608 -0.62381,-0.93402 -0.42958,-30.60204 0.20448,-31.23612 0.66027,-0.66024 12.45969,-0.79276 13.47173,-0.15129 0.34605,0.21936 0.55774,0.90411 0.47042,1.52168 -0.15528,1.0983 -0.2746,1.12577 -5.45101,1.25589 l -5.29226,0.13299 0,5.8649 0,5.86485 5.12432,0 c 4.12099,0 5.17734,0.13817 5.3951,0.70564 0.69625,1.81442 -0.0746,2.1169 -5.3951,2.1169 l -5.12432,0 0,5.86537 0,5.86537 5.52747,0.13252 5.52746,0.13252 0.14292,1.23218 c 0.11037,0.95157 -0.10389,1.29832 -0.94084,1.52247 -1.34404,0.35997 -11.64432,0.32751 -12.60912,-0.0395 z m 25.71644,0.0292 c -0.17249,-0.17245 -0.31317,-3.61242 -0.31263,-7.64437 l 9.4e-4,-7.33074 -4.7458,-7.84787 c -2.61786,-4.32902 -4.67308,-8.23127 -4.58359,-8.70282 0.0973,-0.5129 0.64758,-0.91154 1.37534,-0.9964 1.10341,-0.12867 1.58726,0.48354 5.35009,6.76971 2.92013,4.87833 4.25114,6.71876 4.5251,6.257 7.06558,-11.90974 7.75839,-12.88526 9.15103,-12.88526 0.86905,0 1.43088,0.26852 1.51898,0.72596 0.0769,0.39925 -1.9842,4.284 -4.58019,8.63282 l -4.71997,7.90691 0,6.97026 c 0,3.83361 -0.12849,7.3051 -0.28554,7.71432 -0.28395,0.73997 -2.09494,1.02938 -2.69381,0.43053 z M 3.290641,259.71505 c -0.323,-0.60351 -0.45058,-6.23226 -0.36937,-16.29611 0.11338,-14.05058 0.19493,-15.41882 0.9473,-15.89324 0.59482,-0.37507 1.05165,-0.377 1.64648,-0.007 0.45278,0.28168 4.7395,6.23522 9.52606,13.23008 l 8.70282,12.71793 0.12507,-12.59303 c 0.13341,-13.43307 0.25513,-14.10202 2.43968,-13.40866 0.94632,0.30037 0.96342,0.59269 0.96342,16.47196 0,15.87931 -0.0171,16.17163 -0.96342,16.47199 -0.52988,0.16818 -1.22761,0.0865 -1.5505,-0.18149 -0.32289,-0.26795 -4.49361,-6.19749 -9.26827,-13.17673 l -8.6812,-12.68951 -0.23521,12.68518 c -0.19628,10.5855 -0.35201,12.75895 -0.94085,13.13068 -1.08851,0.68719 -1.80231,0.5464 -2.34201,-0.4621 z m 40.21104,0.62693 c -3.03508,-0.7635 -4.37134,-1.44039 -6.23562,-3.15884 -6.70417,-6.17971 -7.04738,-19.26494 -0.67853,-25.86977 2.84117,-2.94646 4.91996,-3.79863 9.26627,-3.79863 4.35363,0 6.45032,0.86186 9.24097,3.79863 2.22035,2.33659 3.46663,4.87908 4.18737,8.54255 1.56046,7.93165 -1.84128,16.4965 -7.67096,19.31386 -2.01799,0.97523 -6.38382,1.60631 -8.1095,1.1722 z m 6.67481,-4.27243 c 6.46594,-3.34028 7.70404,-16.81121 2.08724,-22.7097 -2.83495,-2.97712 -7.66629,-3.58961 -11.22826,-1.42345 -6.05751,3.68378 -6.98784,17.12969 -1.56072,22.55681 2.91664,2.91662 6.95563,3.51157 10.70174,1.57634 z m 14.78061,3.92352 c -0.38107,-0.45914 -0.49885,-5.15033 -0.41041,-16.34719 l 0.12402,-15.70324 5.409858,-0.14499 c 5.99884,-0.16074 8.1917,0.28339 10.345,2.09528 2.11313,1.77805 2.82684,3.49632 2.82684,6.80546 0,5.43545 -3.28032,8.88511 -8.44887,8.88511 -1.30397,0 -2.37086,0.12871 -2.37086,0.28602 0,0.15726 2.54029,3.00943 5.64508,6.33814 3.10479,3.32872 5.64507,6.34944 5.64507,6.71275 0,0.99786 -1.25733,1.83559 -2.21193,1.47379 -0.4652,-0.17636 -3.70364,-3.40478 -7.19653,-7.17433 l -6.350698,-6.85368 -0.13144,6.51587 c -0.0771,3.82374 -0.34389,6.77183 -0.64564,7.13542 -0.66293,0.79878 -1.5544,0.78904 -2.22949,-0.0245 z m 12.048988,-18.01879 c 2.67611,-1.26991 3.6492,-4.63447 2.28478,-7.9 -0.97722,-2.3388 -2.78038,-3.07388 -7.54046,-3.07388 l -4.021948,0 0,5.88028 0,5.88028 3.809888,0 c 2.58654,0 4.34222,-0.25257 5.46774,-0.78668 z m 16.59562,18.20272 c -0.59703,-0.37699 -0.72674,-2.65657 -0.84276,-14.81107 l -0.13712,-14.36553 -3.23984,0 c -2.31808,0 -3.45016,-0.21028 -3.97908,-0.73923 -0.88723,-0.88721 -0.91868,-1.24526 -0.17473,-1.98924 0.40013,-0.40009 3.21261,-0.5645 9.65843,-0.5645 7.985341,0 9.129931,0.0938 9.389241,0.76961 0.63102,1.64442 -0.48682,2.28161 -4.25527,2.42555 l -3.596331,0.13741 0,14.23401 c 0,14.21458 -0.12293,15.3777 -1.62296,15.35582 -0.27167,-0.005 -0.81148,-0.20774 -1.19958,-0.45283 z m 14.206771,-0.10448 c -0.41638,-0.41637 -0.56451,-4.66005 -0.56451,-16.17196 0,-16.71178 0.0628,-17.15491 2.32954,-16.4355 0.91428,0.29021 0.96342,0.66405 0.96342,7.33042 l 0,7.02464 8.93803,0 8.93804,0 0,-7.02464 c 0,-6.66637 0.0491,-7.04021 0.96342,-7.33042 2.26724,-0.7196 2.32954,-0.27905 2.32954,16.47196 0,13.69984 -0.0926,15.72082 -0.74507,16.26233 -0.54024,0.44836 -0.96053,0.4826 -1.52887,0.12461 -0.66731,-0.42037 -0.80306,-1.58758 -0.91336,-7.85234 l -0.12955,-7.35854 -8.92609,0 -8.92609,0 0,7.19747 c 0,7.09487 -0.24354,8.32648 -1.64648,8.32648 -0.28461,0 -0.77149,-0.25403 -1.08197,-0.56451 z m 58.70582,-0.14465 c -0.486,-0.58559 0.42652,-3.43249 5.23637,-16.33647 5.3683,-14.40224 5.927,-15.6632 7.12703,-16.08522 1.0587,-0.37234 1.47352,-0.28639 2.21904,0.4597 1.01788,1.01865 11.76418,29.41206 11.76418,31.08281 0,1.29569 -1.69927,1.97851 -2.60974,1.04867 -0.34272,-0.34999 -1.1341,-2.01237 -1.75862,-3.69414 l -1.13549,-3.05774 -7.74172,-0.12857 -7.74172,-0.12857 -1.09319,3.09661 c -1.50116,4.2522 -2.85655,5.44138 -4.26614,3.74292 z m 19.29028,-10.55041 c 0,-0.33616 -3.96854,-11.37887 -5.92812,-16.49537 -0.15794,-0.41238 -0.91699,1.05384 -1.82649,3.52817 -0.85594,2.32859 -2.30998,6.29778 -3.23122,8.82042 l -1.67496,4.58663 6.33039,0 c 3.61319,0 6.3304,-0.18878 6.3304,-0.43985 z m 13.64297,10.7422 c -3.20614,-0.62769 -5.64903,-2.74435 -5.02978,-4.35809 0.3944,-1.02783 1.84929,-0.97095 4.06379,0.15877 2.99018,1.52548 5.12665,1.63678 7.52366,0.3919 2.79556,-1.45181 4.02613,-3.22023 4.02613,-5.78587 0,-2.85297 -1.265,-4.01266 -6.99416,-6.412 -5.14251,-2.15369 -7.52204,-4.08162 -8.05986,-6.53027 -1.37363,-6.25413 5.01507,-11.55143 11.93056,-9.89243 2.98953,0.7172 4.76994,2.05825 4.76994,3.59286 0,1.72052 -1.18368,1.86659 -3.91763,0.48331 -2.77916,-1.40614 -3.9193,-1.51401 -6.15009,-0.58191 -2.84642,1.18932 -4.01038,4.42677 -2.412,6.70879 0.38066,0.54348 2.86803,1.89868 5.52747,3.0116 3.45224,1.44467 5.40722,2.58714 6.83464,3.99408 1.95599,1.92789 1.9993,2.03867 1.9993,5.11359 0,7.69781 -5.67034,11.75836 -14.11197,10.10567 z m 23.61451,-0.0471 c -0.41419,-0.41416 -0.56451,-4.35484 -0.56451,-14.79851 l 0,-14.23401 -3.59633,-0.13741 c -3.77491,-0.14423 -4.88638,-0.78094 -4.25145,-2.43557 0.26691,-0.69552 1.30169,-0.7658 9.60093,-0.65196 l 9.30178,0.12758 0.15876,1.12285 c 0.22198,1.56995 -0.59572,1.91943 -4.51017,1.92771 l -3.41056,0.007 0,14.25381 c 0,14.27978 -0.11807,15.38283 -1.64648,15.38283 -0.28461,0 -0.77149,-0.25403 -1.08197,-0.56451 z m 30.34407,-0.0795 c -6.87334,-1.92798 -9.16524,-10.68528 -4.18714,-15.99899 0.69779,-0.74486 2.06609,-1.94162 3.04066,-2.65953 l 1.77194,-1.30524 -1.11402,-1.3391 c -1.75253,-2.1066 -2.19466,-3.23251 -2.19466,-5.589 0,-1.85234 0.24036,-2.43524 1.54012,-3.73502 1.02767,-1.02764 2.20161,-1.65185 3.52817,-1.87601 8.10741,-1.36973 12.33369,5.81529 6.56123,11.15459 -1.04895,0.97024 -2.08365,1.76408 -2.29934,1.76408 -0.96484,0 -0.15488,1.31954 2.99375,4.87716 1.86225,2.1041 3.52401,3.99501 3.69281,4.202 0.1688,0.20699 1.21029,-1.01023 2.31443,-2.70493 1.50104,-2.30385 2.2776,-3.08127 3.07799,-3.08127 2.21662,0 1.6647,2.4573 -1.53207,6.82113 l -1.37845,1.88169 2.31371,2.66716 c 1.62862,1.87741 2.26773,2.9917 2.15843,3.76338 -0.28089,1.98307 -1.89285,1.59934 -4.35963,-1.03785 l -2.25667,-2.41256 -1.47372,1.39937 c -3.33893,3.1705 -7.98087,4.39172 -12.19754,3.20894 z m 5.88276,-3.20448 c 1.0197,-0.30549 2.72472,-1.32814 3.78893,-2.27256 l 1.93493,-1.71709 -4.40738,-5.01899 c -2.42405,-2.76044 -4.54271,-5.01899 -4.70812,-5.01899 -0.16542,0 -1.16897,0.74318 -2.23012,1.65147 -3.5742,3.05939 -4.29232,7.49398 -1.71044,10.56236 1.77673,2.11154 4.27545,2.72962 7.3322,1.8138 z m -0.26555,-19.71471 c 4.00812,-2.4772 3.09555,-6.54391 -1.46846,-6.54391 -1.72571,0 -2.24481,0.21179 -2.87439,1.17263 -0.46962,0.71673 -0.65678,1.61712 -0.4814,2.31589 0.27469,1.09444 2.4459,4.03825 2.97843,4.03825 0.14051,0 0.97113,-0.44229 1.84582,-0.98286 z m -110.16829,22.50112 c -0.12486,-0.32539 -0.17114,-7.57578 -0.10284,-16.11198 l 0.12418,-15.52038 6.76986,0 c 6.02508,0 6.82725,0.0936 7.29155,0.8508 0.97465,1.58953 -0.74715,2.20696 -6.15414,2.20696 l -4.84952,0 0,5.62917 0,5.62917 5.00695,0.13351 c 4.06434,0.10838 5.0998,0.28107 5.50018,0.91732 0.35742,0.56799 0.32297,0.98897 -0.12511,1.52888 -0.49149,0.59221 -1.61984,0.74505 -5.50018,0.74505 l -4.88184,0 0,5.63016 0,5.63016 5.47722,0.13252 c 4.50476,0.109 5.56483,0.27172 5.97061,0.91634 0.35759,0.56808 0.32319,0.98887 -0.12496,1.52887 -0.51184,0.61673 -1.78595,0.74506 -7.39665,0.74506 -5.01054,0 -6.8375,-0.15426 -7.00531,-0.59161 z M 3.426121,200.59428 c -0.16242,-0.42324 -0.0798,-1.11123 0.18364,-1.52887 0.43913,-0.69618 14.75566,-0.76914 172.191469,-0.87753 149.7102,-0.10312 171.78522,-0.0306 172.27993,0.56545 0.31208,0.37601 0.42982,1.11725 0.26164,1.64709 l -0.30578,0.96343 -172.15779,0 c -158.952499,0 -172.180449,-0.059 -172.453109,-0.76957 z m 15.84879,-26.71073 c -7.50724,-2.23978 -11.95089,-6.58573 -14.43778,-14.12035 -1.07764,-3.26502 -1.25638,-4.6165 -1.27959,-9.67543 -0.0194,-4.22317 0.20621,-6.73236 0.80054,-8.90402 2.05695,-7.51604 6.22971,-12.98999 11.94609,-15.6712 2.7497,-1.28972 3.84952,-1.52997 7.7281,-1.68821 5.27237,-0.21509 8.24648,0.48135 12.13952,2.84268 3.39021,2.05635 4.60437,3.70265 4.00181,5.42613 -0.66386,1.89882 -2.3995,1.92733 -4.69397,0.0771 -4.8708,-3.9278 -11.14358,-4.9985 -15.98104,-2.7278 -6.40237,3.00525 -10.55718,11.12777 -10.56044,20.64531 -0.002,6.71807 1.8811,11.85428 5.72243,15.60576 2.99093,2.92095 6.29488,4.152 11.14313,4.152 4.51183,0 7.46524,-0.84916 10.69868,-3.07614 2.59087,-1.78436 3.73576,-1.93301 4.57869,-0.59443 1.31671,2.09094 -2.28301,5.62786 -7.38727,7.25839 -3.21585,1.02731 -11.6064,1.28929 -14.4189,0.4502 z m 73.009618,0.1017 c -0.81394,-0.81392 -0.81394,-48.8627 0,-49.67664 0.7363,-0.7363 2.82106,-0.72323 3.75254,0.0235 0.40343,0.32342 6.847521,9.55757 14.320201,20.52036 l 13.58671,19.93233 0.23521,-19.93233 c 0.12937,-10.96279 0.40648,-20.19694 0.6158,-20.52036 0.63798,-0.98573 3.0147,-0.70159 3.82655,0.45749 0.63871,0.91189 0.7323,4.00438 0.7323,24.19614 0,13.90358 -0.18324,23.63263 -0.45878,24.35732 -0.34953,0.91934 -0.7896,1.20668 -1.84808,1.20668 -0.76413,0 -1.71248,-0.32314 -2.10747,-0.71815 -0.39499,-0.39497 -6.54042,-9.25176 -13.65652,-19.68173 -7.1161,-10.42998 -13.363411,-19.47411 -13.882901,-20.09807 l -0.94454,-1.13448 -0.0157,20.25171 c -0.0117,15.10622 -0.15908,20.39514 -0.58016,20.81621 -0.31047,0.31048 -1.1149,0.56451 -1.7876,0.56451 -0.67271,0 -1.47713,-0.25403 -1.78761,-0.56451 z m 61.322761,-0.48101 c -0.63746,-0.91008 -0.73231,-3.89566 -0.73231,-23.05071 l 0,-22.0052 -5.58747,0 c -6.01593,0 -6.86546,-0.31486 -6.56202,-2.43205 0.29345,-2.04762 1.66831,-2.25831 14.73682,-2.25831 13.06851,0 14.44336,0.21069 14.73682,2.25831 0.3033,2.11629 -0.54697,2.43205 -6.54886,2.43205 l -5.5743,0 -0.13078,22.5977 c -0.11271,19.47799 -0.22818,22.65923 -0.8364,23.04351 -1.20604,0.76199 -2.73707,0.50608 -3.5015,-0.5853 z m 28.84432,0.26758 c -0.92937,-1.11979 -0.96005,-48.25605 -0.032,-49.18095 0.46027,-0.45871 2.69411,-0.60201 8.93803,-0.57337 7.34383,0.0337 8.62919,0.15725 10.91174,1.04891 3.43234,1.3408 5.6122,3.21193 7.30736,6.27242 1.25362,2.2633 1.39151,2.9258 1.35668,6.51794 -0.0467,4.81263 -1.08036,7.50039 -3.959,10.29399 -2.43846,2.36646 -4.88281,3.30472 -9.70057,3.72345 l -3.80191,0.33047 8.42948,8.93803 c 4.63621,4.91592 8.76256,9.42304 9.16967,10.01577 1.09345,1.59205 0.18104,3.39128 -1.71974,3.39128 -1.2289,0 -2.725,-1.41362 -11.88826,-11.23313 l -10.48247,-11.23313 -0.23521,10.6451 c -0.12937,5.85483 -0.40647,10.90971 -0.61579,11.23313 -0.54781,0.84643 -2.91958,0.72398 -3.67802,-0.18991 z m 19.19302,-27.51023 c 3.07025,-1.57958 4.37002,-3.88992 4.38039,-7.78616 0.009,-3.41795 -0.52717,-5.05992 -2.2567,-6.90967 -2.0993,-2.24528 -3.97332,-2.76894 -10.7898,-3.01508 l -6.2331,-0.22508 0,9.76638 0,9.76641 6.314,-0.21413 c 5.55462,-0.18836 6.58715,-0.35465 8.58521,-1.38267 z M 54.180281,173.51483 c -0.42421,-0.42418 -0.56451,-6.48948 -0.56451,-24.40436 0,-21.60188 0.073,-23.9005 0.77794,-24.48553 0.60472,-0.50187 2.96991,-0.64562 10.62243,-0.64562 9.213178,0 9.887458,0.0588 10.514418,0.91616 0.6979,0.95444 0.4647,2.58606 -0.45635,3.19283 -0.28854,0.19009 -4.07044,0.34886 -8.404208,0.35282 l -7.87958,0.007 0,9.17323 0,9.17326 7.32248,0 c 4.147958,0 7.716958,0.21112 8.232398,0.48698 0.58173,0.31132 0.90992,0.98403 0.90992,1.86513 0,0.8811 -0.32819,1.55381 -0.90992,1.86513 -0.51544,0.27586 -4.08444,0.48698 -8.232398,0.48698 l -7.32248,0 0,8.93804 0,8.93803 7.64437,0.007 c 8.235028,0.008 9.879208,0.37441 10.150198,2.26528 0.33258,2.3205 -0.19047,2.43204 -11.407368,2.43204 -7.4872,0 -10.59222,-0.15938 -10.99734,-0.56451 z m 171.610229,0.10424 c -1.04652,-0.66122 -1.32058,-47.29362 -0.28627,-48.70963 0.63131,-0.86428 1.33984,-0.93929 10.00889,-1.05961 10.05771,-0.1396 11.54382,0.13243 11.83533,2.16645 0.32245,2.24995 -0.3626,2.43205 -9.14935,2.43205 l -8.1748,0 0,9.17323 0,9.17326 7.52676,0 c 6.89954,0 7.60517,0.0784 8.46761,0.94084 0.51747,0.51747 0.94085,1.15254 0.94085,1.41127 0,0.25873 -0.42338,0.8938 -0.94085,1.41127 -0.86244,0.86247 -1.56807,0.94084 -8.46761,0.94084 l -7.52676,0 0,8.93804 0,8.93803 7.45657,0 c 4.10111,0 8.10201,0.225 8.8909,0.50001 1.68566,0.58765 2.16814,1.87177 1.21471,3.23293 -0.65215,0.93111 -1.10279,0.971 -10.88533,0.96409 -5.61276,-0.005 -10.52255,-0.20783 -10.91065,-0.45307 z M 20.644701,113.212 c -8.39565,-2.41832 -14.66239,-9.3586 -16.69339,-18.487574 -1.12644,-5.06313 -0.73984,-12.842481 0.85306,-17.165821 4.2526,-11.542049 14.68142,-17.632699 27.38418,-15.992939 8.4964,1.09677 12.42323,4.49501 11.05704,9.568639 -0.97263,3.61206 -4.29809,4.59695 -9.01734,2.67063 -3.66512,-1.49603 -8.42317,-1.44906 -11.45878,0.11312 -4.47564,2.30324 -6.96476,7.369 -6.9154,14.07392 0.045,6.104601 2.61418,11.051071 6.90447,13.292995 2.56706,1.34143 7.828,1.30465 11.76115,-0.0822 4.00308,-1.411544 6.14314,-1.303664 7.84212,0.39532 1.14215,1.14214 1.37508,1.76193 1.37508,3.65871 0,3.49308 -1.69708,5.50807 -6.11549,7.26105 -3.23984,1.28539 -13.47172,1.70377 -16.9767,0.69418 z m 221.357539,-0.30047 c -5.56248,-1.76421 -10.33289,-6.22741 -12.55631,-11.74771 -0.99098,-2.460384 -1.05017,-3.369034 -1.20647,-18.520375 -0.17589,-17.050919 -0.0894,-17.840529 2.14718,-19.599809 1.44802,-1.13902 4.73829,-1.23062 6.75443,-0.18803 2.58907,1.33886 2.76105,2.46674 2.77245,18.182529 0.009,12.843071 0.0958,14.430631 0.87879,16.127091 1.61411,3.497304 5.00864,5.533464 9.22497,5.533464 4.21632,0 7.61086,-2.03616 9.22497,-5.533464 0.78296,-1.69646 0.86947,-3.28402 0.87879,-16.127091 0.0114,-15.715789 0.18337,-16.843669 2.77244,-18.182529 2.01614,-1.04259 5.30641,-0.95099 6.75444,0.18803 2.22549,1.75057 2.31226,2.54169 2.1483,19.587899 -0.14631,15.211921 -0.20155,16.063901 -1.20153,18.532285 -2.27276,5.61015 -7.03223,10.01276 -12.7253,11.77117 -4.09144,1.26372 -11.84486,1.25226 -15.86715,-0.0235 z M 52.383571,112.4965 c -1.93031,-1.17706 -2.62048,-3.20661 -2.07269,-6.0951 0.54641,-2.8812 13.78856,-38.688424 15.08109,-40.779794 1.48619,-2.4047 3.52384,-3.88208 5.831618,-4.22815 3.88538,-0.58264 6.83309,1.20146 8.96467,5.42588 2.17479,4.310079 14.44269,38.305654 14.69081,40.709724 0.22635,2.19315 0.11858,2.57511 -1.1167,3.95763 -1.05026,1.17545 -1.85447,1.5835 -3.46888,1.76011 -4.01201,0.4389 -5.61942,-1.00716 -7.54842,-6.79072 l -0.98064,-2.94014 -9.27751,0 -9.277498,0 -1.09581,3.40236 c -1.45422,4.51522 -3.33791,6.47723 -6.21629,6.47475 -1.18051,-9.4e-4 -2.66721,-0.38035 -3.51375,-0.89655 z M 78.077759,91.972626 c 0,-0.3627 -5.13894,-16.803151 -5.30386,-16.968081 -0.0755,-0.0755 -1.43505,3.76836 -3.021158,8.54196 l -2.88384,8.679281 5.604428,0 c 3.08243,0 5.60443,-0.11392 5.60443,-0.25316 z m 29.995361,20.685794 c -2.66418,-1.44557 -2.71084,-1.81302 -2.71084,-21.350124 l 0,-17.899421 -3.77849,0 c -6.073061,0 -8.452501,-1.56109 -8.452501,-5.545459 0,-2.5306 0.57423,-3.64926 2.34269,-4.56376 1.97187,-1.01969 29.497371,-1.05482 31.459521,-0.0401 1.56798,0.8108 2.42034,2.53368 2.42034,4.89216 0,3.682449 -2.53186,5.257189 -8.4525,5.257189 l -3.77849,0 0,17.687361 c 0,19.456154 -0.0963,20.183144 -2.86261,21.613664 -1.68634,0.87204 -4.52866,0.84839 -6.18712,-0.0515 z m 21.9097,-0.0189 c -1.91358,-0.94378 -2.7153,-2.88821 -2.36211,-5.72891 0.39977,-3.21535 14.02025,-39.551204 15.78991,-42.123314 2.60933,-3.79253 7.63183,-4.64842 11.21954,-1.91193 2.23037,1.70118 3.27629,4.04532 10.57705,23.705329 6.36442,17.138565 7.45943,20.977315 6.76877,23.729115 -0.69755,2.77924 -5.94711,4.08117 -8.46617,2.09967 -1.45193,-1.14208 -2.70545,-3.48469 -3.56834,-6.66859 l -0.60818,-2.24405 -9.39801,0.12715 -9.39801,0.12714 -0.80686,2.58733 c -0.44378,1.42303 -1.16427,3.27173 -1.60109,4.10823 -1.43759,2.75297 -5.04304,3.72347 -8.1465,2.19283 z M 154.4182,88.344795 c -0.66171,-2.13454 -1.89483,-6.10373 -2.74026,-8.82043 -0.86577,-2.78202 -1.65911,-4.63123 -1.81637,-4.2338 -0.65754,1.66171 -5.4542,16.230901 -5.4542,16.566371 0,0.20287 2.52314,0.36885 5.60697,0.36885 l 5.60697,0 -1.20311,-3.880991 z m 30.15769,24.614545 c -0.54642,-0.23484 -1.4461,-1.00239 -1.9993,-1.70567 -0.99505,-1.265 -1.00582,-1.51528 -1.00582,-23.372175 l 0,-22.093469 1.63086,-1.63086 1.63085,-1.63085 10.95296,0.14902 10.95295,0.14903 2.82253,1.48764 c 5.28726,2.78671 8.36202,7.361569 8.97004,13.346319 0.80925,7.96542 -2.74635,14.628601 -9.44046,17.691391 -2.55628,1.16959 -3.45488,1.31062 -9.52606,1.4951 l -6.70352,0.2037 0,6.519244 c 0,6.48071 -0.008,6.528 -1.3216,7.99838 -1.0789,1.20749 -1.74842,1.51045 -3.64578,1.64965 -1.2783,0.0938 -2.77124,-0.0216 -3.31765,-0.25645 z m 16.51742,-26.896765 c 4.48932,-1.22365 6.5716,-5.59432 4.62231,-9.70214 -1.1584,-2.44116 -3.61122,-3.39878 -8.7385,-3.41165 l -4.1162,-0.0103 0,6.50751 c 0,3.57914 0.14112,6.64864 0.31361,6.82113 0.49743,0.49743 5.85073,0.35917 7.91878,-0.20452 z m 124.37107,26.625155 c -2.66475,-1.44813 -2.76678,-2.24439 -2.76678,-21.591494 l 0,-17.687361 -3.7785,0 c -5.92064,0 -8.4525,-1.57474 -8.4525,-5.257189 0,-2.35848 0.85237,-4.08135 2.42034,-4.89218 1.96216,-1.01467 29.48765,-0.97954 31.45952,0.0401 1.76846,0.9145 2.3427,2.03316 2.3427,4.56376 0,3.984389 -2.37945,5.545479 -8.4525,5.545479 l -3.77849,0 0,17.655971 c 0,19.423864 -0.10149,20.217224 -2.76212,21.593084 -1.75637,0.90826 -4.59026,0.92181 -6.23167,0.0298 z m -38.80676,-0.22439 c -0.54641,-0.22077 -1.4461,-0.97681 -1.9993,-1.6801 -0.99459,-1.26442 -1.00582,-1.52183 -1.00582,-23.067775 0,-15.89129 0.15212,-22.122959 0.56201,-23.022559 0.74977,-1.64556 2.67684,-2.57418 5.34196,-2.57418 1.8603,0 2.42643,0.23913 3.78674,1.59944 l 1.59944,1.59944 0,18.393529 0,18.393535 7.17395,0.002 c 6.28078,0.001 7.3611,0.11587 8.67719,0.91834 3.12371,1.90465 3.11054,7.08279 -0.0229,8.99343 -1.35022,0.82331 -2.43167,0.90021 -12.3001,0.87462 -5.95085,-0.0154 -11.26679,-0.2087 -11.8132,-0.42947 z M 98.899919,51.998006 c -6.16431,-1.33925 -12.12193,-5.85786 -15.10665,-11.45779 -4.35104,-8.16337 -4.43783,-20.026146 -0.20462,-27.968536 1.86131,-3.4922103 6.8332,-8.3207703 10.38023,-10.0809903 4.10293,-2.03608 7.407361,-2.62171 13.266301,-2.35112 10.27518,0.47454 17.41444,4.80717 17.41444,10.5683603 0,2.56538 -0.56851,3.6814 -2.3427,4.59887 -2.19235,1.1337 -3.83573,0.8506 -7.33068,-1.26282 -4.15116,-2.51025 -5.9688,-3.155 -8.96679,-3.18068 -5.00783,-0.0429 -9.368881,2.86072 -11.557161,7.69484 -0.93211,2.05911 -1.08579,3.1643 -1.08579,7.80846 0,4.849376 0.12724,5.681166 1.22813,8.028506 2.86948,6.11834 8.663151,8.79657 14.630591,6.76325 2.81982,-0.96081 5.40416,-3.58683 6.19716,-6.29712 l 0.62728,-2.14393 -4.28524,-0.25008 c -6.15741,-0.35933 -7.81341,-1.58247 -7.81341,-5.771056 0,-1.89678 0.23294,-2.51657 1.37508,-3.65871 l 1.37508,-1.37508 8.9668,0 8.9668,0 1.44405,1.29366 c 1.94339,1.741 2.48505,4.32295 1.89466,9.031376 -0.78844,6.28789 -3.05087,11.0215 -7.06019,14.77174 -5.46575,5.11257 -13.64024,7.05798 -22.013371,5.23885 z M 8.576781,51.468666 c -1.69109,-0.37536 -3.72124,-2.74522 -4.04855,-4.72601 -0.56601,-3.42542 -0.29623,-40.2456763 0.30773,-41.9992063 0.32082,-0.93145 1.24662,-2.09086 2.15992,-2.70493 1.52284,-1.02392 2.01379,-1.07475 10.38051,-1.07475 4.83013,0 10.03816,0.22741 11.57339,0.50536 10.35165,1.87408 17.77151,10.9548803 18.42321,22.5472103 0.73255,13.030646 -5.08647,22.700706 -15.86709,26.367926 -2.67908,0.91135 -4.22285,1.05739 -12.4662,1.1793 -5.17465,0.0765 -9.88296,0.0338 -10.46292,-0.0949 z m 19.23188,-12.00354 c 4.58424,-1.97208 6.9902,-6.54891 6.9902,-13.297366 0,-5.21351 -1.04255,-8.38899 -3.59258,-10.94255 -2.50353,-2.50698 -5.51161,-3.44171 -11.07591,-3.44171 l -4.14842,0 0,14.26949 c 0,7.848216 0.15877,14.434826 0.35282,14.636916 0.67428,0.70223 9.08026,-0.19506 11.47389,-1.22478 z m 32.5657,11.4706 c -2.0292,-1.64371 -2.05436,-1.9492 -2.05436,-24.945176 0,-21.5572903 0.0228,-22.1062903 0.96608,-23.3055303 2.12096,-2.69636 7.23703,-2.69636 9.35798,0 0.94333,1.19924 0.96609,1.74824 0.96609,23.3055303 0,15.333506 -0.16052,22.391226 -0.52548,23.104876 -0.98667,1.92932 -2.3833,2.65308 -5.1196,2.65308 -1.75065,0 -2.91179,-0.26283 -3.59071,-0.81278 z m 80.629869,-0.53868 -1.5363,-1.37237 -0.13101,-22.146186 c -0.14671,-24.7986403 -0.19514,-24.3942103 3.08557,-25.7649903 3.33344,-1.39279 6.58957,-0.15666 7.93009,3.01052 0.94924,2.24271 0.93555,42.2657463 -0.0152,44.5412863 -0.93802,2.24502 -2.41083,3.10412 -5.32158,3.10412 -2.06999,0 -2.72676,-0.22469 -4.01153,-1.37238 z m 31.34625,-0.22706 -1.59943,-1.59943 0,-18.39353 0,-18.393526 -4.35141,-0.002 c -3.48463,-10e-4 -4.6512,-0.18455 -5.85638,-0.91939 -3.17963,-1.9387403 -2.98092,-7.4211603 0.32891,-9.0746103 1.45488,-0.72679 3.24943,-0.82259 15.42145,-0.82324 15.32862,-9.4e-4 16.3705,0.16701 17.76378,2.86131 1.06842,2.06609 0.6599,4.90357 -0.93589,6.5005903 -1.12333,1.12419 -1.59629,1.23481 -5.91542,1.38357 l -4.69447,0.16167 -0.005,16.77354 c -0.003,9.225436 -0.13781,17.576156 -0.29993,18.557146 -0.16211,0.98098 -0.87979,2.40989 -1.59483,3.17535 -1.14631,1.22713 -1.61714,1.39173 -3.98091,1.39173 -2.42157,0 -2.83553,-0.15468 -4.28028,-1.59943 z m 21.88552,0.22436 c -2.53022,-2.53022 -2.23277,-3.89586 5.26607,-24.177286 8.19329,-22.1596403 8.54261,-22.9291003 11.41596,-25.1467303 1.609,-1.24182 5.68579,-1.44585 7.72189,-0.38646 3.24786,1.68986 3.69644,2.61848 11.8777,24.5882703 7.67312,20.605246 8.13817,22.642406 5.72068,25.059896 -1.24497,1.24497 -1.77458,1.43739 -3.95623,1.43739 -3.86876,0 -5.21081,-1.35487 -6.98958,-7.05634 l -0.80721,-2.58732 -9.28219,0 -9.28218,0 -1.32796,3.76338 c -1.7011,4.8209 -2.85133,5.88028 -6.38459,5.88028 -2.24345,0 -2.78461,-0.18733 -3.97236,-1.37508 z M 218.39026,22.72083 c -1.41507,-4.59251 -2.7157,-8.50348 -2.8903,-8.69105 -0.1746,-0.18758 -1.61695,3.56993 -3.20521,8.35 l -2.88775,8.691046 5.77805,0 5.77805,0 -2.57284,-8.349996 z m 31.90629,28.434016 c -0.88133,-0.30881 -2.04563,-1.15891 -2.58733,-1.8891 -0.95891,-1.29259 -0.9886,-1.87 -1.12483,-21.874656 -0.077,-11.30087 -0.0156,-21.2287903 0.13632,-22.0620603 0.39856,-2.18577 2.33757,-4.27509 4.31115,-4.64534 2.4972,-0.46848 5.2126,0.52538 6.29771,2.305 0.86678,1.42158 0.91669,2.49373 0.91835,19.7321403 l 0.002,18.228876 7.56295,0 7.56295,0 1.37508,1.37508 c 1.14884,1.14884 1.37508,1.75759 1.37508,3.69994 0,2.85771 -1.19376,4.5685 -3.66717,5.25545 -2.45849,0.68281 -20.14104,0.58281 -22.16202,-0.12533 z"
     id="path4162"
     inkscape:connector-curvature="0" /></svg>