<?xml version="1.0" encoding="utf-8"?>
<!-- Generator: Adobe Illustrator 19.2.0, SVG Export Plug-In . SVG Version: 6.00 Build 0)  -->
<svg version="1.1" id="Layer_1" xmlns="http://www.w3.org/2000/svg" xmlns:xlink="http://www.w3.org/1999/xlink" x="0px" y="0px"
	 viewBox="0 0 346.8 180" style="enable-background:new 0 0 346.8 180;" xml:space="preserve">
<style type="text/css">
	.st0{fill:#FFFFFF;}
</style>
<g>
	<path class="st0" d="M113.4,43.4c1-1.3,1.8-2.6,2.9-3.8c13.5-15.1,30.1-23,50.7-21.7c7.8,0.5,15.2,2.9,22.1,6.6
		c1.3,0.7,2.4,1.7,3.4,2.8c1,1.1,1,2.6,0.2,3.8c-0.8,1.3-2.1,1.2-3.4,0.8c-1.5-0.5-2.9-1.1-4.3-1.8c-14.9-8.2-30.1-8-45.3-0.9
		C129.6,34,122.2,42,115.9,50.9c-1,1.4-1.9,2.8-2.6,4.4c1.5-1.3,3-2.6,4.5-4c10.6-9.2,22.7-14.9,36.8-16c12.1-0.9,23.4,1.5,33.5,8.5
		c1.5,1,2.9,2.2,4,3.6c0.7,0.8,1,2.1,1,3.1c-0.1,2.1-1.4,2.8-3.4,2.1c-1.2-0.5-2.3-1-3.3-1.8c-17.6-14.1-41.6-11-56.7-0.6
		c-6.7,4.6-12.3,10.3-17.3,16.8c0.4-0.3,0.9-0.5,1.3-0.8c7.3-4.8,14.6-9.5,23.1-11.9c14.5-4.2,28.7-4.2,42.3,3.1
		c3.9,2.1,7.3,5.1,10.8,8c1.3,1.1,2.3,2.7,3,4.2c0.4,0.8,0.3,2.6-0.2,3c-0.8,0.7-2.3,0.8-3.4,0.6c-0.9-0.1-1.8-1-2.4-1.7
		c-9.3-10.3-21.2-13.8-34.5-13.3c-16.9,0.7-30.6,8.2-42.2,20c-2.2,2.2-4.3,4.5-6.4,6.8c-3,3.3-4.2,7.1-4.8,11.5
		c-2.8,21.8-9.5,42.1-23.4,59.5c-9,11.3-20.3,19.3-34.6,22.6c-12.3,2.8-24.2,1.3-35.9-3.1c-1.4-0.5-2.7-1.5-4-2.4
		c-1.1-0.8-1.3-2.1-0.8-3.4c0.5-1.3,1.7-1.7,3-1.5c1.7,0.3,3.4,0.7,5,1.3c21.6,8.1,40.5,3.5,57.1-11.9c5.8-5.4,10.4-11.8,14-18.8
		c0.2-0.3,0.3-0.7,0.4-1c-3.5,3.3-7,6.9-10.7,10c-10.5,8.8-22.5,14.2-36.4,14.4c-10.4,0.2-20.1-2.4-29.1-7.5
		c-1.1-0.6-2.2-1.4-2.8-2.4c-0.5-0.8-0.6-2.2-0.3-3.1c0.4-1.3,1.6-1.9,2.9-1.5c1.5,0.4,3,1.1,4.5,1.8c15.7,8.1,31.5,8.6,47.3,0.5
		c9-4.6,15.8-11.9,21.7-19.9c1.3-1.7,2.5-3.5,3.5-5.5c-0.4,0.3-0.9,0.7-1.3,1c-6.9,6-13.9,11.6-22.5,15c-16.8,6.6-33.2,5.9-49-3.3
		c-2-1.2-3.9-2.6-5.6-4.2c-2-1.9-2.3-3.7-1-5.2c1.3-1.5,3-1.3,5.3,0.2c3.6,2.4,7.1,5.1,11,6.7c15.9,6.6,31.1,4.5,45.5-4.5
		c7.2-4.5,12.8-10.6,18-17.2c-0.4,0.2-0.7,0.4-1.1,0.6c-8.5,5.7-17.3,10.9-27.4,13.1c-15.2,3.3-29.7,1.8-42.7-7.1
		c-3.2-2.2-5.9-5.2-8.7-8c-1.1-1.1-1.4-2.6-0.2-4.1c1.3-1.5,2.7-1.7,4.3-0.6c1.1,0.8,2.2,1.7,3.1,2.7c9.2,8.8,20.2,12.7,32.8,12
		C60.9,120.6,76,111,88.4,96c3.5-4.3,5.7-8.6,6.5-14.4c2.2-17.1,7.1-33.4,16.2-48.3c6.7-11.1,15.2-20.6,26.9-26.6
		C154-1.5,170.7-1.9,187.7,4c1.6,0.6,3.1,1.6,4.5,2.5c1.3,0.9,1.6,2.4,1,3.9c-0.7,1.5-2,1.6-3.4,1.3c-1.2-0.2-2.5-0.5-3.6-1
		c-18.1-7.8-44-4.3-61,14.6c-4.8,5.3-8.6,11.2-11.9,17.5c-0.1,0.1-0.1,0.3-0.1,0.5C113.2,43.3,113.3,43.3,113.4,43.4z"/>
	<path class="st0" d="M161.6,148.9c0,6.8,0,13.4,0,20.2c-1.3,0-2.5,0-3.8,0c0-6.7,0-13.4,0-20.2c-1.2-0.1-2.2-0.1-3.3-0.2
		c0-0.9,0-1.9,0-2.9c1,0,2,0,3.2,0c0.4-3.7-0.1-7.8,4.2-9.6c2.8-1.1,5.6-0.7,8.5,0.8c-0.4,0.9-0.7,1.8-1.1,2.7c-2.2-0.5-4.8-2-6.5,0
		c-1.1,1.4-1.1,3.7-1.7,5.9c3.7,0,6.9,0,10.2,0c0-2,0-4,0-6.2c1.4,0,2.5,0,3.9,0c0,2,0,4,0,6.3c2.7,0,5.2,0.1,7.7,0
		c1.4-0.1,2.1,0.3,2.5,1.8c1.4,5.1,3,10.2,4.9,15.3c0.4-1.1,0.8-2.3,1.2-3.4c1.3-4.1,2.7-8.2,4-12.3c0.2-0.7,0.4-1.4,1.5-1.4
		c1.2,0,1.4,0.6,1.6,1.5c1.7,5.2,3.4,10.5,5.3,16.2c0.7-2.2,1.2-4,1.7-5.7c1-3.3,2.1-6.6,3-10c0.4-1.6,1.1-2.2,2.7-1.9
		c0.6,0.1,1.2,0,1.9,0c-0.2,0.8-0.4,1.4-0.6,2c-2.2,6.7-4.4,13.3-6.6,20c-0.3,1.1-0.8,1.5-2,1.6c-1.3,0-1.7-0.5-2.1-1.6
		c-1.6-5-3.2-9.9-5-15.3c-0.7,2-1.2,3.5-1.7,5.1c-1.1,3.4-2.3,6.8-3.3,10.3c-0.3,1-0.7,1.6-1.9,1.6c-1.3,0-1.7-0.5-2.1-1.6
		c-2-6.3-4.1-12.5-6.2-18.8c-2.1,0-4.2,0-6.5,0c0,2.2,0,4.4,0,6.5c0,2.7,0,5.4,0,8.1c0,3.2,1.7,4.1,4.6,2.6c0.3-0.2,0.6-0.4,1.1-0.6
		c0.5,0.8,0.9,1.6,1.4,2.4c-2.2,2-5.9,2.6-8.3,1.3c-2-1-2.5-2.8-2.5-4.8c0-4.4,0-8.9,0-13.3c0-0.7,0-1.3,0-2.1
		C168.2,148.9,165,148.9,161.6,148.9z"/>
	<path class="st0" d="M324.7,165.4c0.5,0.8,0.9,1.6,1.4,2.4c-2.1,2-5.9,2.6-8.4,1.3c-1.9-1-2.4-2.7-2.4-4.7c0-4.5,0-9,0-13.5
		c0-0.6,0-1.3,0-2.1c-1.4,0-2.6,0-4,0c0-1.1,0-1.9,0-3c1.2,0,2.4,0,3.9,0c0-2.2,0-4.3,0-6.4c1.4,0,2.5,0,3.8,0c0,2.1,0,4.1,0,6.3
		c2.9,0,5.5,0.1,8.2,0c1.3-0.1,1.9,0.4,2.3,1.6c1.8,4.9,3.7,9.7,5.6,14.6c0.2,0.5,0.4,0.9,0.7,1.8c2.4-6.2,4.6-12,6.9-17.9
		c1.3,0,2.6,0,4,0c-0.3,0.7-0.5,1.3-0.7,1.9c-3.5,8.7-7.1,17.5-10.6,26.2c-2.1,5.2-5.2,6.5-10.7,4.3c0.1-0.4,0.2-0.9,0.4-1.3
		c0.2-0.4,0.4-0.9,0.6-1.3c4.5,0.6,4.7,1.1,7-4.3c0.8-1.9,0.9-3.5,0-5.4c-2.5-5.8-4.8-11.6-7.1-17.3c-2.2,0-4.3,0-6.7,0
		c0,1.1,0,2,0,2.8c0,3.8,0,7.7,0,11.5c0,3.7,1.6,4.7,4.8,2.9C324,165.8,324.3,165.6,324.7,165.4z"/>
	<path class="st0" d="M108.2,164.4c1-0.8,1.9-1.4,2.8-2.1c0.1-0.1,0.3-0.3,0.4-0.4c0.3,0.5,0.5,1.1,0.9,1.5c2.9,2.6,6.3,3.6,10,2.5
		c4-1.2,5.2-6.2,2-8.9c-1.7-1.4-3.9-2.3-5.9-3.4c-1.6-0.9-3.4-1.5-5-2.4c-3.2-1.9-4.8-4.8-4.1-8.6c0.7-3.6,3.1-5.5,6.5-6.4
		c5.7-1.5,11.3,0.3,14.3,4.7c-0.9,0.8-1.9,1.5-2.4,1.9c-2.3-1.2-4.3-2.5-6.4-3.3c-2.1-0.8-4.2-0.2-6,1.1c-2.4,1.7-2.7,4.6-0.5,6.5
		c1.4,1.2,3.2,1.9,4.8,2.7c2.3,1.2,4.8,2.2,7,3.6c3.2,2,3.9,5.1,3.6,8.6c-0.3,3.3-2.1,5.5-5.1,6.9
		C119.4,171.4,111.6,169.4,108.2,164.4z"/>
	<path class="st0" d="M130.2,99.9c-1,0.8-1.9,1.5-2.4,1.9c-2.4-1.2-4.4-2.4-6.5-3.4c-0.7-0.3-1.5-0.2-2.3-0.2c-2.7,0.2-5,2-5.4,4
		c-0.4,2.1,0.8,4,3.6,5.4c3,1.4,6,2.7,8.9,4.2c2.7,1.4,4.1,3.8,4.3,6.8c0.3,5.1-2.3,8.6-7.3,9.8c-3.7,0.8-7.3,0.5-10.6-1.4
		c-1.6-0.9-2.9-2.2-4.5-3.5c1.3-1,2.3-1.7,3.3-2.5c2.5,2.9,5.7,4.3,9.6,4c2.8-0.2,4.6-1.6,5.2-3.9c0.7-2.5-0.1-4.7-2.5-6.2
		c-1.9-1.2-4-1.9-5.9-3c-1.9-1-3.8-1.8-5.4-3.1c-4.2-3.5-3.7-9.6,0.8-12.6C117.9,93.1,126.5,94.7,130.2,99.9z"/>
	<path class="st0" d="M197,104.9c0-3.3,0-6.3,0-9.4c1.3,0,2.5,0,3.7,0c0,10.9,0,21.7,0,32.5c-2.6,0.6-3.2,0.5-3.7-1
		c-1.5,0.6-3,1.5-4.6,1.7c-4.5,0.8-8.5-1.4-10.5-5.5c-1.8-3.7-2-7.6-0.7-11.5c1.9-5.7,7.3-8.5,13.7-7.2
		C195.6,104.5,196.2,104.7,197,104.9z M197.1,115.7c0-2,0.1-4.1,0-6.1c0-0.6-0.5-1.4-0.9-1.6c-3.7-1.8-8.3-0.6-10.3,2.9
		c-2.3,3.9-2.2,8,0,11.8c2,3.5,7,4.2,10,1.6c0.6-0.5,1.1-1.6,1.1-2.4C197.2,119.8,197.1,117.7,197.1,115.7z"/>
	<path class="st0" d="M302.4,142.4c-1.1,0.7-2.1,1.3-3,1.9c-0.8-1-1.5-2-2.4-2.8c-3.7-3.5-9.2-2.8-12,1.4
		c-3.3,4.8-3.3,14.4-0.2,19.3c3.5,5.3,10.2,5.5,14,0.4c0.2-0.3,0.5-0.7,0.9-1.2c1,0.6,1.9,1.2,3,1.9c-1.2,2.3-2.8,4.1-5,5.3
		c-6,3.2-14.2,0.8-17-5.3c-3.3-7-3.2-14.2,0.2-21.2c2.2-4.4,6.1-6.5,11-6.4C296.6,135.8,300.1,138,302.4,142.4z"/>
	<path class="st0" d="M267.4,157.2c-5.9,0-11.4,0-17,0c-0.7,3.4,1.1,7.3,4.1,8.7c3.5,1.7,6.6,0.8,9.9-2.9c0.7,0.5,1.5,1,2.3,1.6
		c-2.1,3.7-5.2,5.3-9.2,5.1c-4.3-0.2-7.9-1.7-9.8-5.8c-1.9-4.3-1.9-8.8,0-13.1c1.8-4.1,5.8-6.2,10.5-5.7c4.4,0.4,7.4,3.1,8.5,7.6
		C267,154.1,267.2,155.5,267.4,157.2z M250.6,154.1c4.1,0,8.2,0,12.2,0c-0.2-3.6-2.4-5.8-5.8-6C253.7,147.9,251.3,150.1,250.6,154.1
		z"/>
	<path class="st0" d="M211,124.9c-2.9-1.5-4.8-5.4-4-8.8c5.6,0,11.2,0,17,0c-0.3-1.6-0.4-3.1-0.8-4.4c-1.1-4.5-4-7-8.3-7.5
		c-4.8-0.5-8.6,1.5-10.6,5.5c-1.6,3.3-1.7,6.8-1,10.4c1.5,7,8.9,10.8,15.5,7.9c2-0.9,3.4-2.3,4.5-4.3c-0.8-0.5-1.5-1-2.3-1.6
		C217.7,125.8,214.4,126.7,211,124.9z M213.5,107.1c3.4,0.1,5.8,2.5,5.8,6c-4,0-8.1,0-12.1,0C207.5,109.5,210.1,107,213.5,107.1z"/>
	<path class="st0" d="M262.9,112.9c0.2-2.7-0.5-4.5-2.4-5.3c-3-1.2-5.5-0.2-7.7,2.1c-0.8-0.6-1.6-1.2-2.9-2c1.4-1,2.6-2.1,3.9-2.7
		c2.6-1.1,5.4-1.2,8.1-0.4c2.3,0.6,3.7,2.1,4.4,4.4c0.2,0.7,0.5,1.5,0.5,2.3c0,5.6,0,11.1,0,16.8c-1.1,0-2.1,0-3.2,0
		c-0.1-0.5-0.3-1-0.4-1.6c-2.6,2.1-5.5,2.8-8.7,2c-3.1-0.8-5.2-3-5.5-5.9c-0.4-3.2,0.8-5.9,3.7-7.3c2-1,4.3-1.4,6.5-2
		C260.2,113,261.5,113,262.9,112.9z M263,115.5c-2.9,0.7-5.6,1.1-8,2.1c-2.8,1.2-3.3,4.7-1.3,6.7c2.1,2.1,7.4,1.5,9-1
		c0.1-0.2,0.2-0.6,0.2-0.8C263,120.4,263,118.3,263,115.5z"/>
	<path class="st0" d="M230.6,151.9c-0.2-4.3-2.8-6.6-7.2-6.8c-1.4-0.1-2.9,0.1-4.3,0.3c-2,0.4-3.8,1.4-4.9,3.4
		c0.9,0.6,1.7,1.2,2.5,1.8c3.1-2.6,6-3.2,8.2-1.8c1.6,1,2.3,2.9,1.8,5.1c-0.9,0.1-1.9,0.1-2.8,0.2c-2.9,0.3-5.7,0.9-8.1,2.5
		c-2.3,1.6-3.3,3.9-3,6.7c0.3,2.7,1.8,4.7,4.3,5.7c2.9,1.2,5.9,1,8.6-0.7c0.4-0.3,0.8-0.5,1.3-0.8c0.4,2.7,2.2,1.3,3.6,1.7
		C230.7,163.2,230.9,157.6,230.6,151.9z M227.1,163.6c0,0.3-0.1,0.6-0.3,0.8c-1.6,2.2-6.1,3-8.4,1.4c-2.7-1.8-2.4-6,0.8-7.3
		c2.4-1,5-1.3,7.9-2C227.1,159.3,227.1,161.4,227.1,163.6z"/>
	<path class="st0" d="M153.6,152.5c-1.2-4.2-4.8-7-9-7.4c-4.7-0.4-8.7,1.7-10.6,5.8c-2.1,4.5-2,9,0.3,13.3c2.2,4.1,6.3,6.1,11,5.4
		c5.5-0.8,9.2-5.8,9.4-12.2C154.3,155.8,154.1,154.1,153.6,152.5z M149.2,163.2c-1.2,2.3-3.2,3.5-5.9,3.5c-2.7,0-4.6-1.4-5.7-3.7
		c-0.8-1.8-1.2-3.7-1.8-5.8c0.7-1.9,1-4.1,2-5.8c2.6-4.4,8.6-4.4,11.2,0C151.4,155.2,151.3,159.3,149.2,163.2z"/>
	<path class="st0" d="M177.5,128.2c-1.4,0-2.5,0-3.9,0c0-1.5,0-2.9,0-4.3c0-3.7,0.1-7.3,0-11c-0.1-4.1-2.6-6.2-6.6-5.6
		c-1.7,0.3-3.4,1.2-4.9,2c-0.5,0.3-0.8,1.3-0.8,1.9c-0.1,5.6,0,11.1,0,16.8c-1.3,0-2.5,0-3.8,0c0-7.8,0-15.5,0-23.3
		c1.1,0,2.2,0,3.3,0c0.1,0.5,0.3,1,0.4,1.6c2.9-1.9,6-2.6,9.3-2.2c3.8,0.5,6.2,2.4,6.5,6.2c0.4,4.3,0.3,8.6,0.4,12.9
		C177.5,124.9,177.5,126.5,177.5,128.2z"/>
	<path class="st0" d="M133.6,104.8c1.2,0,2.3,0,3.6,0c0,0.6,0.1,1.3,0.1,1.9c0,4.1,0,8.2,0,12.2c0,5.9,3.6,8.3,9.1,6.1
		c2.9-1.1,3.1-1.5,3.1-4.6c0-4.6,0-9.1,0-13.7c0-0.6,0-1.3,0-2c1.3,0,2.5,0,3.7,0c0,7.8,0,15.5,0,23.4c-1.3-0.4-3.2,1.1-3.7-1.7
		c-2.6,1.9-5.6,2.5-8.7,2.2c-4.4-0.4-7-2.7-7.2-7.1C133.4,116.1,133.6,110.5,133.6,104.8z"/>
	<path class="st0" d="M290.7,128.1c-1.3,0-2.5,0-3.8,0c0-2.9,0-5.7,0-8.5c0-2,0-4.1,0-6.1c-0.1-5.1-3.2-7.4-8.2-5.9
		c-0.3,0.1-0.7,0.2-1,0.4c-3.1,1.3-3.3,1.5-3.3,4.8c0,5.1,0,10.2,0,15.4c-1.3,0-2.4,0-3.7,0c0-7.8,0-15.5,0-23.3c1.1,0,2.2,0,3.3,0
		c0.1,0.5,0.2,1,0.4,1.6c2.9-1.9,6-2.6,9.3-2.2c4,0.5,6.3,2.5,6.6,6.6c0.3,3.6,0.2,7.2,0.3,10.8
		C290.8,123.7,290.7,125.9,290.7,128.1z"/>
	<path class="st0" d="M234.2,169c0-7.8,0-15.5,0-23.2c1.1,0,2.1,0,3.3,0c0.1,0.4,0.3,1,0.6,1.7c2.5-2.3,5.3-3.1,8.7-1.9
		c-0.2,1-0.4,2.1-0.6,3.3c-2.3-0.6-4.5-0.7-6.6,0.8c-1.1,0.7-1.6,1.5-1.6,2.9c0.1,5.4,0,10.9,0,16.5C236.6,169,235.4,169,234.2,169z
		"/>
	<path class="st0" d="M231,128.1c-1.3,0-2.5,0-3.7,0c0-7.8,0-15.4,0-23.1c2.6-0.8,3.2-0.6,3.7,1.2c1.4-0.7,2.7-1.6,4.1-1.9
		c1.4-0.3,3-0.1,4.8-0.1c-0.3,1.4-0.5,2.5-0.7,3.7c-2.5-0.8-4.9-0.7-6.8,1c-0.6,0.5-1.2,1.5-1.2,2.3c-0.1,5-0.1,10-0.1,14.9
		C231,126.9,231,127.4,231,128.1z"/>
	<path class="st0" d="M242.8,95.4c1.2,0,2.3,0,3.5,0c0,10.9,0,21.8,0,32.8c-1.1,0-2.2,0-3.5,0C242.8,117.3,242.8,106.4,242.8,95.4z"
		/>
	<path class="st0" d="M305,145.7c1.3,0,2.4,0,3.6,0c0,7.8,0,15.5,0,23.3c-1.2,0-2.4,0-3.6,0C305,161.3,305,153.6,305,145.7z"/>
	<path class="st0" d="M309.4,139.1c0,1.6-1,2.7-2.5,2.7c-1.4,0-2.5-1.1-2.5-2.7c0-1.6,1.1-2.9,2.5-2.9
		C308.3,136.3,309.4,137.6,309.4,139.1z"/>
	<path class="st0" d="M309.9,95.4c0,3.2,0,6.3,0,9.5c-0.7-0.2-1.3-0.3-1.9-0.4c-7.5-1.6-13.5,2.3-14.5,9.6c-0.3,2-0.1,4.1,0.3,6.1
		c1.7,8.6,10.5,10.9,16,6.5c0.2,0.5,0.4,1,0.6,1.5c1.1,0,2.1,0,3.1,0c0-11,0-21.8,0-32.7C312.3,95.4,311.2,95.4,309.9,95.4z
		 M309.8,121.7c-0.1,0.9-0.6,2.1-1.3,2.7c-3.1,2.6-8,1.7-10-1.9c-2.1-3.8-2.1-7.7,0-11.5c2-3.6,6.6-4.8,10.4-3
		c0.4,0.2,0.9,1,0.9,1.5c0.1,1,0.1,2.1,0.1,3.1c0,1,0,2.1,0,3.2c0,1,0,2,0,3C310,119.7,309.9,120.7,309.8,121.7z"/>
</g>
</svg>
