<?xml version="1.0" encoding="UTF-8" standalone="no"?>
<!-- Created with Inkscape (http://www.inkscape.org/) -->

<svg
   xmlns:dc="http://purl.org/dc/elements/1.1/"
   xmlns:cc="http://creativecommons.org/ns#"
   xmlns:rdf="http://www.w3.org/1999/02/22-rdf-syntax-ns#"
   xmlns:svg="http://www.w3.org/2000/svg"
   xmlns="http://www.w3.org/2000/svg"
   xmlns:sodipodi="http://sodipodi.sourceforge.net/DTD/sodipodi-0.dtd"
   xmlns:inkscape="http://www.inkscape.org/namespaces/inkscape"
   width="67.695961mm"
   height="24.927483mm"
   viewBox="0 0 239.86758 88.325725"
   id="svg2"
   version="1.1"
   inkscape:version="0.91 r13725"
   sodipodi:docname="USGS.svg">
  <defs
     id="defs4" />
  <sodipodi:namedview
     id="base"
     pagecolor="#9f9fff"
     bordercolor="#666666"
     borderopacity="1.0"
     inkscape:pageopacity="0"
     inkscape:pageshadow="2"
     inkscape:zoom="1.979899"
     inkscape:cx="278.70664"
     inkscape:cy="-35.48849"
     inkscape:document-units="px"
     inkscape:current-layer="layer1"
     showgrid="false"
     fit-margin-top="0"
     fit-margin-left="0"
     fit-margin-right="0"
     fit-margin-bottom="0"
     inkscape:window-width="1535"
     inkscape:window-height="876"
     inkscape:window-x="65"
     inkscape:window-y="24"
     inkscape:window-maximized="1" />
  <metadata
     id="metadata7">
    <rdf:RDF>
      <cc:Work
         rdf:about="">
        <dc:format>image/svg+xml</dc:format>
        <dc:type
           rdf:resource="http://purl.org/dc/dcmitype/StillImage" />
        <dc:title />
      </cc:Work>
    </rdf:RDF>
  </metadata>
  <g
     inkscape:label="Layer 1"
     inkscape:groupmode="layer"
     id="layer1"
     transform="translate(-96.293355,-666.06381)">
    <path
       style="fill:#ffffff"
       d="m 247.21709,754.05219 c -0.91431,-0.50009 -1.35,-1.18135 -1.35,-2.11092 0,-0.80961 0.058,-0.84266 1.47914,-0.84266 1.30551,0 1.49038,0.0792 1.57499,0.675 0.13582,0.95629 1.28182,1.06074 1.84746,0.16838 0.24173,-0.38136 0.52812,-1.11904 0.63641,-1.6393 l 0.1969,-0.94593 -1.25413,0.43209 c -0.98022,0.33771 -1.47547,0.35903 -2.26758,0.0976 -1.21207,-0.40002 -1.46258,-1.12463 -1.22366,-3.53961 0.42499,-4.29581 2.04883,-6.93847 4.31721,-7.02586 0.83115,-0.032 1.45356,0.1297 1.83793,0.47755 0.51139,0.4628 0.60253,0.47037 0.75885,0.063 0.23825,-0.62086 2.89648,-0.66315 2.89648,-0.0461 0,0.99226 -2.45555,11.72035 -2.86304,12.50833 -0.6301,1.21849 -2.45842,2.07683 -4.40001,2.06567 -0.87282,-0.005 -1.85695,-0.1568 -2.18695,-0.3373 z m 4.31798,-6.365 c 0.77887,-0.93848 1.71761,-5.4641 1.27426,-6.1431 -0.44626,-0.68344 -1.36459,-0.25205 -1.9313,0.90724 -0.65341,1.33662 -1.2743,4.48885 -1.0165,5.16067 0.22779,0.59361 1.20678,0.6376 1.67354,0.0752 z m 21.63202,6.49859 c -0.95658,-0.35173 -1.5,-1.1066 -1.5,-2.08367 0,-1.00231 0.002,-1.0035 1.47913,-1.0035 1.30552,0 1.49039,0.0792 1.575,0.675 0.13586,0.9566 1.28334,1.06159 1.84035,0.16838 0.53842,-0.86337 0.88569,-2.64338 0.51573,-2.64338 -0.15114,0 -0.34862,0.11944 -0.43883,0.26541 -0.26246,0.42467 -2.04235,0.57864 -2.96619,0.25659 -1.17076,-0.40813 -1.47072,-1.38395 -1.11321,-3.62141 0.84713,-5.30179 2.18846,-7.09392 5.10802,-6.82476 0.4125,0.038 0.96957,0.26735 1.23793,0.50961 0.42981,0.38799 0.5091,0.38531 0.66559,-0.0225 0.23292,-0.607 2.89648,-0.66489 2.89648,-0.063 0,0.43808 -1.90207,9.19379 -2.43292,11.19935 -0.36299,1.37139 -1.45227,2.58687 -2.76161,3.08157 -0.87692,0.33132 -3.32131,0.39459 -4.10547,0.10626 z m 4.31525,-6.76217 c 0.53685,-0.84452 1.43012,-5.1577 1.19504,-5.77029 -0.19171,-0.4996 -0.93343,-0.58929 -1.56473,-0.18921 -0.81128,0.51412 -1.92761,5.85245 -1.34556,6.4345 0.41838,0.41838 1.30309,0.17338 1.71525,-0.475 z m -179.815247,2.6868 c -1.06266,-0.53751 -1.65702,-1.87856 -1.2391,-2.7958 0.27384,-0.601 0.54411,-0.716 1.68267,-0.716 1.31338,0 1.35643,0.0292 1.35643,0.91901 0,0.85611 0.0667,0.91257 0.974997,0.825 0.85715,-0.0826 0.975,-0.20042 0.975,-0.9744 0,-0.75463 -0.24572,-1.02398 -1.720037,-1.88546 -0.94602,-0.55278 -1.86963,-1.28457 -2.05246,-1.6262 -0.69722,-1.30276 0.21939,-3.20132 1.9725,-4.08562 2.116117,-1.06741 5.246927,-0.47336 5.795267,1.09961 0.44639,1.28054 -0.0359,1.82806 -1.61018,1.82806 -1.20818,0 -1.33509,-0.0682 -1.33509,-0.7179 0,-0.8624 -0.64876,-1.18196 -1.35346,-0.66667 -0.83965,0.61397 -0.39422,1.43847 1.33956,2.47957 2.44428,1.46775 2.9097,2.86244 1.6202,4.85514 -0.98385,1.52035 -4.640717,2.3547 -6.406297,1.46166 z m 9.692437,-0.0517 c -1.37514,-0.59805 -1.74021,-2.11879 -1.16484,-4.85236 0.70886,-3.3678 1.37003,-4.58081 2.93917,-5.39224 1.23702,-0.63969 4.214,-0.62812 5.20349,0.0202 0.90035,0.58993 1.42976,1.82496 1.19066,2.7776 -0.15038,0.59915 -0.36045,0.68671 -1.64763,0.68671 -1.44513,0 -1.4772,-0.0199 -1.56928,-0.975 -0.11167,-1.1582 -1.04176,-1.46672 -1.82213,-0.60443 -0.60429,0.66774 -1.42188,3.68758 -1.42188,5.25187 0,1.85041 1.45627,1.92808 2.34137,0.12489 0.345,-0.70286 0.56715,-0.79733 1.875,-0.79733 1.59447,0 1.72162,0.17238 1.06213,1.4399 -1.22415,2.35279 -4.44864,3.42369 -6.98606,2.32017 z m 15.28028,0.01 c -1.25393,-0.56851 -1.67466,-1.67231 -1.42046,-3.72661 0.67433,-5.44963 2.95688,-7.70634 7.02996,-6.9504 2.04215,0.379 2.68639,1.6221 2.23112,4.30505 l -0.26334,1.55184 -2.94099,0.0861 -2.94098,0.0861 0.091,1.41394 c 0.0768,1.19281 0.19385,1.42859 0.74867,1.50755 0.47989,0.0683 0.7861,-0.15474 1.1327,-0.825 0.43336,-0.83802 0.60593,-0.9186 1.96732,-0.9186 0.82077,0 1.4923,0.0809 1.4923,0.17966 0,0.68818 -1.13438,2.31626 -1.97651,2.83673 -1.31791,0.81451 -3.86093,1.03853 -5.15077,0.45374 z m 4.87728,-7.67012 c 0,-0.90602 -0.10636,-1.06236 -0.77568,-1.14017 -0.88158,-0.10248 -1.33244,0.32041 -1.63751,1.53592 -0.20987,0.83621 -0.20179,0.8417 1.10088,0.74832 1.28186,-0.0919 1.31231,-0.11843 1.31231,-1.14407 z m 15.5571,7.82092 c -1.52997,-0.6612 -1.90918,-2.24616 -1.30263,-5.44449 0.70515,-3.71825 2.3413,-5.44128 5.20621,-5.4827 2.76183,-0.0399 4.31886,1.1755 4.03892,3.15279 -0.0879,0.6205 -0.28301,0.71409 -1.65448,0.79346 l -1.55487,0.09 -0.0951,-0.98998 c -0.0798,-0.83061 -0.21585,-0.98998 -0.84512,-0.98998 -0.97171,0 -1.64729,1.34342 -2.14936,4.27409 -0.27684,1.61593 -0.28544,2.26111 -0.0335,2.51303 0.56511,0.56512 1.77506,0.0474 2.18129,-0.9333 0.34397,-0.83043 0.49322,-0.90382 1.83798,-0.90382 0.87546,0 1.4636,0.13428 1.4636,0.33415 0,0.72059 -1.30307,2.59737 -2.15125,3.0984 -1.02668,0.60648 -3.99057,0.89939 -4.94165,0.48837 z m 9.89152,-0.1399 c -1.33922,-0.60838 -1.70777,-1.46015 -1.49549,-3.45633 0.46826,-4.4033 1.93737,-6.72308 4.56448,-7.20754 1.87801,-0.34631 3.69822,0.0259 4.40739,0.90128 0.58741,0.72508 0.71267,3.0489 0.23243,4.31204 -0.28542,0.75071 -0.36154,0.76953 -3.11251,0.76953 l -2.81992,0 -0.18491,0.92456 c -0.3937,1.96848 1.31545,2.8439 2.14847,1.10044 0.35149,-0.73565 0.55486,-0.825 1.87781,-0.825 0.9044,0 1.48363,0.13258 1.48363,0.33959 0,0.6685 -1.1753,2.22026 -2.08895,2.75808 -1.2551,0.73881 -3.80129,0.93354 -5.01243,0.38335 z m 4.85138,-7.68102 c 0,-0.85168 -0.124,-1.06765 -0.65655,-1.14345 -0.79582,-0.11327 -1.89345,0.90741 -1.89345,1.7607 0,0.54064 0.15823,0.6058 1.275,0.525 1.23957,-0.0897 1.275,-0.12143 1.275,-1.14225 z m 15.23305,7.50818 c -1.13432,-0.69162 -1.42811,-1.59739 -1.16396,-3.58863 0.55914,-4.21501 1.99616,-6.4367 4.45172,-6.88255 1.8738,-0.34022 3.81944,0.0355 4.4933,0.86768 0.94799,1.17072 0.4705,4.98325 -0.98028,7.82702 -1.09804,2.15233 -4.65884,3.08247 -6.80078,1.77648 z m 3.96114,-2.20721 c 0.25191,-0.38446 0.68086,-1.81006 0.95322,-3.16798 0.44629,-2.22509 0.44948,-2.51467 0.0323,-2.93181 -0.54907,-0.54907 -1.59738,-0.30906 -2.00894,0.45994 -0.43454,0.81193 -1.29824,5.40439 -1.1091,5.89728 0.26732,0.69661 1.61387,0.53406 2.13248,-0.25743 z m 16.13081,2.35186 c -1.3514,-0.97472 -0.65376,-4.60703 1.1366,-5.91774 0.43947,-0.32174 1.58146,-0.64798 2.7,-0.77133 1.89819,-0.20933 1.94029,-0.23319 2.02955,-1.15047 0.0631,-0.64801 -0.0592,-0.9944 -0.39673,-1.12392 -0.64755,-0.24849 -1.55739,0.26381 -1.79432,1.01031 -0.1571,0.49498 -0.45375,0.60032 -1.69053,0.60032 -1.41598,0 -1.48858,-0.0378 -1.29608,-0.675 0.52022,-1.722 3.18162,-3.17578 5.08929,-2.78002 0.41097,0.0853 1.07528,0.22272 1.47624,0.30547 1.79824,0.37111 2.02126,1.53951 1.10282,5.77773 -0.31249,1.442 -0.65611,3.12807 -0.7636,3.74682 -0.19437,1.11891 -0.20332,1.125 -1.65375,1.125 -1.34327,0 -1.44505,-0.0507 -1.29012,-0.6432 l 0.1682,-0.64321 -0.90023,0.66558 c -1.20035,0.88745 -3.03591,1.10939 -3.91734,0.47366 z m 4.41331,-2.3094 c 0.33643,-0.36111 0.61353,-0.79986 0.61578,-0.975 0.002,-0.17514 0.0855,-0.62218 0.185,-0.99343 0.15859,-0.59179 0.0683,-0.675 -0.73233,-0.675 -1.11326,0 -2.15676,1.18076 -2.15676,2.44046 0,0.71321 0.12569,0.85954 0.73831,0.85954 0.40608,0 1.01358,-0.29546 1.35,-0.65657 z m 10.31879,2.47749 c -1.54288,-0.66678 -1.93339,-2.35198 -1.27014,-5.48115 0.68106,-3.21317 1.9551,-4.81134 4.24457,-5.32443 1.7713,-0.39695 3.93449,0.0706 4.5781,0.98945 0.24221,0.34579 0.44037,1.14573 0.44037,1.77764 l 0,1.14893 -1.575,-0.0907 c -1.40329,-0.0808 -1.56562,-0.15926 -1.48892,-0.71975 0.21959,-1.60486 -1.82451,-1.61891 -2.4751,-0.017 -0.5458,1.34387 -1.16176,4.90075 -0.94604,5.46291 0.32581,0.84903 1.77395,0.4147 2.28506,-0.68533 0.41375,-0.89049 0.56478,-0.96903 1.875,-0.975 1.12053,-0.005 1.425,0.0981 1.425,0.4831 0,0.83197 -1.21108,2.50073 -2.17761,3.00054 -1.09544,0.56648 -4.0102,0.82194 -4.91529,0.43079 z m 18.92927,-0.45729 c -0.91012,-0.91011 -0.95793,-2.21651 -0.14274,-3.90047 0.75195,-1.55332 1.98485,-2.28184 4.20186,-2.48287 1.59306,-0.14445 1.76375,-0.22892 1.90845,-0.94446 0.30782,-1.52212 -1.50155,-1.90761 -2.16094,-0.46041 -0.2782,0.61059 -0.54353,0.72458 -1.68657,0.72458 -1.51948,0 -1.71318,-0.37664 -0.86188,-1.67589 0.77308,-1.17986 2.1265,-1.72857 4.22563,-1.71316 2.08579,0.0153 3.26455,0.57534 3.54258,1.68308 0.0948,0.37754 -0.1731,2.21648 -0.59524,4.08652 -0.42214,1.87005 -0.76752,3.78694 -0.76752,4.25977 0,0.83162 -0.049,0.85968 -1.5,0.85968 -1.08171,0 -1.5,-0.11647 -1.5,-0.41766 0,-0.32994 -0.23386,-0.29843 -1.11343,0.15 -1.52196,0.77593 -2.65963,0.72187 -3.5502,-0.16871 z m 4.50235,-2.05431 c 0.2489,-0.37988 0.53889,-1.12238 0.64442,-1.65 0.17683,-0.88419 0.13018,-0.95932 -0.59564,-0.95932 -1.11791,0 -1.9875,0.98444 -1.9875,2.25 0,0.91739 0.0939,1.05 0.74308,1.05 0.44456,0 0.9249,-0.27747 1.19564,-0.69068 z m 72.17653,2.26522 c -1.21516,-0.61599 -1.60242,-1.67991 -1.33751,-3.67454 0.44726,-3.36761 1.5354,-5.6397 3.07091,-6.41221 1.93282,-0.97238 4.86531,-0.75563 5.82635,0.43064 0.9077,1.12042 0.46173,5.05344 -0.86991,7.67176 -1.10377,2.17028 -4.39638,3.14694 -6.68984,1.98435 z m 3.69249,-2.24954 c 0.55087,-0.88201 1.47012,-4.76525 1.34211,-5.66956 -0.1312,-0.92691 -1.16279,-1.06988 -1.89352,-0.26243 -0.60397,0.66737 -1.33993,3.65574 -1.35008,5.48199 -0.006,0.99889 0.077,1.125 0.73683,1.125 0.4457,0 0.91181,-0.27014 1.16466,-0.675 z m 17.55049,2.20091 c -0.59094,-0.47902 -0.70071,-0.82718 -0.66283,-2.10232 0.0635,-2.13828 0.89918,-5.6915 1.61559,-6.86955 1.04304,-1.71513 3.42195,-2.27824 4.60916,-1.09103 0.51716,0.51716 0.41969,0.74146 1.17898,-2.71301 l 0.39563,-1.8 1.56926,-0.0912 1.56927,-0.0913 -0.1953,1.04104 c -0.10742,0.57257 -0.82699,3.92113 -1.59905,7.44125 l -1.40374,6.40022 -1.31287,0.0945 c -0.73044,0.0525 -1.40293,-0.0513 -1.51589,-0.23404 -0.14185,-0.22951 -0.46719,-0.19074 -1.07973,0.1287 -1.18566,0.61829 -2.31586,0.57791 -3.16848,-0.11321 z m 4.6247,-3.2828 c 0.70253,-2.11824 1.00393,-4.99221 0.55279,-5.27103 -0.49491,-0.30588 -1.44645,0.0681 -1.69047,0.66434 -0.46811,1.14387 -1.02452,3.89131 -1.03456,5.10851 -0.0102,1.23778 0.0257,1.29073 0.81431,1.2 0.70406,-0.081 0.90312,-0.33049 1.35793,-1.70182 z m -213.57053,2.58189 c 0.10307,-0.53625 0.61205,-2.96625 1.13107,-5.4 l 0.94368,-4.425 1.45643,0 c 1.07915,0 1.45642,0.11385 1.45642,0.43951 0,0.38662 -1.54669,7.89201 -1.99596,9.68549 -0.14725,0.58783 -0.36344,0.675 -1.67406,0.675 l -1.50498,0 0.1874,-0.975 z m 15.00884,0.45 c 0.0889,-0.28875 0.57918,-2.4825 1.08946,-4.875 0.51027,-2.3925 0.99572,-4.58625 1.07875,-4.875 0.21481,-0.74696 3.11055,-0.77349 3.11055,-0.0285 0,0.44631 0.0531,0.45047 0.525,0.0412 0.82926,-0.7192 2.39752,-0.89315 3.3962,-0.37671 0.76422,0.39519 0.87764,0.61968 0.86988,1.72174 -0.005,0.69701 -0.38513,2.95479 -0.84495,5.01729 l -0.83604,3.75 -1.55505,0.0907 c -0.85527,0.0499 -1.55504,0.0269 -1.55504,-0.051 0,-0.0779 0.3375,-1.70269 0.75,-3.61058 0.86385,-3.99548 0.94276,-5.2791 0.32454,-5.2791 -1.37788,0 -1.54168,0.3549 -2.59624,5.625 l -0.67535,3.375 -1.62169,0 c -1.40606,0 -1.6002,-0.0698 -1.46002,-0.525 z m 35.12145,-0.13399 c 0.0892,-0.38005 0.42579,-1.99652 0.74802,-3.59215 0.32224,-1.59562 0.67328,-3.24937 0.78011,-3.675 0.14617,-0.58241 0.0792,-0.77386 -0.27059,-0.77386 -0.64592,0 -0.852,-0.43926 -0.62689,-1.3362 0.13128,-0.52307 0.39565,-0.7638 0.83877,-0.7638 0.50552,0 0.76371,-0.32843 1.18035,-1.50152 0.30375,-0.85524 0.85243,-1.71063 1.27475,-1.98734 0.84515,-0.55377 3.27313,-0.91218 3.5161,-0.51904 0.33573,0.54321 -0.15177,1.9079 -0.68155,1.9079 -0.60775,0 -1.03973,0.46101 -1.33526,1.425 -0.16832,0.54906 -0.0912,0.675 0.41328,0.675 0.4114,0 0.62022,0.19375 0.62022,0.57546 0,1.00468 -0.34448,1.52454 -1.01021,1.52454 -0.58918,0 -0.72494,0.37616 -1.5429,4.275 l -0.89689,4.275 -1.58474,0.091 c -1.51959,0.0873 -1.57806,0.0626 -1.42257,-0.6 z m 15.56971,-0.31601 c 0.10307,-0.53625 0.61205,-2.96625 1.13107,-5.4 l 0.94368,-4.425 1.45643,0 c 1.11817,0 1.45642,0.10846 1.45642,0.46701 0,0.42268 0.0633,0.42268 0.66675,0 0.36671,-0.25685 0.98924,-0.46701 1.38339,-0.46701 0.66537,0 0.70157,0.0803 0.50601,1.12271 -0.27298,1.45511 -0.36261,1.57729 -1.1571,1.57729 -1.30492,0 -1.92589,0.78603 -2.42945,3.0752 -0.26312,1.19614 -0.62489,2.81605 -0.80393,3.5998 l -0.32551,1.425 -1.50758,0 -1.50758,0 0.1874,-0.975 z m 34.54698,0.0163 c 0.10597,-0.54519 0.82221,-3.89375 1.59165,-7.44125 l 1.39897,-6.45 1.15655,-0.095 c 1.89839,-0.15593 1.98321,-0.0468 1.51399,1.94746 -0.64979,2.7617 -0.63611,2.80161 0.79154,2.30975 1.39724,-0.48139 2.41615,-0.30977 3.18145,0.53587 0.57648,0.637 0.61213,0.36505 -1.14398,8.72691 l -0.29927,1.425 -1.47514,0 c -1.05807,-10e-6 -1.47514,-0.1177 -1.47514,-0.41625 0,-0.22894 0.3511,-2.05362 0.78023,-4.05486 0.82086,-3.82804 0.80011,-4.5289 -0.13408,-4.5289 -0.93367,0 -1.19036,0.59414 -2.08355,4.82275 l -0.85066,4.02725 -1.57261,0.0912 -1.57262,0.0913 0.19267,-0.99126 z m 20.08579,0.58375 c 0.0695,-0.20625 0.54551,-2.4 1.05784,-4.875 0.51234,-2.475 1.00035,-4.73625 1.08447,-5.025 0.21526,-0.73888 3.11252,-0.7745 3.11252,-0.0383 0,0.3837 0.0891,0.41278 0.42092,0.1374 1.33109,-1.1047 3.8883,-0.86498 4.37303,0.40995 0.16794,0.44172 -0.0682,2.14333 -0.71292,5.13818 l -0.96403,4.47774 -1.56824,0.091 c -1.50128,0.0871 -1.5615,0.0615 -1.41045,-0.6 1.5603,-6.83353 1.70183,-8.34101 0.78312,-8.34101 -1.02873,0 -1.36471,0.73005 -2.25538,4.90068 l -0.87544,4.09932 -1.58589,0 c -1.13609,0 -1.55006,-0.10636 -1.45955,-0.375 z m 20.71318,-0.58375 c 0.10539,-0.54519 0.62019,-2.94875 1.144,-5.34125 l 0.95238,-4.35 1.58237,-0.091 c 1.51847,-0.0873 1.5756,-0.0631 1.41466,0.6 -0.0922,0.38006 -0.61339,2.78352 -1.15812,5.34102 l -0.99042,4.65 -1.56826,0.0912 -1.56825,0.0913 0.19164,-0.99126 z m 5.12174,0.13375 c 0.0908,-0.45375 0.60099,-2.85 1.13376,-5.325 l 0.96867,-4.5 1.28091,-0.0933 c 0.7045,-0.0513 1.47343,0.0665 1.70874,0.26174 0.28694,0.23813 0.55132,0.25743 0.80283,0.0586 0.60865,-0.4812 2.05756,-0.63443 2.97497,-0.31462 1.43066,0.49873 1.41551,1.05598 -0.23265,8.56263 l -0.47755,2.175 -1.46988,0 c -0.96987,-1e-5 -1.46989,-0.1266 -1.46989,-0.37214 0,-0.20467 0.35566,-2.01748 0.79036,-4.02847 0.83257,-3.85157 0.80486,-4.5994 -0.17039,-4.5994 -0.84121,0 -1.0584,0.54316 -2.01262,5.03322 l -0.84301,3.96678 -1.57467,0 c -1.55784,0 -1.57291,-0.009 -1.40958,-0.825 z m 25.51393,-1.47027 c -0.10671,-1.2624 -0.19402,-3.6924 -0.19402,-5.4 l 0,-3.10474 1.52301,0 1.52301,0 -0.21126,3.825 c -0.1162,2.10375 -0.10281,3.7225 0.0298,3.59723 0.13256,-0.12527 0.94255,-1.81277 1.79997,-3.75 l 1.55895,-3.52223 1.68828,-0.09 1.68828,-0.09 0.0104,3.98997 0.0104,3.98997 1.60986,-3.9 1.60986,-3.9 1.3798,-0.0914 c 0.88688,-0.0588 1.3798,0.0308 1.3798,0.25082 0,0.18824 -1.1013,2.62564 -2.44733,5.41644 l -2.44735,5.07418 -1.57468,0 -1.57467,0 -0.19524,-2.925 c -0.10739,-1.60875 -0.22936,-3.1275 -0.27105,-3.375 -0.0417,-0.2475 -0.84506,1.06875 -1.78526,2.925 l -1.70945,3.375 -1.60348,0 -1.60347,0 -0.19402,-2.29526 z m 24.22696,1.77027 c 0.0888,-0.28875 0.57434,-2.4825 1.07902,-4.875 1.23846,-5.87106 1.01426,-5.4 2.57022,-5.4 0.98203,0 1.32978,0.11768 1.32978,0.45 0,0.55991 0.28291,0.55729 1.03234,-0.01 0.32028,-0.24226 0.90906,-0.44046 1.30839,-0.44046 0.67624,0 0.7116,0.077 0.51542,1.12271 -0.27637,1.47316 -0.35806,1.57729 -1.23749,1.57729 -1.39687,0 -2.03896,1.08231 -2.80314,4.725 l -0.70801,3.375 -1.62397,0 c -1.40813,0 -1.60252,-0.0698 -1.46256,-0.525 z m 7.07902,0.2976 c 0,-0.48297 3.00016,-14.23016 3.1631,-14.49381 0.0948,-0.15334 0.77184,-0.2788 1.50461,-0.2788 1.07151,0 1.33229,0.1033 1.33229,0.52777 0,0.41391 -2.07149,10.42603 -2.85463,13.79723 -0.13674,0.58867 -0.34792,0.675 -1.65109,0.675 -0.82185,0 -1.49428,-0.10232 -1.49428,-0.22739 z m -200.3959,-12.7857 c 0.0109,-1.68928 0.28512,-1.98691 1.83089,-1.98691 1.32552,0 1.463,0.0643 1.44392,0.675 -0.0469,1.50028 -0.41281,1.87153 -1.8839,1.9112 -1.23495,0.0333 -1.39454,-0.0355 -1.39091,-0.59929 z m 141.11571,0.28019 c -0.0643,-0.17441 -0.007,-0.7221 0.12821,-1.2171 0.23019,-0.84509 0.33536,-0.9 1.72356,-0.9 1.46509,0 1.47751,0.008 1.37762,0.9 -0.0555,0.495 -0.22475,1.0288 -0.37624,1.18623 -0.38044,0.39537 -2.70946,0.42057 -2.85315,0.0309 z m -75.26981,-8.45689 c -9.06276,-0.97317 -14.6222,-4.88593 -16.99364,-11.96023 l -0.70396,-2.1 -0.0864,-23.925 -0.0864,-23.925 6.44977,0 6.44976,0 0.0855,23.33168 0.0855,23.33169 0.99977,2.03045 c 1.49075,3.02759 3.84884,4.31687 7.37745,4.03363 3.94414,-0.3166 6.23481,-2.58177 7.04547,-6.96706 0.21734,-1.17569 0.32731,-9.16067 0.32731,-23.76549 l 0,-21.9949 6.45,0 6.45,0 -0.004,22.425 c -0.004,20.82753 -0.0444,22.62111 -0.57208,25.17799 -1.85491,8.98829 -8.39835,13.87335 -19.17715,14.31689 -1.59325,0.0656 -3.43683,0.0612 -4.09683,-0.01 z m 40.5,-0.14531 c -4.44371,-0.54843 -8.53858,-2.4582 -10.60446,-4.94571 -2.36972,-2.85336 -3.74412,-7.50354 -3.58378,-12.12547 l 0.0882,-2.54374 6.34885,-0.0809 6.34885,-0.0809 0.1897,2.33089 c 0.49737,6.11138 1.89978,8.01446 6.19282,8.40374 3.50096,0.31746 5.99897,-1.11315 6.98217,-3.99868 0.91662,-2.69013 0.43366,-5.17988 -1.45089,-7.47973 -1.18885,-1.45083 -4.77029,-3.94723 -9.89192,-6.89504 -10.25647,-5.90322 -13.96244,-10.84084 -13.95994,-18.5994 0.002,-5.06575 1.36434,-8.76088 4.32814,-11.73622 2.20296,-2.21154 4.11678,-3.22881 7.93553,-4.21806 3.97679,-1.0302 11.27418,-1.10848 14.77292,-0.15847 7.42898,2.01717 10.79993,6.5005 10.87433,14.46275 l 0.0294,3.15 -6.18136,0.081 -6.18137,0.081 -0.1928,-2.03096 c -0.3812,-4.01562 -1.28259,-5.79979 -3.4043,-6.73833 -1.77198,-0.78383 -4.29303,-0.61835 -6.13605,0.40276 -3.21711,1.78241 -3.68886,6.9628 -0.93771,10.29703 1.31025,1.58793 3.2248,2.9103 8.51625,5.88211 6.39041,3.58902 8.10538,4.76106 10.46734,7.15358 3.69174,3.73949 4.96368,7.35012 4.71062,13.3719 -0.22971,5.46604 -1.45853,8.58964 -4.51716,11.48236 -1.94758,1.84194 -3.89921,2.86074 -6.98972,3.64881 -4.51032,1.15013 -9.16965,1.44951 -13.75374,0.88375 z m 44.55,-0.0829 c -5.47709,-0.84426 -8.6079,-2.23763 -11.24869,-5.00622 -2.53936,-2.66226 -4.0321,-6.37545 -4.95371,-12.32238 -0.53622,-3.46012 -0.74163,-20.00101 -0.30415,-24.4915 1.18738,-12.18754 5.63463,-18.27457 14.85655,-20.33441 3.60399,-0.805 9.71459,-0.73645 13.05,0.14638 7.97426,2.11068 12.54845,7.62942 12.95167,15.62614 l 0.0983,1.95 -6.28725,0 -6.28725,0 -0.34984,-2.26264 c -0.60265,-3.89772 -1.83753,-5.58158 -4.72137,-6.43799 -2.25161,-0.66866 -3.76332,-0.56769 -5.62404,0.37563 -2.00818,1.01808 -3.0135,2.54623 -3.89782,5.925 -0.80438,3.07332 -1.1806,12.66398 -0.86203,21.975 0.43944,12.84381 1.97663,15.8682 8.21512,16.16307 1.83184,0.0866 3.02982,-0.049 4.96448,-0.56198 l 2.55,-0.67609 0,-6.75 0,-6.75 -3.675,-0.0842 -3.675,-0.0842 0,-4.49076 0,-4.49077 9.9,0 9.9,0 0,15.11327 c 0,12.53403 -0.0711,15.17231 -0.41686,15.45923 -0.4763,0.39529 -3.12621,0.9743 -7.68314,1.67876 -4.25443,0.65769 -13.2138,0.83728 -16.5,0.33073 z m 41.55,0.0762 c -7.18865,-0.91007 -11.24409,-3.89758 -13.23306,-9.74835 -0.64901,-1.90915 -0.83035,-3.09047 -0.94941,-6.18489 l -0.14717,-3.825 6.48982,0 6.48982,0 0,2.03697 c 0,2.64928 0.71354,5.34697 1.76237,6.66303 0.96632,1.21252 3.07329,2.06767 5.13763,2.08519 4.23154,0.0359 6.75709,-2.56783 6.69175,-6.89895 -0.0568,-3.76493 -2.5351,-6.3175 -10.53094,-10.84656 -9.19926,-5.2107 -13.1296,-9.22736 -14.61859,-14.93968 -0.74805,-2.86981 -0.48394,-8.11305 0.54976,-10.91377 1.93053,-5.23064 5.78726,-8.3111 12.07175,-9.64199 3.31669,-0.70239 10.64424,-0.72241 13.45613,-0.0368 7.27767,1.77455 10.81021,6.06159 11.45295,13.89915 0.1108,1.35115 0.11468,2.8024 0.009,3.225 l -0.19285,0.76838 -6.12041,0 -6.1204,0 -0.19676,-2.025 c -0.39903,-4.10689 -1.6653,-6.31745 -3.9884,-6.96265 -5.57456,-1.54823 -9.85992,2.97986 -7.99632,8.44923 0.95393,2.79963 2.90175,4.42259 10.16673,8.47108 5.77637,3.21894 8.11619,4.8083 10.235,6.95227 4.21296,4.263 5.7997,10.25339 4.46395,16.85272 -1.28802,6.36357 -5.12266,10.31094 -11.53196,11.87099 -4.13897,1.00744 -9.10899,1.28651 -13.35,0.7496 z m -214.349997,-9.10535 0,-8.84712 7.622297,-5.08728 c 4.19227,-2.79801 8.14102,-5.3121 8.775,-5.58685 0.68188,-0.29551 2.33479,-0.56273 4.04676,-0.65422 2.398,-0.12815 3.25386,-0.0454 4.99322,0.48294 2.85032,0.86576 4.62472,2.15294 9.89103,7.17512 6.44488,6.14611 8.57675,7.71613 12.6005,9.27966 2.72537,1.05902 7.19081,1.14033 9.59619,0.17475 l 1.575,-0.63225 0,6.27118 0,6.27118 -29.55,0 -29.549997,0 0,-8.84711 z m 45.867737,-6.88773 c -1.85302,-0.51101 -4.27255,-1.85683 -5.78191,-3.21608 l -1.23583,-1.11294 1.95,0.63344 c 1.39046,0.45169 2.76779,0.64019 4.8,0.65694 2.60046,0.0214 3.02462,-0.0593 4.84434,-0.92141 1.09688,-0.51969 3.41013,-1.90344 5.14054,-3.075 1.73042,-1.17156 3.22922,-2.13011 3.33067,-2.13011 0.10145,0 0.18445,1.38898 0.18445,3.08661 l 0,3.08662 -1.70765,1.03494 c -3.65144,2.213 -7.94961,2.94288 -11.52461,1.95699 z m -5.98641,-7.08077 c -0.91777,-0.13681 -2.39995,-0.53698 -3.29374,-0.88928 -1.6271,-0.64135 -5.55051,-3.23219 -5.28965,-3.49305 0.0762,-0.0762 1.10745,0.15567 2.2916,0.51535 1.71686,0.52148 2.68148,0.62868 4.76191,0.52921 3.47479,-0.16613 4.81155,-0.8159 13.26093,-6.44592 3.70569,-2.46919 6.90637,-4.58994 7.11262,-4.71277 0.29028,-0.17288 0.375,0.48163 0.375,2.89705 l 0,3.12039 -4.75438,3.16794 c -2.6149,1.74237 -5.33616,3.46475 -6.04724,3.82752 -2.65793,1.35597 -5.68898,1.89021 -8.41705,1.48356 z m -39.881327,-4.29613 0,-3.11175 3.792407,-2.49254 c 4.48775,-2.94956 6.17935,-3.5852 9.52916,-3.58072 2.5612,0.003 4.34698,0.41594 6.51398,1.50475 1.39519,0.701 4.55387,3.00258 4.3713,3.18515 -0.0596,0.0596 -0.9068,-0.18375 -1.88263,-0.54083 -2.39305,-0.87568 -7.14934,-0.95818 -9.10381,-0.15791 -0.73127,0.29943 -3.93106,2.29068 -7.11065,4.425 -3.179577,2.13433 -5.855017,3.88059 -5.945407,3.88059 -0.0904,0 -0.16435,-1.40029 -0.16435,-3.11174 z m 30.749997,-3.15023 c -1.66506,-0.43879 -3.69302,-1.47558 -5.38508,-2.75309 -0.92445,-0.69797 -1.61849,-1.33137 -1.54231,-1.40755 0.0762,-0.0762 0.85602,0.11148 1.73296,0.41704 1.14142,0.39772 2.44679,0.55536 4.59443,0.55482 2.74731,-6.9e-4 3.16425,-0.08 4.95,-0.94193 1.0725,-0.51765 6.8775,-4.25454 12.9,-8.30421 l 10.95,-7.36305 0.0865,2.88362 c 0.0476,1.58599 0.024,3.0465 -0.0524,3.24558 -0.20477,0.53362 -17.75485,12.09628 -19.68412,12.96865 -1.32893,0.6009 -2.23376,0.76469 -4.65,0.84169 -1.65,0.0526 -3.405,-0.0111 -3.9,-0.14157 z m -30.685487,-9.41206 0.0855,-3.07402 1.8,-0.50197 c 3.280207,-0.91475 6.687047,-0.60144 9.898697,0.91035 1.63519,0.76972 4.36934,2.75955 4.59062,3.34093 0.0491,0.12907 -0.82837,-0.10016 -1.95,-0.5094 -1.59612,-0.58236 -2.6261,-0.74564 -4.73932,-0.75131 -3.16169,-0.008 -4.76773,0.50214 -7.574547,2.40821 -1.01339,0.68818 -1.92216,1.25124 -2.01948,1.25124 -0.0973,0 -0.13849,-1.38331 -0.0915,-3.07403 z m 23.347827,2.2541 c -2.4295,-0.45524 -4.64688,-1.75152 -8.5227,-4.98241 -2.55679,-2.13134 -5.9826,-4.05767 -8.56909,-4.81841 -0.8962,-0.26359 -2.68495,-0.47925 -3.974997,-0.47925 l -2.34555,0 0,-6.9 0,-6.9 29.549997,0 29.55,0 0,2.66434 0,2.66434 -12.825,8.48085 c -13.49328,8.92276 -14.73817,9.67228 -16.88768,10.16762 -1.33636,0.30796 -4.58234,0.36387 -5.97498,0.10292 z"
       id="path3358"
       inkscape:connector-curvature="0" />
  </g>
</svg>
