<svg id="Layer_1" data-name="Layer 1" xmlns="http://www.w3.org/2000/svg" viewBox="0 0 153.63 39.84"><defs><style>.cls-1,.cls-2{fill:#fff;}.cls-2{fill-rule:evenodd;}</style></defs><title>logo_strap</title><path class="cls-1" d="M11.49,4.73C10,8.41,8.45,12.13,7,16.56H6.91C5.67,12,4.37,8.23,3.1,4.42L0.37,5.1,5.73,20.21H7.56c1.52-3.84,3-7.68,4.52-12.08h0.06c1.52,4.4,3.1,8.24,4.64,12.08h2L24.18,4.85l-2.57-.43C20.38,8.23,19.11,12,17.9,16.56H17.84c-1.49-4.43-3-8.14-4.52-11.83H11.49Z" transform="translate(-0.37 -0.08)"/><path class="cls-1" d="M53.91,0.08L51.12,1V4.73H49V6.34h2.17v9.29c0,3.16,1.49,5,4.58,5a6,6,0,0,0,3.16-1L58.18,18a4.14,4.14,0,0,1-2.14.53c-1.7,0-2.14-1.3-2.14-3.47V6.34H58V4.73H53.91V0.08h0Z" transform="translate(-0.37 -0.08)"/><path class="cls-2" d="M73.11,12.65c0.31-4.06-1.27-8.3-6-8.3-3.5,0-7.34,2.45-7.34,7.8s3.19,8.42,8,8.42A9.32,9.32,0,0,0,73,18.79l-0.81-1.52a7.74,7.74,0,0,1-4.24,1.33c-3.07,0-5.26-2.85-5.23-5.95H73.11ZM62.86,10.8c0.09-2,1.27-4.46,4.24-4.46,2.45,0,3.47,2,3.47,4.46H62.86Z" transform="translate(-0.37 -0.08)"/><path class="cls-1" d="M78.65,4.73H75.92V20.21h2.79V11.88c0-3.44,1.18-4.86,2.6-4.86a4.77,4.77,0,0,1,2.07.65l1.27-1.8a3.83,3.83,0,0,0-2.57-1.52,3.86,3.86,0,0,0-2.32,1.11L78.65,6.65V4.73h0Z" transform="translate(-0.37 -0.08)"/><path class="cls-1" d="M95.06,5.78a5.65,5.65,0,0,0-3.81-1.42c-2.73,0-5.14,1.55-5.14,4,0,2.11,1.55,3.16,3.31,4.43,1.46,1.05,3.07,1.83,3.07,3.62,0,1.52-1.33,2.2-2.63,2.2a5.19,5.19,0,0,1-3.34-1.55l-1.36,1.58a6.71,6.71,0,0,0,4.77,2c2.85,0,5.42-1.77,5.42-4.37,0-2.17-1.3-3.44-3.28-5-1.76-1.33-3.19-2-3.19-3.28s1.27-1.77,2.26-1.77A5,5,0,0,1,94,7.2l1.08-1.42h0Z" transform="translate(-0.37 -0.08)"/><path class="cls-1" d="M101.56,0.08L98.77,1V4.73H96.6V6.34h2.17v9.29c0,3.16,1.49,5,4.58,5a6,6,0,0,0,3.16-1L105.83,18a4.14,4.14,0,0,1-2.14.53c-1.7,0-2.14-1.3-2.14-3.47V6.34h4.06V4.73h-4.06V0.08h0Z" transform="translate(-0.37 -0.08)"/><path class="cls-2" d="M115.37,20.58c4.58,0,7.65-3.5,7.65-8.3a7.64,7.64,0,1,0-15.27,0c0,4.8,3.07,8.3,7.62,8.3h0Zm0-14.24c3.5,0,4.65,3.16,4.65,5.95s-1,6.32-4.65,6.32-4.61-3.41-4.61-6.32,1.15-5.95,4.61-5.95h0Z" transform="translate(-0.37 -0.08)"/><path class="cls-1" d="M128.68,4.73h-2.76V20.21h2.79V10.89a4.14,4.14,0,0,1,4.21-4.49c2.51,0,3.75,1.52,3.75,4.43v9.38h2.79v-10c0-3.9-1.92-5.88-5.48-5.88a7.74,7.74,0,0,0-5.3,2.29V4.73h0Z" transform="translate(-0.37 -0.08)"/><path class="cls-1" d="M152.09,5.78a5.65,5.65,0,0,0-3.81-1.42c-2.73,0-5.14,1.55-5.14,4,0,2.11,1.55,3.16,3.31,4.43,1.46,1.05,3.07,1.83,3.07,3.62,0,1.52-1.33,2.2-2.63,2.2a5.19,5.19,0,0,1-3.34-1.55l-1.36,1.58a6.71,6.71,0,0,0,4.77,2c2.85,0,5.42-1.77,5.42-4.37,0-2.17-1.3-3.44-3.28-5-1.77-1.33-3.19-2-3.19-3.28s1.27-1.77,2.26-1.77a5,5,0,0,1,2.85,1l1.08-1.42h0Z" transform="translate(-0.37 -0.08)"/><path class="cls-2" d="M39.1,8.31a2.06,2.06,0,0,0-1.69-.74,3.51,3.51,0,0,0-2.93,2,7.45,7.45,0,0,0-1.23,3.95,3.4,3.4,0,0,0,.64,2.22,2,2,0,0,0,1.6.75q2,0,3.1-2.32a9.89,9.89,0,0,0,1.12-4.21,2.45,2.45,0,0,0-.62-1.64h0ZM27.26,19.93a10.58,10.58,0,0,1-2.68-7.14A11.36,11.36,0,0,1,27.83,4.6,12.8,12.8,0,0,1,37.52.84q5.26,0,8.28,2.66A8.32,8.32,0,0,1,48.62,10a8.63,8.63,0,0,1-2,5.77,5.84,5.84,0,0,1-4.51,2.38,2.94,2.94,0,0,1-2.16-.69,2.34,2.34,0,0,1-.69-1.7,2.06,2.06,0,0,1,0-.34c0-.12,0-0.24.07-0.37a5.21,5.21,0,0,1-2,2.41,4.86,4.86,0,0,1-2.47.69,3.72,3.72,0,0,1-3-1.32,5,5,0,0,1-1.12-3.39,7.75,7.75,0,0,1,1.92-5.19A5.51,5.51,0,0,1,36.88,6a3.59,3.59,0,0,1,2.48.87,2.9,2.9,0,0,1,1,2.1l0.74-2.48h2.17l-2,6.47q-0.22.75-.33,1.21a3.73,3.73,0,0,0-.1.81,1.16,1.16,0,0,0,.4,1,1.56,1.56,0,0,0,.93.3,3.78,3.78,0,0,0,3-1.76,7.37,7.37,0,0,0,1.35-4.6,6.56,6.56,0,0,0-2.39-5.38,9.85,9.85,0,0,0-6.45-2q-5.62,0-8.59,3.28a10,10,0,0,0-2.54,7,8.59,8.59,0,0,0,2.42,6.21q2.84,3,8.09,3a13.26,13.26,0,0,0,4.57-.77,15.31,15.31,0,0,0,3.87-2.1l1,1.33a13.37,13.37,0,0,1-4,2.22,15.88,15.88,0,0,1-5.82,1q-6.18,0-9.52-3.86h0Z" transform="translate(-0.37 -0.08)"/><path class="cls-1" d="M1.6,37.25H0.67l1.4-7.47H3.64a2,2,0,0,1,2.11,2c0,1.31-1,2.53-3.29,2.5l0.12-.65H2.86a1.77,1.77,0,0,0,2-1.82A1.38,1.38,0,0,0,3.5,30.47H2.87Z" transform="translate(-0.37 -0.08)"/><path class="cls-1" d="M10.08,36.84A4.29,4.29,0,0,1,8,37.38c-1.13,0-1.67-.81-1.67-2,0-1.6,1.33-3.61,3.22-3.61A1.18,1.18,0,0,1,10.81,33c0,1.28-1.81,2.09-3.56,2,0,0.73,0,1.75,1.12,1.75a3.33,3.33,0,0,0,1.42-.43ZM9.89,33.17a0.64,0.64,0,0,0-.64-0.75,2.39,2.39,0,0,0-1.88,1.94C8.85,34.5,9.84,33.81,9.89,33.17Z" transform="translate(-0.37 -0.08)"/><path class="cls-1" d="M13.08,32.79l0,0a1.87,1.87,0,0,1,1.44-1,1.08,1.08,0,0,1,.69.36l-0.45.6a1.39,1.39,0,0,0-.58-0.11c-0.6,0-1.16.64-1.47,2.25l-0.45,2.36H11.43l1-5.34h0.84Z" transform="translate(-0.37 -0.08)"/><path class="cls-1" d="M15.48,37.25l0.9-4.77H15.61l0.11-.57h0.77l0.12-.65c0.27-1.5,1.11-1.86,1.75-1.86a1.25,1.25,0,0,1,.7.22l-0.28.49A1.3,1.3,0,0,0,18.33,30a0.86,0.86,0,0,0-.8.91l-0.18,1H18.5l-0.11.57H17.24l-0.9,4.77H15.48Z" transform="translate(-0.37 -0.08)"/><path class="cls-1" d="M23.47,34.11c0,1.69-1.12,3.27-2.7,3.27A2.19,2.19,0,0,1,18.61,35a3.07,3.07,0,0,1,2.88-3.24A2.11,2.11,0,0,1,23.47,34.11ZM19.53,35c0,0.45.15,1.71,1.27,1.71s1.76-1.26,1.76-2.6c0-.38,0-1.71-1.15-1.71S19.53,33.75,19.53,35Z" transform="translate(-0.37 -0.08)"/><path class="cls-1" d="M26,32.79l0,0a1.87,1.87,0,0,1,1.44-1,1.08,1.08,0,0,1,.69.36l-0.45.6a1.39,1.39,0,0,0-.58-0.11c-0.6,0-1.16.64-1.47,2.25l-0.45,2.36H24.32l1-5.34h0.84Z" transform="translate(-0.37 -0.08)"/><path class="cls-1" d="M29.65,33.15l0,0a2.75,2.75,0,0,1,2.13-1.39,1,1,0,0,1,1.06,1.37l0,0a2.72,2.72,0,0,1,2-1.39c1.11,0,1.43.53,1.09,2.39L35.4,37.25H34.55l0.57-3.06c0.21-1.18.21-1.7-.46-1.7s-1.76.76-2.13,2.82l-0.35,1.94H31.32l0.57-3.06c0.21-1.18.21-1.7-.46-1.7s-1.76.76-2.13,2.82l-0.35,1.94H28.08l1-5.34h0.83Z" transform="translate(-0.37 -0.08)"/><path class="cls-1" d="M41.29,37.25H40.43l0.19-1,0,0a2.8,2.8,0,0,1-2,1.15,1.74,1.74,0,0,1-1.49-2c0-1.94,1.33-3.63,3-3.63a1.38,1.38,0,0,1,1.18.73h0l0.11-.6H42.3Zm-1.21-4.82c-1.09,0-2,1.11-2,2.95,0,0.81.33,1.28,0.9,1.28,0.86,0,2-1.17,2.17-3.12A1.08,1.08,0,0,0,40.09,32.43Z" transform="translate(-0.37 -0.08)"/><path class="cls-1" d="M44.62,33.19l0,0a2.88,2.88,0,0,1,2.41-1.43,1.11,1.11,0,0,1,1.15,1.09,4.47,4.47,0,0,1-.14,1L47.4,37.25H46.53L47.21,34a4.14,4.14,0,0,0,.11-0.84,0.64,0.64,0,0,0-.75-0.66c-0.88,0-2,1.28-2.28,2.71l-0.37,2H43.05l1-5.34h0.83Z" transform="translate(-0.37 -0.08)"/><path class="cls-1" d="M53,36.84a3.33,3.33,0,0,1-1.71.53,2.05,2.05,0,0,1-2-2.33,3.28,3.28,0,0,1,3.25-3.27,1.74,1.74,0,0,1,1.16.43l-0.38.51a2.16,2.16,0,0,0-1-.3A2.41,2.41,0,0,0,50.16,35c0,0.56.15,1.73,1.3,1.73a2.47,2.47,0,0,0,1.21-.41Z" transform="translate(-0.37 -0.08)"/><path class="cls-1" d="M57.77,36.84a4.29,4.29,0,0,1-2.09.53c-1.13,0-1.67-.81-1.67-2,0-1.6,1.33-3.61,3.22-3.61A1.18,1.18,0,0,1,58.5,33c0,1.28-1.81,2.09-3.56,2,0,0.73,0,1.75,1.12,1.75a3.33,3.33,0,0,0,1.42-.43Zm-0.19-3.67a0.64,0.64,0,0,0-.64-0.75,2.39,2.39,0,0,0-1.88,1.94C56.54,34.5,57.53,33.81,57.58,33.17Z" transform="translate(-0.37 -0.08)"/><path class="cls-1" d="M64.88,37.12a3,3,0,0,1-1.08.26c-1,0-1.28-.67-1.08-1.69l0.62-3.21H62.67l0.12-.57h0.67l0.23-1.28,0.93-.32-0.3,1.6h1.26l-0.12.57H64.21l-0.63,3.31c-0.12.61,0,1,.42,1a2.88,2.88,0,0,0,.8-0.15Z" transform="translate(-0.37 -0.08)"/><path class="cls-1" d="M67.63,33.19l0,0a2.87,2.87,0,0,1,2.41-1.43,1.11,1.11,0,0,1,1.15,1.09,4.47,4.47,0,0,1-.14,1l-0.67,3.37H69.54L70.21,34a4.14,4.14,0,0,0,.11-0.84,0.64,0.64,0,0,0-.75-0.66c-0.88,0-2,1.28-2.28,2.71l-0.37,2H66.06l1.47-7.84h0.85Z" transform="translate(-0.37 -0.08)"/><path class="cls-1" d="M73.86,32.79l0,0a1.87,1.87,0,0,1,1.44-1,1.08,1.08,0,0,1,.69.36l-0.45.6A1.39,1.39,0,0,0,75,32.64c-0.6,0-1.16.64-1.47,2.25l-0.45,2.36H72.21l1-5.34h0.84Z" transform="translate(-0.37 -0.08)"/><path class="cls-1" d="M80.88,34.11c0,1.69-1.12,3.27-2.7,3.27A2.19,2.19,0,0,1,76,35a3.07,3.07,0,0,1,2.88-3.24A2.11,2.11,0,0,1,80.88,34.11ZM76.94,35c0,0.45.15,1.71,1.27,1.71S80,35.48,80,34.13c0-.38,0-1.71-1.15-1.71S76.94,33.75,76.94,35Z" transform="translate(-0.37 -0.08)"/><path class="cls-1" d="M85.41,35.63l0,0A2.69,2.69,0,0,1,83,37.38a1.08,1.08,0,0,1-1.09-1.13,4.09,4.09,0,0,1,.11-1l0.67-3.37h0.86l-0.67,3.26a4.16,4.16,0,0,0-.1.84,0.63,0.63,0,0,0,.75.66c0.83,0,2-1.57,2.21-2.95L86,31.91h0.85l-1,5.34H85Z" transform="translate(-0.37 -0.08)"/><path class="cls-1" d="M91.89,37.06c-0.38,2-1.69,2.86-3,2.86A3,3,0,0,1,87,39.38l0.36-.63a2.59,2.59,0,0,0,1.62.48c1,0,1.74-.7,2-2.1l0.17-.89,0,0a2.8,2.8,0,0,1-2,1.15,1.74,1.74,0,0,1-1.49-2c0-1.94,1.33-3.63,3-3.63a1.38,1.38,0,0,1,1.18.73h0l0.1-.6h0.88Zm-1.24-4.63c-1.09,0-2,1.11-2,2.95,0,0.81.33,1.28,0.9,1.28,0.86,0,2-1.17,2.17-3.12A1.08,1.08,0,0,0,90.65,32.43Z" transform="translate(-0.37 -0.08)"/><path class="cls-1" d="M95.18,33.19l0,0a2.87,2.87,0,0,1,2.41-1.43,1.11,1.11,0,0,1,1.15,1.09,4.47,4.47,0,0,1-.14,1L98,37.25H97.09L97.77,34a4.14,4.14,0,0,0,.11-0.84,0.64,0.64,0,0,0-.75-0.66c-0.88,0-2,1.28-2.28,2.71l-0.37,2H93.61l1.47-7.84h0.85Z" transform="translate(-0.37 -0.08)"/><path class="cls-1" d="M105.52,37.12a3,3,0,0,1-1.08.26c-1,0-1.28-.67-1.08-1.69L104,32.48h-0.67l0.12-.57h0.67l0.23-1.28,0.93-.32-0.3,1.6h1.26l-0.12.57h-1.26l-0.63,3.31c-0.12.61,0,1,.42,1a2.88,2.88,0,0,0,.8-0.15Z" transform="translate(-0.37 -0.08)"/><path class="cls-1" d="M110.52,36.84a4.29,4.29,0,0,1-2.09.53c-1.13,0-1.67-.81-1.67-2,0-1.6,1.33-3.61,3.22-3.61A1.18,1.18,0,0,1,111.24,33c0,1.28-1.81,2.09-3.56,2,0,0.73,0,1.75,1.12,1.75a3.33,3.33,0,0,0,1.42-.43Zm-0.19-3.67a0.64,0.64,0,0,0-.64-0.75,2.39,2.39,0,0,0-1.88,1.94C109.29,34.5,110.27,33.81,110.33,33.17Z" transform="translate(-0.37 -0.08)"/><path class="cls-1" d="M115.63,36.84a3.33,3.33,0,0,1-1.71.53,2.05,2.05,0,0,1-2-2.33,3.28,3.28,0,0,1,3.25-3.27,1.74,1.74,0,0,1,1.16.43l-0.38.51a2.16,2.16,0,0,0-1-.3,2.41,2.41,0,0,0-2.1,2.56c0,0.56.15,1.73,1.3,1.73a2.47,2.47,0,0,0,1.21-.41Z" transform="translate(-0.37 -0.08)"/><path class="cls-1" d="M118.19,33.19l0,0a2.88,2.88,0,0,1,2.41-1.43,1.11,1.11,0,0,1,1.15,1.09,4.47,4.47,0,0,1-.14,1L121,37.25H120.1L120.77,34a4.14,4.14,0,0,0,.11-0.84,0.64,0.64,0,0,0-.75-0.66c-0.88,0-2,1.28-2.28,2.71l-0.37,2h-0.85l1.47-7.84h0.85Z" transform="translate(-0.37 -0.08)"/><path class="cls-1" d="M124.34,33.19l0,0a2.88,2.88,0,0,1,2.41-1.43,1.11,1.11,0,0,1,1.15,1.09,4.47,4.47,0,0,1-.14,1l-0.67,3.37h-0.86L126.92,34a4.14,4.14,0,0,0,.11-0.84,0.64,0.64,0,0,0-.75-0.66c-0.88,0-2,1.28-2.28,2.71l-0.37,2h-0.85l1-5.34h0.83Z" transform="translate(-0.37 -0.08)"/><path class="cls-1" d="M133.82,34.11c0,1.69-1.12,3.27-2.7,3.27A2.19,2.19,0,0,1,129,35a3.07,3.07,0,0,1,2.88-3.24A2.11,2.11,0,0,1,133.82,34.11Zm-3.95.92c0,0.45.15,1.71,1.27,1.71s1.76-1.26,1.76-2.6c0-.38,0-1.71-1.15-1.71S129.87,33.75,129.87,35Z" transform="translate(-0.37 -0.08)"/><path class="cls-1" d="M134.67,37.25l1.47-7.84H137l-1.47,7.84h-0.86Z" transform="translate(-0.37 -0.08)"/><path class="cls-1" d="M142.19,34.11c0,1.69-1.12,3.27-2.7,3.27A2.19,2.19,0,0,1,137.32,35a3.07,3.07,0,0,1,2.88-3.24A2.11,2.11,0,0,1,142.19,34.11Zm-3.95.92c0,0.45.15,1.71,1.27,1.71s1.76-1.26,1.76-2.6c0-.38,0-1.71-1.15-1.71S138.24,33.75,138.24,35Z" transform="translate(-0.37 -0.08)"/><path class="cls-1" d="M147.25,37.06c-0.38,2-1.69,2.86-3,2.86a3,3,0,0,1-1.88-.53l0.36-.63a2.59,2.59,0,0,0,1.62.48c1,0,1.74-.7,2-2.1l0.17-.89,0,0a2.8,2.8,0,0,1-2,1.15,1.74,1.74,0,0,1-1.49-2c0-1.94,1.33-3.63,3-3.63a1.38,1.38,0,0,1,1.18.73h0l0.1-.6h0.88ZM146,32.43c-1.09,0-2,1.11-2,2.95,0,0.81.33,1.28,0.9,1.28,0.86,0,2-1.17,2.17-3.12A1.08,1.08,0,0,0,146,32.43Z" transform="translate(-0.37 -0.08)"/><path class="cls-1" d="M150.13,31.81c0.23,1.4.48,2.81,0.68,4.33h0c0.83-1.53,1.65-2.94,2.48-4.33l0.69,0.3c-1.58,2.6-3.16,5.21-4.52,7.81l-0.7-.36L150.18,37l-1-5.08Z" transform="translate(-0.37 -0.08)"/></svg>