<?xml version="1.0" encoding="UTF-8" standalone="no"?>
<svg
   xmlns:dc="http://purl.org/dc/elements/1.1/"
   xmlns:cc="http://creativecommons.org/ns#"
   xmlns:rdf="http://www.w3.org/1999/02/22-rdf-syntax-ns#"
   xmlns:svg="http://www.w3.org/2000/svg"
   xmlns="http://www.w3.org/2000/svg"
   xmlns:sodipodi="http://sodipodi.sourceforge.net/DTD/sodipodi-0.dtd"
   xmlns:inkscape="http://www.inkscape.org/namespaces/inkscape"
   viewBox="0 0 2000 2073"
   height="2073"
   width="2000"
   version="1.1"
   id="svg2"
   inkscape:version="0.91 r13725"
   sodipodi:docname="shield.svg">
  <sodipodi:namedview
     pagecolor="#ffffff"
     bordercolor="#666666"
     borderopacity="1"
     objecttolerance="10"
     gridtolerance="10"
     guidetolerance="10"
     inkscape:pageopacity="0"
     inkscape:pageshadow="2"
     inkscape:window-width="1108"
     inkscape:window-height="641"
     id="namedview7"
     showgrid="false"
     inkscape:zoom="0.11384467"
     inkscape:cx="-273.66525"
     inkscape:cy="1036.5"
     inkscape:window-x="0"
     inkscape:window-y="0"
     inkscape:window-maximized="0"
     inkscape:current-layer="svg2" />
  <metadata
     id="metadata8">
    <rdf:RDF>
      <cc:Work
         rdf:about="">
        <dc:format>image/svg+xml</dc:format>
        <dc:type
           rdf:resource="http://purl.org/dc/dcmitype/StillImage" />
        <dc:title />
      </cc:Work>
    </rdf:RDF>
  </metadata>
  <defs
     id="defs6" />
  <path
     id="path4140"
     d="m 702.21915,1785.3483 -310.2464,-192.2742 -32.9198,32.5109 -32.9198,32.5109 -34.1989,-33.7741 -34.1988,-33.774 46.6211,-46.8962 46.6212,-46.8962 0,-631.84756 0,-631.8475 631.84754,0 631.84751,0 46.8962,-46.62116 46.8962,-46.62116 33.8023,34.22748 33.8024,34.22749 -44.8471,45.14829 -44.8469,45.1483 0,633.64616 0,633.64606 -329.2193,203.3666 c -181.0706,111.8516 -332.7004,204.4977 -336.9551,205.8803 -4.2547,1.3826 -147.34674,-84.0096 -317.98235,-189.7604 z m 355.33925,-226.6164 1.6146,-289.7336 -18.6953,-21.2928 c -47.21369,-53.7734 5.1401,-132.7825 70.022,-105.6731 45.2797,18.919 56.0263,68.0829 23.0835,105.6027 l -18.6335,21.2223 0,267.8125 c 0,171.6777 2.1961,267.8124 6.1179,267.8124 3.3647,0 20.1349,-8.6248 37.2669,-19.1662 l 31.1491,-19.1662 0,-168.3814 0,-168.3812 -15.1027,-15.8678 c -35.6391,-37.4447 -14.6875,-99.778 36.7832,-109.4339 37.6975,-7.0721 77.7389,27.3944 77.6747,66.8603 -0.027,16.5009 -21.6267,54.656 -30.9412,54.656 -4.0875,0 -6.3025,52.3905 -6.3025,149.0677 0,81.9873 1.4127,149.0677 3.1393,149.0677 1.7266,0 19.8943,-10.4734 40.3725,-23.2742 l 37.2332,-23.2742 0,-309.2174 c 0,-272.4373 -1.1355,-309.6533 -9.5465,-312.8809 -12.4816,-4.7897 -27.7204,-34.6687 -27.7204,-54.3521 0,-36.75096 28.8015,-65.81776 65.2171,-65.81776 57.9336,0 87.3745,70.05426 46.5836,110.84516 l -18.6334,18.6335 0,286.1909 c 0,157.4049 1.756,286.1909 3.9023,286.1909 2.1462,0 18.9163,-8.5903 37.2669,-19.0893 l 33.3646,-19.0893 0,-182.4532 0,-182.4533 -15.5278,-16.7548 c -18.5302,-19.9943 -21.1505,-60.0499 -5.3995,-82.5377 25.9623,-37.0663 84.9318,-36.4099 108.5328,1.2081 16.3476,26.0565 12.3508,61.7284 -9.468,84.5023 l -16.0259,16.7275 0,160.1875 0,160.1875 29.503,-16.9801 c 16.2266,-9.339 34.3942,-21.2179 40.3725,-26.3975 10.2013,-8.8384 10.8695,-43.719 10.8695,-567.45846 0,-306.9227 -2.102,-558.04125 -4.6711,-558.04125 -2.5691,0 -260.3369,255.67725 -572.8174,568.17165 -358.25025,358.26646 -565.91125,570.28906 -562.09665,573.90296 3.3272,3.1522 128.8198,81.4451 278.8725,173.9842 l 272.82295,168.253 19.1013,-12.0928 19.1012,-12.0928 1.6147,-289.7335 z m 185.049,-170.7605 c 12.4638,-13.7722 8.6442,-26.7837 -11.6136,-39.562 -22.1196,-13.9527 -46.2388,22.3657 -28.8042,43.373 10.5227,12.6791 26.8912,11.1356 40.4178,-3.811 z m -133.9358,-164.1513 c 9.6434,-11.6196 3.5133,-37.8016 -10.0712,-43.0145 -16.2993,-6.2546 -32.9873,2.099 -37.1246,18.5839 -4.6838,18.6614 6.6921,33.6666 25.5237,33.6666 7.7038,0 17.4562,-4.1562 21.6721,-9.236 z m 403.6459,-34.0959 c 23.465,-23.4651 -8.8033,-58.3371 -34.3571,-37.1293 -12.3679,10.2644 -11.2689,35.0298 1.8946,42.6968 15.2605,8.8884 18.575,8.32 32.4625,-5.5675 z m -127.8408,-175.6113 c 14.9937,-23.94616 -27.5276,-48.56536 -45.8175,-26.52736 -13.2481,15.96296 1.6317,41.86446 22.6099,39.35716 9.021,-1.0781 19.4643,-6.8515 23.2076,-12.8298 z M 607.06495,626.04533 c 29.9588,-29.81996 54.4705,-57.12967 54.4705,-60.68825 0,-3.55858 -24.5117,-30.8683 -54.4705,-60.68825 -53.0776,-52.8317 -55.2217,-54.2181 -83.8505,-54.2181 l -29.3802,0 0,29.76256 c 0,27.07316 2.5278,32.24332 27.9734,57.21631 l 27.9733,27.45377 -27.9733,28.40039 c -25.1873,25.57181 -27.9734,31.31755 -27.9734,57.69003 l 0,29.28964 29.3802,0 c 28.6288,0 30.7729,-1.38641 83.8505,-54.2181 z"
     style="fill:#961ee6;fill-opacity:1;fill-rule:nonzero"
     inkscape:connector-curvature="0" />
</svg>
