<?xml version="1.0" encoding="utf-8"?>
<!-- Generator: Adobe Illustrator 16.0.0, SVG Export Plug-In . SVG Version: 6.00 Build 0)  -->
<!DOCTYPE svg PUBLIC "-//W3C//DTD SVG 1.1//EN" "http://www.w3.org/Graphics/SVG/1.1/DTD/svg11.dtd">
<svg version="1.1" id="Layer_1" xmlns="http://www.w3.org/2000/svg" xmlns:xlink="http://www.w3.org/1999/xlink" x="0px" y="0px"
	 width="456.52px" height="148.838px" viewBox="0 0 456.52 148.838" enable-background="new 0 0 456.52 148.838"
	 xml:space="preserve">
<g enable-background="new    ">
	<path fill="#E9E9E9" d="M10.37,103.699V18.304h20.983c33.792,0,40.014,16.103,40.014,43.552c0,24.521-7.198,41.844-38.428,41.844
		H10.37z M16.469,23.793V98.21h16.469c25.741,0,32.328-14.151,32.328-36.354c0-25.131-5.611-38.062-33.914-38.062H16.469z"/>
	<path fill="#E9E9E9" d="M109.066,104.919c-11.468,0-18.787-6.222-18.787-21.349V42.702h6.1V83.57
		c0,10.857,5.49,15.859,13.663,15.859c11.224,0,19.763-9.149,19.763-25.131V42.702h6.1v38.794c0,8.174,0.366,15.006,1.342,22.203
		h-6.1c-0.732-3.538-1.22-6.71-1.342-10.735C125.292,100.649,117.972,104.919,109.066,104.919z"/>
	<path fill="#E9E9E9" d="M183.973,48.313c-2.074-0.854-4.27-1.342-6.222-1.342c-8.174,0-15.005,7.32-15.005,23.179v33.549h-6.1
		V42.702h6.1v8.418c3.172-6.466,8.54-9.638,15.005-9.638c2.44,0,5.001,0.366,7.563,1.22L183.973,48.313z"/>
</g>
<g enable-background="new    ">
	<path fill="#C292C2" d="M204.834,59.415h47.578V18.304h6.1v85.396h-6.1V64.905h-47.578v38.794h-6.1V18.304h6.1V59.415z"/>
	<path fill="#C292C2" d="M315.242,103.699c-0.732-3.538-1.221-6.954-1.343-10.979c-5.611,8.174-14.272,12.199-22.081,12.199
		c-10.491,0-17.445-5.733-17.445-17.445c0-12.809,8.296-19.885,24.033-19.885c4.636,0,9.76,0.61,15.493,1.83v-8.052
		c0-9.882-6.587-14.396-15.005-14.396c-7.686,0-13.664,3.782-15.006,10.492l-6.1-0.854c1.586-9.76,10.492-15.127,21.227-15.127
		c11.469,0,20.984,6.222,20.984,19.885v20.129c0,8.174,0.365,15.006,1.342,22.203H315.242z M313.899,74.908
		c-5.978-1.22-11.224-1.829-15.493-1.829c-12.443,0-17.934,4.879-17.934,14.395c0,8.296,4.393,11.956,11.59,11.956
		c9.638,0,21.837-8.54,21.837-22.691V74.908z"/>
	<path fill="#C292C2" d="M388.318,89.426c-3.781,9.638-11.711,15.493-23.666,15.493c-17.567,0-26.352-12.688-26.352-31.718
		c0-19.031,8.784-31.719,26.352-31.719c11.102,0,18.787,5.124,22.812,13.663l-5.246,3.05c-3.05-7.075-8.905-11.224-17.566-11.224
		c-13.664,0-20.252,10.37-20.252,26.229c0,15.858,6.588,26.229,20.252,26.229c9.027,0,14.883-4.514,17.933-12.199L388.318,89.426z"
		/>
	<path fill="#C292C2" d="M409.671,77.837l32.938-35.135h7.93l-22.203,23.667c7.197,1.83,10.735,4.88,15.006,14.883l9.393,22.447
		h-6.588l-8.539-20.373c-3.416-8.052-5.734-10.369-13.541-12.443l-14.396,15.371v17.445h-6.1V14.644h6.1V77.837z"/>
</g>
</svg>
