<?xml version="1.0" encoding="UTF-8" standalone="no"?>
<!-- Generator: Adobe Illustrator 16.0.0, SVG Export Plug-In . SVG Version: 6.00 Build 0)  -->

<svg
   xmlns:dc="http://purl.org/dc/elements/1.1/"
   xmlns:cc="http://creativecommons.org/ns#"
   xmlns:rdf="http://www.w3.org/1999/02/22-rdf-syntax-ns#"
   xmlns:svg="http://www.w3.org/2000/svg"
   xmlns="http://www.w3.org/2000/svg"
   xmlns:sodipodi="http://sodipodi.sourceforge.net/DTD/sodipodi-0.dtd"
   xmlns:inkscape="http://www.inkscape.org/namespaces/inkscape"
   version="1.1"
   id="Layer_1"
   x="0px"
   y="0px"
   width="623.454px"
   height="753.919px"
   viewBox="0 0 623.454 753.919"
   enable-background="new 0 0 623.454 753.919"
   xml:space="preserve"
   inkscape:version="0.91 r13725"
   sodipodi:docname="shield.svg"><metadata
     id="metadata13"><rdf:RDF><cc:Work
         rdf:about=""><dc:format>image/svg+xml</dc:format><dc:type
           rdf:resource="http://purl.org/dc/dcmitype/StillImage" /><dc:title /></cc:Work></rdf:RDF></metadata><defs
     id="defs11" /><sodipodi:namedview
     pagecolor="#ffffff"
     bordercolor="#666666"
     borderopacity="1"
     objecttolerance="10"
     gridtolerance="10"
     guidetolerance="10"
     inkscape:pageopacity="0"
     inkscape:pageshadow="2"
     inkscape:window-width="1280"
     inkscape:window-height="475"
     id="namedview9"
     showgrid="false"
     inkscape:zoom="0.15651549"
     inkscape:cx="1292.5153"
     inkscape:cy="121.39374"
     inkscape:window-x="0"
     inkscape:window-y="0"
     inkscape:window-maximized="0"
     inkscape:current-layer="Layer_1" /><g
     id="g3"><g
       id="g5"><path
         style="fill:#000000;fill-opacity:1"
         d="M593.304,0c-1.922,1.618-3.615,3.512-5.422,5.282c-1.871,1.831-3.705,3.698-5.555,5.548    c-1.803,1.801-3.607,3.601-5.408,5.402c-1.852,1.85-3.701,3.703-5.551,5.553c-1.801,1.802-3.602,3.604-5.404,5.406    c-1.852,1.85-3.703,3.698-5.555,5.549c-1.797,1.797-3.592,3.595-5.412,5.417c-172.287,0-344.516,0-517.065,0    c0,172.544,0,344.833,0,517.254c-12.598,12.539-25.19,25.073-37.781,37.608c-0.047,0.047-0.077,0.114-0.101,0.178    c-0.022,0.059-0.024,0.124-0.05,0.274c0.384,0.408,0.795,0.866,1.229,1.303c1.554,1.562,3.115,3.118,4.674,4.676    c7.5,7.499,14.997,15.001,22.506,22.489c0.518,0.517,0.949,1.173,1.779,1.455c0.57-0.548,1.118-1.06,1.647-1.588    c7.794-7.79,15.583-15.584,23.382-23.367c0.523-0.522,0.967-1.158,1.744-1.507c0.774,0.469,1.538,0.924,2.294,1.392    c13.938,8.609,27.875,17.22,41.812,25.83c55.338,34.19,110.676,68.381,166.014,102.571c14.054,8.683,28.106,17.37,42.165,26.045    c0.688,0.425,1.319,0.987,2.184,1.147c0.552-0.328,1.086-0.637,1.61-0.961c5.978-3.684,11.953-7.37,17.929-11.055    c45.584-28.107,91.167-56.215,136.753-84.319c9.258-5.707,18.533-11.385,27.785-17.101c9.193-5.679,18.361-11.399,27.553-17.083    c19.965-12.343,39.938-24.674,59.904-37.013c0.691-0.427,1.361-0.889,2.039-1.331c0-1.154,0-2.186,0-3.217    c0-170.241-0.002-340.483,0.006-510.725c0-2.969-0.334-2.102,1.676-4.115c11.773-11.794,23.564-23.573,35.344-35.364    c0.512-0.513,1.141-0.953,1.426-1.616C621.386,27.613,594.679,1.013,593.304,0z M98.901,129.271    c0.284-0.053,0.606-0.163,0.928-0.164c6.612-0.009,13.224-0.006,19.835-0.001c0.204,0,0.407,0.054,0.758,0.104    c15.278,15.327,30.634,30.733,46.056,46.206c-0.388,0.443-0.674,0.813-1.002,1.143c-14.633,14.684-29.278,29.357-43.888,44.064    c-0.905,0.91-1.817,1.272-3.089,1.26c-5.853-0.058-11.708-0.021-17.562-0.029c-0.677-0.001-1.375,0.104-2.117-0.26    c-0.039-0.521-0.112-1.055-0.113-1.588c-0.008-6.611,0.023-13.223-0.031-19.835c-0.01-1.212,0.411-2.042,1.242-2.874    c6.666-6.678,13.295-13.392,19.935-20.096c0.527-0.533,1.045-1.076,1.663-1.713c-3.79-3.954-7.611-7.717-11.381-11.529    c-3.776-3.818-7.558-7.632-11.36-11.473C98.553,147.708,98.639,131.081,98.901,129.271z M342.86,445.982    c-5.019,0.007-9.799-4.011-9.803-9.911c-0.002-5.33,4.426-9.75,9.764-9.742c5.712,0.008,9.858,4.5,9.907,9.809    C352.778,441.545,348.282,445.998,342.86,445.982z M397.78,513.524c-5.461-0.016-9.86-4.432-9.802-9.881    c0.062-5.646,4.78-9.891,9.956-9.729c4.66-0.067,9.746,3.755,9.695,9.985C407.587,509.28,403.157,513.54,397.78,513.524z     M452.966,362.904c-5.445,0.02-9.879-4.405-9.857-9.841c0.021-5.318,4.146-9.743,9.676-9.81c6.127-0.074,9.996,4.954,9.957,9.729    C462.782,358.437,458.399,362.884,452.966,362.904z M507.763,433.126c-4.969-0.062-9.678-3.81-9.736-9.75    c-0.057-5.705,4.389-9.896,9.783-9.897c5.855-0.001,9.848,4.685,9.855,9.841C517.655,428.747,513.188,433.194,507.763,433.126z     M549.362,560.466c-1.566,1.271-26.846,16.864-28.344,17.489c-0.482-0.518-0.273-1.168-0.273-1.752    c-0.01-7.575,0-15.151,0.006-22.728c0.008-11.57,0.014-23.142,0.031-34.712c0.029-22.659,0.066-45.317,0.1-67.976    c0.002-0.684,0.002-1.367,0.002-2.092c6.758-3.811,11.531-9.209,13.918-16.563c1.885-5.812,1.879-11.649,0.002-17.464    c-3.768-11.67-14.461-19.584-26.779-19.705c-13.27-0.13-23.479,8.502-27.119,18.951c-1.498,4.3-1.986,8.695-1.373,13.223    c0.621,4.594,2.244,8.782,4.893,12.576c2.605,3.732,5.984,6.618,9.967,8.854c-0.059,48.723-0.119,97.337-0.178,145.839    c-0.092,0.171-0.117,0.233-0.154,0.289c-0.039,0.057-0.08,0.118-0.135,0.156c-0.396,0.272-0.787,0.553-1.195,0.806    c-8.666,5.355-17.336,10.708-26.006,16.059c-0.115,0.072-0.242,0.128-0.367,0.183c-0.062,0.027-0.135,0.047-0.201,0.043    c-0.062-0.003-0.123-0.041-0.254-0.089c-0.041-0.14-0.143-0.322-0.143-0.504c0.068-77.613,0.143-155.228,0.219-232.771    c14.043-7.981,17.574-22.784,13.992-33.938c-3.848-11.99-14.799-19.795-26.861-19.896c-12.33-0.104-23.293,7.649-27.246,19.35    c-2.225,6.589-2.041,13.144,0.521,19.598c2.562,6.457,7.043,11.262,13.104,14.672c-0.088,83.465-0.176,166.857-0.264,250.157    c-1.746,1.395-26.715,16.782-28.182,17.388c-0.416-0.175-0.311-0.559-0.32-0.877c-0.021-0.688-0.01-1.377-0.01-2.065    c0.006-18.596,0.008-37.191,0.021-55.787c0.014-18.595,0.039-37.19,0.059-55.786c0.002-0.687,0-1.374,0-2.179    c0.629-0.402,1.256-0.803,1.883-1.205c6.953-4.473,11.389-10.7,12.941-18.852c2.506-13.165-4.258-25.278-15.111-30.726    c-16.803-8.433-36.762,1.285-40.631,19.493c-2.598,12.229,2.851,23.663,12.539,29.886c0.576,0.369,1.163,0.721,1.668,1.033    c0.078,0.154,0.115,0.213,0.139,0.277c0.023,0.063,0.045,0.132,0.049,0.199c0.02,0.343,0.051,0.687,0.051,1.029    c-0.027,43.872-0.057,87.743-0.09,131.615c-0.001,0.203-0.055,0.405-0.08,0.59c-1.503,1.211-26.502,16.653-28.074,17.344    c-0.436-0.156-0.312-0.546-0.33-0.86c-0.025-0.412-0.009-0.826-0.009-1.239c0.024-42.426,0.048-84.851,0.076-127.276    c0.018-25.689,0.046-51.379,0.07-77.068c0.003-3.237,0.01-6.474,0.015-9.711c0.001-0.684,0-1.367,0-1.915    c0.571-0.797,1.325-1.027,1.95-1.432c6.813-4.405,11.151-10.536,12.802-18.496c2.684-12.947-4.014-25.971-15.887-31.431    c-17.3-7.958-37.002,2.754-40.052,21.202c-1.942,11.752,3.7,22.798,12.696,28.506c0.635,0.402,1.264,0.812,1.859,1.197    c0,78.459,0,156.828,0,235.285c-5.947,3.678-11.848,7.326-17.582,10.871c-0.295,0-0.364,0.008-0.429-0.002    c-0.067-0.011-0.139-0.029-0.196-0.063c-0.885-0.532-1.772-1.059-2.651-1.602c-74.076-45.78-148.151-91.562-222.225-137.346    c-0.115-0.071-0.206-0.18-0.294-0.259c-0.122-0.627,0.379-0.865,0.691-1.18c2.716-2.737,5.448-5.46,8.176-8.187    C238.483,415.175,382.21,271.458,525.938,127.741c7.158-7.158,14.314-14.32,21.482-21.47c0.52-0.517,0.945-1.17,1.941-1.549    C549.362,256.833,549.362,408.679,549.362,560.466z"
         id="path7" /></g></g><path
     style="fill:#7E317B;fill-opacity:1"
     d="M 178.99845,669.28509 57.715621,593.4779 44.309099,606.07267 C 30.963203,618.61049 30.849424,618.60872 19.149024,605.67992 7.6722934,592.99827 7.7973366,592.27293 24.458205,574.88273 l 17.062734,-17.80966 0,-256.81344 0,-256.813443 256.858881,0 256.85888,0 19.93712,-19.32382 L 595.11294,4.7985482 606.9183,17.84332 c 11.54517,12.757268 11.4293,13.437291 -5.25738,30.854428 l -17.06273,17.809658 -0.27466,258.410734 -0.27465,258.41072 -132.9932,81.46159 c -73.14627,44.80388 -136.99398,81.20066 -141.88381,80.88171 -4.88983,-0.31882 -63.46786,-34.69312 -130.17342,-76.38707 z m 148.61763,-86.03877 c 1.23186,-84.03771 -0.53637,-125.66124 -5.75493,-135.46897 -10.02153,-18.8344 2.92734,-35.14438 25.79182,-32.48654 18.03793,2.09679 26.63047,26.31096 13.86611,39.07532 -4.4459,4.44591 -6.93008,46.50265 -6.93008,117.3253 l 0,110.3952 15.97286,-7.27768 c 15.66363,-7.13687 15.97286,-8.67307 15.97286,-79.35028 0,-41.15646 -2.74067,-73.76637 -6.38914,-76.02125 -19.09338,-11.80035 2.51863,-45.64682 24.65974,-38.6195 17.6171,5.59144 22.02585,21.89582 10.62549,39.29498 -6.90386,10.53662 -9.72866,31.65697 -9.72866,72.73896 l 0,57.89116 19.16744,-9.91186 19.16743,-9.91186 -0.20318,-126.02152 c -0.15985,-99.12764 -2.15226,-128.59599 -9.33618,-138.08513 -13.34736,-17.63035 -1.37292,-37.24265 21.15008,-34.64061 12.43234,1.43629 17.72775,6.13125 19.27865,17.09267 1.17602,8.31186 -0.98031,18.231 -4.79186,22.04255 -7.16015,7.16015 -10.37703,240.77275 -3.31548,240.77275 1.98803,0 9.17582,-2.97627 15.97286,-6.61394 11.12133,-5.95194 12.35826,-13.98758 12.35826,-80.28433 0,-40.51872 -3.0344,-79.34021 -6.7431,-86.26998 -10.73748,-20.06316 -1.61227,-37.6735 19.52139,-37.6735 20.12584,0 32.50214,21.16666 19.80211,33.8667 -4.2368,4.2368 -7.02382,34.34943 -7.02382,75.8896 l 0,68.86578 15.97286,-7.27772 15.97286,-7.27772 0,-233.74267 0,-233.742676 L 319.44871,330.95767 C 191.18664,459.18364 86.244948,566.04465 86.244948,568.4266 c 0,7.80895 220.118272,139.87137 229.977712,137.97769 8.08261,-1.55243 9.89863,-21.18282 11.39342,-123.15797 z m 81.28065,-79.78176 c 0,-5.17479 -5.03146,-10.37769 -11.18101,-11.56198 -7.8449,-1.51079 -11.181,1.93898 -11.181,11.56198 0,9.62301 3.3361,13.07277 11.181,11.56198 6.14955,-1.18429 11.18101,-6.38719 11.18101,-11.56198 z M 354.589,436.37855 c 0,-5.32428 -5.67924,-9.58372 -12.77829,-9.58372 -7.09905,0 -12.77829,4.25944 -12.77829,9.58372 0,5.32428 5.67924,9.58372 12.77829,9.58372 7.09905,0 12.77829,-4.25944 12.77829,-9.58372 z m 166.11775,-12.77829 c 0,-5.32428 -5.67924,-9.58371 -12.77829,-9.58371 -7.09905,0 -12.77829,4.25943 -12.77829,9.58371 0,5.32429 5.67924,9.58372 12.77829,9.58372 7.09905,0 12.77829,-4.25943 12.77829,-9.58372 z m -57.5023,-70.28058 c 0,-5.27105 -4.14299,-9.58372 -9.20665,-9.58372 -10.67398,0 -17.87942,9.11908 -11.9168,15.0817 7.63602,7.63603 21.12345,4.12554 21.12345,-5.49798 z M 145.09076,198.66831 169.33505,174.99439 145.66077,150.74973 c -27.5069,-28.16962 -46.637534,-31.88361 -46.637534,-9.05413 0,8.3548 4.271384,18.73548 9.491964,23.06818 8.30971,6.89645 7.91182,9.88646 -3.19457,24.00595 -30.420458,38.67335 2.03061,46.75024 39.77013,9.89858 z"
     id="path3335"
     inkscape:connector-curvature="0" /><path
     style="fill:#7E317B;fill-opacity:1"
     d="M 287.50299,732.24889 C 280.47493,728.27497 226.22735,695.19013 166.95282,658.72709 63.336266,594.98683 58.602809,592.80947 44.186587,602.25534 c -18.599374,12.18677 -19.564679,12.17334 -24.366139,-0.33906 -2.145105,-5.59006 1.859962,-18.25313 8.90015,-28.14016 12.295969,-17.2681 12.800341,-28.07055 12.800341,-274.15317 l 0,-256.176763 256.559971,0 256.55997,0 20.9415,-15.97286 c 24.69173,-18.8333002 25.64898,-19.0143369 30.7163,-5.809124 2.1451,5.590055 -1.82707,18.206932 -8.82706,28.037504 C 585.3389,66.740551 584.66635,79.611739 583.074,325.24402 l -1.67038,257.66855 -129.93252,78.47515 c -71.46288,43.16135 -134.71541,78.38777 -140.56117,78.28088 -5.84576,-0.10682 -16.37888,-3.44573 -23.40694,-7.41971 z m 38.88147,-40.20772 c 2.19154,-8.73185 2.9651,-73.42235 1.71901,-143.75675 l -2.26562,-127.88071 16.88658,9.9e-4 c 19.34351,0.001 27.59841,14.48598 18.2308,31.98952 -6.58228,12.29912 -9.18675,229.96638 -2.75163,229.96638 1.98803,0 9.17582,-2.97626 15.97286,-6.61392 11.07161,-5.92535 12.35826,-13.95139 12.35826,-77.08978 0,-38.7617 -3.07463,-76.22082 -6.83251,-83.24249 -8.74087,-16.33247 3.3392,-32.52971 22.24629,-29.82831 10.72224,1.53196 12.91945,5.66387 11.20595,21.07304 -4.56711,41.07122 -8.12623,143.75574 -4.98268,143.75574 1.82505,0 10.79551,-3.40689 19.93435,-7.57079 l 16.61606,-7.57079 -1.93986,-136.19174 c -1.79738,-126.1881 -1.1186,-136.19124 9.24113,-136.18495 16.37016,0.0102 13.66718,-17.79305 -3.19457,-21.04076 -13.45848,-2.59222 -13.35199,-2.82437 1.6693,-3.63895 l 16.04488,-0.87008 -2.38292,137.36659 c -2.05512,118.47013 -1.07401,137.3666 7.13209,137.3666 22.34559,0 25.70448,-16.67388 22.48177,-111.60184 -2.50498,-73.78655 -1.40386,-92.86858 5.51208,-95.52248 23.22053,-8.91055 25.67032,0.7266 22.67033,89.18222 -1.60412,47.29801 -0.91495,85.99638 1.53148,85.99638 2.44644,0 10.00928,-2.97627 16.80632,-6.61394 11.878,-6.35691 12.35826,-15.84369 12.35826,-244.11774 l 0,-237.503812 -29.28746,28.484132 C 507.25692,136.0492 401.83529,243.16325 289.09475,358.41413 113.4367,537.98347 85.40705,569.22245 93.16487,576.77745 c 18.22415,17.74767 212.35374,131.13973 224.51399,131.13973 2.59653,0 6.51405,-7.14422 8.7056,-15.87601 z m 82.51227,-188.57661 c 0,-5.17479 -5.03146,-10.37769 -11.18101,-11.56198 -7.8449,-1.51079 -11.181,1.93898 -11.181,11.56198 0,9.62301 3.3361,13.07277 11.181,11.56198 6.14955,-1.18429 11.18101,-6.38719 11.18101,-11.56198 z M 354.589,436.37855 c 0,-5.32428 -5.67924,-9.58372 -12.77829,-9.58372 -7.09905,0 -12.77829,4.25944 -12.77829,9.58372 0,5.32428 5.67924,9.58372 12.77829,9.58372 7.09905,0 12.77829,-4.25944 12.77829,-9.58372 z m 166.11775,-12.77829 c 0,-5.32428 -5.67924,-9.58371 -12.77829,-9.58371 -7.09905,0 -12.77829,4.25943 -12.77829,9.58371 0,5.32429 5.67924,9.58372 12.77829,9.58372 7.09905,0 12.77829,-4.25943 12.77829,-9.58372 z M 144.42511,202.63792 c 13.68329,-10.83737 24.87871,-22.19943 24.87871,-25.24903 0,-10.33118 -46.60844,-50.88383 -58.4824,-50.88383 -13.095104,0 -15.894501,18.74261 -5.6566,37.8723 4.30926,8.05192 3.41679,15.0748 -2.99137,23.53926 -26.977115,35.63369 2.76402,45.99608 42.25166,14.7213 z"
     id="path3337"
     inkscape:connector-curvature="0" /><path
     style="fill:#7E317B;fill-opacity:0;opacity:1"
     d="M 245.43111,707.22523 C 215.8602,689.27455 163.27938,657.15159 128.58483,635.84091 69.339164,599.45004 64.305401,597.5466 45.792666,604.53438 16.217666,615.69769 9.4660969,604.54804 27.171837,573.78364 41.382439,549.09218 41.520939,546.4124 41.520939,296.14886 l 0,-252.702673 256.240741,0 256.24074,0 18.98266,-15.97286 c 10.44047,-8.785074 21.72742,-15.972861 25.08213,-15.972861 12.30688,0 13.17035,19.741122 1.60905,36.786905 -10.95971,16.158804 -12.13184,37.636082 -15.07807,276.281159 l -3.19457,258.76033 -130.1511,78.26702 c -71.5831,43.04686 -135.07972,78.26702 -141.10361,78.26702 -6.02389,0 -35.1469,-14.68692 -64.7178,-32.63767 z m 80.80818,-21.56291 c 2.29627,-12.24013 3.14184,-76.93023 1.87905,-143.75573 l -2.29599,-121.5009 16.89433,0 c 20.0236,0 26.65577,13.0616 18.08224,35.61171 -7.98273,20.99615 -8.23416,226.3432 -0.27715,226.3432 3.26304,0 10.45082,-4.51802 15.97286,-10.04009 7.77015,-7.77016 10.04009,-24.28795 10.04009,-73.05922 0,-34.66053 -2.93692,-70.74382 -6.52648,-80.18509 -7.95783,-20.93068 2.12496,-36.32126 21.94026,-33.4901 10.60714,1.51551 12.98787,5.82929 11.63005,21.07304 -5.61785,63.06932 -8.83145,143.75574 -5.72556,143.75574 2.00038,0 11.11429,-3.40689 20.25313,-7.57079 l 16.61606,-7.57079 -1.93986,-136.19174 c -1.79738,-126.1881 -1.1186,-136.19124 9.24113,-136.18495 15.89454,0.01 13.85277,-12.10935 -3.19457,-18.96155 -14.19469,-5.70557 -14.17014,-5.78337 1.95105,-6.18326 l 16.32663,-0.40498 -2.76538,131.44095 c -2.03297,96.62872 -0.74362,133.4334 4.8682,138.96389 5.87075,5.78563 9.88809,4.57199 17.39611,-5.25536 8.03888,-10.52222 9.25718,-28.79587 6.90036,-103.50125 -2.2827,-72.35595 -1.11249,-91.39437 5.78023,-94.03936 23.22053,-8.91055 25.67032,0.7266 22.67033,89.18222 -1.60412,47.29801 -0.91495,85.99638 1.53148,85.99638 2.44644,0 10.00928,-2.97627 16.80632,-6.61394 11.8767,-6.35621 12.35425,-15.75451 12.25526,-241.19019 L 552.44647,97.753912 322.54028,328.44102 C 196.09188,455.31893 92.634092,563.17897 92.634092,568.13 c 0,11.68723 206.021648,139.71134 224.927818,139.77261 2.47629,0.006 6.38111,-10.0001 8.67738,-22.24029 z m 79.46286,-182.19776 c 0,-7.09905 -4.25943,-12.77828 -9.58371,-12.77828 -5.32429,0 -9.58372,5.67923 -9.58372,12.77828 0,7.09905 4.25943,12.77829 9.58372,12.77829 5.32428,0 9.58371,-5.67924 9.58371,-12.77829 z M 354.589,436.37855 c 0,-5.32428 -5.67924,-9.58372 -12.77829,-9.58372 -7.09905,0 -12.77829,4.25944 -12.77829,9.58372 0,5.32428 5.67924,9.58372 12.77829,9.58372 7.09905,0 12.77829,-4.25944 12.77829,-9.58372 z m 166.11775,-12.77829 c 0,-5.32428 -5.67924,-9.58371 -12.77829,-9.58371 -7.09905,0 -12.77829,4.25943 -12.77829,9.58371 0,5.32429 5.67924,9.58372 12.77829,9.58372 7.09905,0 12.77829,-4.25943 12.77829,-9.58372 z m -376.05588,-225.4783 25.9654,-24.22026 -26.2312,-23.69832 c -14.42717,-13.03408 -29.18828,-23.69832 -32.80248,-23.69832 -10.81725,0 -15.113165,20.00003 -7.06427,32.88836 5.91957,9.47873 5.45617,16.00331 -2.18624,30.78209 -5.33389,10.31462 -9.697988,21.77175 -9.697988,25.46028 0,14.64693 27.445288,5.40622 52.016778,-17.51383 z"
     id="path3339"
     inkscape:connector-curvature="0" /></svg>
