<?xml version="1.0" encoding="utf-8"?>
<!-- Generator: Adobe Illustrator 16.0.0, SVG Export Plug-In . SVG Version: 6.00 Build 0)  -->
<!DOCTYPE svg PUBLIC "-//W3C//DTD SVG 1.1//EN" "http://www.w3.org/Graphics/SVG/1.1/DTD/svg11.dtd">
<svg version="1.1" id="Layer_1" xmlns="http://www.w3.org/2000/svg" xmlns:xlink="http://www.w3.org/1999/xlink" x="0px" y="0px"
	 width="623.454px" height="753.919px" viewBox="0 0 623.454 753.919" enable-background="new 0 0 623.454 753.919"
	 xml:space="preserve">
<g>
	<g>
		<path d="M593.304,0c-1.922,1.618-3.615,3.512-5.422,5.282c-1.871,1.831-3.705,3.698-5.555,5.548
			c-1.803,1.801-3.607,3.601-5.408,5.402c-1.852,1.85-3.701,3.703-5.551,5.553c-1.801,1.802-3.602,3.604-5.404,5.406
			c-1.852,1.85-3.703,3.698-5.555,5.549c-1.797,1.797-3.592,3.595-5.412,5.417c-172.287,0-344.516,0-517.065,0
			c0,172.544,0,344.833,0,517.254c-12.598,12.539-25.19,25.073-37.781,37.608c-0.047,0.047-0.077,0.114-0.101,0.178
			c-0.022,0.059-0.024,0.124-0.05,0.274c0.384,0.408,0.795,0.866,1.229,1.303c1.554,1.562,3.115,3.118,4.674,4.676
			c7.5,7.499,14.997,15.001,22.506,22.489c0.518,0.517,0.949,1.173,1.779,1.455c0.57-0.548,1.118-1.06,1.647-1.588
			c7.794-7.79,15.583-15.584,23.382-23.367c0.523-0.522,0.967-1.158,1.744-1.507c0.774,0.469,1.538,0.924,2.294,1.392
			c13.938,8.609,27.875,17.22,41.812,25.83c55.338,34.19,110.676,68.381,166.014,102.571c14.054,8.683,28.106,17.37,42.165,26.045
			c0.688,0.425,1.319,0.987,2.184,1.147c0.552-0.328,1.086-0.637,1.61-0.961c5.978-3.684,11.953-7.37,17.929-11.055
			c45.584-28.107,91.167-56.215,136.753-84.319c9.258-5.707,18.533-11.385,27.785-17.101c9.193-5.679,18.361-11.399,27.553-17.083
			c19.965-12.343,39.938-24.674,59.904-37.013c0.691-0.427,1.361-0.889,2.039-1.331c0-1.154,0-2.186,0-3.217
			c0-170.241-0.002-340.483,0.006-510.725c0-2.969-0.334-2.102,1.676-4.115c11.773-11.794,23.564-23.573,35.344-35.364
			c0.512-0.513,1.141-0.953,1.426-1.616C621.386,27.613,594.679,1.013,593.304,0z M98.901,129.271
			c0.284-0.053,0.606-0.163,0.928-0.164c6.612-0.009,13.224-0.006,19.835-0.001c0.204,0,0.407,0.054,0.758,0.104
			c15.278,15.327,30.634,30.733,46.056,46.206c-0.388,0.443-0.674,0.813-1.002,1.143c-14.633,14.684-29.278,29.357-43.888,44.064
			c-0.905,0.91-1.817,1.272-3.089,1.26c-5.853-0.058-11.708-0.021-17.562-0.029c-0.677-0.001-1.375,0.104-2.117-0.26
			c-0.039-0.521-0.112-1.055-0.113-1.588c-0.008-6.611,0.023-13.223-0.031-19.835c-0.01-1.212,0.411-2.042,1.242-2.874
			c6.666-6.678,13.295-13.392,19.935-20.096c0.527-0.533,1.045-1.076,1.663-1.713c-3.79-3.954-7.611-7.717-11.381-11.529
			c-3.776-3.818-7.558-7.632-11.36-11.473C98.553,147.708,98.639,131.081,98.901,129.271z M342.86,445.982
			c-5.019,0.007-9.799-4.011-9.803-9.911c-0.002-5.33,4.426-9.75,9.764-9.742c5.712,0.008,9.858,4.5,9.907,9.809
			C352.778,441.545,348.282,445.998,342.86,445.982z M397.78,513.524c-5.461-0.016-9.86-4.432-9.802-9.881
			c0.062-5.646,4.78-9.891,9.956-9.729c4.66-0.067,9.746,3.755,9.695,9.985C407.587,509.28,403.157,513.54,397.78,513.524z
			 M452.966,362.904c-5.445,0.02-9.879-4.405-9.857-9.841c0.021-5.318,4.146-9.743,9.676-9.81c6.127-0.074,9.996,4.954,9.957,9.729
			C462.782,358.437,458.399,362.884,452.966,362.904z M507.763,433.126c-4.969-0.062-9.678-3.81-9.736-9.75
			c-0.057-5.705,4.389-9.896,9.783-9.897c5.855-0.001,9.848,4.685,9.855,9.841C517.655,428.747,513.188,433.194,507.763,433.126z
			 M549.362,560.466c-1.566,1.271-26.846,16.864-28.344,17.489c-0.482-0.518-0.273-1.168-0.273-1.752
			c-0.01-7.575,0-15.151,0.006-22.728c0.008-11.57,0.014-23.142,0.031-34.712c0.029-22.659,0.066-45.317,0.1-67.976
			c0.002-0.684,0.002-1.367,0.002-2.092c6.758-3.811,11.531-9.209,13.918-16.563c1.885-5.812,1.879-11.649,0.002-17.464
			c-3.768-11.67-14.461-19.584-26.779-19.705c-13.27-0.13-23.479,8.502-27.119,18.951c-1.498,4.3-1.986,8.695-1.373,13.223
			c0.621,4.594,2.244,8.782,4.893,12.576c2.605,3.732,5.984,6.618,9.967,8.854c-0.059,48.723-0.119,97.337-0.178,145.839
			c-0.092,0.171-0.117,0.233-0.154,0.289c-0.039,0.057-0.08,0.118-0.135,0.156c-0.396,0.272-0.787,0.553-1.195,0.806
			c-8.666,5.355-17.336,10.708-26.006,16.059c-0.115,0.072-0.242,0.128-0.367,0.183c-0.062,0.027-0.135,0.047-0.201,0.043
			c-0.062-0.003-0.123-0.041-0.254-0.089c-0.041-0.14-0.143-0.322-0.143-0.504c0.068-77.613,0.143-155.228,0.219-232.771
			c14.043-7.981,17.574-22.784,13.992-33.938c-3.848-11.99-14.799-19.795-26.861-19.896c-12.33-0.104-23.293,7.649-27.246,19.35
			c-2.225,6.589-2.041,13.144,0.521,19.598c2.562,6.457,7.043,11.262,13.104,14.672c-0.088,83.465-0.176,166.857-0.264,250.157
			c-1.746,1.395-26.715,16.782-28.182,17.388c-0.416-0.175-0.311-0.559-0.32-0.877c-0.021-0.688-0.01-1.377-0.01-2.065
			c0.006-18.596,0.008-37.191,0.021-55.787c0.014-18.595,0.039-37.19,0.059-55.786c0.002-0.687,0-1.374,0-2.179
			c0.629-0.402,1.256-0.803,1.883-1.205c6.953-4.473,11.389-10.7,12.941-18.852c2.506-13.165-4.258-25.278-15.111-30.726
			c-16.803-8.433-36.762,1.285-40.631,19.493c-2.598,12.229,2.851,23.663,12.539,29.886c0.576,0.369,1.163,0.721,1.668,1.033
			c0.078,0.154,0.115,0.213,0.139,0.277c0.023,0.063,0.045,0.132,0.049,0.199c0.02,0.343,0.051,0.687,0.051,1.029
			c-0.027,43.872-0.057,87.743-0.09,131.615c-0.001,0.203-0.055,0.405-0.08,0.59c-1.503,1.211-26.502,16.653-28.074,17.344
			c-0.436-0.156-0.312-0.546-0.33-0.86c-0.025-0.412-0.009-0.826-0.009-1.239c0.024-42.426,0.048-84.851,0.076-127.276
			c0.018-25.689,0.046-51.379,0.07-77.068c0.003-3.237,0.01-6.474,0.015-9.711c0.001-0.684,0-1.367,0-1.915
			c0.571-0.797,1.325-1.027,1.95-1.432c6.813-4.405,11.151-10.536,12.802-18.496c2.684-12.947-4.014-25.971-15.887-31.431
			c-17.3-7.958-37.002,2.754-40.052,21.202c-1.942,11.752,3.7,22.798,12.696,28.506c0.635,0.402,1.264,0.812,1.859,1.197
			c0,78.459,0,156.828,0,235.285c-5.947,3.678-11.848,7.326-17.582,10.871c-0.295,0-0.364,0.008-0.429-0.002
			c-0.067-0.011-0.139-0.029-0.196-0.063c-0.885-0.532-1.772-1.059-2.651-1.602c-74.076-45.78-148.151-91.562-222.225-137.346
			c-0.115-0.071-0.206-0.18-0.294-0.259c-0.122-0.627,0.379-0.865,0.691-1.18c2.716-2.737,5.448-5.46,8.176-8.187
			C238.483,415.175,382.21,271.458,525.938,127.741c7.158-7.158,14.314-14.32,21.482-21.47c0.52-0.517,0.945-1.17,1.941-1.549
			C549.362,256.833,549.362,408.679,549.362,560.466z"/>
	</g>
</g>
</svg>
