<?xml version="1.0" encoding="utf-8"?>
<!-- Generator: Adobe Illustrator 16.0.0, SVG Export Plug-In . SVG Version: 6.00 Build 0)  -->
<!DOCTYPE svg PUBLIC "-//W3C//DTD SVG 1.1//EN" "http://www.w3.org/Graphics/SVG/1.1/DTD/svg11.dtd">
<svg version="1.1" id="Layer_1" xmlns="http://www.w3.org/2000/svg" xmlns:xlink="http://www.w3.org/1999/xlink" x="0px" y="0px"
	 width="623.454px" height="753.918px" viewBox="0 0 623.454 753.918" enable-background="new 0 0 623.454 753.918"
	 xml:space="preserve">
<g>
	<g>
		<path fill="#FFFFFF" d="M593.303,0c-1.922,1.618-3.613,3.512-5.422,5.282c-1.871,1.831-3.705,3.698-5.555,5.548
			c-1.803,1.801-3.607,3.601-5.408,5.402c-1.852,1.85-3.701,3.703-5.551,5.553c-1.801,1.802-3.602,3.604-5.404,5.406
			c-1.852,1.85-3.703,3.698-5.555,5.549c-1.797,1.797-3.592,3.595-5.412,5.417c-172.287,0-344.516,0-517.064,0
			c0,172.544,0,344.833,0,517.253c-12.598,12.539-25.19,25.074-37.781,37.609c-0.047,0.047-0.077,0.113-0.101,0.178
			c-0.022,0.059-0.024,0.123-0.05,0.273c0.384,0.408,0.795,0.865,1.229,1.303c1.554,1.562,3.115,3.117,4.674,4.676
			c7.5,7.5,14.997,15.002,22.506,22.49c0.518,0.516,0.949,1.172,1.779,1.455c0.57-0.549,1.118-1.061,1.647-1.59
			c7.794-7.789,15.583-15.584,23.382-23.365c0.523-0.523,0.967-1.158,1.744-1.508c0.774,0.469,1.538,0.924,2.294,1.393
			c13.938,8.607,27.875,17.219,41.812,25.83c55.338,34.189,110.676,68.381,166.014,102.57c14.054,8.684,28.106,17.369,42.165,26.045
			c0.688,0.426,1.319,0.986,2.184,1.146c0.553-0.328,1.086-0.637,1.61-0.961c5.979-3.684,11.953-7.369,17.93-11.055
			c45.584-28.107,91.166-56.215,136.752-84.318c9.26-5.707,18.533-11.385,27.785-17.102c9.193-5.68,18.361-11.398,27.553-17.082
			c19.967-12.344,39.939-24.676,59.904-37.014c0.691-0.428,1.361-0.889,2.039-1.332c0-1.152,0-2.186,0-3.217
			c0-170.24-0.002-340.482,0.006-510.724c0-2.969-0.334-2.103,1.676-4.115c11.773-11.794,23.564-23.573,35.346-35.364
			c0.512-0.513,1.141-0.953,1.426-1.616C621.385,27.613,594.678,1.013,593.303,0z M98.901,129.271
			c0.284-0.053,0.606-0.163,0.928-0.164c6.612-0.009,13.224-0.006,19.835-0.001c0.204,0,0.407,0.054,0.758,0.104
			c15.278,15.327,30.634,30.733,46.056,46.206c-0.388,0.443-0.674,0.813-1.002,1.143c-14.633,14.684-29.278,29.357-43.888,44.064
			c-0.905,0.91-1.817,1.272-3.089,1.26c-5.853-0.058-11.708-0.021-17.562-0.029c-0.677-0.001-1.375,0.104-2.117-0.26
			c-0.039-0.521-0.112-1.055-0.113-1.588c-0.008-6.611,0.023-13.223-0.031-19.835c-0.01-1.212,0.411-2.042,1.242-2.874
			c6.666-6.678,13.295-13.392,19.935-20.096c0.527-0.533,1.045-1.076,1.663-1.713c-3.79-3.954-7.611-7.717-11.381-11.529
			c-3.776-3.818-7.558-7.632-11.36-11.473C98.553,147.708,98.639,131.081,98.901,129.271z M342.86,445.983
			c-5.02,0.006-9.799-4.012-9.803-9.912c-0.002-5.33,4.426-9.75,9.764-9.742c5.713,0.008,9.857,4.5,9.908,9.809
			C352.778,441.545,348.282,445.999,342.86,445.983z M397.78,513.524c-5.461-0.016-9.859-4.432-9.801-9.881
			c0.061-5.646,4.779-9.891,9.955-9.729c4.66-0.068,9.746,3.754,9.695,9.984C407.586,509.28,403.157,513.54,397.78,513.524z
			 M452.965,362.904c-5.443,0.02-9.879-4.405-9.855-9.841c0.02-5.318,4.145-9.743,9.676-9.81c6.127-0.074,9.996,4.954,9.957,9.729
			C462.782,358.437,458.399,362.884,452.965,362.904z M507.762,433.125c-4.969-0.061-9.678-3.809-9.734-9.75
			c-0.059-5.705,4.389-9.895,9.781-9.896c5.855-0.002,9.85,4.686,9.855,9.842C517.655,428.747,513.188,433.194,507.762,433.125z
			 M549.362,560.465c-1.566,1.271-26.846,16.865-28.344,17.49c-0.482-0.518-0.273-1.168-0.273-1.752
			c-0.01-7.576,0-15.152,0.006-22.729c0.008-11.57,0.014-23.143,0.031-34.713c0.029-22.658,0.066-45.316,0.1-67.975
			c0.002-0.686,0.002-1.367,0.002-2.092c6.758-3.812,11.531-9.209,13.918-16.564c1.887-5.811,1.879-11.648,0.002-17.463
			c-3.768-11.67-14.461-19.584-26.777-19.705c-13.271-0.131-23.48,8.502-27.119,18.951c-1.498,4.299-1.986,8.695-1.373,13.223
			c0.621,4.594,2.244,8.781,4.893,12.576c2.605,3.732,5.984,6.617,9.967,8.854c-0.059,48.723-0.119,97.338-0.178,145.84
			c-0.092,0.17-0.117,0.232-0.154,0.289c-0.039,0.057-0.08,0.117-0.135,0.154c-0.396,0.273-0.787,0.555-1.195,0.807
			c-8.666,5.355-17.336,10.709-26.006,16.059c-0.115,0.072-0.242,0.129-0.367,0.184c-0.062,0.027-0.135,0.047-0.201,0.043
			c-0.062-0.002-0.123-0.041-0.254-0.088c-0.041-0.141-0.143-0.322-0.143-0.506c0.068-77.611,0.143-155.227,0.219-232.77
			c14.043-7.981,17.574-22.785,13.992-33.938c-3.848-11.99-14.799-19.795-26.861-19.896c-12.33-0.104-23.293,7.649-27.246,19.35
			c-2.225,6.589-2.041,13.144,0.521,19.598c2.562,6.457,7.043,11.262,13.104,14.672c-0.088,83.465-0.176,166.857-0.264,250.158
			c-1.746,1.395-26.715,16.781-28.182,17.387c-0.416-0.174-0.311-0.559-0.32-0.877c-0.021-0.688-0.01-1.377-0.01-2.064
			c0.006-18.596,0.008-37.191,0.021-55.787s0.039-37.189,0.059-55.785c0.002-0.688,0-1.375,0-2.18
			c0.629-0.402,1.256-0.803,1.883-1.205c6.953-4.473,11.389-10.701,12.941-18.852c2.506-13.166-4.258-25.279-15.111-30.727
			c-16.803-8.434-36.762,1.285-40.631,19.492c-2.598,12.23,2.85,23.664,12.539,29.887c0.576,0.369,1.162,0.721,1.668,1.033
			c0.078,0.154,0.115,0.213,0.139,0.277c0.023,0.062,0.045,0.131,0.049,0.199c0.02,0.342,0.051,0.686,0.051,1.027
			c-0.027,43.873-0.057,87.744-0.09,131.615c0,0.203-0.055,0.406-0.08,0.59c-1.502,1.211-26.502,16.654-28.074,17.346
			c-0.436-0.156-0.312-0.547-0.33-0.861c-0.025-0.412-0.008-0.826-0.008-1.238c0.023-42.426,0.047-84.852,0.076-127.275
			c0.018-25.689,0.045-51.381,0.068-77.068c0.004-3.238,0.012-6.475,0.016-9.711c0.002-0.686,0-1.367,0-1.916
			c0.57-0.797,1.324-1.027,1.949-1.432c6.814-4.404,11.152-10.535,12.803-18.496c2.684-12.947-4.014-25.971-15.887-31.432
			c-17.301-7.957-37.002,2.754-40.053,21.203c-1.941,11.752,3.701,22.797,12.697,28.506c0.635,0.402,1.264,0.812,1.859,1.197
			c0,78.459,0,156.828,0,235.285c-5.947,3.678-11.85,7.326-17.583,10.871c-0.296,0-0.364,0.008-0.43-0.002
			c-0.066-0.012-0.139-0.029-0.195-0.064c-0.886-0.531-1.772-1.059-2.651-1.602c-74.076-45.779-148.151-91.562-222.225-137.346
			c-0.115-0.07-0.206-0.18-0.294-0.26c-0.122-0.627,0.379-0.863,0.691-1.18c2.716-2.736,5.448-5.459,8.176-8.188
			c143.726-143.717,287.453-287.433,431.181-431.15c7.158-7.158,14.314-14.32,21.482-21.47c0.52-0.517,0.945-1.17,1.941-1.549
			C549.362,256.833,549.362,408.678,549.362,560.465z"/>
	</g>
</g>
</svg>
