<?xml version="1.0" encoding="utf-8"?>
<!-- Generator: Adobe Illustrator 19.2.0, SVG Export Plug-In . SVG Version: 6.00 Build 0)  -->
<svg version="1.1" id="Layer_1" xmlns="http://www.w3.org/2000/svg" xmlns:xlink="http://www.w3.org/1999/xlink" x="0px" y="0px"
	 viewBox="0 0 500.4 575.6" style="enable-background:new 0 0 500.4 575.6;" xml:space="preserve">
<style type="text/css">
	.st0{enable-background:new    ;}
	.st1{fill:#AE8AB7;}
</style>
<g class="st0">
	<path class="st1" d="M0,574.3v-96.6h23.7c38.2,0,45.3,18.2,45.3,49.3c0,27.7-8.1,47.3-43.5,47.3L0,574.3L0,574.3z M6.9,483.9V568
		h18.6c29.1,0,36.6-16,36.6-41.1c0-28.4-6.3-43.1-38.4-43.1L6.9,483.9L6.9,483.9z"/>
	<path class="st1" d="M111.6,575.6c-13,0-21.3-7-21.3-24.1v-46.2h6.9v46.2c0,12.3,6.2,17.9,15.5,17.9c12.7,0,22.4-10.3,22.4-28.4
		v-35.7h6.9v43.9c0,9.2,0.4,17,1.5,25.1h-6.9c-0.8-4-1.4-7.6-1.5-12.1C130,570.8,121.7,575.6,111.6,575.6z"/>
	<path class="st1" d="M196.4,511.6c-2.3-1-4.8-1.5-7-1.5c-9.2,0-17,8.3-17,26.2v38h-6.9v-69h6.9v9.5c3.6-7.3,9.7-10.9,17-10.9
		c2.8,0,5.7,0.4,8.6,1.4L196.4,511.6z"/>
</g>
<g class="st0">
	<path class="st1" d="M220,524.2h53.8v-46.5h6.9v96.6h-6.9v-43.9H220v43.9h-6.9v-96.6h6.9L220,524.2L220,524.2z"/>
	<path class="st1" d="M344.9,574.3c-0.8-4-1.4-7.9-1.5-12.4c-6.3,9.2-16.1,13.8-25,13.8c-11.9,0-19.7-6.5-19.7-19.7
		c0-14.5,9.4-22.5,27.2-22.5c5.2,0,11,0.7,17.5,2.1v-9.1c0-11.2-7.5-16.3-17-16.3c-8.7,0-15.5,4.3-17,11.9l-6.9-1
		c1.8-11,11.9-17.1,24-17.1c13,0,23.7,7,23.7,22.5v22.8c0,9.2,0.4,17,1.5,25.1H344.9z M343.3,541.7c-6.8-1.4-12.7-2.1-17.5-2.1
		c-14.1,0-20.3,5.5-20.3,16.3c0,9.4,5,13.5,13.1,13.5c10.9,0,24.7-9.7,24.7-25.7V541.7z"/>
	<path class="st1" d="M427.5,558.1c-4.3,10.9-13.2,17.5-26.8,17.5c-19.9,0-29.8-14.4-29.8-35.9c0-21.5,9.9-35.9,29.8-35.9
		c12.6,0,21.3,5.8,25.8,15.5l-5.9,3.5c-3.5-8-10.1-12.7-19.9-12.7c-15.5,0-22.9,11.7-22.9,29.7c0,17.9,7.5,29.7,22.9,29.7
		c10.2,0,16.8-5.1,20.3-13.8L427.5,558.1z"/>
	<path class="st1" d="M451.7,545l37.3-39.7h9L472.8,532c8.1,2.1,12.1,5.5,17,16.8l10.6,25.4h-7.5l-9.7-23
		c-3.9-9.1-6.5-11.7-15.3-14.1l-16.3,17.4v19.7h-6.9V473.5h6.9L451.7,545L451.7,545z"/>
</g>
<g>
	<g>
		<path class="st1" d="M400.9,0c-1,0.9-1.9,1.9-2.9,2.8c-1,1-2,2-3,3c-1,1-1.9,1.9-2.9,2.9c-1,1-2,2-3,3c-1,1-1.9,1.9-2.9,2.9
			c-1,1-2,2-3,3c-1,1-1.9,1.9-2.9,2.9c-91.9,0-183.7,0-275.7,0c0,92,0,183.8,0,275.8c-6.7,6.7-13.4,13.4-20.1,20.1
			c0,0,0,0.1-0.1,0.1c0,0,0,0.1,0,0.1c0.2,0.2,0.4,0.5,0.7,0.7c0.8,0.8,1.7,1.7,2.5,2.5c4,4,8,8,12,12c0.3,0.3,0.5,0.6,0.9,0.8
			c0.3-0.3,0.6-0.6,0.9-0.8c4.2-4.2,8.3-8.3,12.5-12.5c0.3-0.3,0.5-0.6,0.9-0.8c0.4,0.3,0.8,0.5,1.2,0.7c7.4,4.6,14.9,9.2,22.3,13.8
			c29.5,18.2,59,36.5,88.5,54.7c7.5,4.6,15,9.3,22.5,13.9c0.4,0.2,0.7,0.5,1.2,0.6c0.3-0.2,0.6-0.3,0.9-0.5c3.2-2,6.4-3.9,9.6-5.9
			c24.3-15,48.6-30,72.9-45c4.9-3,9.9-6.1,14.8-9.1c4.9-3,9.8-6.1,14.7-9.1c10.6-6.6,21.3-13.2,31.9-19.7c0.4-0.2,0.7-0.5,1.1-0.7
			c0-0.6,0-1.2,0-1.7c0-90.8,0-181.5,0-272.3c0-1.6-0.2-1.1,0.9-2.2c6.3-6.3,12.6-12.6,18.8-18.9c0.3-0.3,0.6-0.5,0.8-0.9
			C415.8,14.7,401.6,0.5,400.9,0z M137.3,68.9c0.2,0,0.3-0.1,0.5-0.1c3.5,0,7.1,0,10.6,0c0.1,0,0.2,0,0.4,0.1
			c8.1,8.2,16.3,16.4,24.6,24.6c-0.2,0.2-0.4,0.4-0.5,0.6c-7.8,7.8-15.6,15.7-23.4,23.5c-0.5,0.5-1,0.7-1.6,0.7c-3.1,0-6.2,0-9.4,0
			c-0.4,0-0.7,0.1-1.1-0.1c0-0.3-0.1-0.6-0.1-0.8c0-3.5,0-7,0-10.6c0-0.6,0.2-1.1,0.7-1.5c3.6-3.6,7.1-7.1,10.6-10.7
			c0.3-0.3,0.6-0.6,0.9-0.9c-2-2.1-4.1-4.1-6.1-6.1c-2-2-4-4.1-6.1-6.1C137.1,78.7,137.2,69.9,137.3,68.9z M267.4,237.8
			c-2.7,0-5.2-2.1-5.2-5.3c0-2.8,2.4-5.2,5.2-5.2c3,0,5.3,2.4,5.3,5.2C272.6,235.4,270.2,237.8,267.4,237.8z M296.6,273.8
			c-2.9,0-5.3-2.4-5.2-5.3c0-3,2.5-5.3,5.3-5.2c2.5,0,5.2,2,5.2,5.3C301.9,271.5,299.5,273.8,296.6,273.8z M326.1,193.5
			c-2.9,0-5.3-2.3-5.3-5.2c0-2.8,2.2-5.2,5.2-5.2c3.3,0,5.3,2.6,5.3,5.2C331.3,191.1,328.9,193.5,326.1,193.5z M355.3,230.9
			c-2.6,0-5.2-2-5.2-5.2c0-3,2.3-5.3,5.2-5.3c3.1,0,5.3,2.5,5.3,5.2C360.5,228.6,358.2,230.9,355.3,230.9z M377.4,298.8
			c-0.8,0.7-14.3,9-15.1,9.3c-0.3-0.3-0.1-0.6-0.1-0.9c0-4,0-8.1,0-12.1c0-6.2,0-12.3,0-18.5c0-12.1,0-24.2,0.1-36.2
			c0-0.4,0-0.7,0-1.1c3.6-2,6.1-4.9,7.4-8.8c1-3.1,1-6.2,0-9.3c-2-6.2-7.7-10.4-14.3-10.5c-7.1-0.1-12.5,4.5-14.5,10.1
			c-0.8,2.3-1.1,4.6-0.7,7c0.3,2.4,1.2,4.7,2.6,6.7c1.4,2,3.2,3.5,5.3,4.7c0,26-0.1,51.9-0.1,77.8c0,0.1-0.1,0.1-0.1,0.2
			c0,0,0,0.1-0.1,0.1c-0.2,0.1-0.4,0.3-0.6,0.4c-4.6,2.9-9.2,5.7-13.9,8.6c-0.1,0-0.1,0.1-0.2,0.1c0,0-0.1,0-0.1,0c0,0-0.1,0-0.1,0
			c0-0.1-0.1-0.2-0.1-0.3c0-41.4,0.1-82.8,0.1-124.1c7.5-4.3,9.4-12.1,7.5-18.1c-2.1-6.4-7.9-10.6-14.3-10.6
			c-6.6-0.1-12.4,4.1-14.5,10.3c-1.2,3.5-1.1,7,0.3,10.4c1.4,3.4,3.8,6,7,7.8c0,44.5-0.1,89-0.1,133.4c-0.9,0.7-14.2,8.9-15,9.3
			c-0.2-0.1-0.2-0.3-0.2-0.5c0-0.4,0-0.7,0-1.1c0-9.9,0-19.8,0-29.7s0-19.8,0-29.7c0-0.4,0-0.7,0-1.2c0.3-0.2,0.7-0.4,1-0.6
			c3.7-2.4,6.1-5.7,6.9-10.1c1.3-7-2.3-13.5-8.1-16.4c-9-4.5-19.6,0.7-21.7,10.4c-1.4,6.5,1.5,12.6,6.7,15.9
			c0.3,0.2,0.6,0.4,0.9,0.6c0,0.1,0.1,0.1,0.1,0.1c0,0,0,0.1,0,0.1c0,0.2,0,0.4,0,0.5c0,23.4,0,46.8,0,70.2c0,0.1,0,0.2,0,0.3
			c-0.8,0.6-14.1,8.9-15,9.2c-0.2-0.1-0.2-0.3-0.2-0.5c0-0.2,0-0.4,0-0.7c0-22.6,0-45.2,0-67.9c0-13.7,0-27.4,0-41.1
			c0-1.7,0-3.5,0-5.2c0-0.4,0-0.7,0-1c0.3-0.4,0.7-0.5,1-0.8c3.6-2.3,5.9-5.6,6.8-9.9c1.4-6.9-2.1-13.8-8.5-16.8
			c-9.2-4.2-19.7,1.5-21.4,11.3c-1,6.3,2,12.2,6.8,15.2c0.3,0.2,0.7,0.4,1,0.6c0,41.8,0,83.6,0,125.4c-3.2,2-6.3,3.9-9.4,5.8
			c-0.2,0-0.2,0-0.2,0c0,0-0.1,0-0.1,0c-0.5-0.3-0.9-0.6-1.4-0.9c-39.5-24.4-79-48.8-118.5-73.2c-0.1,0-0.1-0.1-0.2-0.1
			c-0.1-0.3,0.2-0.5,0.4-0.6c1.4-1.5,2.9-2.9,4.4-4.4C211.7,221.3,288.3,144.7,365,68.1c3.8-3.8,7.6-7.6,11.5-11.4
			c0.3-0.3,0.5-0.6,1-0.8C377.4,136.9,377.4,217.9,377.4,298.8z"/>
	</g>
</g>
</svg>
