<?xml version="1.0" encoding="utf-8"?>
<!-- Generator: Adobe Illustrator 19.2.0, SVG Export Plug-In . SVG Version: 6.00 Build 0)  -->
<svg version="1.1" id="Layer_1" xmlns="http://www.w3.org/2000/svg" xmlns:xlink="http://www.w3.org/1999/xlink" x="0px" y="0px"
	 viewBox="0 0 518.5 758.5" style="enable-background:new 0 0 518.5 758.5;" xml:space="preserve">
<style type="text/css">
	.st0{fill:#7F3F98;stroke:#000000;stroke-miterlimit:10;}
	.st1{fill:none;}
	.st2{fill:#C45AEB;}
</style>
<polyline class="st0" points="313.1,286.4 313.1,286.4 313.1,286.4 313.1,286.4 "/>
<polyline class="st0" points="373.8,286.4 373.8,286.4 373.8,286.4 373.8,286.4 "/>
<g>
	<path class="st1" d="M165.1,213.8c1.8,1.8,3.5,3.5,5.3,5.4c-0.3,0.3-0.5,0.6-0.8,0.8c-3.1,3.1-6.2,6.3-9.3,9.4
		c-0.4,0.4-0.6,0.8-0.6,1.3c0,3.1,0,6.2,0,9.3c0,0.2,0,0.5,0.1,0.7c0.3,0.2,0.7,0.1,1,0.1c2.7,0,5.5,0,8.2,0c0.6,0,1-0.2,1.4-0.6
		c6.8-6.9,13.7-13.7,20.5-20.6c0.2-0.2,0.3-0.3,0.5-0.5c-7.2-7.2-14.4-14.4-21.5-21.6c-0.2,0-0.3,0-0.4,0c-3.1,0-6.2,0-9.3,0
		c-0.1,0-0.3,0.1-0.4,0.1c-0.1,0.8-0.2,8.6-0.1,10.8C161.6,210.2,163.3,212,165.1,213.8z"/>
	<path class="st1" d="M273.8,336.3c-2.5,0-4.6,2.1-4.6,4.5c0,2.8,2.2,4.6,4.6,4.6c2.5,0,4.6-2.1,4.6-4.6
		C278.4,338.4,276.4,336.4,273.8,336.3z"/>
	<path class="st1" d="M299.5,367.9c-2.4-0.1-4.6,1.9-4.6,4.5c0,2.5,2,4.6,4.6,4.6c2.5,0,4.6-2,4.6-4.5
		C304.1,369.7,301.7,367.9,299.5,367.9z"/>
	<path class="st1" d="M369.3,186.9c-3.3,3.3-6.7,6.7-10,10C292.2,264,225,331.1,157.9,398.3c-1.3,1.3-2.6,2.5-3.8,3.8
		c-0.1,0.1-0.4,0.3-0.3,0.6c0,0,0.1,0.1,0.1,0.1c34.6,21.4,69.2,42.8,103.8,64.1c0.4,0.3,0.8,0.5,1.2,0.7c0,0,0.1,0,0.1,0
		c0,0,0.1,0,0.2,0c2.7-1.7,5.4-3.4,8.2-5.1c0-36.6,0-73.2,0-109.9c-0.3-0.2-0.6-0.4-0.9-0.6c-4.2-2.7-6.8-7.8-5.9-13.3
		c1.4-8.6,10.6-13.6,18.7-9.9c5.5,2.6,8.7,8.6,7.4,14.7c-0.8,3.7-2.8,6.6-6,8.6c-0.3,0.2-0.6,0.3-0.9,0.7c0,0.3,0,0.6,0,0.9
		c0,1.5,0,3,0,4.5c0,12,0,24,0,36c0,19.8,0,39.6,0,59.4c0,0.2,0,0.4,0,0.6c0,0.1,0,0.3,0.2,0.4c0.7-0.3,12.4-7.5,13.1-8.1
		c0-0.1,0-0.2,0-0.3c0-20.5,0-41,0-61.5c0-0.2,0-0.3,0-0.5c0,0,0-0.1,0-0.1c0,0,0-0.1-0.1-0.1c-0.2-0.1-0.5-0.3-0.8-0.5
		c-4.5-2.9-7.1-8.2-5.9-14c1.8-8.5,11.1-13,19-9.1c5.1,2.5,8.2,8.2,7.1,14.4c-0.7,3.8-2.8,6.7-6,8.8c-0.3,0.2-0.6,0.4-0.9,0.6
		c0,0.4,0,0.7,0,1c0,8.7,0,17.4,0,26.1c0,8.7,0,17.4,0,26.1c0,0.3,0,0.6,0,1c0,0.1,0,0.3,0.1,0.4c0.7-0.3,12.3-7.5,13.2-8.1
		c0-38.9,0.1-77.9,0.1-116.8c-2.8-1.6-4.9-3.8-6.1-6.9c-1.2-3-1.3-6.1-0.2-9.2c1.8-5.5,7-9.1,12.7-9c5.6,0,10.8,3.7,12.5,9.3
		c1.7,5.2,0,12.1-6.5,15.9c0,36.2-0.1,72.5-0.1,108.7c0,0.1,0,0.2,0.1,0.2c0.1,0,0.1,0,0.1,0c0,0,0.1,0,0.1,0c0.1,0,0.1-0.1,0.2-0.1
		c4.1-2.5,8.1-5,12.1-7.5c0.2-0.1,0.4-0.2,0.6-0.4c0,0,0,0,0.1-0.1c0,0,0-0.1,0.1-0.1c0-22.7,0.1-45.4,0.1-68.1
		c-1.9-1-3.4-2.4-4.7-4.1c-1.2-1.8-2-3.7-2.3-5.9c-0.3-2.1-0.1-4.2,0.6-6.2c1.7-4.9,6.5-8.9,12.7-8.9c5.8,0.1,10.7,3.8,12.5,9.2
		c0.9,2.7,0.9,5.4,0,8.2c-1.1,3.4-3.3,6-6.5,7.7c0,0.3,0,0.7,0,1c0,10.6,0,21.2,0,31.7c0,5.4,0,10.8,0,16.2c0,3.5,0,7.1,0,10.6
		c0,0.3-0.1,0.6,0.1,0.8c0.7-0.3,12.5-7.6,13.2-8.2c0-70.9,0-141.8,0-212.9C369.8,186.3,369.6,186.6,369.3,186.9z"/>
	<path class="st1" d="M325.1,297.5c-2.6,0-4.5,2.1-4.5,4.6c0,2.5,2.1,4.6,4.6,4.6c2.5,0,4.6-2.1,4.6-4.6
		C329.8,299.9,328,297.5,325.1,297.5z"/>
	<path class="st1" d="M350.8,330.3c-2.5,0-4.6,2-4.6,4.6c0,2.8,2.2,4.5,4.5,4.6c2.5,0,4.6-2,4.6-4.6
		C355.4,332.5,353.6,330.3,350.8,330.3z"/>
</g>
<g>
	<path class="st2" d="M325.1,297.5c-2.6,0-4.5,2.1-4.5,4.6c0,2.5,2.1,4.6,4.6,4.6c2.5,0,4.6-2.1,4.6-4.6
		C329.8,299.9,328,297.5,325.1,297.5z"/>
	<path class="st2" d="M299.5,367.9c-2.4-0.1-4.6,1.9-4.6,4.5c0,2.5,2,4.6,4.6,4.6c2.5,0,4.6-2,4.6-4.5
		C304.1,369.7,301.7,367.9,299.5,367.9z"/>
	<path class="st2" d="M300.2,623.5c0,7,3.7,10,9.7,10c8.1,0,18.3-7.2,18.3-19v-1.5c-5-1-9.4-1.5-13-1.5
		C304.8,611.4,300.2,615.5,300.2,623.5z"/>
	<path class="st2" d="M165.1,213.8c1.8,1.8,3.5,3.5,5.3,5.4c-0.3,0.3-0.5,0.6-0.8,0.8c-3.1,3.1-6.2,6.3-9.3,9.4
		c-0.4,0.4-0.6,0.8-0.6,1.3c0,3.1,0,6.2,0,9.3c0,0.2,0,0.5,0.1,0.7c0.3,0.2,0.7,0.1,1,0.1c2.7,0,5.5,0,8.2,0c0.6,0,1-0.2,1.4-0.6
		c6.8-6.9,13.7-13.7,20.5-20.6c0.2-0.2,0.3-0.3,0.5-0.5c-7.2-7.2-14.4-14.4-21.5-21.6c-0.2,0-0.3,0-0.4,0c-3.1,0-6.2,0-9.3,0
		c-0.1,0-0.3,0.1-0.4,0.1c-0.1,0.8-0.2,8.6-0.1,10.8C161.6,210.2,163.3,212,165.1,213.8z"/>
	<path class="st2" d="M273.8,336.3c-2.5,0-4.6,2.1-4.6,4.5c0,2.8,2.2,4.6,4.6,4.6c2.5,0,4.6-2.1,4.6-4.6
		C278.4,338.4,276.4,336.4,273.8,336.3z"/>
	<path class="st2" d="M350.8,330.3c-2.5,0-4.6,2-4.6,4.6c0,2.8,2.2,4.5,4.5,4.6c2.5,0,4.6-2,4.6-4.6
		C355.4,332.5,353.6,330.3,350.8,330.3z"/>
	<path class="st2" d="M506,0.5H12.5c-6.6,0-12,4.8-12,10.7v736.1c0,5.9,5.4,10.7,12,10.7H506c6.6,0,12-4.8,12-10.7V11.2
		C518,5.3,512.6,0.5,506,0.5z M92.8,637.1H73.8v-71.6h17.6c28.3,0,33.5,13.5,33.5,36.5C125,622.5,118.9,637.1,92.8,637.1z
		 M175.1,637.1c-0.6-3-1-5.6-1.1-9c-3.8,6.4-9.9,10-17.4,10c-9.6,0-15.7-5.2-15.7-17.9v-34.3h5.1v34.3c0,9.1,4.6,13.3,11.5,13.3
		c9.4,0,16.6-7.7,16.6-21.1v-26.5h5.1v32.5c0,6.9,0.3,12.6,1.1,18.6L175.1,637.1L175.1,637.1L175.1,637.1z M219.4,590.6
		c-1.7-0.7-3.6-1.1-5.2-1.1c-6.9,0-12.6,6.1-12.6,19.4v28.1h-5.1v-51.1h5.1v7.1c2.7-5.4,7.2-8.1,12.6-8.1c2,0,4.2,0.3,6.3,1
		L219.4,590.6z M281.8,637.1h-5.1v-32.5h-39.9v32.5h-5.1v-71.6h5.1v34.5h39.9v-34.5h5.1V637.1z M329.4,637.1c-0.6-3-1-5.8-1.1-9.2
		c-4.7,6.9-12,10.2-18.5,10.2c-8.8,0-14.6-4.8-14.6-14.6c0-10.7,7-16.7,20.1-16.7c3.9,0,8.2,0.5,13,1.5v-6.7
		c0-8.3-5.5-12.1-12.6-12.1c-6.4,0-11.5,3.2-12.6,8.8l-5.1-0.7c1.3-8.2,8.8-12.7,17.8-12.7c9.6,0,17.6,5.2,17.6,16.7v16.9
		c0,6.9,0.3,12.6,1.1,18.6L329.4,637.1L329.4,637.1z M332.1,444.4c-21.3,13.1-42.6,26.3-63.9,39.4c-2.8,1.7-5.6,3.4-8.4,5.2
		c-0.2,0.1-0.5,0.3-0.8,0.4c-0.4-0.1-0.7-0.3-1-0.5c-6.6-4.1-13.1-8.1-19.7-12.2c-25.8-16-51.7-31.9-77.5-47.9
		c-6.5-4-13-8-19.5-12.1c-0.4-0.2-0.7-0.4-1.1-0.6c-0.4,0.2-0.6,0.5-0.8,0.7c-3.6,3.6-7.3,7.3-10.9,10.9c-0.2,0.2-0.5,0.5-0.8,0.7
		c-0.4-0.1-0.6-0.4-0.8-0.7c-3.5-3.5-7-7-10.5-10.5c-0.7-0.7-1.5-1.5-2.2-2.2c-0.2-0.2-0.4-0.4-0.6-0.6c0-0.1,0-0.1,0-0.1
		c0,0,0-0.1,0-0.1c5.9-5.9,11.8-11.7,17.6-17.6c0-80.5,0-161,0-241.6c80.6,0,161,0,241.5,0c0.9-0.9,1.7-1.7,2.5-2.5
		c0.9-0.9,1.7-1.7,2.6-2.6c0.8-0.8,1.7-1.7,2.5-2.5c0.9-0.9,1.7-1.7,2.6-2.6c0.8-0.8,1.7-1.7,2.5-2.5c0.9-0.9,1.7-1.7,2.6-2.6
		c0.8-0.8,1.6-1.7,2.5-2.5c0.6,0.5,13.1,12.9,14.1,14c-0.1,0.3-0.4,0.5-0.7,0.8c-5.5,5.5-11,11-16.5,16.5c-0.9,0.9-0.8,0.5-0.8,1.9
		c0,79.5,0,159,0,238.5c0,0.5,0,1,0,1.5c-0.3,0.2-0.6,0.4-1,0.6c-9.3,5.8-18.6,11.5-28,17.3c-4.3,2.7-8.6,5.3-12.9,8
		C340.8,439,336.4,441.7,332.1,444.4z M370.8,638.1c-14.7,0-22.1-10.6-22.1-26.6s7.4-26.6,22.1-26.6c9.3,0,15.7,4.3,19.1,11.5
		l-4.4,2.6c-2.6-5.9-7.5-9.4-14.7-9.4c-11.5,0-17,8.7-17,22c0,13.3,5.5,22,17,22c7.6,0,12.5-3.8,15-10.2l4.8,1.8
		C387.5,633.2,380.8,638.1,370.8,638.1z M439.1,637.1L432,620c-2.9-6.8-4.8-8.7-11.4-10.4l-12.1,12.9v14.6h-5.1v-74.6h5.1v53
		l27.6-29.5h6.6l-18.6,19.8c6,1.5,9,4.1,12.6,12.5l7.9,18.8L439.1,637.1L439.1,637.1z"/>
	<path class="st2" d="M370.2,186.1c-0.5,0.2-0.7,0.5-0.9,0.7c-3.3,3.3-6.7,6.7-10,10C292.2,264,225,331.1,157.9,398.3
		c-1.3,1.3-2.6,2.5-3.8,3.8c-0.1,0.1-0.4,0.3-0.3,0.6c0,0,0.1,0.1,0.1,0.1c34.6,21.4,69.2,42.8,103.8,64.1c0.4,0.3,0.8,0.5,1.2,0.7
		c0,0,0.1,0,0.1,0c0,0,0.1,0,0.2,0c2.7-1.7,5.4-3.4,8.2-5.1c0-36.6,0-73.2,0-109.9c-0.3-0.2-0.6-0.4-0.9-0.6
		c-4.2-2.7-6.8-7.8-5.9-13.3c1.4-8.6,10.6-13.6,18.7-9.9c5.5,2.6,8.7,8.6,7.4,14.7c-0.8,3.7-2.8,6.6-6,8.6c-0.3,0.2-0.6,0.3-0.9,0.7
		c0,0.3,0,0.6,0,0.9c0,1.5,0,3,0,4.5c0,12,0,24,0,36c0,19.8,0,39.6,0,59.4c0,0.2,0,0.4,0,0.6c0,0.1,0,0.3,0.2,0.4
		c0.7-0.3,12.4-7.5,13.1-8.1c0-0.1,0-0.2,0-0.3c0-20.5,0-41,0-61.5c0-0.2,0-0.3,0-0.5c0,0,0-0.1,0-0.1c0,0,0-0.1-0.1-0.1
		c-0.2-0.1-0.5-0.3-0.8-0.5c-4.5-2.9-7.1-8.2-5.9-14c1.8-8.5,11.1-13,19-9.1c5.1,2.5,8.2,8.2,7.1,14.4c-0.7,3.8-2.8,6.7-6,8.8
		c-0.3,0.2-0.6,0.4-0.9,0.6c0,0.4,0,0.7,0,1c0,8.7,0,17.4,0,26.1c0,8.7,0,17.4,0,26.1c0,0.3,0,0.6,0,1c0,0.1,0,0.3,0.1,0.4
		c0.7-0.3,12.3-7.5,13.2-8.1c0-38.9,0.1-77.9,0.1-116.8c-2.8-1.6-4.9-3.8-6.1-6.9c-1.2-3-1.3-6.1-0.2-9.2c1.8-5.5,7-9.1,12.7-9
		c5.6,0,10.8,3.7,12.5,9.3c1.7,5.2,0,12.1-6.5,15.9c0,36.2-0.1,72.5-0.1,108.7c0,0.1,0,0.2,0.1,0.2c0.1,0,0.1,0,0.1,0
		c0,0,0.1,0,0.1,0c0.1,0,0.1-0.1,0.2-0.1c4.1-2.5,8.1-5,12.1-7.5c0.2-0.1,0.4-0.2,0.6-0.4c0,0,0,0,0.1-0.1c0,0,0-0.1,0.1-0.1
		c0-22.7,0.1-45.4,0.1-68.1c-1.9-1-3.4-2.4-4.7-4.1c-1.2-1.8-2-3.7-2.3-5.9c-0.3-2.1-0.1-4.2,0.6-6.2c1.7-4.9,6.5-8.9,12.7-8.9
		c5.8,0.1,10.7,3.8,12.5,9.2c0.9,2.7,0.9,5.4,0,8.2c-1.1,3.4-3.3,6-6.5,7.7c0,0.3,0,0.7,0,1c0,10.6,0,21.2,0,31.7
		c0,5.4,0,10.8,0,16.2c0,3.5,0,7.1,0,10.6c0,0.3-0.1,0.6,0.1,0.8c0.7-0.3,12.5-7.6,13.2-8.2C370.2,328.1,370.2,257.2,370.2,186.1z"
		/>
	<path class="st2" d="M91.4,570.1H79v62.4h13.8c21.6,0,27.1-11.9,27.1-30.5C119.9,580.9,115.2,570.1,91.4,570.1z"/>
</g>
</svg>
